<svg version="1.1" xmlns="http://www.w3.org/2000/svg" xmlns:xlink="http://www.w3.org/1999/xlink" width="662" height="373" viewBox="0,0,662,373"><defs><linearGradient x1="319" y1="-7.35" x2="319" y2="365.65" gradientUnits="userSpaceOnUse" id="color-1"><stop offset="0" stop-color="#00b5ff"/><stop offset="1" stop-color="#000000"/></linearGradient><linearGradient x1="409.52241" y1="88.2444" x2="409.52241" y2="104.2444" gradientUnits="userSpaceOnUse" id="color-2"><stop offset="0" stop-color="#ff0000" stop-opacity="0"/><stop offset="1" stop-color="#ff0000"/></linearGradient><linearGradient x1="411.80682" y1="63.5" x2="411.80682" y2="95.5" gradientUnits="userSpaceOnUse" id="color-3"><stop offset="0" stop-color="#ff0000" stop-opacity="0"/><stop offset="1" stop-color="#ff0000"/></linearGradient></defs><g transform="translate(12,7.35)"><g data-paper-data="{&quot;isPaintingLayer&quot;:true}" fill-rule="nonzero" stroke-linejoin="miter" stroke-miterlimit="10" stroke-dasharray="" stroke-dashoffset="0" style="mix-blend-mode: normal"><path d="M-12,365.65v-373h662v373z" fill="url(#color-1)" stroke="none" stroke-width="0.5" stroke-linecap="butt"/><path d="M409.52246,88.2444c5.1502,0 9.8168,0.8966 13.1958,2.3449c3.379,1.4477 5.4708,3.4477 5.4708,5.6551c0,2.2075 -2.0918,4.2075 -5.4708,5.6552c-3.379,1.4483 -8.0456,2.3448 -13.1958,2.3448c-5.1503,0 -9.8169,-0.8965 -13.1959,-2.3448c-3.379,-1.4477 -5.4708,-3.4477 -5.4708,-5.6552c0,-2.2074 2.0918,-4.2074 5.4708,-5.6551c3.379,-1.4483 8.0456,-2.3449 13.1959,-2.3449z" fill="url(#color-2)" stroke="none" stroke-width="0.59259" stroke-linecap="butt"/><path d="M-4.43147,251h229.38279c76.38447,0 87.16818,-43.373 118.08463,-74l42.07613,-81l48.86261,-1c16.27125,-0.333 29.8917,64.231 55.64908,92c24.48831,24.873 59.35857,43.708 92.29603,63l21.71671,1h43.43343v68h-651.50142z" fill="#343434" stroke="#000000" stroke-width="2" stroke-linecap="butt"/><path d="M387.20585,63.5h49.20193v32h-49.20193z" fill="url(#color-3)" stroke="none" stroke-width="1.03362" stroke-linecap="round"/><g stroke="#000000" stroke-width="1"><path d="M107,252.4l9.5,-0.25l0.25,43.75h-9.25z" fill="#663b00" stroke-linecap="butt"/><path d="M97.75,252.15l15,-41l13,41z" fill="#cc0000" stroke-linecap="round"/></g><g stroke="#000000" stroke-width="1"><path d="M224.25,271.35l9.5,-0.25l0.25,43.75h-9.25z" fill="#663b00" stroke-linecap="butt"/><path d="M215,271.1l15,-41l13,41z" fill="#cc7700" stroke-linecap="round"/></g><g stroke="#000000" stroke-width="1"><path d="M434.25,270.35l9.5,-0.25l0.25,43.75h-9.25z" fill="#663b00" stroke-linecap="butt"/><path d="M425,270.1l15,-41l13,41z" fill="#cccc00" stroke-linecap="round"/></g><g stroke="#000000" stroke-width="1"><path d="M504.25,270.85l9.5,-0.25l0.25,43.75h-9.25z" fill="#663b00" stroke-linecap="butt"/><path d="M495,270.6l15,-41l13,41z" fill="#cc0000" stroke-linecap="round"/></g><g stroke="#000000" stroke-width="1"><path d="M339,272l9.5,-0.25l0.25,43.75h-9.25z" fill="#663b00" stroke-linecap="butt"/><path d="M329.75,271.75l15,-41l13,41z" fill="#cc0000" stroke-linecap="round"/></g><g fill="#4c4c4c" stroke="#000000" stroke-width="1.5"><path d="M380.8677,295.1224l18.0268,-11.6624l15.7254,11.6624z" stroke-linecap="round"/><path d="M385.4045,295.1959h24.9306v21.4786h-24.9306z" stroke-linecap="butt"/><path d="M392.6913,304.4339h9.9722v12.2735h-9.9722z" stroke-linecap="butt"/></g><g fill="#4c4c4c" stroke="#000000" stroke-width="1.5"><path d="M355.5677,295.0224l18.0268,-11.6624l15.7254,11.6624z" stroke-linecap="round"/><path d="M360.1545,295.0959h24.9306v21.4786h-24.9306z" stroke-linecap="butt"/><path d="M367.4413,304.3339h9.9722v12.2735h-9.9722z" stroke-linecap="butt"/></g><g fill="#4c4c4c" stroke="#000000" stroke-width="1.5"><g><path d="M243.5677,295.0224l18.0268,-11.6624l15.7254,11.6624z" stroke-linecap="round"/><path d="M248.1545,295.0959h24.9306v21.4786h-24.9306z" stroke-linecap="butt"/><path d="M255.4413,304.3339h9.9722v12.2735h-9.9722z" stroke-linecap="butt"/></g><g><path d="M268.8677,295.1224l18.0268,-11.6624l15.7254,11.6624z" stroke-linecap="round"/><path d="M273.4045,295.1959h24.9306v21.4786h-24.9306z" stroke-linecap="butt"/><path d="M280.6913,304.4339h9.9722v12.2735h-9.9722z" stroke-linecap="butt"/></g><g><path d="M293.5177,294.8724l18.0268,-11.6624l15.7254,11.6624z" stroke-linecap="round"/><path d="M298.1045,294.9459h24.9306v21.4786h-24.9306z" stroke-linecap="butt"/><path d="M305.3913,304.1339h9.9722v12.2735h-9.9722z" stroke-linecap="butt"/></g></g><g fill="#4c4c4c" stroke="#000000" stroke-width="1.5"><g><path d="M147.0177,295.0224l18.0268,-11.6624l15.7254,11.6624z" stroke-linecap="round"/><path d="M151.6045,295.0959h24.9306v21.4786h-24.9306z" stroke-linecap="butt"/><path d="M158.8913,304.3339h9.9722v12.2735h-9.9722z" stroke-linecap="butt"/></g><g><path d="M172.3177,295.1224l18.0268,-11.6624l15.7254,11.6624z" stroke-linecap="round"/><path d="M176.8545,295.1959h24.9306v21.4786h-24.9306z" stroke-linecap="butt"/><path d="M184.1413,304.4339h9.9722v12.2735h-9.9722z" stroke-linecap="butt"/></g><g><path d="M196.9677,294.8724l18.0268,-11.6624l15.7254,11.6624z" stroke-linecap="round"/><path d="M201.5545,294.9459h24.9306v21.4786h-24.9306z" stroke-linecap="butt"/><path d="M208.8413,304.1339h9.9722v12.2735h-9.9722z" stroke-linecap="butt"/></g></g><path d="M-2.67248,315.5226h647.98344v45.4838h-647.98344z" fill="#343434" stroke="#000000" stroke-width="1.5" stroke-linecap="round"/><g fill="#4c4c4c" stroke="#000000" stroke-width="1.5"><g><path d="M72.7677,295.3724l18.0268,-11.6624l15.7254,11.6624z" stroke-linecap="round"/><path d="M77.3545,295.4459h24.9306v21.4786h-24.9306z" stroke-linecap="butt"/><path d="M84.6413,304.6839h9.9722v12.2735h-9.9722z" stroke-linecap="butt"/></g><g><path d="M98.0677,295.4724l18.0268,-11.6624l15.7254,11.6624z" stroke-linecap="round"/><path d="M102.6045,295.5459h24.9306v21.4786h-24.9306z" stroke-linecap="butt"/><path d="M109.8913,304.7839h9.9722v12.2735h-9.9722z" stroke-linecap="butt"/></g><g><path d="M122.7177,295.2224l18.0268,-11.6624l15.7254,11.6624z" stroke-linecap="round"/><path d="M127.3045,295.2959h24.9306v21.4786h-24.9306z" stroke-linecap="butt"/><path d="M134.5913,304.4839h9.9722v12.2735h-9.9722z" stroke-linecap="butt"/></g></g><g fill="#4c4c4c" stroke="#000000" stroke-width="1.5"><path d="M82.1926,312.3987l28.1302,-18.1989l24.5391,18.1989z" stroke-linecap="round"/><path d="M89.3188,312.5164h38.9035v33.5169h-38.9035z" stroke-linecap="butt"/><path d="M100.7451,326.8838h15.5614v19.1524h-15.5614z" stroke-linecap="butt"/></g><g fill="#4c4c4c" stroke="#000000" stroke-width="1.5"><path d="M121.6926,312.5487l28.1302,-18.1989l24.5391,18.1989z" stroke-linecap="round"/><path d="M128.8188,312.6664h38.9035v33.5169h-38.9035z" stroke-linecap="butt"/><path d="M140.1951,327.0338h15.5614v19.1524h-15.5614z" stroke-linecap="butt"/></g><g fill="#4c4c4c" stroke="#000000" stroke-width="1.5"><path d="M160.1926,313.0987l28.1302,-18.1989l24.5391,18.1989z" stroke-linecap="round"/><path d="M167.3188,313.2164h38.9035v33.5169h-38.9035z" stroke-linecap="butt"/><path d="M178.6951,327.5338h15.5614v19.1524h-15.5614z" stroke-linecap="butt"/></g><path d="M220.1926,312.7987l28.1302,-18.1989l24.5391,18.1989z" fill="#4c4c4c" stroke="#000000" stroke-width="1.5" stroke-linecap="round"/><path d="M227.3188,311.9164h38.9035v33.5169h-38.9035z" fill="#4c4c4c" stroke="#000000" stroke-width="1.5" stroke-linecap="butt"/><path d="M238.6951,326.2838h15.5614v19.1524h-15.5614z" fill="#4c4c4c" stroke="#000000" stroke-width="1.5" stroke-linecap="butt"/><path d="M259.6926,312.8987l28.1302,-18.1989l24.5391,18.1989z" fill="#4c4c4c" stroke="#000000" stroke-width="1.5" stroke-linecap="round"/><path d="M266.8188,312.0164h38.9035v33.5169h-38.9035z" fill="#4c4c4c" stroke="#000000" stroke-width="1.5" stroke-linecap="butt"/><path d="M278.1951,326.3838h15.5614v19.1524h-15.5614z" fill="#4c4c4c" stroke="#000000" stroke-width="1.5" stroke-linecap="butt"/><g fill="#4c4c4c" stroke="#000000" stroke-width="1.5"><path d="M298.1926,311.4487l28.1302,-18.1989l24.5391,18.1989z" stroke-linecap="round"/><path d="M305.3188,311.5664h38.9035v33.5169h-38.9035z" stroke-linecap="butt"/><path d="M316.6951,325.9338h15.5614v19.1524h-15.5614z" stroke-linecap="butt"/></g><path d="M385.6926,312.9487l28.1302,-18.1989l24.5391,18.1989z" fill="#4c4c4c" stroke="#000000" stroke-width="1.5" stroke-linecap="round"/><path d="M392.8188,312.1164h38.9035v33.5169h-38.9035z" fill="#4c4c4c" stroke="#000000" stroke-width="1.5" stroke-linecap="butt"/><path d="M404.1951,326.4338h15.5614v19.1524h-15.5614z" fill="#4c4c4c" stroke="#000000" stroke-width="1.5" stroke-linecap="butt"/><path d="M425.1926,312.0987l28.1302,-18.1989l24.5391,18.1989z" fill="#4c4c4c" stroke="#000000" stroke-width="1.5" stroke-linecap="round"/><path d="M431.3188,312.2164h38.9035v33.5169h-38.9035z" fill="#4c4c4c" stroke="#000000" stroke-width="1.5" stroke-linecap="butt"/><path d="M443.6951,326.5338h15.5614v19.1524h-15.5614z" fill="#4c4c4c" stroke="#000000" stroke-width="1.5" stroke-linecap="butt"/><g fill="#4c4c4c" stroke="#000000" stroke-width="1.5"><path d="M463.6926,311.6487l28.1302,-18.1989l24.5391,18.1989z" stroke-linecap="round"/><path d="M470.8188,311.7664h38.9035v33.5169h-38.9035z" stroke-linecap="butt"/><path d="M482.1951,326.1338h15.5614v19.1524h-15.5614z" stroke-linecap="butt"/></g><g fill="#4c4c4c" stroke="#000000" stroke-width="1.5"><path d="M524.1177,294.3724l18.0268,-11.6624l15.7254,11.6624z" stroke-linecap="round"/><path d="M528.6545,294.4459h24.9306v21.4786h-24.9306z" stroke-linecap="butt"/><path d="M535.9413,303.6839h9.9722v12.2735h-9.9722z" stroke-linecap="butt"/></g></g></g></svg>