<svg version="1.1" xmlns="http://www.w3.org/2000/svg" xmlns:xlink="http://www.w3.org/1999/xlink" width="22.40003" height="27.0894" viewBox="0,0,22.40003,27.0894"><defs><radialGradient cx="239.214" cy="167.5899" r="23.4316" gradientUnits="userSpaceOnUse" id="color-1"><stop offset="0" stop-color="#ffd499"/><stop offset="1" stop-color="#ff9400"/></radialGradient></defs><g transform="translate(-227.49997,-160.44709)"><g data-paper-data="{&quot;isPaintingLayer&quot;:true}" fill="url(#color-1)" fill-rule="nonzero" stroke="#ff9400" stroke-width="2" stroke-linecap="round" stroke-linejoin="miter" stroke-miterlimit="10" stroke-dasharray="" stroke-dashoffset="0" style="mix-blend-mode: normal"><path d="M233.8,171.7c0.338,-0.883 1.892,2.808 2.5,2.2c0.995,-1.008 0.915,-3.447 0.85,-5.2c-0.041,-1.042 -1.281,-1.951 -1.25,-3.1c0.058,-1.415 0.55,-4.601 1.5,-4.1c1.7,0.9 3.085,4.572 3.9,7.1c0.781,2.448 -0.18,8.172 0.8,7.55c1.135,-0.72 2.493,-10.971 3.9,-11.05c1.416,-0.06 2.667,6.95 2.9,10.6c0.149,2.391 -1.923,4.573 -2.1,7c-0.102,1.384 2.032,4.188 1.5,3.8c-0.929,-0.514 -2.936,-4.272 -4.9,-5.9c-0.491,-0.407 -1.231,0.449 -1.4,1c-0.597,1.852 -0.162,3.955 -1.1,5.6c-0.396,0.704 -1.944,0.685 -2.4,0c-0.754,-1.12 0.753,-4.121 -0.35,-4.1c-1.887,0.041 -3.814,3.302 -5.5,4c-0.595,0.298 1.236,-0.872 0.938,-2.008c-1.188,-4.523 -5.101,-12.023 -5.088,-13.092c0.064,-0.964 4.118,7.628 5.3,7.5c1.17,-0.127 -0.912,-5.883 0,-7.8z" id="ID0.17864482337608933"/></g></g></svg>