<svg version="1.1" xmlns="http://www.w3.org/2000/svg" xmlns:xlink="http://www.w3.org/1999/xlink" width="1052" height="177" viewBox="0,0,1052,177"><defs><linearGradient x1="-2.5" y1="272.5" x2="-2.5" y2="446.5" gradientUnits="userSpaceOnUse" id="color-1"><stop offset="0" stop-color="#4d4d4d"/><stop offset="1" stop-color="#ff0000"/></linearGradient><linearGradient x1="642.5" y1="272.5" x2="642.5" y2="447.5" gradientUnits="userSpaceOnUse" id="color-2"><stop offset="0" stop-color="#4d4d4d"/><stop offset="1" stop-color="#ff0000"/></linearGradient></defs><g transform="translate(206,-271.5)"><g data-paper-data="{&quot;isPaintingLayer&quot;:true}" fill-rule="nonzero" stroke="#000000" stroke-width="2" stroke-linecap="butt" stroke-linejoin="miter" stroke-miterlimit="10" stroke-dasharray="" stroke-dashoffset="0" style="mix-blend-mode: normal"><path d="M200,359.5c0,48.04877 -90.66234,87 -202.5,87c-111.83766,0 -202.5,-38.95123 -202.5,-87c0,-48.04877 90.66234,-87 202.5,-87c111.83766,0 202.5,38.95123 202.5,87z" fill="url(#color-1)"/><path d="M845,360c0,48.32492 -90.66234,87.5 -202.5,87.5c-111.83766,0 -202.5,-39.17508 -202.5,-87.5c0,-48.32492 90.66234,-87.5 202.5,-87.5c111.83766,0 202.5,39.17508 202.5,87.5z" fill="url(#color-2)"/></g></g></svg>