<svg version="1.1" xmlns="http://www.w3.org/2000/svg" xmlns:xlink="http://www.w3.org/1999/xlink" width="49.83194" height="25.10887" viewBox="0,0,49.83194,25.10887"><g transform="translate(-293.16806,-156.04117)"><g data-paper-data="{&quot;isPaintingLayer&quot;:true}" fill-rule="nonzero" stroke-linejoin="miter" stroke-miterlimit="10" stroke-dasharray="" stroke-dashoffset="0" style="mix-blend-mode: normal"><path d="M331.1,168.15c1.802,0.914 2.405,3.415 2.6,5.4c0.205,2.085 -0.072,4.474 -1.25,6.25c-0.665,0.87 -2.235,0.321 -3.35,0.35c-2.956,0.079 -5.936,-0.061 -8.9,0c-3.53,-0.011 -7.063,0.195 -10.6,0.15c-0.884,-0.01 -1.58,0.244 -1.8,-0.35c-0.737,-1.994 -0.668,-4.256 -0.7,-6.4c-0.025,-1.709 0.968,-3.329 0.5,-4.9c-0.391,-1.304 -1.362,-2.962 -2.65,-2.85c-1.651,0.137 -2.164,2.567 -3.65,3.15c-0.926,0.451 -2.202,0.335 -3,-0.3c-1.678,-1.317 -3.538,-2.91 -4,-5c-0.271,-1.227 0.958,-3.516 2,-3.2c1.615,0.492 1.355,4.675 3.3,5c2.283,0.299 3.595,-3.479 5.85,-3.65c1.517,-0.115 2.608,1.682 3.65,2.75c0.703,0.72 0.765,2.322 1.7,2.5c3.199,0.554 6.5,-0.67 9.6,-0.5c3.597,0.198 7.539,-0.099 10.7,1.6z" fill="#000000" stroke="#000000" stroke-width="2" stroke-linecap="round"/><path d="M341.3,161.8c0.546,1.867 0.896,3.89 0.7,5.8c-0.163,1.594 -0.728,3.287 -1.905,4.418c-1.177,1.132 -2.802,1.832 -4.595,1.832c-1.793,0 -3.418,-0.7 -4.595,-1.832c-1.177,-1.131 -1.148,-3.007 -1.905,-4.418c-1.181,-2.205 -4.096,-5.046 -3.8,-6.65c0.179,-0.971 3.091,1.501 4.75,1.5c2.242,-0.002 4.727,-0.339 6.75,-1.5c1.266,-0.781 1.27,-4.102 2.4,-3.9c1.264,0.227 1.717,3.095 2.2,4.75z" fill="#000000" stroke="#000000" stroke-width="2" stroke-linecap="round"/><path d="M338.775,164.37c0.263,0.136 0.425,0.323 0.425,0.53c0,0.207 -0.162,0.394 -0.425,0.53c-0.262,0.136 -0.625,0.22 -1.025,0.22c-0.4,0 -0.763,-0.084 -1.025,-0.22c-0.263,-0.136 -0.425,-0.323 -0.425,-0.53c0,-0.207 0.162,-0.394 0.425,-0.53c0.262,-0.136 0.625,-0.22 1.025,-0.22c0.4,0 0.763,0.084 1.025,0.22z" fill="#ff0000" stroke="none" stroke-width="1" stroke-linecap="butt"/><path d="M333.532,165.682c0.258,0.081 0.418,0.194 0.418,0.318c0,0.124 -0.16,0.237 -0.418,0.318c-0.258,0.082 -0.614,0.132 -1.007,0.132c-0.393,0 -0.749,-0.05 -1.007,-0.132c-0.258,-0.081 -0.418,-0.194 -0.418,-0.318c0,-0.124 0.16,-0.237 0.418,-0.318c0.258,-0.082 0.614,-0.132 1.007,-0.132c0.393,0 0.749,0.05 1.007,0.132z" fill="#ff0000" stroke="none" stroke-width="1" stroke-linecap="butt"/><path d="M342.21002,176.03328c-0.75,0 -0.75,-0.75 -0.75,-0.75c0,-2.04167 0,-4.70833 0,-6.75c0,0 0,-0.75 0.75,-0.75c0.75,0 0.75,0.75 0.75,0.75c0,2.04167 0,4.08333 0,6.125v0.625c0,0 0,0.75 -0.75,0.75z" fill="#000000" stroke="none" stroke-width="0.5" stroke-linecap="butt"/><path d="M339.18794,176.01872c-0.73544,-0.14709 -0.58835,-0.88252 -0.58835,-0.88252l0.11797,-0.58398c0.10988,-0.7571 0.30539,-1.50134 0.52409,-2.23444c0,0 0.21551,-0.71837 0.93388,-0.50286c0.71837,0.21551 0.50286,0.93388 0.50286,0.93388c-0.19947,0.66088 -0.38001,1.33192 -0.47591,2.01556l-0.13203,0.66602c0,0 -0.14709,0.73544 -0.88252,0.58835z" fill="#000000" stroke="none" stroke-width="0.5" stroke-linecap="butt"/><path d="M337.29543,178.0791c-0.67082,0.33541 -1.00623,-0.33541 -1.00623,-0.33541l-0.43412,-0.9131c-0.01938,-0.89107 -0.02006,-1.78108 -0.02006,-2.67231c0,0 0,-0.75 0.75,-0.75c0.75,0 0.75,0.75 0.75,0.75c0,0.77631 0.00688,1.55176 -0.02006,2.32769l0.31588,0.5869c0,0 0.33541,0.67082 -0.33541,1.00623z" fill="#000000" stroke="none" stroke-width="0.5" stroke-linecap="butt"/><path d="M293.59636,170.50513c-0.64312,-0.38587 -0.25725,-1.02899 -0.25725,-1.02899l0.11551,-0.12936c0.40103,-1.55342 -0.02142,-2.89421 -0.27886,-4.42813c0,0 -0.1233,-0.7398 0.6165,-0.86309c0.7398,-0.1233 0.86309,0.6165 0.86309,0.6165c0.2907,1.7576 0.68879,3.25486 0.25448,5.03853l-0.28449,0.5373c0,0 -0.38587,0.64312 -1.02899,0.25725z" fill="#000000" stroke="none" stroke-width="0.5" stroke-linecap="butt"/><path d="M298.679,176.54311c-0.61442,0.4301 -1.04452,-0.18433 -1.04452,-0.18433l-0.48571,-0.69524c-1.5229,-2.68011 -1.01887,-5.46184 -1.24766,-8.41067c0,0 -0.05752,-0.74779 0.69027,-0.80531c0.74779,-0.05752 0.80531,0.69027 0.80531,0.69027c0.20062,2.62915 -0.34475,5.35241 1.01901,7.72267l0.44762,0.63809c0,0 0.4301,0.61442 -0.18433,1.04452z" fill="#000000" stroke="none" stroke-width="0.5" stroke-linecap="butt"/><path d="M299.56557,171.72868c0,-0.446 0.26522,-0.62678 0.48023,-0.70006c0.48596,-0.41878 0.62009,-0.55823 0.58644,-1.29994c0,0 0,-0.75 0.75,-0.75c0.75,0 0.75,0.75 0.75,0.75c-0.03392,1.24653 -0.33485,1.72996 -1.25173,2.56056l-0.56494,0.18944c0,0 -0.75,0 -0.75,-0.75z" fill="#000000" stroke="none" stroke-width="0.5" stroke-linecap="butt"/><path d="M302.8784,172.84019c-0.71151,-0.23717 -0.47434,-0.94868 -0.47434,-0.94868l0.30966,-0.54848c2.03327,-1.58692 1.0827,-3.51594 1.46206,-5.80431c0,0 0.1233,-0.7398 0.86309,-0.6165c0.7398,0.1233 0.6165,0.86309 0.6165,0.86309c-0.44737,2.66876 0.41978,4.62315 -1.83454,6.58581l0.00626,-0.00527c0,0 -0.23717,0.71151 -0.94868,0.47434z" fill="#000000" stroke="none" stroke-width="0.5" stroke-linecap="butt"/><path d="M324.11857,166.72568c-0.53033,-0.53033 0,-1.06066 0,-1.06066l0.08721,-0.05554c0.82603,-1.31443 0.03083,-2.93899 0.02645,-4.41413c0,0 0,-0.75 0.75,-0.75c0.75,0 0.75,0.75 0.75,0.75c-0.00654,1.88975 0.78646,3.41773 -0.24021,5.18587l-0.31279,0.34446c0,0 -0.53033,0.53033 -1.06066,0z" fill="#000000" stroke="none" stroke-width="0.5" stroke-linecap="butt"/></g></g></svg>