<svg version="1.1" xmlns="http://www.w3.org/2000/svg" xmlns:xlink="http://www.w3.org/1999/xlink" width="18.97844" height="25.09219" viewBox="0,0,18.97844,25.09219"><defs><linearGradient x1="239.28704" y1="165.27741" x2="239.28704" y2="190.3696" gradientUnits="userSpaceOnUse" id="color-1"><stop offset="0" stop-color="#ffca00"/><stop offset="1" stop-color="#ff0000"/></linearGradient></defs><g transform="translate(-229.79783,-165.27741)"><g data-paper-data="{&quot;isPaintingLayer&quot;:true}" fill="url(#color-1)" fill-rule="nonzero" stroke="none" stroke-width="0" stroke-linecap="round" stroke-linejoin="miter" stroke-miterlimit="10" stroke-dasharray="" stroke-dashoffset="0" style="mix-blend-mode: normal"><path d="M233.1,170c0.406,-0.975 1.663,3.259 3.2,3.9c0.814,0.339 2.146,-0.751 2,-1.6c-0.247,-2.534 -3.855,-6.684 -3,-7c0.855,-0.316 5.531,2.747 7.15,5.2c1.007,1.531 -1.407,5.852 -0.35,5.65c1.549,-0.298 4.514,-6.79 6,-6.75c1.211,0.035 -0.335,4.539 -0.2,6.8c0.125,2.059 1.247,4.054 0.75,6c-0.242,1.308 -1.541,3.177 -2.75,2.8c-1.519,-0.475 -1.238,-3.284 -2.5,-4.4c-0.465,-0.412 -1.354,0.368 -1.4,1c-0.409,2.011 0.613,4.121 0.15,6.25c-0.238,1.08 -1.681,3.12 -2.35,2.35c-1.426,-1.649 -0.225,-7.017 -1.65,-7.1c-1.586,-0.087 -2.988,5.973 -4.35,6.5c-0.844,0.324 0.19,-3.129 -0.212,-4.508c-0.964,-3.296 -3.881,-8.112 -3.788,-9.592c0.064,-1.005 3.394,4.993 4,4c0.985,-1.614 -1.487,-7.564 -0.7,-9.5z" id="ID0.17864482337608933"/></g></g></svg>