<svg version="1.1" xmlns="http://www.w3.org/2000/svg" xmlns:xlink="http://www.w3.org/1999/xlink" width="624.5335" height="434.64975" viewBox="0,0,624.5335,434.64975"><g transform="translate(-18.48237,36.78689)"><g data-paper-data="{&quot;isPaintingLayer&quot;:true}" fill-rule="nonzero" stroke="#000000" stroke-width="2" stroke-linecap="butt" stroke-linejoin="miter" stroke-miterlimit="10" stroke-dasharray="" stroke-dashoffset="0" style="mix-blend-mode: normal"><path d="M440.17831,185.71444l-43.99995,0.07085l-0.35666,-221.49972l43.99995,-0.07085z" fill="#a5a5a5"/><path d="M437.27988,185.96911l-38.2023,0.06152l-0.35706,-221.74971l38.2023,-0.06152z" fill="#4543d4"/><path d="M439.90489,162.58985l-41.74995,0.06723l-0.01127,-6.99999l41.74995,-0.06723z" fill="#a5a5a5"/><path d="M439.85054,128.83989l-41.74995,0.06723l-0.01127,-6.99999l41.74995,-0.06723z" fill="#a5a5a5"/><path d="M439.79621,95.08993l-41.74996,0.06723l-0.01127,-6.99999l41.74995,-0.06723z" fill="#a5a5a5"/><path d="M439.74185,61.33998l-41.74995,0.06723l-0.01127,-6.99999l41.74995,-0.06723z" fill="#a5a5a5"/><path d="M439.68751,27.59003l-41.74995,0.06723l-0.01127,-6.99999l41.74995,-0.06724z" fill="#a5a5a5"/><path d="M439.63316,-6.15994l-41.74995,0.06723l-0.01127,-6.99999l41.74995,-0.06723z" fill="#a5a5a5"/><path d="M19.73546,88.90716l13.14559,-41.9904l211.38348,66.17608l-13.14559,41.9904z" fill="#a5a5a5"/><path d="M20.36294,86.06604l11.41346,-36.45755l211.62206,66.25076l-11.41346,36.45755z" fill="#4543d4"/><path d="M41.87484,95.59067l12.47337,-39.84317l6.68029,2.09134l-12.47337,39.84317z" fill="#a5a5a5"/><path d="M74.08339,105.67393l12.47337,-39.84317l6.68029,2.09134l-12.47337,39.84317z" fill="#a5a5a5"/><path d="M106.29194,115.75719l12.47337,-39.84317l6.68029,2.09134l-12.47337,39.84317z" fill="#a5a5a5"/><path d="M138.50048,125.84045l12.47337,-39.84317l6.68029,2.09134l-12.47337,39.84317z" fill="#a5a5a5"/><path d="M170.70902,135.92372l12.47337,-39.84317l6.68029,2.09134l-12.47337,39.84317z" fill="#a5a5a5"/><path d="M202.91757,146.00698l12.47337,-39.84317l6.68029,2.09134l-12.47337,39.84317z" fill="#a5a5a5"/><path d="M254.61252,288.81282l-27.22656,-34.56464l174.00153,-137.06099l27.22656,34.56464z" fill="#a5a5a5"/><path d="M252.62237,286.69032l-23.63906,-30.01024l174.19792,-137.2157l23.63906,30.01024z" fill="#4543d4"/><path d="M272.63244,274.31787l-25.8343,-32.79713l5.49892,-4.3315l25.8343,32.79713z" fill="#a5a5a5"/><path d="M299.14509,253.43385l-25.8343,-32.79713l5.49892,-4.3315l25.8343,32.79713z" fill="#a5a5a5"/><path d="M325.65774,232.54984l-25.83431,-32.79713l5.49892,-4.3315l25.8343,32.79713z" fill="#a5a5a5"/><path d="M352.17038,211.66583l-25.8343,-32.79713l5.49892,-4.3315l25.8343,32.79713z" fill="#a5a5a5"/><path d="M378.68304,190.78182l-25.8343,-32.79713l5.49892,-4.3315l25.8343,32.79713z" fill="#a5a5a5"/><path d="M405.19569,169.8978l-25.8343,-32.79713l5.49892,-4.3315l25.8343,32.79713z" fill="#a5a5a5"/><path d="M104.52258,349.91933l4.7485,-43.74303l220.20634,23.90436l-4.7485,43.74303z" fill="#a5a5a5"/><path d="M104.58688,347.01046l4.12281,-37.97923l220.45488,23.93133l-4.12281,37.97923z" fill="#4543d4"/><path d="M127.53801,352.18019l4.50567,-41.50616l6.95911,0.75544l-4.50567,41.50616z" fill="#a5a5a5"/><path d="M161.0909,355.82249l4.50567,-41.50616l6.95912,0.75544l-4.50568,41.50616z" fill="#a5a5a5"/><path d="M194.64378,359.46481l4.50567,-41.50617l6.95911,0.75544l-4.50567,41.50616z" fill="#a5a5a5"/><path d="M228.19666,363.10712l4.50567,-41.50616l6.95911,0.75544l-4.50567,41.50616z" fill="#a5a5a5"/><path d="M261.74955,366.74943l4.50567,-41.50616l6.95911,0.75544l-4.50567,41.50616z" fill="#a5a5a5"/><path d="M295.30244,370.39174l4.50567,-41.50616l6.95911,0.75544l-4.50567,41.50616z" fill="#a5a5a5"/><path d="M416.19289,344.08895l10.44184,-42.74305l215.17239,52.56516l-10.44184,42.74305z" fill="#a5a5a5"/><path d="M416.63797,341.2136l9.06597,-37.11102l215.41524,52.62448l-9.06597,37.11102z" fill="#4543d4"/><path d="M438.71333,349.34741l9.90787,-40.55732l6.80003,1.66119l-9.90787,40.55732z" fill="#a5a5a5"/><path d="M471.49919,357.35677l9.90788,-40.55733l6.80004,1.6612l-9.90788,40.55732z" fill="#a5a5a5"/><path d="M504.28505,365.36614l9.90788,-40.55733l6.80003,1.66119l-9.90787,40.55732z" fill="#a5a5a5"/><path d="M537.07091,373.3755l9.90787,-40.55732l6.80003,1.66119l-9.90787,40.55732z" fill="#a5a5a5"/><path d="M569.85677,381.38486l9.90787,-40.55732l6.80003,1.66119l-9.90787,40.55733z" fill="#a5a5a5"/><path d="M602.64264,389.39422l9.90788,-40.55733l6.80003,1.66119l-9.90787,40.55732z" fill="#a5a5a5"/></g></g></svg>