<svg version="1.1" xmlns="http://www.w3.org/2000/svg" xmlns:xlink="http://www.w3.org/1999/xlink" width="603" height="265" viewBox="0,0,603,265"><g transform="translate(-18.5,-47.5)"><g data-paper-data="{&quot;isPaintingLayer&quot;:true}" fill="#ff0000" fill-rule="nonzero" stroke="none" stroke-width="0" stroke-linecap="butt" stroke-linejoin="miter" stroke-miterlimit="10" stroke-dasharray="" stroke-dashoffset="0" style="mix-blend-mode: normal"><path d="M617.5,300c0,3.58985 -2.91015,6.5 -6.5,6.5c-3.58985,0 -6.5,-2.91015 -6.5,-6.5c0,-3.58985 2.91015,-6.5 6.5,-6.5c3.58985,0 6.5,2.91015 6.5,6.5z" data-paper-data="{&quot;index&quot;:null}"/><path d="M552.5,262.5c0,3.31371 -2.68629,6 -6,6c-3.31371,0 -6,-2.68629 -6,-6c0,-3.31371 2.68629,-6 6,-6c3.31371,0 6,2.68629 6,6z" data-paper-data="{&quot;index&quot;:null}"/><path d="M487.5,310c0,1.38071 -1.11929,2.5 -2.5,2.5c-1.38071,0 -2.5,-1.11929 -2.5,-2.5c0,-1.38071 1.11929,-2.5 2.5,-2.5c1.38071,0 2.5,1.11929 2.5,2.5z" data-paper-data="{&quot;index&quot;:null}"/><path d="M359.5,274c0,4.14214 -3.35787,7.5 -7.5,7.5c-4.14213,0 -7.5,-3.35786 -7.5,-7.5c0,-4.14214 3.35787,-7.5 7.5,-7.5c4.14213,0 7.5,3.35786 7.5,7.5z" data-paper-data="{&quot;index&quot;:null}"/><path d="M205.5,267.5c0,1.65686 -1.34314,3 -3,3c-1.65686,0 -3,-1.34314 -3,-3c0,-1.65686 1.34314,-3 3,-3c1.65686,0 3,1.34314 3,3z" data-paper-data="{&quot;index&quot;:null}"/><path d="M95.5,308.5c0,1.10457 -0.89543,2 -2,2c-1.10457,0 -2,-0.89543 -2,-2c0,-1.10457 0.89543,-2 2,-2c1.10457,0 2,0.89543 2,2z" data-paper-data="{&quot;index&quot;:null}"/><path d="M22.5,231.5c0,1.10457 -0.89543,2 -2,2c-1.10457,0 -2,-0.89543 -2,-2c0,-1.10457 0.89543,-2 2,-2c1.10457,0 2,0.89543 2,2z" data-paper-data="{&quot;index&quot;:null}"/><path d="M106.5,252.5c0,1.10457 -0.89543,2 -2,2c-1.10457,0 -2,-0.89543 -2,-2c0,-1.10457 0.89543,-2 2,-2c1.10457,0 2,0.89543 2,2z" data-paper-data="{&quot;index&quot;:null}"/><path d="M389.5,178c0,1.933 -1.567,3.5 -3.5,3.5c-1.933,0 -3.5,-1.567 -3.5,-3.5c0,-1.933 1.567,-3.5 3.5,-3.5c1.933,0 3.5,1.567 3.5,3.5z" data-paper-data="{&quot;index&quot;:null}"/><path d="M524.5,193.5c0,1.65686 -1.34315,3 -3,3c-1.65685,0 -3,-1.34314 -3,-3c0,-1.65686 1.34315,-3 3,-3c1.65685,0 3,1.34314 3,3z" data-paper-data="{&quot;index&quot;:null}"/><path d="M621.5,136c0,1.933 -1.56701,3.5 -3.5,3.5c-1.93299,0 -3.5,-1.567 -3.5,-3.5c0,-1.933 1.56701,-3.5 3.5,-3.5c1.93299,0 3.5,1.567 3.5,3.5z" data-paper-data="{&quot;index&quot;:null}"/><path d="M498.5,75c0,2.48528 -2.01472,4.5 -4.5,4.5c-2.48528,0 -4.5,-2.01472 -4.5,-4.5c0,-2.48528 2.01472,-4.5 4.5,-4.5c2.48528,0 4.5,2.01472 4.5,4.5z" data-paper-data="{&quot;index&quot;:null}"/><path d="M438.5,107c0,1.933 -1.567,3.5 -3.5,3.5c-1.933,0 -3.5,-1.567 -3.5,-3.5c0,-1.933 1.567,-3.5 3.5,-3.5c1.933,0 3.5,1.567 3.5,3.5z" data-paper-data="{&quot;index&quot;:null}"/><path d="M274.5,50.5c0,1.65686 -1.34314,3 -3,3c-1.65686,0 -3,-1.34314 -3,-3c0,-1.65686 1.34314,-3 3,-3c1.65686,0 3,1.34314 3,3z" data-paper-data="{&quot;index&quot;:null}"/><path d="M154.5,90.5c0,2.20914 -1.79086,4 -4,4c-2.20914,0 -4,-1.79086 -4,-4c0,-2.20914 1.79086,-4 4,-4c2.20914,0 4,1.79086 4,4z" data-paper-data="{&quot;index&quot;:null}"/><path d="M258.5,184.5c0,1.10457 -0.89543,2 -2,2c-1.10457,0 -2,-0.89543 -2,-2c0,-1.10457 0.89543,-2 2,-2c1.10457,0 2,0.89543 2,2z" data-paper-data="{&quot;index&quot;:null}"/><path d="M68.5,150c0,1.933 -1.567,3.5 -3.5,3.5c-1.933,0 -3.5,-1.567 -3.5,-3.5c0,-1.933 1.567,-3.5 3.5,-3.5c1.933,0 3.5,1.567 3.5,3.5z" data-paper-data="{&quot;index&quot;:null}"/></g></g></svg>