<svg xmlns="http://www.w3.org/2000/svg" xmlns:xlink="http://www.w3.org/1999/xlink" version="1.1" width="62.831719398498535" height="55.30122470855713" viewBox="2.935987949371338 3.13018798828125 62.831719398498535 55.30122470855713">
  <!-- Exported by Scratch - http://scratch.mit.edu/ -->
  <g id="ID0.5646871998906136">
    <path id="ID0.29745785566046834" fill="#FFFF00" stroke="#FF9400" stroke-width="2.299424171447754" stroke-linecap="round" d="M 25.3554 26.3544 L 16.7325 15.3172 L 28.6321 23.0777 L 32.4261 4.2799 L 37.1399 23.2502 L 50.4766 16.9268 L 40.704 26.2394 L 64.618 30.5509 L 41.4513 34.9773 L 50.649 47.7965 L 37.2549 37.0467 L 31.8512 57.2817 L 29.6668 37.4491 L 14.7205 46.6468 L 25.9302 34.7473 L 4.0857 30.9533 L 25.3554 26.3544 Z "/>
    <path id="ID0.29745785566046834" fill="#FFFF00" stroke="#FF9400" stroke-width="1.0718935269795902" stroke-linecap="round" d="M 30.3145 26.7422 L 28.7345 20.4072 L 32.3311 25.9679 L 37.5103 18.6817 L 35.9216 27.6541 L 42.8001 27.4893 L 36.8728 29.6028 L 46.2399 35.9722 L 35.5347 33.4657 L 37.0217 40.6686 L 33.3553 33.5515 L 27.2181 41.1447 L 30.0474 32.2844 L 21.9386 33.3682 L 28.9683 30.4255 L 20.3845 24.6687 L 30.3145 26.7422 Z "/>
  </g>
</svg>