<svg version="1.1" xmlns="http://www.w3.org/2000/svg" xmlns:xlink="http://www.w3.org/1999/xlink" width="49.7" height="25.10887" viewBox="0,0,49.7,25.10887"><g transform="translate(-293.3,-156.04116)"><g data-paper-data="{&quot;isPaintingLayer&quot;:true}" fill-rule="nonzero" stroke-linejoin="miter" stroke-miterlimit="10" stroke-dasharray="" stroke-dashoffset="0" style="mix-blend-mode: normal"><path d="M331.1,168.15c1.802,0.914 2.405,3.415 2.6,5.4c0.205,2.085 -0.072,4.474 -1.25,6.25c-0.665,0.87 -2.235,0.321 -3.35,0.35c-2.956,0.079 -5.936,-0.061 -8.9,0c-3.53,-0.011 -7.063,0.195 -10.6,0.15c-0.884,-0.01 -1.58,0.244 -1.8,-0.35c-0.737,-1.994 -0.668,-4.256 -0.7,-6.4c-0.025,-1.709 0.968,-3.329 0.5,-4.9c-0.391,-1.304 -1.362,-2.962 -2.65,-2.85c-1.651,0.137 -2.164,2.567 -3.65,3.15c-0.926,0.451 -2.202,0.335 -3,-0.3c-1.678,-1.317 -3.538,-2.91 -4,-5c-0.271,-1.227 0.958,-3.516 2,-3.2c1.615,0.492 1.355,4.675 3.3,5c2.283,0.299 3.595,-3.479 5.85,-3.65c1.517,-0.115 2.608,1.682 3.65,2.75c0.703,0.72 0.765,2.322 1.7,2.5c3.199,0.554 6.5,-0.67 9.6,-0.5c3.597,0.198 7.539,-0.099 10.7,1.6z" fill="#ff7c00" stroke="#000000" stroke-width="2" stroke-linecap="round"/><path d="M341.3,161.8c0.546,1.867 0.896,3.89 0.7,5.8c-0.163,1.594 -0.728,3.287 -1.905,4.418c-1.177,1.132 -2.802,1.832 -4.595,1.832c-1.793,0 -3.418,-0.7 -4.595,-1.832c-1.177,-1.131 -1.148,-3.007 -1.905,-4.418c-1.181,-2.205 -4.096,-5.046 -3.8,-6.65c0.179,-0.971 3.091,1.501 4.75,1.5c2.242,-0.002 4.727,-0.339 6.75,-1.5c1.266,-0.781 1.27,-4.102 2.4,-3.9c1.264,0.227 1.717,3.095 2.2,4.75z" fill="#ff7c00" stroke="#000000" stroke-width="2" stroke-linecap="round"/><path d="M338.775,164.37c0.263,0.136 0.425,0.323 0.425,0.53c0,0.207 -0.162,0.394 -0.425,0.53c-0.262,0.136 -0.625,0.22 -1.025,0.22c-0.4,0 -0.763,-0.084 -1.025,-0.22c-0.263,-0.136 -0.425,-0.323 -0.425,-0.53c0,-0.207 0.162,-0.394 0.425,-0.53c0.262,-0.136 0.625,-0.22 1.025,-0.22c0.4,0 0.763,0.084 1.025,0.22z" fill="#ff0000" stroke="none" stroke-width="1" stroke-linecap="butt"/><path d="M333.532,165.682c0.258,0.081 0.418,0.194 0.418,0.318c0,0.124 -0.16,0.237 -0.418,0.318c-0.258,0.082 -0.614,0.132 -1.007,0.132c-0.393,0 -0.749,-0.05 -1.007,-0.132c-0.258,-0.081 -0.418,-0.194 -0.418,-0.318c0,-0.124 0.16,-0.237 0.418,-0.318c0.258,-0.082 0.614,-0.132 1.007,-0.132c0.393,0 0.749,0.05 1.007,0.132z" fill="#ff0000" stroke="none" stroke-width="1" stroke-linecap="butt"/></g></g></svg>