<svg version="1.1" xmlns="http://www.w3.org/2000/svg" xmlns:xlink="http://www.w3.org/1999/xlink" width="685.96264" height="358.32038" viewBox="0,0,685.96264,358.32038"><defs><linearGradient x1="353.36365" y1="270.72139" x2="353.36365" y2="331.72139" gradientUnits="userSpaceOnUse" id="color-1"><stop offset="0" stop-color="#4d4d4d"/><stop offset="1" stop-color="#ff0000"/></linearGradient><linearGradient x1="-12.31817" y1="36.3607" x2="-12.31817" y2="37.3607" gradientUnits="userSpaceOnUse" id="color-2"><stop offset="0" stop-color="#4d4d4d"/><stop offset="1" stop-color="#ff0000"/></linearGradient><radialGradient cx="369.50667" cy="324.40552" r="58.1683" gradientUnits="userSpaceOnUse" id="color-3"><stop offset="0" stop-color="#ff9999"/><stop offset="1" stop-color="#ff0000"/></radialGradient></defs><g transform="translate(24.63634,-73.7214)"><g data-paper-data="{&quot;isPaintingLayer&quot;:true}" fill-rule="nonzero" stroke-linejoin="miter" stroke-miterlimit="10" stroke-dasharray="" stroke-dashoffset="0" style="mix-blend-mode: normal"><path d="M79.50776,430.94279l-7.86044,-74.83833l122.57574,-12.87441l7.86044,74.83833z" fill="#4d4d4d" stroke="#000000" stroke-width="2" stroke-linecap="butt"/><path d="M520.51911,377.1035l-15.79923,-150.42256l45.00245,-4.72671l15.79923,150.42256z" fill="#4d4d4d" stroke="#000000" stroke-width="2" stroke-linecap="butt"/><path d="M623.42972,366.60731l-17.96673,-171.05904l36.79759,-3.86494l17.96673,171.05904z" fill="#4d4d4d" stroke="#000000" stroke-width="2" stroke-linecap="butt"/><path d="M384.36365,301.22139c0,16.84468 -13.87917,30.5 -31,30.5c-17.12083,0 -31,-13.65532 -31,-30.5c0,-16.84468 13.87917,-30.5 31,-30.5c17.12083,0 31,13.65532 31,30.5z" fill="url(#color-1)" stroke="#000000" stroke-width="2" stroke-linecap="butt"/><path d="M-24.63634,73.7214v0v0z" fill="url(#color-2)" stroke="#000000" stroke-width="2" stroke-linecap="butt"/><path d="M371.78199,302.86795c3.35245,1.60795 -2.37975,8.99604 -1.95011,13.34441c0.23284,2.35212 2.07796,5.49152 4.44668,5.56173c3.54195,0.10392 7.83682,-7.41526 8.62021,-5.27983c1.71709,3.63424 -0.54291,11.96306 -3.61926,16.81917c-3.90802,6.17368 -10.30427,12.14366 -15.85167,15.14742c-4.72992,2.65369 -11.43062,4.01678 -16.68185,2.0802c-7.17215,-2.6461 -13.45086,-8.60039 -18.06692,-14.87946c-3.06532,-4.19068 -6.65204,-12.7242 -4.16565,-15.7094c2.20548,-2.6322 11.33822,7.54884 12.7875,4.86916c1.95834,-3.61647 -7.35793,-13.66412 -5.83315,-17.79505c0.96827,-2.55194 7.91309,7.24757 11.39736,5.00775c5.42243,-3.47087 4.25592,-16.79952 6.95571,-17.51323c2.78039,-0.62194 -0.32632,12.8667 4.44395,14.73641c5.92393,2.32323 13.0861,-8.25889 17.51719,-6.38927z" fill="url(#color-3)" stroke="#ff0000" stroke-width="5" stroke-linecap="round"/></g></g></svg>