<svg version="1.1" xmlns="http://www.w3.org/2000/svg" xmlns:xlink="http://www.w3.org/1999/xlink" width="716" height="634.8181" viewBox="0,0,716,634.8181"><defs><linearGradient x1="-12.31817" y1="36.3607" x2="-12.31817" y2="37.3607" gradientUnits="userSpaceOnUse" id="color-1"><stop offset="0" stop-color="#4d4d4d"/><stop offset="1" stop-color="#ff0000"/></linearGradient><linearGradient x1="345.58721" y1="-190.35789" x2="345.58721" y2="253.52796" gradientUnits="userSpaceOnUse" id="color-2"><stop offset="0" stop-color="#b99937"/><stop offset="1" stop-color="#5d4c16"/></linearGradient><linearGradient x1="321.52716" y1="319.0881" x2="321.52716" y2="404.0881" gradientUnits="userSpaceOnUse" id="color-3"><stop offset="0" stop-color="#c2b280"/><stop offset="1" stop-color="#564f39"/></linearGradient><linearGradient x1="328.52716" y1="312" x2="328.52716" y2="442" gradientUnits="userSpaceOnUse" id="color-4"><stop offset="0" stop-color="#b99937"/><stop offset="1" stop-color="#5d4c16"/></linearGradient></defs><g transform="translate(29.47284,191.8181)"><g data-paper-data="{&quot;isPaintingLayer&quot;:true}" fill-rule="nonzero" stroke="#000000" stroke-width="2" stroke-linecap="butt" stroke-linejoin="miter" stroke-miterlimit="10" stroke-dasharray="" stroke-dashoffset="0" style="mix-blend-mode: normal"><path d="M-24.63634,73.7214z" fill="url(#color-1)"/><path d="M229.34742,62.53677l-221.8799,-252.89466l676.23938,115.42758l-34.1201,199.89466l11.68,116.52926l-89.82224,12.03435l-1.15385,-142.09869z" fill="url(#color-2)"/><path d="M-21.47284,404.0881l3,-165c0,0 78.82674,-0.32483 165.89256,9.87321c35.67556,4.17869 25.63916,46.61794 88.96592,55.13497c19.83445,2.6676 44.60532,3.89805 78.14877,3.33852c49.77213,-0.83024 108.64864,-0.39976 143.95912,0.67259c133.10823,4.04238 206.03363,10.98072 206.03363,10.98072v85z" fill="url(#color-3)"/><path d="M-28.47284,442v-130h714v130z" fill="url(#color-4)"/></g></g></svg>