<svg version="1.1" xmlns="http://www.w3.org/2000/svg" xmlns:xlink="http://www.w3.org/1999/xlink" width="237" height="157" viewBox="0,0,237,157"><g transform="translate(-204,-68.66667)"><g data-paper-data="{&quot;isPaintingLayer&quot;:true}" fill-rule="nonzero" stroke-width="0" stroke-linecap="butt" stroke-linejoin="miter" stroke-miterlimit="10" stroke-dasharray="" stroke-dashoffset="0" style="mix-blend-mode: normal"><path d="M204,225.66667v-157h237v157z" fill="#ffc7c7" stroke="#000000"/><path d="M265.88319,127.5c0,-30.37566 24.62434,-55 55,-55c30.37566,0 55,24.62434 55,55c0,30.37566 -24.62434,55 -55,55c-30.37566,0 -55,-24.62434 -55,-55z" fill="#353535" stroke="#000000"/><path d="M279.46972,110.10825l0.74106,-0.38003l0.18926,-0.16223l0.12245,-0.141l0.22938,-0.16056l0.09124,-0.0782l0.07169,-0.03584l2.1077,-1.47539l0.45262,-0.17334l0.368,-0.31543l0.5,-0.25l0.31197,-0.06933l0.26155,-0.18364l3.25,-1.25l0.99257,-0.12189l0.16599,-0.09189l3.75,-1l0.42273,-0.00661l0.39301,-0.15585l1.46639,-0.19552l1.86037,-0.69764l0.56636,-0.06473l0.51807,-0.2378l4,-0.75l0.40537,0.0242l0.38705,-0.12287l4,-0.25l0.2041,0.03768l0.20136,-0.05034h5l0.1707,0.04268l0.10236,-0.00731l2.98857,-0.45978l0.50062,0.04635l0.48775,-0.12194h6.75l0.45388,0.11347l0.46536,-0.04814l0.83076,0.11868l0.83076,-0.11868l0.46536,0.04814l0.45388,-0.11347h10.25l0.62808,0.15702l0.64668,-0.03079l1.07309,0.21462l1.1141,0.15916h0.03806l0.05075,0.01269l0.36849,0.05264l0.25082,0.10219l0.32994,0.08248h2l0.69446,0.17362l0.71559,-0.01883l1.55347,0.34522h0.53648l1.19429,0.29857l1.21975,0.16633l1.25,0.5l0.00138,0.00099l0.99147,0.22033l0.162,0.081l0.18112,0.04528l0.03622,0.06339l0.08033,0.04017l1.16913,0.33404l0.8719,0.50302l0.94796,0.33856l0.18687,0.12458l0.62161,0.24865l0.1346,0.09721l0.52784,0.13196l0.63162,0.33686l0.69879,0.15529l1,0.5l0.31185,0.2673l0.38681,0.13815l0.41329,0.27553l0.13805,0.06902l0.12079,0.10354l0.07787,0.05191l0.06108,0.06718l0.1432,0.12274l0.32379,0.01799l0.83853,0.97828l0.97828,0.83853l0.01799,0.32379l0.34537,0.40294l0.25,0.5l0.15529,0.69879l0.33686,0.63162l0.15211,0.60842l0.12811,0.18576l0.75,2l0.05246,0.45902l0.20662,0.41323l0.48145,2.16652l0.97926,3.91704v0.68946l0.36052,1.08155l0.04965,0.6455l0.23371,0.60375l0.25,2l-0.01353,0.1116l0.03703,0.10614l0.25,2.75l-0.04619,0.29694l0.07289,0.29154v10.5l-0.07289,0.29154l0.04619,0.29694l-0.25,2.75l-0.11633,0.33348l0.0168,0.35279l-0.25,1.25l-0.17583,0.3712l-0.0315,0.40953l-1,3l-0.10493,0.1649l-0.02641,0.19366l-0.5,1.25l-0.30815,0.42667l-0.15324,0.50351l-0.62157,1.03594l-0.88836,1.77672l-0.33554,0.39146l-0.18897,0.4797l-1.1335,1.58691l-1.14377,1.83004l-0.53407,0.515l-0.38172,0.6362l-1.29489,1.29489l-0.64298,0.96447l-0.47904,0.43549l-0.33309,0.55515l-1.5,1.5l-0.78034,0.46821l-0.08571,0.12077l-3.41075,2.9235l-0.93578,1.09175l-0.13656,0.00759l-0.05206,0.05399l-1.76587,1.10367l-1.77912,1.33434l-0.79057,0.33287l-0.69539,0.50223l-2.42641,0.97056l-3.42715,1.46878l-0.62771,0.10124l-0.57083,0.28003l-3.39231,0.72692l-1.65097,0.41274l-0.51318,0.17106l-0.36494,0.02807l-0.3286,0.1612l-3.5,0.75l-0.36831,-0.01249l-0.34685,0.12451l-2.5,0.25l-0.02983,-0.00437l-0.02846,0.00993l-2.75,0.25l-0.04589,-0.00714l-0.04406,0.01469l-3.25,0.25l-0.25127,-0.04267l-0.24726,0.06181h-3.25l-0.26758,-0.0669l-0.27221,0.04444l-2.94632,-0.24553l-3.48031,-0.23202h-0.53357l-0.87956,-0.21989l-0.90613,-0.0302l-1.49704,-0.42773l-2.24203,-0.44841l-0.0887,-0.04202l-0.09813,0.00178l-3.25,-0.75l-0.68958,-0.35183l-0.75572,-0.16794l-2,-1l-0.31185,-0.2673l-0.38681,-0.13815l-2.25,-1.5l-0.23758,-0.26134l-0.31807,-0.15355l-1.41586,-1.17989l-1.97609,-1.53696l-2.0524,-1.36827l-0.43549,-0.47904l-0.55515,-0.33309l-2.5,-2.5l-0.53759,-0.89598l-0.68,-0.79333l-0.73789,-1.47577l-1.14834,-1.53112l-0.22927,-0.54452l-0.3845,-0.44859l-0.86189,-1.72378l-1.03567,-1.65708l-1.94699,-2.92048l-0.33856,-0.94796l-0.50302,-0.8719l-0.28392,-0.99371l-0.60976,-1.06708l-0.05,-0.17779l-0.12019,-0.14023l-0.56033,-1.12067l-0.06339,-0.03622l-0.04528,-0.18112l-0.081,-0.162l-0.22033,-0.99147l-0.00099,-0.00138l-0.5,-1.25l-0.04572,-0.33526l-0.16909,-0.29309l-0.5,-1.75l-0.0302,-0.90613l-0.21989,-0.87956v-3.9452l-0.02036,-0.06109l-0.04341,-0.08683l-0.02894,-0.13024l-0.07372,-0.22117l-0.01301,-0.16913l-0.20832,-0.93742l-0.36223,-1.44893v-0.18112l-0.0405,-0.18224l0.0405,-0.06075v-1.65178l-0.0405,-0.06075l0.0405,-0.18224v-0.18112l0.25,-1l-0.5,-2v-1.32589l-0.0405,-0.06075l0.0405,-0.18224v-0.18112l0.36223,-1.44893l0.13777,-0.61995v-2.18112l0.11347,-0.45388l-0.04814,-0.46536l0.18467,-1.2927v-0.78806l0.25342,-1.01368l0.08014,-1.0418l0.25,-0.75l0.19404,-0.30492l0.0349,-0.1396l0.08475,-0.04843l0.14869,-0.23366l-0.009,-0.42279l0.76461,-0.76461l0.58054,-0.91227l0.41467,-0.08293l0.609,-0.609l0.56385,-0.33831l0.93418,-0.93418l0.89598,-0.53759l0.79333,-0.68l1,-0.5l0.24175,-0.05372zM347.44407,141.51475v-0.29104l-0.03285,0.13138l0.02438,0.18043zM347.5,138.96194l-0.15462,-1.08236l0.12236,1.22364l-0.04779,0.32658l0.08005,0.3202z" fill="#200036" stroke="none"/><path d="M326.95683,120.18313c0.35931,-0.30798 0.71185,-0.60669 1.05832,-0.89641c0.47901,-0.54707 1.04832,-1.01309 1.68465,-1.3748c7.61471,-6.04629 12.60341,-7.52801 23.85115,-8.18425c1.27763,-0.07454 2.44204,-1.02618 3.71966,-0.95143c0.88509,0.05179 5.40816,3.57023 5.45042,3.63361c0.62573,0.9386 -0.00245,5.62445 -0.36336,6.5405c-0.2174,0.55179 -2.45579,2.5105 -2.75311,2.57716c-0.10528,0.0236 -1.24259,3.7453 -1.50981,4.03923c-2.54753,2.80229 -4.99528,6.10238 -7.84131,8.59619c-4.40303,3.85814 -14.16622,5.04929 -19.09619,2.09131c-4.89734,-2.9384 -8.76851,-10.43886 -4.2184,-15.74732z" data-paper-data="{&quot;index&quot;:null}" fill="#ff0000" stroke="none"/><path d="M361.67874,154.11163c-2.06315,4.42656 -5.18303,8.39635 -9.30571,11.32732c-4.34837,2.71936 -8.49666,5.36446 -13.85728,5.34761l-0.16707,-0.00037c0,0 -0.5788,-0.00091 -0.85597,0.43838c-3.15575,-1.7356 -5.67107,-3.3874 -6.99164,-6.65569c0.83144,0.31449 2.03134,0.45318 2.61364,0.71996c1.13283,0.519 5.03778,3.08115 6.29017,1.69704c1.2315,-1.36104 0.02607,-3.01519 -0.83309,-4.14754c1.7196,0.55794 3.6935,0.87546 4.69289,1.04491l0.97567,0.15359c0.05932,0.01097 0.11878,0.01453 0.18128,0.01453c0.55228,0 0.91854,-0.39026 0.91854,-0.94254c0,-0.16796 -0.04833,-0.35444 -0.12149,-0.4934l-0.48049,-1.01008l-0.15401,0.07931c-0.17527,-0.49058 -0.36002,-0.98358 -0.56232,-1.46297c0.56592,0.55034 1.10435,1.02011 1.42135,1.31502c0.43752,0.40704 0.73974,1.25863 1.33501,1.20596c1.66057,-0.14692 2.275,-2.45268 2.19837,-4.20726c0.81203,0.92737 1.89495,2.23184 1.92141,2.22741c1.80699,-0.30229 3.13633,-3.07496 4.12888,-5.37972c0.1334,0.46218 0.40057,0.88388 0.59154,1.40061c0.21048,0.56954 0.1336,1.51062 0.71549,1.68404c1.56294,0.46581 2.46144,-1.18577 3.23759,-2.01737c0.74788,-0.80131 1.5293,-1.51196 2.10724,-2.33874z" data-paper-data="{&quot;noHover&quot;:false,&quot;origItem&quot;:[&quot;Path&quot;,{&quot;applyMatrix&quot;:true,&quot;segments&quot;:[[[454.95966,181.3627],[0.74788,-0.80131],[-0.77615,0.8316]],[[451.63039,183.41995],[1.56294,0.46581],[-0.58189,-0.17342]],[[450.91862,181.74322],[0.21048,0.56954],[-0.19097,-0.51673]],[[450.40839,180.28477],[0.1334,0.46218],[-0.99255,2.30476]],[[446.28725,185.67769],[1.80699,-0.30229],[-0.02646,0.00443]],[[444.2907,183.50965],[0.81203,0.92737],[0.07663,1.75458]],[[442.17063,187.68173],[1.66057,-0.14692],[-0.59527,0.05267]],[[440.81095,186.51327],[0.43752,0.40704],[-0.317,-0.29491]],[[439.39696,185.19307],[0.56592,0.55034],[0.2023,0.47939]],[[439.96889,186.64511],[-0.17527,-0.49058],[0,0]],[440.12036,186.56937],[[440.61136,187.55138],[0,0],[0.07316,0.13896]],[[440.72593,188.01659],[0,-0.16796],[0,0.55228]],[[439.72593,189.01659],[0.55228,0],[-0.0625,0]],[[439.54295,188.99989],[0.05932,0.01097],[0,0]],[[438.56153,188.83632],[0,0],[-0.99939,-0.16945]],[[433.96453,187.77043],[1.7196,0.55794],[0.85916,1.13235]],[[434.70564,191.94628],[1.2315,-1.36104],[-1.25239,1.38411]],[[428.40845,190.23201],[1.13283,0.519],[-0.5823,-0.26678]],[[425.89345,189.49606],[0.83144,0.31449],[1.32057,3.26829]],[[432.87089,196.12254],[-3.15575,-1.7356],[0.27717,-0.43929]],[433.72593,195.68325],[[433.8926,195.68325],[0,0],[5.36062,0.01685]],[[447.67005,190.35199],[-4.34837,2.71936],[4.12268,-2.93097]],[[456.97765,179.06894],[-2.06315,4.42656],[-0.57794,0.82678]]],&quot;closed&quot;:true,&quot;fillColor&quot;:[0,0,0,1]}],&quot;index&quot;:null}" fill="#ffffff" stroke="none"/><path d="M338.43545,142.24412c2.72941,-0.56201 5.40935,-1.34526 7.97239,-2.50614c4.36075,-2.05175 8.31379,-5.16499 11.71267,-8.57075c1.24381,-1.24633 2.29693,-2.44503 3.24936,-3.93536c0.06712,-0.10503 0.20095,-0.33701 0.26829,-0.50897c0.39604,0.92786 1.22443,2.05749 1.3996,2.38113c0.24073,0.44477 0.41963,0.88877 0.55109,1.33176l0.0003,0.19991c0,4.3517 -0.75453,9.16215 -2.72334,13.10702c-0.79698,1.5969 -2.47478,3.04118 -3.62154,4.61967c0.782,-4.25679 1.34901,-9.13857 -0.40121,-12.88428l0.284,-0.09536l-0.32216,-0.97402c-0.12567,-0.40863 -0.50071,-0.70121 -0.95055,-0.70121c-0.50931,0 -0.87376,0.29788 -0.9361,0.79026l-0.16134,1.15439l0.00315,0.00046l-0.00433,0.00825c-0.5667,4.67994 -2.31185,9.66452 -4.12936,14.00033c-0.15527,0.37041 -0.39428,0.71244 -0.63735,1.04296c-0.13786,-3.05808 -0.61401,-6.29485 -1.78618,-9.02713l0.271,-0.06705l-0.33185,-1.33707c-0.10106,-0.44532 -0.40137,-0.75957 -0.87727,-0.75957c-0.55228,0 -0.99819,0.43492 -0.99819,0.9872l-0.00085,0.94359c-0.40196,3.23309 -0.15952,6.48492 -0.52043,9.73077c-0.11358,1.02152 -0.58775,2.19582 -0.66843,3.21415c-0.88246,-1.22524 -2.10441,-2.03358 -2.87719,-3.38463c-1.44753,-2.5307 -2.00846,-4.95512 -3.31389,-7.24762l0.32054,-0.18743z" data-paper-data="{&quot;noHover&quot;:false,&quot;origItem&quot;:[&quot;Path&quot;,{&quot;applyMatrix&quot;:true,&quot;segments&quot;:[[434.59746,168.74028],[[434.27682,168.92732],[0,0],[1.30543,2.2925]],[[437.57461,176.14949],[-1.44753,-2.5307],[0.77278,1.35105]],[[440.43928,179.52639],[-0.88246,-1.22524],[0.08068,-1.01833]],[[441.06575,176.40297],[-0.11358,1.02152],[0.36091,-3.24585]],[[441.55927,166.63663],[-0.40196,3.23309],[0,0]],[[441.55927,165.68327],[0,0],[0,-0.55228]],[[442.55927,164.68327],[-0.55228,0],[0.4759,0]],[[443.53449,165.46103],[-0.10106,-0.44532],[0,0]],[443.86275,166.77407],[[443.59201,166.84176],[0,0],[1.17217,2.73228]],[[445.3368,175.83769],[-0.13786,-3.05808],[0.24307,-0.33052]],[[445.97126,174.79452],[-0.15527,0.37041],[1.81751,-4.33581]],[[450.06812,160.88386],[-0.5667,4.67994],[0,0]],[450.07246,160.87563],[450.06933,160.87518],[[450.23392,159.72307],[0,0],[0.06234,-0.49238]],[[451.22595,158.84993],[-0.50931,0],[0.44984,0]],[[452.18193,159.55559],[-0.12567,-0.40863],[0,0]],[452.50797,160.53371],[[452.2235,160.62853],[0,0],[1.75022,3.74571]],[[452.61818,173.58475],[0.782,-4.25679],[1.14676,-1.57849]],[[456.16098,168.91058],[-0.79698,1.5969],[1.96881,-3.94487]],[[458.89263,155.84993],[0,4.3517],[0,0]],[[458.89263,155.6504],[0,0],[-0.13146,-0.44299]],[[458.34429,154.32178],[0.24073,0.44477],[-0.17517,-0.32364]],[[456.95044,151.94582],[0.39604,0.92786],[-0.06734,0.17196]],[[456.74329,152.37565],[0.06712,-0.10503],[-0.95243,1.49033]],[[453.43308,156.39036],[1.24381,-1.24633],[-3.39888,3.40576]],[[441.79982,164.92994],[4.36075,-2.05175],[-2.56304,1.16088]],[[433.82775,167.42072],[2.72941,-0.56201],[0,0]]],&quot;closed&quot;:true,&quot;fillColor&quot;:[0,0,0,1]}],&quot;index&quot;:null}" fill="#ffffff" stroke="none"/><path d="M326.27565,144.67564c-0.06634,-0.16505 -0.17507,-0.30867 -0.3132,-0.41645c0.51212,-0.08276 1.03137,-0.16403 1.54461,-0.22854c2.91422,-0.36631 5.9288,-0.68572 8.85021,-1.18159l-0.10092,0.71934l0.02399,0.00349l-0.03134,0.06718c-0.00169,0.94001 0.00911,1.89066 0.01137,2.83067c0.56185,3.37109 -0.02681,6.99479 0.93713,10.31759c0.11601,0.39991 -0.57362,-0.61416 -0.9199,-0.84541c-1.49937,-1.0013 -2.59124,-2.27201 -3.84318,-3.52313c-2.05808,-2.05672 -3.82517,-4.42385 -5.72065,-6.5731l0.05023,-0.02172l-0.48836,-1.14831z" data-paper-data="{&quot;noHover&quot;:false,&quot;origItem&quot;:[&quot;Path&quot;,{&quot;applyMatrix&quot;:true,&quot;segments&quot;:[[421.65416,169.64385],[422.14508,170.78933],[[422.0951,170.81075],[0,0],[1.89548,2.14925]],[[427.76145,177.30458],[-2.05808,-2.05672],[1.25194,1.25112]],[[431.58981,180.83559],[-1.49937,-1.0013],[0.34628,0.23125]],[[432.50878,181.68174],[0.11601,0.39991],[-0.96394,-3.3228]],[[431.56268,171.43239],[0.56185,3.37109],[-0.00226,-0.94001]],[[431.56179,168.61235],[-0.00169,0.94001],[0,0]],[431.59321,168.54523],[431.56933,168.54182],[[431.67192,167.82367],[0,0],[-2.92141,0.49587]],[[422.87847,169.00488],[2.91422,-0.36631],[-0.51324,0.06451]],[[421.34062,169.22774],[0.51212,-0.08276],[0.13813,0.10778]],[[421.65417,169.64384],[-0.06634,-0.16505],[0,0]]],&quot;closed&quot;:true,&quot;fillColor&quot;:[0,0,0,1]}],&quot;index&quot;:null}" fill="#ffffff" stroke="none"/><path d="M252.74626,218.54109c-1.59855,-0.31426 -3.38905,-0.69215 -5.04042,-0.76158l-0.19062,-0.7609c0,0 -0.30476,0.00004 -0.57728,0.16707c-2.38656,0.52538 -4.60988,0.57185 -7.09218,0.58525c-9.38635,-1.87727 -17.61853,-7.33481 -24.17455,-13.99926c-1.42126,-1.41595 -2.7697,-3.28455 -3.52538,-5.16181c-0.10377,-0.2578 -0.28391,-2.15325 -0.47468,-3.29506c0.13531,0.16449 0.37858,0.31912 0.48667,0.41166c0.96788,0.82868 1.4798,1.01009 2.56501,1.79914c2.67781,1.94704 5.20962,3.41419 8.30431,4.64162c6.86184,1.39426 14.50633,0.50504 21.50462,0.50504c0,0 0.45762,-0.0018 0.75353,-0.31677c1.50376,0.32863 2.97213,0.65306 4.46255,1.03875l0.73862,0.03207c0,0 0.99222,0.00604 0.99222,-0.99396c0,-1 -0.93145,-0.92719 -0.93145,-0.92719l-0.25889,0.03113c-4.459,-1.08402 -9.10727,-1.7367 -13.39061,-3.71593c-2.31507,-1.06973 -4.30864,-3.04337 -6.26614,-4.60937c-2.87689,-2.88338 -6.85931,-4.59487 -9.70698,-7.47002c-1.3249,-1.33768 -2.63848,-2.81809 -4.05059,-4.05106c-0.13872,-0.12113 -0.35775,-0.31174 -0.57405,-0.46658c1.24667,-0.03257 3.83282,-0.42404 4.29317,-0.53912c10.55962,0.09013 19.81963,2.50557 29.71258,6.22128c3.64938,1.36816 7.76803,2.57011 11.58464,4.19384c0.10623,0.2785 0.35264,0.60276 0.9199,0.60276c0.12739,0 0.23862,-0.01604 0.33562,-0.04436c4.06998,1.8799 7.72865,4.39576 10.05947,8.33032c0,0 0.41502,0.84728 1.27251,0.33278c0.8575,-0.51449 0.3428,-1.36952 0.3428,-1.36952c-2.65569,-4.37894 -6.683,-7.06241 -11.14725,-9.10405c-0.37486,-3.90619 -3.06403,-6.12394 -5.74993,-8.81244c-2.65999,-2.66257 -5.43698,-4.87746 -8.40107,-7.12512c1.25898,-0.01525 2.64996,-0.4972 3.81511,-0.25724c0.79615,0.16396 1.51563,0.65673 2.32162,0.76214c4.54678,0.59464 8.73541,4.08308 12.80879,6.0847c4.96872,5.07624 12.58271,11.10329 12.60257,18.84441c1.48354,6.10246 0.15703,10.03783 -3.32482,15.06427c-1.00019,1.44388 -3.04256,2.26806 -4.27765,3.52987c-4.15946,2.01011 -8.06132,3.67582 -12.80732,3.08133c-2.72564,-0.34142 -5.2456,-1.81166 -7.91446,-2.47811z" data-paper-data="{&quot;noHover&quot;:false,&quot;origItem&quot;:[&quot;Path&quot;,{&quot;applyMatrix&quot;:true,&quot;segments&quot;:[[[407.71939,236.77439],[0,0],[2.66886,0.66645]],[[415.62219,239.25752],[-2.72564,-0.34142],[4.746,0.59449]],[[428.4153,236.18878],[-4.15946,2.01011],[1.23509,-1.26181]],[[432.68877,232.66531],[-1.00019,1.44388],[3.48185,-5.02644]],[[436.00751,217.62221],[1.48354,6.10246],[-0.01986,-7.74112]],[[423.41531,198.81127],[4.96872,5.07624],[-4.07338,-2.00162]],[[410.62783,192.74253],[4.54678,0.59464],[-0.80599,-0.10541]],[[408.31091,191.98197],[0.79615,0.16396],[-1.16515,-0.23996]],[[404.51537,192.14144],[1.25898,-0.01525],[2.96409,2.24766]],[[412.93878,199.27503],[-2.65999,-2.66257],[2.6859,2.6885]],[[418.70607,208.10843],[-0.37486,-3.90619],[4.46425,2.04164]],[[429.85751,217.23551],[-2.65569,-4.37894],[0,0]],[[429.51451,218.6075],[0.8575,-0.51449],[-0.85749,0.5145]],[[428.14252,218.2645],[0,0],[-2.33082,-3.93456]],[[418.08556,209.95546],[4.06998,1.8799],[-0.097,0.02832]],[[417.75001,210.00001],[0.12739,0],[-0.56726,0]],[[416.83105,209.39973],[0.10623,0.2785],[-3.81661,-1.62373]],[[405.27623,205.23409],[3.64938,1.36816],[-9.89295,-3.71571]],[[375.62219,198.99252],[10.55962,0.09013],[-0.46035,0.11508]],[[371.33105,199.52816],[1.24667,-0.03257],[0.2163,0.15484]],[[371.9052,199.99455],[-0.13872,-0.12113],[1.41211,1.23297]],[[375.95711,204.0429],[-1.3249,-1.33768],[2.84767,2.87515]],[[385.66692,211.50488],[-2.87689,-2.88338],[1.9575,1.566]],[[391.9346,216.09938],[-2.31507,-1.06973],[4.28334,1.97923]],[[405.24253,219.77987],[-4.459,-1.08402],[0,0]],[405.5,219.75001],[[406.5,220.75001],[0,-1],[0,1]],[405.5,221.75001],[[404.75747,221.72016],[0,0],[-1.49042,-0.38569]],[[400.25884,220.68505],[1.50376,0.32863],[-0.29591,0.31497]],[[399.5,221.00002],[0,0],[-6.99829,0]],[[377.96506,220.45856],[6.86184,1.39426],[-3.09469,-1.22743]],[[369.65975,215.80724],[2.67781,1.94704],[-1.08521,-0.78905]],[[367.0948,214.00548],[0.96788,0.82868],[-0.10809,-0.09254]],[[366.70799,213.5991],[0.13531,0.16449],[0.19077,1.14181]],[[367.18272,216.88943],[-0.10377,-0.2578],[0.75568,1.87726]],[[370.7071,222.04292],[-1.42126,-1.41595],[6.55602,6.66445]],[[394.84854,236.00489],[-9.38635,-1.87727],[2.4823,-0.0134]],[[401.92419,235.41706],[-2.38656,0.52538],[0.27252,-0.16703]],[402.5,235.25003],[[402.69023,236.01095],[0,0],[1.65137,0.06943]],[[407.71939,236.7744],[-1.59855,-0.31426],[0,0]]],&quot;closed&quot;:true,&quot;fillColor&quot;:[0,0,0,1]}]}" fill="#200036" stroke="none"/><path d="M393.96893,216.25281c-2.66886,0.66645 -5.18882,2.13669 -7.91446,2.47811c-4.746,0.59449 -8.64786,-1.07122 -12.80732,-3.08133c-1.23509,-1.26181 -3.27746,-2.08599 -4.27765,-3.52987c-3.48185,-5.02644 -4.80836,-8.96181 -3.32482,-15.06427c0.01986,-7.74112 7.63385,-13.76817 12.60257,-18.84441c4.07338,-2.00162 8.26201,-5.49006 12.80879,-6.0847c0.80599,-0.10541 1.52547,-0.59818 2.32162,-0.76214c1.16515,-0.23996 2.55613,0.24199 3.81511,0.25724c-2.96409,2.24766 -5.74108,4.46255 -8.40107,7.12512c-2.6859,2.6885 -5.37507,4.90625 -5.74993,8.81244c-4.46425,2.04164 -8.49156,4.72511 -11.14725,9.10405c0,0 -0.5147,0.85503 0.3428,1.36952c0.85749,0.5145 1.27251,-0.33278 1.27251,-0.33278c2.33082,-3.93456 5.98949,-6.45042 10.05947,-8.33032c0.097,0.02832 0.20823,0.04436 0.33562,0.04436c0.56726,0 0.81367,-0.32426 0.9199,-0.60276c3.81661,-1.62373 7.93526,-2.82568 11.58464,-4.19384c9.89295,-3.71571 19.15296,-6.13115 29.71258,-6.22128c0.46035,0.11508 3.0465,0.50655 4.29317,0.53912c-0.2163,0.15484 -0.43533,0.34545 -0.57405,0.46658c-1.41211,1.23297 -2.72569,2.71338 -4.05059,4.05106c-2.84767,2.87515 -6.83009,4.58664 -9.70698,7.47002c-1.9575,1.566 -3.95107,3.53964 -6.26614,4.60937c-4.28334,1.97923 -8.93161,2.63191 -13.39061,3.71593l-0.25889,-0.03113c0,0 -0.93145,-0.07281 -0.93145,0.92719c0,1 0.99222,0.99396 0.99222,0.99396l0.73862,-0.03207c1.49042,-0.38569 2.95879,-0.71012 4.46255,-1.03875c0.29591,0.31497 0.75353,0.31677 0.75353,0.31677c6.99829,0 14.64278,0.88922 21.50462,-0.50504c3.09469,-1.22743 5.6265,-2.69458 8.30431,-4.64162c1.08521,-0.78905 1.59713,-0.97046 2.56501,-1.79914c0.10809,-0.09254 0.35136,-0.24717 0.48667,-0.41166c-0.19077,1.14181 -0.37091,3.03726 -0.47468,3.29506c-0.75568,1.87726 -2.10412,3.74586 -3.52538,5.16181c-6.55602,6.66445 -14.7882,12.12199 -24.17455,13.99926c-2.4823,-0.0134 -4.70562,-0.05987 -7.09218,-0.58525c-0.27252,-0.16703 -0.57728,-0.16707 -0.57728,-0.16707l-0.19062,0.7609c-1.65137,0.06943 -3.44187,0.44732 -5.04042,0.76158z" data-paper-data="{&quot;noHover&quot;:false,&quot;origItem&quot;:[&quot;Path&quot;,{&quot;applyMatrix&quot;:true,&quot;segments&quot;:[[[407.71939,236.77439],[0,0],[2.66886,0.66645]],[[415.62219,239.25752],[-2.72564,-0.34142],[4.746,0.59449]],[[428.4153,236.18878],[-4.15946,2.01011],[1.23509,-1.26181]],[[432.68877,232.66531],[-1.00019,1.44388],[3.48185,-5.02644]],[[436.00751,217.62221],[1.48354,6.10246],[-0.01986,-7.74112]],[[423.41531,198.81127],[4.96872,5.07624],[-4.07338,-2.00162]],[[410.62783,192.74253],[4.54678,0.59464],[-0.80599,-0.10541]],[[408.31091,191.98197],[0.79615,0.16396],[-1.16515,-0.23996]],[[404.51537,192.14144],[1.25898,-0.01525],[2.96409,2.24766]],[[412.93878,199.27503],[-2.65999,-2.66257],[2.6859,2.6885]],[[418.70607,208.10843],[-0.37486,-3.90619],[4.46425,2.04164]],[[429.85751,217.23551],[-2.65569,-4.37894],[0,0]],[[429.51451,218.6075],[0.8575,-0.51449],[-0.85749,0.5145]],[[428.14252,218.2645],[0,0],[-2.33082,-3.93456]],[[418.08556,209.95546],[4.06998,1.8799],[-0.097,0.02832]],[[417.75001,210.00001],[0.12739,0],[-0.56726,0]],[[416.83105,209.39973],[0.10623,0.2785],[-3.81661,-1.62373]],[[405.27623,205.23409],[3.64938,1.36816],[-9.89295,-3.71571]],[[375.62219,198.99252],[10.55962,0.09013],[-0.46035,0.11508]],[[371.33105,199.52816],[1.24667,-0.03257],[0.2163,0.15484]],[[371.9052,199.99455],[-0.13872,-0.12113],[1.41211,1.23297]],[[375.95711,204.0429],[-1.3249,-1.33768],[2.84767,2.87515]],[[385.66692,211.50488],[-2.87689,-2.88338],[1.9575,1.566]],[[391.9346,216.09938],[-2.31507,-1.06973],[4.28334,1.97923]],[[405.24253,219.77987],[-4.459,-1.08402],[0,0]],[405.5,219.75001],[[406.5,220.75001],[0,-1],[0,1]],[405.5,221.75001],[[404.75747,221.72016],[0,0],[-1.49042,-0.38569]],[[400.25884,220.68505],[1.50376,0.32863],[-0.29591,0.31497]],[[399.5,221.00002],[0,0],[-6.99829,0]],[[377.96506,220.45856],[6.86184,1.39426],[-3.09469,-1.22743]],[[369.65975,215.80724],[2.67781,1.94704],[-1.08521,-0.78905]],[[367.0948,214.00548],[0.96788,0.82868],[-0.10809,-0.09254]],[[366.70799,213.5991],[0.13531,0.16449],[0.19077,1.14181]],[[367.18272,216.88943],[-0.10377,-0.2578],[0.75568,1.87726]],[[370.7071,222.04292],[-1.42126,-1.41595],[6.55602,6.66445]],[[394.84854,236.00489],[-9.38635,-1.87727],[2.4823,-0.0134]],[[401.92419,235.41706],[-2.38656,0.52538],[0.27252,-0.16703]],[402.5,235.25003],[[402.69023,236.01095],[0,0],[1.65137,0.06943]],[[407.71939,236.7744],[-1.59855,-0.31426],[0,0]]],&quot;closed&quot;:true,&quot;fillColor&quot;:[0,0,0,1]}],&quot;index&quot;:null}" fill="#200036" stroke="none"/><path d="M314.58995,120.50692c4.55011,5.30846 0.67894,12.80892 -4.2184,15.74732c-4.92997,2.95798 -14.69316,1.76683 -19.09619,-2.09131c-2.84603,-2.49381 -5.29378,-5.7939 -7.84131,-8.59619c-0.26722,-0.29393 -1.40453,-4.01563 -1.50981,-4.03923c-0.29732,-0.06666 -2.53571,-2.02537 -2.75311,-2.57716c-0.36091,-0.91605 -0.98909,-5.6019 -0.36336,-6.5405c0.04226,-0.06338 4.56533,-3.58182 5.45042,-3.63361c1.27762,-0.07475 2.44203,0.87689 3.71966,0.95143c11.24774,0.65624 16.23644,2.13796 23.85115,8.18425c0.63633,0.36171 1.20564,0.82773 1.68465,1.3748c0.34647,0.28972 0.69901,0.58843 1.05832,0.89641z" data-paper-data="{&quot;index&quot;:null}" fill="#ff0000" stroke="none"/><path d="M277.85006,154.11164c0.57794,0.82678 1.35936,1.53743 2.10724,2.33874c0.77615,0.8316 1.67465,2.48318 3.23759,2.01737c0.58189,-0.17342 0.50501,-1.1145 0.71549,-1.68404c0.19097,-0.51673 0.45814,-0.93843 0.59154,-1.40061c0.99255,2.30476 2.32189,5.07743 4.12888,5.37972c0.02646,0.00443 1.10938,-1.30004 1.92141,-2.22741c-0.07663,1.75458 0.5378,4.06034 2.19837,4.20726c0.59527,0.05267 0.89749,-0.79892 1.33501,-1.20596c0.317,-0.29491 0.85543,-0.76468 1.42135,-1.31502c-0.2023,0.47939 -0.38705,0.97239 -0.56232,1.46297l-0.15401,-0.07931l-0.48049,1.01008c-0.07316,0.13896 -0.12149,0.32544 -0.12149,0.4934c0,0.55228 0.36626,0.94254 0.91854,0.94254c0.0625,0 0.12196,-0.00356 0.18128,-0.01453l0.97567,-0.15359c0.99939,-0.16945 2.97329,-0.48697 4.69289,-1.04491c-0.85916,1.13235 -2.06459,2.7865 -0.83309,4.14754c1.25239,1.38411 5.15734,-1.17804 6.29017,-1.69704c0.5823,-0.26678 1.7822,-0.40547 2.61364,-0.71996c-1.32057,3.26829 -3.83589,4.92009 -6.99164,6.65569c-0.27717,-0.43929 -0.85597,-0.43838 -0.85597,-0.43838l-0.16707,0.00037c-5.36062,0.01685 -9.50891,-2.62825 -13.85728,-5.34761c-4.12268,-2.93097 -7.24256,-6.90076 -9.30571,-11.32732z" data-paper-data="{&quot;noHover&quot;:false,&quot;origItem&quot;:[&quot;Path&quot;,{&quot;applyMatrix&quot;:true,&quot;segments&quot;:[[[454.95966,181.3627],[0.74788,-0.80131],[-0.77615,0.8316]],[[451.63039,183.41995],[1.56294,0.46581],[-0.58189,-0.17342]],[[450.91862,181.74322],[0.21048,0.56954],[-0.19097,-0.51673]],[[450.40839,180.28477],[0.1334,0.46218],[-0.99255,2.30476]],[[446.28725,185.67769],[1.80699,-0.30229],[-0.02646,0.00443]],[[444.2907,183.50965],[0.81203,0.92737],[0.07663,1.75458]],[[442.17063,187.68173],[1.66057,-0.14692],[-0.59527,0.05267]],[[440.81095,186.51327],[0.43752,0.40704],[-0.317,-0.29491]],[[439.39696,185.19307],[0.56592,0.55034],[0.2023,0.47939]],[[439.96889,186.64511],[-0.17527,-0.49058],[0,0]],[440.12036,186.56937],[[440.61136,187.55138],[0,0],[0.07316,0.13896]],[[440.72593,188.01659],[0,-0.16796],[0,0.55228]],[[439.72593,189.01659],[0.55228,0],[-0.0625,0]],[[439.54295,188.99989],[0.05932,0.01097],[0,0]],[[438.56153,188.83632],[0,0],[-0.99939,-0.16945]],[[433.96453,187.77043],[1.7196,0.55794],[0.85916,1.13235]],[[434.70564,191.94628],[1.2315,-1.36104],[-1.25239,1.38411]],[[428.40845,190.23201],[1.13283,0.519],[-0.5823,-0.26678]],[[425.89345,189.49606],[0.83144,0.31449],[1.32057,3.26829]],[[432.87089,196.12254],[-3.15575,-1.7356],[0.27717,-0.43929]],[433.72593,195.68325],[[433.8926,195.68325],[0,0],[5.36062,0.01685]],[[447.67005,190.35199],[-4.34837,2.71936],[4.12268,-2.93097]],[[456.97765,179.06894],[-2.06315,4.42656],[-0.57794,0.82678]]],&quot;closed&quot;:true,&quot;fillColor&quot;:[0,0,0,1]}],&quot;index&quot;:null}" fill="#ffffff" stroke="none"/><path d="M300.32252,143.56938l0.32054,0.18743c-1.30543,2.2925 -1.86636,4.71692 -3.31389,7.24762c-0.77278,1.35105 -1.99473,2.15939 -2.87719,3.38463c-0.08068,-1.01833 -0.55485,-2.19263 -0.66843,-3.21415c-0.36091,-3.24585 -0.11847,-6.49768 -0.52043,-9.73077l-0.00085,-0.94359c0,-0.55228 -0.44591,-0.9872 -0.99819,-0.9872c-0.4759,0 -0.77621,0.31425 -0.87727,0.75957l-0.33185,1.33707l0.271,0.06705c-1.17217,2.73228 -1.64832,5.96905 -1.78618,9.02713c-0.24307,-0.33052 -0.48208,-0.67255 -0.63735,-1.04296c-1.81751,-4.33581 -3.56266,-9.32039 -4.12936,-14.00033l-0.00433,-0.00825l0.00315,-0.00046l-0.16134,-1.15439c-0.06234,-0.49238 -0.42679,-0.79026 -0.9361,-0.79026c-0.44984,0 -0.82488,0.29258 -0.95055,0.70121l-0.32216,0.97402l0.284,0.09536c-1.75022,3.74571 -1.18321,8.62749 -0.40121,12.88428c-1.14676,-1.57849 -2.82456,-3.02277 -3.62154,-4.61967c-1.96881,-3.94487 -2.72334,-8.75532 -2.72334,-13.10702l0.0003,-0.19991c0.13146,-0.44299 0.31036,-0.88699 0.55109,-1.33176c0.17517,-0.32364 1.00356,-1.45327 1.3996,-2.38113c0.06734,0.17196 0.20117,0.40394 0.26829,0.50897c0.95243,1.49033 2.00555,2.68903 3.24936,3.93536c3.39888,3.40576 7.35192,6.519 11.71267,8.57075c2.56304,1.16088 5.24298,1.94413 7.97239,2.50614z" data-paper-data="{&quot;noHover&quot;:false,&quot;origItem&quot;:[&quot;Path&quot;,{&quot;applyMatrix&quot;:true,&quot;segments&quot;:[[434.59746,168.74028],[[434.27682,168.92732],[0,0],[1.30543,2.2925]],[[437.57461,176.14949],[-1.44753,-2.5307],[0.77278,1.35105]],[[440.43928,179.52639],[-0.88246,-1.22524],[0.08068,-1.01833]],[[441.06575,176.40297],[-0.11358,1.02152],[0.36091,-3.24585]],[[441.55927,166.63663],[-0.40196,3.23309],[0,0]],[[441.55927,165.68327],[0,0],[0,-0.55228]],[[442.55927,164.68327],[-0.55228,0],[0.4759,0]],[[443.53449,165.46103],[-0.10106,-0.44532],[0,0]],[443.86275,166.77407],[[443.59201,166.84176],[0,0],[1.17217,2.73228]],[[445.3368,175.83769],[-0.13786,-3.05808],[0.24307,-0.33052]],[[445.97126,174.79452],[-0.15527,0.37041],[1.81751,-4.33581]],[[450.06812,160.88386],[-0.5667,4.67994],[0,0]],[450.07246,160.87563],[450.06933,160.87518],[[450.23392,159.72307],[0,0],[0.06234,-0.49238]],[[451.22595,158.84993],[-0.50931,0],[0.44984,0]],[[452.18193,159.55559],[-0.12567,-0.40863],[0,0]],[452.50797,160.53371],[[452.2235,160.62853],[0,0],[1.75022,3.74571]],[[452.61818,173.58475],[0.782,-4.25679],[1.14676,-1.57849]],[[456.16098,168.91058],[-0.79698,1.5969],[1.96881,-3.94487]],[[458.89263,155.84993],[0,4.3517],[0,0]],[[458.89263,155.6504],[0,0],[-0.13146,-0.44299]],[[458.34429,154.32178],[0.24073,0.44477],[-0.17517,-0.32364]],[[456.95044,151.94582],[0.39604,0.92786],[-0.06734,0.17196]],[[456.74329,152.37565],[0.06712,-0.10503],[-0.95243,1.49033]],[[453.43308,156.39036],[1.24381,-1.24633],[-3.39888,3.40576]],[[441.79982,164.92994],[4.36075,-2.05175],[-2.56304,1.16088]],[[433.82775,167.42072],[2.72941,-0.56201],[0,0]]],&quot;closed&quot;:true,&quot;fillColor&quot;:[0,0,0,1]}],&quot;index&quot;:null}" fill="#ffffff" stroke="none"/><path d="M313.25316,144.67566l-0.48836,1.14831l0.05023,0.02172c-1.89548,2.14925 -3.66257,4.51638 -5.72065,6.5731c-1.25194,1.25112 -2.34381,2.52183 -3.84318,3.52313c-0.34628,0.23125 -1.03591,1.24532 -0.9199,0.84541c0.96394,-3.3228 0.37528,-6.9465 0.93713,-10.31759c0.00226,-0.94001 0.01306,-1.89066 0.01137,-2.83067l-0.03134,-0.06718l0.02399,-0.00349l-0.10092,-0.71934c2.92141,0.49587 5.93599,0.81528 8.85021,1.18159c0.51324,0.06451 1.03249,0.14578 1.54461,0.22854c-0.13813,0.10778 -0.24686,0.2514 -0.3132,0.41645z" data-paper-data="{&quot;noHover&quot;:false,&quot;origItem&quot;:[&quot;Path&quot;,{&quot;applyMatrix&quot;:true,&quot;segments&quot;:[[421.65416,169.64385],[422.14508,170.78933],[[422.0951,170.81075],[0,0],[1.89548,2.14925]],[[427.76145,177.30458],[-2.05808,-2.05672],[1.25194,1.25112]],[[431.58981,180.83559],[-1.49937,-1.0013],[0.34628,0.23125]],[[432.50878,181.68174],[0.11601,0.39991],[-0.96394,-3.3228]],[[431.56268,171.43239],[0.56185,3.37109],[-0.00226,-0.94001]],[[431.56179,168.61235],[-0.00169,0.94001],[0,0]],[431.59321,168.54523],[431.56933,168.54182],[[431.67192,167.82367],[0,0],[-2.92141,0.49587]],[[422.87847,169.00488],[2.91422,-0.36631],[-0.51324,0.06451]],[[421.34062,169.22774],[0.51212,-0.08276],[0.13813,0.10778]],[[421.65417,169.64384],[-0.06634,-0.16505],[0,0]]],&quot;closed&quot;:true,&quot;fillColor&quot;:[0,0,0,1]}],&quot;index&quot;:null}" fill="#ffffff" stroke="none"/></g></g></svg>