<svg version="1.1" xmlns="http://www.w3.org/2000/svg" xmlns:xlink="http://www.w3.org/1999/xlink" width="25.86012" height="25.82814" viewBox="0,0,25.86012,25.82814"><g transform="translate(-307.1707,-167.17038)"><g data-paper-data="{&quot;isPaintingLayer&quot;:true}" fill-rule="nonzero" stroke-linecap="butt" stroke-linejoin="miter" stroke-miterlimit="10" stroke-dasharray="" stroke-dashoffset="0" style="mix-blend-mode: normal"><path d="M327.55347,189.98551c-5.49364,4.13516 -13.28381,3.05452 -17.39983,-2.41369c-4.11602,-5.4682 -2.99924,-13.25328 2.4944,-17.38844c5.49364,-4.13516 13.28381,-3.05452 17.39983,2.41369c4.11602,5.4682 2.99924,13.25328 -2.4944,17.38844z" fill="#00bcd4" stroke="none" stroke-width="0"/><path d="M330.01248,186.68214c0.58654,0.36659 0.21995,0.95313 0.21995,0.95313l-0.33463,0.52661c-0.55063,0.67655 -1.13835,1.08219 -1.82348,1.61648c-2.12374,0.73452 -4.09787,2.03713 -6.30468,2.49152c-3.64461,0.75043 -6.62978,-1.48076 -9.602,-2.96919c-1.28497,-0.934 -3.13204,-2.45368 -3.64483,-4.01872c-0.30131,-0.91962 -0.16252,-1.98798 -0.36199,-2.94473c-0.26533,-1.2726 -0.83872,-2.45722 -0.57833,-3.78804c0.29819,-1.52401 1.04773,-3.05417 1.54355,-4.52547c2.08621,-3.84307 8.26448,-7.79177 12.64096,-6.13347c0,0 0.44692,0.17189 0.45403,0.60149c0.07642,0.21055 0.03163,0.41957 0.03163,0.41957c-0.8589,3.97305 -0.58146,11.21274 3.07532,13.87975c1.55136,1.11025 3.01649,2.43373 4.43159,3.67245l0.17748,0.176c0.02471,0.01248 0.04986,0.02665 0.07543,0.04263z" fill="#3f51b5" stroke="none" stroke-width="0.5"/><path d="M327.55347,189.98552c-5.49364,4.13517 -13.28381,3.05452 -17.39983,-2.41369c-4.11602,-5.4682 -2.99924,-13.25328 2.49441,-17.38844c5.49364,-4.13517 13.28381,-3.05452 17.39983,2.41369c4.11602,5.4682 2.99924,13.25328 -2.4944,17.38844z" fill="none" stroke="#000000" stroke-width="1"/><path d="M312.00662,189.91069c-0.68226,0.11371 -0.79597,-0.56855 -0.79597,-0.56855l-0.07889,-0.55788c-0.87809,-1.3261 -2.19026,-2.7184 -2.86103,-4.15875c-1.28542,-2.76019 -0.78226,-5.902 -0.16555,-8.68893c0,0 0.08236,-0.37063 0.39964,-0.50168c0.05506,-0.06702 0.13057,-0.13043 0.23255,-0.18605c0.60722,-0.33121 0.93843,0.27601 0.93843,0.27601c1.44224,2.64763 3.32729,5.00356 4.57407,7.76452c0.37726,0.83543 1.73214,1.5865 1.79202,2.49983c0.06368,0.97117 -1.48536,2.59294 -2.01418,3.37647c-0.53401,0.28069 -1.09433,0.52676 -1.67883,0.67615l-0.13977,0.0102c-0.05816,0.02564 -0.12521,0.0458 -0.20247,0.05868z" fill="#000000" stroke="none" stroke-width="0.5"/></g></g></svg>