<svg version="1.1" xmlns="http://www.w3.org/2000/svg" xmlns:xlink="http://www.w3.org/1999/xlink" width="687.10047" height="826.45465" viewBox="0,0,687.10047,826.45465"><g transform="translate(-89,17)"><g data-paper-data="{&quot;isPaintingLayer&quot;:true}" fill="#4d4d4d" fill-rule="nonzero" stroke-linecap="butt" stroke-linejoin="miter" stroke-miterlimit="10" stroke-dasharray="" stroke-dashoffset="0" style="mix-blend-mode: normal"><path d="M266.25,204v-15l170,-17l-12.30263,32z" stroke="#000000" stroke-width="2"/><path d="M90,266v-282h20v282z" stroke="#000000" stroke-width="2"/><path d="M372.20708,808.38822l-99.24644,-18.73884c0,0 121.49925,-341.08865 126.25413,-366.2719c11.71614,-62.05217 1.57814,-310.7657 1.57814,-310.7657l329.24644,-1.26116c0,0 75.21956,231.13669 31.2905,316.70807c-66.06372,128.6885 -389.12277,380.32953 -389.12277,380.32953z" stroke="#000000" stroke-width="2"/><path d="M90,328v-16h168v16z" stroke="#000000" stroke-width="2"/><path d="M90,268v-16h168v16z" stroke="#000000" stroke-width="2"/><path d="M91,261v-17.66667h18v17.66667z" stroke="none" stroke-width="0"/></g></g></svg>