<svg version="1.1" xmlns="http://www.w3.org/2000/svg" xmlns:xlink="http://www.w3.org/1999/xlink" width="509.24102" height="529" viewBox="0,0,509.24102,529"><defs><linearGradient x1="149.27064" y1="72.97581" x2="159.72936" y2="100.02419" gradientUnits="userSpaceOnUse" id="color-1"><stop offset="0" stop-color="#ff4c4c"/><stop offset="1" stop-color="#b2b2b2"/></linearGradient><linearGradient x1="457" y1="61" x2="457" y2="412" gradientUnits="userSpaceOnUse" id="color-2"><stop offset="0" stop-color="#ff4c4c"/><stop offset="1" stop-color="#b2b2b2"/></linearGradient><linearGradient x1="155" y1="187" x2="155" y2="294" gradientUnits="userSpaceOnUse" id="color-3"><stop offset="0" stop-color="#ff4c4c"/><stop offset="1" stop-color="#b2b2b2"/></linearGradient><linearGradient x1="326" y1="-1" x2="326" y2="244" gradientUnits="userSpaceOnUse" id="color-4"><stop offset="0" stop-color="#ff4c4c"/><stop offset="1" stop-color="#b2b2b2"/></linearGradient><linearGradient x1="371" y1="309" x2="371" y2="526" gradientUnits="userSpaceOnUse" id="color-5"><stop offset="0" stop-color="#ff4c4c"/><stop offset="1" stop-color="#b2b2b2"/></linearGradient></defs><g transform="translate(22.24102,2)"><g data-paper-data="{&quot;isPaintingLayer&quot;:true}" fill-rule="nonzero" stroke="#000000" stroke-width="2" stroke-linecap="butt" stroke-linejoin="miter" stroke-miterlimit="10" stroke-dasharray="" stroke-dashoffset="0" style="mix-blend-mode: normal"><path d="M-10.48896,165.84194l-10.45871,-27.04839l340.43663,-131.6355l10.45871,27.04839z" fill="url(#color-1)"/><path d="M430,412v-351h54v351z" fill="url(#color-2)"/><path d="M271,240.5c0,29.54723 -51.93497,53.5 -116,53.5c-64.06503,0 -116,-23.95277 -116,-53.5c0,-29.54723 51.93497,-53.5 116,-53.5c64.06503,0 116,23.95277 116,53.5z" fill="url(#color-3)"/><path d="M367,121.5c0,67.65488 -18.35633,122.5 -41,122.5c-22.64367,0 -41,-54.84512 -41,-122.5c0,-67.65488 18.35633,-122.5 41,-122.5c22.64367,0 41,54.84512 41,122.5z" fill="url(#color-4)"/><path d="M486,417.5c0,59.9229 -51.48725,108.5 -115,108.5c-63.51275,0 -115,-48.5771 -115,-108.5c0,-59.9229 51.48725,-108.5 115,-108.5c63.51275,0 115,48.5771 115,108.5z" fill="url(#color-5)"/></g></g></svg>