<svg version="1.1" xmlns="http://www.w3.org/2000/svg" xmlns:xlink="http://www.w3.org/1999/xlink" width="509.67407" height="195.50004" viewBox="0,0,509.67407,195.50004"><g transform="translate(11.4239,-196.04212)"><g data-paper-data="{&quot;isPaintingLayer&quot;:true}" fill-rule="nonzero" stroke="#000000" stroke-width="2" stroke-linecap="butt" stroke-linejoin="miter" stroke-miterlimit="10" stroke-dasharray="" stroke-dashoffset="0" style="mix-blend-mode: normal"><path d="M493.61412,197.1194l3.54299,43.85713l-220.78074,17.83575l-3.54299,-43.85713z" fill="#a5a5a5"/><path d="M494.09673,199.98868l3.07616,38.0783l-221.02993,17.85589l-3.07616,-38.0783z" fill="#4543d4"/><path d="M470.58324,199.2169l3.36182,41.61443l-6.97727,0.56367l-3.36182,-41.61443z" fill="#a5a5a5"/><path d="M436.94282,201.93454l3.36182,41.61443l-6.97727,0.56367l-3.36182,-41.61443z" fill="#a5a5a5"/><path d="M403.30241,204.65218l3.36182,41.61443l-6.97727,0.56367l-3.36182,-41.61443z" fill="#a5a5a5"/><path d="M369.66201,207.36982l3.36182,41.61443l-6.97727,0.56367l-3.36182,-41.61443z" fill="#a5a5a5"/><path d="M336.0216,210.08745l3.36182,41.61443l-6.97727,0.56367l-3.36182,-41.61443z" fill="#a5a5a5"/><path d="M302.38119,212.80509l3.36182,41.61443l-6.97727,0.56367l-3.36182,-41.61443z" fill="#a5a5a5"/><path d="M158.94568,213.24074l28.47163,33.56318l-168.96011,143.32877l-28.47163,-33.56318z" fill="#a5a5a5"/><path d="M161.01215,215.29021l24.72008,29.14074l-169.15077,143.49055l-24.72008,-29.14074z" fill="#4543d4"/><path d="M141.45877,228.38469l27.01569,31.84688l-5.3396,4.52959l-27.01569,-31.84688z" fill="#a5a5a5"/><path d="M115.71426,250.22373l27.01569,31.84688l-5.3396,4.52959l-27.01569,-31.84688z" fill="#a5a5a5"/><path d="M89.96978,272.06279l27.01569,31.84688l-5.3396,4.52959l-27.01569,-31.84688z" fill="#a5a5a5"/><path d="M64.22531,293.90181l27.01569,31.84688l-5.3396,4.52959l-27.01569,-31.84688z" fill="#a5a5a5"/><path d="M38.48082,315.74085l27.01569,31.84688l-5.3396,4.52959l-27.01569,-31.84688z" fill="#a5a5a5"/><path d="M12.73632,337.57987l27.01569,31.84688l-5.3396,4.52959l-27.01569,-31.84688z" fill="#a5a5a5"/></g></g></svg>