<svg version="1.1" xmlns="http://www.w3.org/2000/svg" xmlns:xlink="http://www.w3.org/1999/xlink" width="716.46844" height="312.44871" viewBox="0,0,716.46844,312.44871"><g transform="translate(11.90613,-84.94574)"><g data-paper-data="{&quot;isPaintingLayer&quot;:true}" fill-rule="nonzero" stroke="#000000" stroke-width="2" stroke-linecap="butt" stroke-linejoin="miter" stroke-miterlimit="10" stroke-dasharray="" stroke-dashoffset="0" style="mix-blend-mode: normal"><path d="M-10.73144,129.95038l1.72305,-43.96625l221.3301,8.67396l-1.72305,43.96625z" fill="#a5a5a5"/><path d="M-10.86774,127.04401l1.496,-38.17306l221.5799,8.68374l-1.49601,38.17304z" fill="#4543d4"/><path d="M12.38507,130.61997l1.63493,-41.71798l6.99464,0.27412l-1.63494,41.71798z" fill="#a5a5a5"/><path d="M46.10918,131.94163l1.63494,-41.71798l6.99463,0.27412l-1.63494,41.71799z" fill="#a5a5a5"/><path d="M79.83329,133.26327l1.63493,-41.71798l6.99464,0.27412l-1.63494,41.71798z" fill="#a5a5a5"/><path d="M113.55741,134.58492l1.63494,-41.71798l6.99463,0.27411l-1.63494,41.71798z" fill="#a5a5a5"/><path d="M147.28152,135.90658l1.63494,-41.71798l6.99463,0.27411l-1.63493,41.71798z" fill="#a5a5a5"/><path d="M181.00564,137.22822l1.63494,-41.71798l6.99463,0.27411l-1.63493,41.71799z" fill="#a5a5a5"/><path d="M467.59865,188.98413l1.72305,43.96625l-221.33009,8.67396l-1.72305,-43.96625z" data-paper-data="{&quot;index&quot;:null}" fill="#a5a5a5"/><path d="M467.71216,191.88075l1.49602,38.17305l-221.57991,8.68374l-1.496,-38.17306z" data-paper-data="{&quot;index&quot;:null}" fill="#4543d4"/><path d="M276.3797,196.71439l1.63494,41.71798l-6.99464,0.27412l-1.63493,-41.71797z" data-paper-data="{&quot;index&quot;:null}" fill="#a5a5a5"/><path d="M310.10381,195.39273l1.63494,41.71799l-6.99463,0.27412l-1.63494,-41.71797z" data-paper-data="{&quot;index&quot;:null}" fill="#a5a5a5"/><path d="M343.82793,194.07109l1.63493,41.71798l-6.99464,0.27412l-1.63492,-41.71798z" data-paper-data="{&quot;index&quot;:null}" fill="#a5a5a5"/><path d="M377.55204,192.74944l1.63494,41.71798l-6.99463,0.27411l-1.63494,-41.71798z" data-paper-data="{&quot;index&quot;:null}" fill="#a5a5a5"/><path d="M411.27616,191.42779l1.63492,41.71798l-6.99463,0.27411l-1.63493,-41.71797z" data-paper-data="{&quot;index&quot;:null}" fill="#a5a5a5"/><path d="M445.00028,190.10614l1.63493,41.71799l-6.99463,0.27411l-1.63494,-41.71797z" data-paper-data="{&quot;index&quot;:null}" fill="#a5a5a5"/><path d="M494.3945,273.30308l24.37479,-36.63154l184.40652,122.70487l-24.37479,36.63154z" fill="#a5a5a5"/><path d="M495.79223,270.75122l21.16305,-31.8048l184.61466,122.84335l-21.16305,31.80479z" fill="#4543d4"/><path d="M513.77771,285.91706l23.12834,-34.75834l5.82775,3.87781l-23.12835,34.75834z" fill="#a5a5a5"/><path d="M541.87577,304.61363l23.12835,-34.75834l5.82775,3.87781l-23.12835,34.75834z" fill="#a5a5a5"/><path d="M569.97383,323.3102l23.12834,-34.75835l5.82775,3.87781l-23.12835,34.75834z" fill="#a5a5a5"/><path d="M598.07189,342.00676l23.12835,-34.75834l5.82775,3.8778l-23.12835,34.75834z" fill="#a5a5a5"/><path d="M626.16995,360.70333l23.12835,-34.75834l5.82775,3.8778l-23.12834,34.75835z" fill="#a5a5a5"/><path d="M654.26802,379.39989l23.12835,-34.75834l5.82775,3.8778l-23.12834,34.75836z" fill="#a5a5a5"/></g></g></svg>