<svg version="1.1" xmlns="http://www.w3.org/2000/svg" xmlns:xlink="http://www.w3.org/1999/xlink" width="74.27216" height="123.60697" viewBox="0,0,74.27216,123.60697"><g transform="translate(-203.53893,-136.34203)"><g data-paper-data="{&quot;isPaintingLayer&quot;:true}" fill-rule="nonzero" stroke="#000000" stroke-width="2" stroke-linecap="round" stroke-linejoin="miter" stroke-miterlimit="10" stroke-dasharray="" stroke-dashoffset="0" style="mix-blend-mode: normal"><path d="M254.0475,238.0123c-0.1827,0.9053 -1.3302,0.0092 -1.9999,-0.0192c-1.7566,-0.0489 -3.0216,-0.5761 -4.5431,-0.7437c-0.6893,-0.0706 -1.6139,1.6426 -2.0023,0.2308c-1.5528,-5.6472 -1.8925,-11.6088 -3.5345,-17.2348c-0.4042,-1.963 -2.482,-4.172 -1.6807,-7.2165c0.2025,-0.6751 2.2919,0.1251 4.0099,-1.0115c1.2147,-0.6983 2.5062,-1.362 3.794,-1.9636c1.0889,-0.4976 3.5119,-3.0864 4.3926,-1.8079c1.8133,3.0956 0.2454,7.0377 0.5491,10.5058c0.2911,2.7979 0.4941,5.503 0.4706,8.2549c0.3548,3.6666 1.2598,7.4164 0.5443,11.0057z" id="ID0.8758031786419451" fill="#bfbfbf"/><path d="M227.9982,227.2657c-0.1107,-2.676 0.1507,-5.3427 0.5231,-8.0054c0.4501,-3.6335 -0.579,-7.8028 1.4452,-10.9144c0.9813,-1.2265 3.3037,1.3103 4.3926,1.8079c1.2878,0.6016 2.6027,1.205 3.794,1.9636c1.5234,1.0694 3.17,0.8196 3.3662,1.6677c0.7322,2.5151 -0.6759,4.6997 -1.037,6.5603c-1.4786,5.6635 -1.9817,11.5876 -3.5345,17.2348c-0.3884,1.4118 -1.313,-0.3014 -2.0023,-0.2308c-1.5215,0.1676 -2.7865,0.6948 -4.5431,0.7437c-0.6697,0.0284 -1.7634,0.902 -1.9999,0.0192c-0.9337,-3.5062 -0.5515,-7.23 -0.4043,-10.8466z" id="ID0.8758031786419451" fill="#bfbfbf"/><path d="M208.4969,181.3311c-0.2001,-2.5032 -0.0929,-5.0803 0.4276,-7.5295c0.7369,-3.4482 0.9973,-7.0529 3.1083,-9.5553c0.9285,-1.309 3.0591,-0.3234 4.4263,0.1075c1.3512,0.433 2.724,1.0319 3.794,1.9636c2.2731,1.9703 4.7995,4.2891 5.3175,6.9992c0.2037,1.2111 -2.7329,-0.1917 -2.9883,1.2288c-2.1863,5.4903 -1.9817,11.5876 -3.5345,17.2348c-0.3884,1.4118 -1.313,-0.3014 -2.0023,-0.2308c-1.5215,0.1676 -2.7865,0.6948 -4.5431,0.7437c-0.6697,0.0284 -1.6682,0.9221 -1.9999,0.0192c-1.2674,-3.4739 -1.7102,-7.2949 -2.0056,-10.9812z" id="ID0.8758031786419451" fill="#bfbfbf"/><path d="M270.8475,193.2623c-0.3317,0.9029 -1.3302,0.0092 -1.9999,-0.0192c-1.7566,-0.0489 -3.0216,-0.5761 -4.5431,-0.7437c-0.6893,-0.0706 -1.6139,1.6426 -2.0023,0.2308c-1.5528,-5.6472 -1.3482,-11.7445 -3.5345,-17.2348c-0.2554,-1.4205 -3.192,-0.0177 -2.9883,-1.2288c0.518,-2.7101 3.0444,-5.0289 5.3175,-6.9992c1.07,-0.9317 2.5062,-1.362 3.794,-1.9636c1.0889,-0.4976 3.0615,-2.7357 4.3926,-1.8079c2.0098,3.2615 2.1681,7.4962 3.142,11.2557c0.617,2.3961 0.6277,5.0263 0.4276,7.5295c-0.2954,3.6863 -0.7382,7.5073 -2.0056,10.9812z" id="ID0.8758031786419451" fill="#bfbfbf"/><path d="M240.25,155c3.33,-0.019 6.635,0.457 9.75,1.5c3.33,1.116 9.41,1.367 9.75,5c0.88,9.489 -4.619,18.421 -6.25,27.75c-0.853,4.838 -0.86,9.823 -0.75,14.75c0.115,4.521 1.633,9.975 1,13.75c-0.117,1.099 -1.195,-3.113 -2.5,-4c-0.7,-0.438 -1.626,0.079 -2.5,0.25c-2.613,0.509 -4.89,1.927 -7.75,2c-2.835,0.065 -5.481,-1.637 -8.25,-2c-0.935,-0.312 -1.952,-0.446 -2.75,0c-1.139,0.657 -2.072,3.809 -2,2.75c-0.322,-3.815 1.477,-8.188 1.5,-12.5c0.015,-5.367 -0.945,-9.877 -2,-16c-1.599,-9.28 -6.852,-16.224 -5.5,-27.75c0.373,-3.238 5.792,-2.745 8.75,-3.75c3.152,-0.837 6.282,-1.726 9.5,-1.75z" id="ID0.733084324747324" fill="#6a00c0"/><path d="M261.7316,205.202c-0.6267,-5.5773 -2.148,-11.2063 -1.9629,-16.7121c0.0453,-1.3768 1.4631,-0.3734 2.5062,-0.4029c1.4214,-0.0359 2.8657,-0.0976 4.2704,0.119c2.0156,0.3128 4.1592,2.479 6.2537,1.704c1.7988,-0.8451 2.5431,-6.3842 3.0201,-5.5101c0.3529,0.709 -1.6786,6.0749 -1.5604,9.2507c0.236,6.4745 2.1734,13.2063 2.5523,20.0463c-0.0042,1.4848 -1.3806,-0.3167 -1.6959,-0.8346c-1.1679,-1.9236 -0.5496,-4.9817 -2.0741,-6.4489c-2.451,-1.7207 -5.6497,-2.594 -8.4662,-2.0042c-1.2933,0.3017 0.3445,3.5001 -0.5349,4.7829c-0.4477,0.5294 -1.8134,-0.2153 -2.2326,-0.7922c-0.5065,-0.9901 0.0794,-1.8221 -0.0757,-3.1979z" id="ID0.8758031786419451" fill="#6a00c0"/><path d="M219.5427,209.0999c-0.4192,0.5769 -1.7849,1.3216 -2.2326,0.7922c-0.8794,-1.2828 0.7584,-4.4812 -0.5349,-4.7829c-2.8165,-0.5898 -6.0152,0.2835 -8.4662,2.0042c-1.5245,1.4672 -0.9062,4.5253 -2.0741,6.4489c-0.3153,0.5179 -1.6917,2.3194 -1.6959,0.8346c0.3789,-6.84 2.3163,-13.5718 2.5523,-20.0463c0.1182,-3.1758 -1.9133,-8.5417 -1.5604,-9.2507c0.477,-0.8741 1.2213,4.665 3.0201,5.5101c2.0945,0.775 4.2381,-1.3912 6.2537,-1.704c1.4047,-0.2166 2.849,-0.1549 4.2704,-0.119c1.0431,0.0295 2.4609,-0.9739 2.5062,0.4029c0.1851,5.5058 -1.3362,11.1348 -1.9629,16.7121c-0.1551,1.3758 0.4308,2.2078 -0.0757,3.1979z" id="ID0.8758031786419451" fill="#6a00c0"/><path d="M223.5953,158.5528c2.2871,-2.6265 2.4866,-10.3853 2.5731,-10.2289c1.6015,0.3462 2.0698,7.7606 2.3027,11.5898c0.138,1.6192 0.4925,2.861 0.4958,4.9517c0.0289,2.3278 0.6515,4.9608 -0.162,6.9919c-0.8126,2.0307 -2.3196,3.6012 -4.3283,4.2273c-2.0087,0.626 -4.1411,0.1897 -5.9635,-1.0199c-1.8234,-1.2092 -2.6779,-3.8401 -4.1056,-5.6618c-1.2386,-1.7057 -2.9917,-1.6108 -4.0648,-2.792c-0.5942,-0.9251 -1.5234,-1.8129 -1.0154,-2.2498c1.5913,-1.7571 4.2073,-1.947 5.9887,-2.9662c1.3773,-0.7801 1.8032,-2.9491 3.3881,-3.4126c1.5052,-0.598 3.7378,1.8705 4.8912,0.5705z" id="ID0.8758031786419451" fill="#6a00c0"/><path d="M247.5124,236.458c1.5136,1.1789 3.5714,0.6632 5.7261,0.9247c0.9909,0.1262 1.7516,-0.433 2.9574,0.5038c0.7646,0.6801 0.5668,2.0382 0.482,3.1254c-0.1203,1.7243 -0.7878,3.4213 -0.8817,5.1754c-0.3158,3.8192 0.2676,8.1537 -0.7902,11.7847c-0.3026,0.9902 -1.4843,0.2036 -2.2202,0.2304c-2.4918,0.0858 -5.012,0.6536 -7.5322,0.7457c-1.5382,-0.0754 -5.8142,0.6762 -7.2383,-0.9795c0.8229,-2.1513 5.322,-4.35 6.0092,-6.9901c0.7311,-2.4815 0.8801,-5.1787 0.7676,-7.7816c-0.1956,-4.5089 -1.9062,-11.682 -1.2503,-13.5017c0.5397,-1.1436 1.9375,5.258 3.9706,6.7628z" id="ID0.8758031786419451" fill="#6a00c0"/><path d="M230.2624,236.408c1.5136,1.1789 3.5714,0.6632 5.7261,0.9247c0.9909,0.1262 1.7516,-0.433 2.9574,0.5038c0.7646,0.6801 0.5668,2.0382 0.482,3.1254c-0.1203,1.7243 -0.7878,3.4213 -0.8817,5.1754c-0.3158,3.8192 0.2676,8.1537 -0.7902,11.7847c-0.3026,0.9902 -1.4843,0.2036 -2.2202,0.2304c-2.4918,0.0858 -5.012,0.6536 -7.5322,0.7457c-1.5382,-0.0754 -5.8142,0.6762 -7.2383,-0.9795c0.8229,-2.1513 5.322,-4.35 6.0092,-6.9901c0.7311,-2.4815 0.8801,-5.1787 0.7676,-7.7816c-0.1956,-4.5089 -1.9062,-11.682 -1.2503,-13.5017c0.5397,-1.1436 1.9375,5.258 3.9706,6.7628z" id="ID0.8758031786419451" fill="#6a00c0"/><path d="M263.0959,158.1323c1.5849,0.4635 2.0108,2.6325 3.3881,3.4126c1.7814,1.0192 4.3974,1.2091 5.9887,2.9662c0.508,0.4369 -0.4212,1.3247 -1.0154,2.2498c-1.0731,1.1812 -2.8262,1.0863 -4.0648,2.792c-1.4277,1.8217 -2.2822,4.4526 -4.1056,5.6618c-1.8224,1.2096 -3.9548,1.6459 -5.9635,1.0199c-2.0087,-0.6261 -3.5157,-2.1966 -4.3283,-4.2273c-0.8135,-2.0311 -0.1909,-4.6641 -0.162,-6.9919c0.0033,-2.0907 0.3578,-3.3325 0.4958,-4.9517c0.2329,-3.8292 0.7012,-11.2436 2.3027,-11.5898c0.0865,-0.1564 0.286,7.6024 2.5731,10.2289c1.1534,1.3 3.386,-1.1685 4.8912,-0.5705z" id="ID0.8758031786419451" fill="#6a00c0"/><path d="M233.25,156c-1.014,-1.084 -0.915,-4.345 -1,-4.4c-0.085,-0.064 -0.221,5.473 0,4.4c0.268,-2.84 0.128,-8.351 1,-12.4c0.294,-1.349 1.203,-2.573 2.235,-3.502c1.537,-1.395 3.265,-2.878 5.265,-2.748c2.074,-0.13 3.86,1.391 5.515,2.748c0.977,0.797 1.872,2.078 2.235,3.002c0.821,3.331 1.02,6.154 1.25,9.25c0.094,1.23 0.125,2.255 -0.25,3.15c-0.122,0.453 -0.612,0.126 -1,0.25c-1.542,0.492 -2.461,1.152 -3.75,1.5c-1.368,0.381 -2.78,0.93 -4.25,1c-1.456,-0.151 -2.764,-0.885 -4.25,-1.25c-1.013,-0.26 -1.94,0.014 -3,-1z" id="ID0.8758031786419451" fill="#6a00c0"/></g></g></svg>