<svg version="1.1" xmlns="http://www.w3.org/2000/svg" xmlns:xlink="http://www.w3.org/1999/xlink" width="603" height="265" viewBox="0,0,603,265"><g transform="translate(-18.5,-47.5)"><g data-paper-data="{&quot;isPaintingLayer&quot;:true}" fill="#ff0000" fill-rule="nonzero" stroke="none" stroke-width="0" stroke-linecap="butt" stroke-linejoin="miter" stroke-miterlimit="10" stroke-dasharray="" stroke-dashoffset="0" style="mix-blend-mode: normal"><path d="M29,293.5c3.58985,0 6.5,2.91015 6.5,6.5c0,3.58985 -2.91015,6.5 -6.5,6.5c-3.58985,0 -6.5,-2.91015 -6.5,-6.5c0,-3.58985 2.91015,-6.5 6.5,-6.5z" data-paper-data="{&quot;index&quot;:null}"/><path d="M93.5,256.5c3.31371,0 6,2.68629 6,6c0,3.31371 -2.68629,6 -6,6c-3.31371,0 -6,-2.68629 -6,-6c0,-3.31371 2.68629,-6 6,-6z" data-paper-data="{&quot;index&quot;:null}"/><path d="M155,307.5c1.38071,0 2.5,1.11929 2.5,2.5c0,1.38071 -1.11929,2.5 -2.5,2.5c-1.38071,0 -2.5,-1.11929 -2.5,-2.5c0,-1.38071 1.11929,-2.5 2.5,-2.5z" data-paper-data="{&quot;index&quot;:null}"/><path d="M288,266.5c4.14213,0 7.5,3.35786 7.5,7.5c0,4.14214 -3.35787,7.5 -7.5,7.5c-4.14213,0 -7.5,-3.35786 -7.5,-7.5c0,-4.14214 3.35787,-7.5 7.5,-7.5z" data-paper-data="{&quot;index&quot;:null}"/><path d="M437.5,264.5c1.65686,0 3,1.34314 3,3c0,1.65686 -1.34314,3 -3,3c-1.65686,0 -3,-1.34314 -3,-3c0,-1.65686 1.34314,-3 3,-3z" data-paper-data="{&quot;index&quot;:null}"/><path d="M546.5,306.5c1.10457,0 2,0.89543 2,2c0,1.10457 -0.89543,2 -2,2c-1.10457,0 -2,-0.89543 -2,-2c0,-1.10457 0.89543,-2 2,-2z" data-paper-data="{&quot;index&quot;:null}"/><path d="M619.5,229.5c1.10457,0 2,0.89543 2,2c0,1.10457 -0.89543,2 -2,2c-1.10457,0 -2,-0.89543 -2,-2c0,-1.10457 0.89543,-2 2,-2z" data-paper-data="{&quot;index&quot;:null}"/><path d="M535.5,250.5c1.10457,0 2,0.89543 2,2c0,1.10457 -0.89543,2 -2,2c-1.10457,0 -2,-0.89543 -2,-2c0,-1.10457 0.89543,-2 2,-2z" data-paper-data="{&quot;index&quot;:null}"/><path d="M254,174.5c1.933,0 3.5,1.567 3.5,3.5c0,1.933 -1.567,3.5 -3.5,3.5c-1.933,0 -3.5,-1.567 -3.5,-3.5c0,-1.933 1.567,-3.5 3.5,-3.5z" data-paper-data="{&quot;index&quot;:null}"/><path d="M118.5,190.5c1.65685,0 3,1.34314 3,3c0,1.65686 -1.34315,3 -3,3c-1.65685,0 -3,-1.34314 -3,-3c0,-1.65686 1.34315,-3 3,-3z" data-paper-data="{&quot;index&quot;:null}"/><path d="M22,132.5c1.93299,0 3.5,1.567 3.5,3.5c0,1.933 -1.56701,3.5 -3.5,3.5c-1.93299,0 -3.5,-1.567 -3.5,-3.5c0,-1.933 1.56701,-3.5 3.5,-3.5z" data-paper-data="{&quot;index&quot;:null}"/><path d="M146,70.5c2.48528,0 4.5,2.01472 4.5,4.5c0,2.48528 -2.01472,4.5 -4.5,4.5c-2.48528,0 -4.5,-2.01472 -4.5,-4.5c0,-2.48528 2.01472,-4.5 4.5,-4.5z" data-paper-data="{&quot;index&quot;:null}"/><path d="M205,103.5c1.933,0 3.5,1.567 3.5,3.5c0,1.933 -1.567,3.5 -3.5,3.5c-1.933,0 -3.5,-1.567 -3.5,-3.5c0,-1.933 1.567,-3.5 3.5,-3.5z" data-paper-data="{&quot;index&quot;:null}"/><path d="M368.5,47.5c1.65686,0 3,1.34314 3,3c0,1.65686 -1.34314,3 -3,3c-1.65686,0 -3,-1.34314 -3,-3c0,-1.65686 1.34314,-3 3,-3z" data-paper-data="{&quot;index&quot;:null}"/><path d="M489.5,86.5c2.20914,0 4,1.79086 4,4c0,2.20914 -1.79086,4 -4,4c-2.20914,0 -4,-1.79086 -4,-4c0,-2.20914 1.79086,-4 4,-4z" data-paper-data="{&quot;index&quot;:null}"/><path d="M383.5,182.5c1.10457,0 2,0.89543 2,2c0,1.10457 -0.89543,2 -2,2c-1.10457,0 -2,-0.89543 -2,-2c0,-1.10457 0.89543,-2 2,-2z" data-paper-data="{&quot;index&quot;:null}"/><path d="M575,146.5c1.933,0 3.5,1.567 3.5,3.5c0,1.933 -1.567,3.5 -3.5,3.5c-1.933,0 -3.5,-1.567 -3.5,-3.5c0,-1.933 1.567,-3.5 3.5,-3.5z" data-paper-data="{&quot;index&quot;:null}"/></g></g></svg>