<svg version="1.1" xmlns="http://www.w3.org/2000/svg" xmlns:xlink="http://www.w3.org/1999/xlink" width="77.32401" height="149.38218"><g transform="translate(-204.15926,-111.57615)"><g data-paper-data="{&quot;isPaintingLayer&quot;:true}" fill-rule="nonzero" stroke-linecap="round" stroke-linejoin="miter" stroke-miterlimit="10" stroke-dasharray="" stroke-dashoffset="0" style="mix-blend-mode: normal"><path d="M256.79572,238.90296c-0.10314,0.91777 -1.32434,0.12504 -1.99397,0.15509c-1.75418,0.10431 -3.0603,-0.31069 -4.59062,-0.3451c-0.69283,-0.01028 -1.46467,1.77695 -1.97458,0.40435c-2.03885,-5.49046 -2.8966,-11.3998 -5.02246,-16.86137c-0.57367,-1.92033 -2.83601,-3.93992 -2.30297,-7.04265c0.14292,-0.69017 2.29408,-0.07503 3.90654,-1.35697c1.14925,-0.80146 2.37802,-1.57515 3.60852,-2.28665c1.04141,-0.59057 3.22968,-3.3806 4.21841,-2.18369c2.07608,2.92587 0.85755,6.98957 1.46222,10.41803c0.53373,2.7619 0.97161,5.43904 1.18793,8.18252c0.67286,3.62175 1.90109,7.27846 1.50099,10.91644z" data-paper-data="{&quot;origPos&quot;:null,&quot;origRot&quot;:0}" id="ID0.8758031786419451" fill="#bfbfbf" stroke="#000000" stroke-width="2"/><path d="M226.03175,226.94502c0.18567,-2.67185 0.74014,-5.29333 1.40448,-7.89858c0.84884,-3.56151 0.28675,-7.819 2.64238,-10.68787c1.11082,-1.11056 3.13868,1.66733 4.16593,2.28221c1.21344,0.74022 2.45361,1.48522 3.55379,2.37081c1.3959,1.23119 3.06002,1.16486 3.16131,2.02945c0.4498,2.58061 -1.19107,4.59623 -1.75556,6.40554c-2.09536,5.46543 -3.24998,11.29766 -5.41728,16.7387c-0.54202,1.36024 -1.27166,-0.44464 -1.96454,-0.45064c-1.5307,-0.00155 -2.84621,0.38264 -4.59746,0.23714c-0.66874,-0.04577 -1.85227,0.70162 -1.98977,-0.2019c-0.54055,-3.5879 0.25078,-7.24667 0.79671,-10.82485z" data-paper-data="{&quot;origPos&quot;:null,&quot;origRot&quot;:0}" id="ID0.8758031786419451" fill="#bfbfbf" stroke="#000000" stroke-width="2"/><path d="M210.8172,135.14082c0.41904,-0.86583 1.32464,0.12189 1.98828,0.21613c1.74324,0.22171 2.95015,0.87097 4.44774,1.18764c0.67899,0.13816 1.76787,-1.47562 2.0153,-0.03242c0.98892,5.7727 0.18464,11.82019 1.81943,17.49916c0.11422,1.43875 3.17473,0.33207 2.85271,1.51721c-0.78246,2.64589 -3.52501,4.70452 -5.98116,6.4413c-1.15658,0.82176 -2.5817,1.2825 -3.96899,1.58029c-1.403,0.29412 -3.62033,1.06503 -4.41536,-0.32908c-1.85421,-2.69819 -1.75823,-6.31101 -2.15185,-9.81503c-0.27669,-2.48856 -0.12948,-5.06369 0.31624,-7.535c0.65712,-3.63927 1.47419,-7.39806 3.07765,-10.7302z" data-paper-data="{&quot;origPos&quot;:null,&quot;origRot&quot;:0,&quot;index&quot;:null}" id="ID0.8758031786419451" fill="#bfbfbf" stroke="#000000" stroke-width="2"/><path d="M275.70772,148.71747c0.13475,2.50757 0.05547,5.13659 -0.62381,7.51579c-1.07161,3.73282 -1.34029,7.96196 -3.43446,11.16993c-1.35484,0.89277 -3.26841,-1.39601 -4.34396,-1.92184c-1.27167,-0.63498 -2.69616,-1.10259 -3.7415,-2.06187c-2.22095,-2.02891 -4.68602,-4.4128 -5.13317,-7.13549c-0.17205,-1.216 2.72697,0.2629 3.01933,-1.15045c2.32873,-5.43142 2.28321,-11.53198 3.98275,-17.13677c0.42509,-1.40119 1.30469,0.33554 1.9956,0.28294c1.52535,-0.12787 2.80367,-0.6219 4.56095,-0.62497c0.67021,-0.01093 1.69168,-0.87828 1.99972,0.03296c1.17638,3.50577 1.51938,7.33702 1.71855,11.02977z" data-paper-data="{&quot;origPos&quot;:null,&quot;index&quot;:null,&quot;origRot&quot;:0}" id="ID0.8758031786419451" fill="#bfbfbf" stroke="#000000" stroke-width="2"/><path d="M240.25,155c3.33,-0.019 6.635,0.457 9.75,1.5c3.33,1.116 9.41,1.367 9.75,5c0.88,9.489 -4.619,18.421 -6.25,27.75c-0.853,4.838 -0.86,9.823 -0.75,14.75c0.115,4.521 1.633,9.975 1,13.75c-0.117,1.099 -1.195,-3.113 -2.5,-4c-0.7,-0.438 -1.626,0.079 -2.5,0.25c-2.613,0.509 -4.89,1.927 -7.75,2c-2.835,0.065 -5.481,-1.637 -8.25,-2c-0.935,-0.312 -1.952,-0.446 -2.75,0c-1.139,0.657 -2.072,3.809 -2,2.75c-0.322,-3.815 1.477,-8.188 1.5,-12.5c0.015,-5.367 -0.945,-9.877 -2,-16c-1.599,-9.28 -6.852,-16.224 -5.5,-27.75c0.373,-3.238 5.792,-2.745 8.75,-3.75c3.152,-0.837 6.282,-1.726 9.5,-1.75z" id="ID0.733084324747324" fill="#6a00c0" stroke="#000000" stroke-width="2"/><path d="M265.3468,122.3195c0.4341,-0.56577 1.81876,-1.2746 2.2525,-0.73371c0.84565,1.3053 -0.875,4.4599 0.40999,4.79522c2.80016,0.66305 6.02055,-0.12654 8.51559,-1.78274c1.56224,-1.42694 1.0239,-4.50013 2.24157,-6.39262c0.3287,-0.5095 1.75161,-2.27449 1.71709,-0.79009c-0.55715,6.82779 -2.66944,13.50678 -3.0742,19.97292c-0.20098,3.17164 1.6899,8.58869 1.31863,9.28825c-0.49963,0.86136 -1.09923,-4.69526 -2.87538,-5.58698c-2.07358,-0.82936 -4.27294,1.2802 -6.29601,1.54034c-1.40987,0.17989 -2.85207,0.08055 -4.27205,0.0076c-1.04198,-0.05669 -2.48546,0.90939 -2.49484,-0.46812c-0.04146,-5.50875 1.62612,-11.09617 2.39805,-16.65523c0.19093,-1.37129 -0.37308,-2.21828 0.15907,-3.19484z" data-paper-data="{&quot;origPos&quot;:null,&quot;index&quot;:null,&quot;origRot&quot;:0}" id="ID0.8758031786419451" fill="#6a00c0" stroke="#000000" stroke-width="2"/><path d="M221.22754,122.51527c0.07421,5.61191 1.03357,11.3634 0.30697,16.82418c-0.18071,1.36564 -1.49277,0.22745 -2.5337,0.15404c-1.41802,-0.1043 -2.86138,-0.18519 -4.2379,-0.53912c-1.97498,-0.50984 -3.89475,-2.87668 -6.05541,-2.31179c-1.8733,0.66378 -3.15966,6.10261 -3.54823,5.18577c-0.28134,-0.74032 2.2689,-5.87998 2.46414,-9.05198c0.40298,-6.46626 -0.86182,-13.35617 -0.56504,-20.20023c0.15045,-1.47716 1.34268,0.45117 1.60543,0.99761c0.97272,2.0293 0.05616,5.01161 1.4287,6.62186c2.26956,1.95379 5.36667,3.13796 8.22757,2.82849c1.31673,-0.17282 0.00199,-3.51701 1.00348,-4.70694c0.49768,-0.48272 1.78337,0.3929 2.1437,1.00829c0.4065,1.03518 -0.25852,1.80541 -0.23971,3.1898z" data-paper-data="{&quot;origPos&quot;:null,&quot;index&quot;:null,&quot;origRot&quot;:0}" id="ID0.8758031786419451" fill="#6a00c0" stroke="#000000" stroke-width="2"/><path d="M215.59691,170.1118c-1.53153,-0.61738 -1.74168,-2.81779 -3.03543,-3.72978c-1.67233,-1.18974 -4.2569,-1.63643 -5.66736,-3.54174c-0.46249,-0.48482 0.54965,-1.27676 1.2321,-2.13882c1.18425,-1.06974 2.91947,-0.80259 4.32008,-2.37798c1.60022,-1.67219 2.70974,-4.20611 4.6434,-5.2298c1.9327,-1.02418 4.09771,-1.24829 6.03497,-0.42745c1.93725,0.82094 3.2822,2.53226 3.8908,4.63314c0.60945,2.10136 -0.26951,4.66022 -0.52759,6.97385c-0.20925,2.0802 -0.68436,3.28104 -0.9812,4.87877c-0.609,3.78763 -1.80544,11.11983 -3.43326,11.30657c-0.10149,0.14712 0.46434,-7.59359 -1.55289,-10.43263c-1.01972,-1.4073 -3.48464,0.82925 -4.92361,0.08587z" data-paper-data="{&quot;origPos&quot;:null,&quot;origRot&quot;:0,&quot;index&quot;:null}" id="ID0.8758031786419451" fill="#6a00c0" stroke="#000000" stroke-width="2"/><path d="M260.92092,230.73974c0.62337,1.8311 -1.2148,8.97258 -1.49072,13.47727c-0.15887,2.60048 -0.05796,5.29991 0.6288,7.79404c0.64004,2.65193 5.09924,4.93046 5.88367,7.09608c-1.45338,1.63006 -5.71531,0.80237 -7.25461,0.85035c-2.51816,-0.137 -5.02784,-0.74962 -7.51771,-0.87981c-0.73531,-0.03991 -1.93084,0.72551 -2.21574,-0.26993c-0.99292,-3.64927 -0.33237,-7.97269 -0.58006,-11.79691c-0.06262,-1.75549 -0.69978,-3.46412 -0.78933,-5.19029c-0.06541,-1.08854 -0.23898,-2.44995 0.53762,-3.11631c1.2223,-0.91516 1.97292,-0.34249 2.96591,-0.45102c2.15902,-0.22306 4.2073,0.32923 5.74167,-0.82251c2.05959,-1.46833 3.57126,-7.844 4.09049,-6.69097z" data-paper-data="{&quot;origPos&quot;:null,&quot;index&quot;:null,&quot;origRot&quot;:0}" id="ID0.8758031786419451" fill="#6a00c0" stroke="#000000" stroke-width="2"/><path d="M226.20139,236.77968c1.54807,1.13325 3.58958,0.55643 5.75112,0.75357c0.99422,0.0966 1.73791,-0.48503 2.97111,0.4154c0.78454,0.657 0.62731,2.0204 0.57497,3.10964c-0.06884,1.72712 -0.68545,3.44327 -0.72701,5.19939c-0.20179,3.82692 0.51057,8.1421 -0.4385,11.80302c-0.27294,0.99878 -1.47757,0.24776 -2.21234,0.29649c-2.48813,0.16005 -4.99029,0.80274 -7.50662,0.96993c-1.53976,-0.02951 -5.79146,0.84924 -7.26429,-0.76326c0.7584,-2.17488 5.18994,-4.50674 5.79813,-7.16615c0.65679,-2.50219 0.72531,-5.20264 0.53526,-7.80103c-0.32994,-4.50106 -2.25364,-11.61998 -1.65228,-13.45842c0.50536,-1.15918 2.0934,5.1979 4.17046,6.64141z" data-paper-data="{&quot;origPos&quot;:null,&quot;origRot&quot;:0}" id="ID0.8758031786419451" fill="#6a00c0" stroke="#000000" stroke-width="2"/><path d="M260.44942,171.90575c-2.35482,2.56596 -2.75658,10.31692 -2.83898,10.15832c-1.59193,-0.38785 -1.86671,-7.81194 -1.99968,-11.64591c-0.09573,-1.62225 -0.41772,-2.87287 -0.3665,-4.96295c0.03181,-2.32776 -0.52191,-4.9761 0.34428,-6.9853c0.86528,-2.00882 2.41272,-3.53948 4.43707,-4.11299c2.02434,-0.5734 4.14464,-0.08164 5.93487,1.17507c1.79125,1.25634 2.57685,3.90863 3.95655,5.76694c1.1937,1.73742 2.94868,1.68827 3.99061,2.89705c0.56987,0.94028 1.4756,1.85201 0.95638,2.27551c-1.63658,1.715 -4.25664,1.83662 -6.06402,2.80902c-1.39718,0.74392 -1.87949,2.90107 -3.47594,3.32308c-1.52028,0.55854 -3.68775,-1.96734 -4.87466,-0.69786z" data-paper-data="{&quot;origPos&quot;:null,&quot;index&quot;:null,&quot;origRot&quot;:0}" id="ID0.8758031786419451" fill="#6a00c0" stroke="#000000" stroke-width="2"/><path d="M233.25,156c-1.014,-1.084 -0.915,-4.345 -1,-4.4c-0.085,-0.064 -0.221,5.473 0,4.4c0.268,-2.84 0.128,-8.351 1,-12.4c0.294,-1.349 1.203,-2.573 2.235,-3.502c1.537,-1.395 3.265,-2.878 5.265,-2.748c2.074,-0.13 3.86,1.391 5.515,2.748c0.977,0.797 1.872,2.078 2.235,3.002c0.821,3.331 1.02,6.154 1.25,9.25c0.094,1.23 0.125,2.255 -0.25,3.15c-0.122,0.453 -0.612,0.126 -1,0.25c-1.542,0.492 -2.461,1.152 -3.75,1.5c-1.368,0.381 -2.78,0.93 -4.25,1c-1.456,-0.151 -2.764,-0.885 -4.25,-1.25c-1.013,-0.26 -1.94,0.014 -3,-1z" id="ID0.8758031786419451" fill="#6a00c0" stroke="#000000" stroke-width="2"/><path d="M235.25,145l4.5,1.4l4.75,-1.4v2.75h-9.25z" id="ID0.5234519117511809" fill="#ff0000" stroke="none" stroke-width="1"/></g></g></svg>