<svg version="1.1" xmlns="http://www.w3.org/2000/svg" xmlns:xlink="http://www.w3.org/1999/xlink" width="658.67491" height="440.24286" viewBox="0,0,658.67491,440.24286"><g transform="translate(-41.40598,40.1237)"><g data-paper-data="{&quot;isPaintingLayer&quot;:true}" fill-rule="nonzero" stroke="#000000" stroke-width="2" stroke-linecap="butt" stroke-linejoin="miter" stroke-miterlimit="10" stroke-dasharray="" stroke-dashoffset="0" style="mix-blend-mode: normal"><path d="M225.39723,198.85369c2.30569,-0.66282 5.32294,-1.0739 7.71194,-2.13204c0.70205,2.5353 0.13881,5.23519 0.23052,7.93786c0.10358,3.05334 0.27169,6.29638 0.57165,9.26629c0.30825,3.05215 -1.4407,6.197 -1.96582,9.13403c-0.46261,2.58741 -0.70114,4.95601 -1.38361,7.52693c-1.76482,6.66805 -5.48989,12.37993 -7.5998,18.87146c-1.94376,5.98033 -3.39386,12.03053 -5.63657,17.92468c-0.64159,1.6862 -1.02051,3.35092 -1.51434,5.01866c-0.05051,0.17062 -0.10569,-0.37619 -0.23101,-0.5025c-0.44858,-0.45209 -1.03037,-0.74842 -1.52402,-1.15083c-0.82785,-0.67483 -1.54671,-1.47196 -2.35888,-2.16556c-2.20538,-1.88337 -4.65759,-5.22974 -7.05528,-6.67892c-0.86828,-0.52481 -1.92179,-1.44658 -2.85538,-1.0494c-0.78984,0.33602 -0.38655,1.6166 -0.48175,2.46964c-0.41482,3.71648 -0.08727,7.48782 -0.60768,11.22844c-1.32999,3.48419 -1.79814,7.01406 -2.81537,10.58458c-0.5316,1.86597 -1.69949,3.22403 -2.265,5.02824c-1.05963,3.38068 -1.58927,7.28455 -2.52055,10.77832c-0.40651,1.525 -1.93487,5.04131 -1.83735,7.12481c-1.01163,-0.54494 -1.903,-0.607 -3.30249,-1.68121c-1.94986,-1.49665 -3.06049,-4.13689 -5.32132,-5.38152c-0.87537,-0.48191 -1.88928,-1.389 -2.81895,-1.02261c-1.25632,0.49513 -0.46483,4.90626 -0.44058,5.7159c0.13679,4.56545 -0.16274,8.79366 0.80267,13.40066c0.08098,2.28655 -0.07629,4.79246 0.11599,7.01753c0.0869,1.00582 0.77419,1.90469 0.83035,2.91269c0.13898,2.49403 -1.1828,4.40383 -1.70873,6.70571c-0.60338,2.64082 -0.68154,5.70562 -1.05026,8.39016c-0.07372,0.53678 -0.72025,-0.81442 -1.13042,-1.16845c-0.52118,-0.44984 -1.03028,-0.91631 -1.57815,-1.33323c-1.40543,-1.06946 -3.02256,-1.94601 -4.5069,-2.90143c-6.84839,-4.86154 -13.5204,-10.18876 -20.0162,-15.49534c-4.04529,-3.30471 -6.41989,-7.91302 -9.74808,-11.81228c-1.89293,-2.21773 -3.77844,-5.20643 -6.04416,-7.00865c-0.72212,-0.5744 -1.47894,-1.57916 -2.38605,-1.41024c-1.50778,0.28077 -0.77487,3.43422 -0.75238,4.06671c0.09831,2.76464 -0.12715,5.47952 0.13381,8.25744c0.12446,1.32501 0.18444,2.67017 0.53258,3.95467c0.10411,0.38416 0.86719,1.01029 0.49167,1.14221c-0.38942,0.1368 -0.41705,-0.73709 -0.73981,-0.99437c-0.96484,-0.76907 -2.09044,-1.34935 -2.97299,-2.21161c-0.7818,-0.76382 -1.57903,-1.51925 -2.41841,-2.2193c-2.96772,-2.46315 -5.24036,-5.69539 -8.08772,-8.30833c-6.6795,-6.12962 -12.4498,-13.72408 -18.24091,-20.80967c-3.74549,-3.50639 -5.85409,-8.0684 -8.53121,-12.35637c-0.64335,-1.03046 -2.55858,-5.14993 -3.66761,-5.49663c-0.87454,-0.27337 -1.86346,0.18397 -2.53312,0.80934c-0.30445,0.28432 0.17352,3.49426 0.18233,3.63191c0.16466,2.57021 -0.50375,6.09002 0.33126,8.72603c-3.72872,-3.41644 -7.58319,-6.66944 -11.54676,-9.81364c-2.94908,-2.33941 -6.25904,-4.43176 -8.58681,-7.43683c-1.11336,-1.4373 -1.6288,-3.13916 -2.91847,-4.50576c-3.32833,-3.52687 -8.10543,-6.33886 -8.19563,-11.7281c9.23199,-2.92343 15.85388,-10.27884 25.1672,-12.95586c11.53293,-3.31536 23.07759,-6.64466 34.61052,-9.96004c5.92212,-1.70243 12.10303,-4.18758 18.16509,-5.23184c5.22496,-0.90006 10.29184,0.16877 15.36254,-1.2889c3.152,-0.90611 6.341,-2.0661 9.54955,-2.74652c3.17512,-0.67334 6.35968,-0.01291 9.47659,-0.66918c3.167,-0.66679 6.30887,-1.7798 9.4189,-2.67383c0.41997,-0.12073 3.01057,-0.84336 3.23194,-1.00722c0.37891,-0.28046 0.32185,-0.93673 0.68502,-1.2373c0.80075,-0.66272 2.01977,-0.5004 3.01874,-0.78757c2.23068,-0.64125 5.431,-0.97541 7.42527,-2.15988c0.85338,-0.50684 1.49221,-1.40583 2.43592,-1.71326c7.57263,-2.46694 15.17001,-4.87979 23.07377,-5.77671c0.89476,-0.10314 2.96938,-0.82175 3.59371,-0.523c0.35801,0.1713 0.45015,0.75495 0.83577,0.84885c0.85221,0.20752 3.10032,-0.73481 3.91126,-0.96793z" data-paper-data="{&quot;noHover&quot;:false,&quot;origItem&quot;:[&quot;Path&quot;,{&quot;applyMatrix&quot;:true,&quot;segments&quot;:[[[230.5,222],[0,0],[-0.84379,0]],[[226.47427,221.85065],[0.76171,0.43489],[-0.34467,-0.19679]],[[225.9059,220.80439],[0.29675,0.26355],[-0.5175,-0.45961]],[[222.30839,220.31519],[0.88843,0.14807],[-7.84393,-1.32165]],[[198.54346,219.49905],[7.95946,-0.27875],[-0.99192,0.03474]],[[195.72975,220.47324],[0.96018,-0.25134],[-2.24388,0.58738]],[[188,220.49999],[2.32101,0],[-1.03942,0]],[[184.88268,220.42387],[0.95268,-0.41569],[-0.43206,0.18853]],[[183.88268,221.42387],[0.44164,-0.16486],[-0.25802,0.09632]],[[180.5,221.49999],[0.43698,0],[-3.23597,0]],[[170.71484,221.47032],[3.22796,0.23413],[-3.1769,-0.23043]],[[161.42911,219.49748],[3.23757,0.23009],[-3.27164,-0.23251]],[[151.5,219.5],[3.27966,0],[-5.27607,0]],[[136.39088,216.49403],[5.27026,0.57853],[-6.11461,-0.67121]],[[117.5,216.5],[6.16196,0],[-12,0]],[[81.5,216.5],[12,0],[-9.69043,-0.00025]],[[53.73979,221.99005],[9.68034,-0.25903],[-1.40225,5.20439]],[[58.37844,235.52215],[-2.22438,-4.30915],[0.86191,1.66971]],[[59.93936,240.65707],[-0.67293,-1.68895],[1.40693,3.53122]],[[66.13868,250.17369],[-2.18795,-3.06312],[2.94063,4.11688]],[[74.52655,262.79002],[-2.6397,-4.31363],[-0.07422,-2.7641]],[[76.52447,254.28008],[-0.55184,2.51565],[0.02956,-0.13474]],[[77.35361,250.73697],[-0.37115,0.18914],[0.81637,-0.41602]],[[80.10218,250.70164],[-0.76497,-0.50435],[0.97008,0.6396]],[[82.10983,256.99441],[-0.33361,-1.1681],[1.38824,4.86071]],[[86.89783,271.21766],[-2.63096,-4.40472],[3.60808,8.40977]],[[98.67831,296.23362],[-4.72602,-7.73645],[2.01462,3.29791]],[[104.15116,306.44215],[-2.17169,-3.1872],[0.6133,0.90471]],[[105.8605,309.24034],[-0.54034,-0.95009],[0.60997,1.07253]],[[108.1045,312.18414],[-0.71481,-1.0057],[0.23911,0.33643]],[[108.54003,313.34325],[-0.41205,0.02389],[0.39735,-0.02303]],[[108.30529,312.1725],[-0.00607,0.39797],[0.02029,-1.33069]],[[108.88423,308.22217],[-0.24645,1.30782],[0.51668,-2.74189]],[[111.03349,300.24333],[-0.66933,2.68419],[0.15313,-0.6141]],[[112.97067,296.50043],[-1.52666,-0.14673],[0.91847,0.08828]],[[114.87264,298.51164],[-0.53532,-0.75154],[1.67961,2.35805]],[[118.73796,306.90693],[-1.20654,-2.65439],[2.12137,4.66701]],[[124.82999,320.94225],[-2.97482,-4.29371],[4.77686,6.89468]],[[139.76723,341.35865],[-5.23869,-6.56439],[1.1626,1.32833]],[[143.29399,345.39209],[-1.05525,-1.41612],[0.41136,0.55205]],[[144.44143,347.1094],[-0.37661,-0.57632],[0.29639,0.45357]],[[145.20443,348.54467],[-0.21915,0.49552],[1.09605,-2.47818]],[[148.52908,340.77128],[-1.3095,2.37133],[1.14142,-2.06698]],[[152.0204,334.79894],[-0.55548,2.43535],[0.2245,-0.98428]],[[152.02673,331.77025],[-0.19436,0.99068],[0.42995,-2.19158]],[[153.85105,324.99428],[-0.5539,2.21993],[0.34499,-4.69441]],[[156.77385,311.89567],[-1.12988,4.42554],[0.20038,-0.78483]],[[158.77023,306.52676],[-1.34422,0.12876],[0.99471,-0.09528]],[[161.19502,308.28946],[-0.70816,-0.70501],[1.82896,1.82081]],[[164.82269,314.93153],[-1.46047,-1.97711],[1.04824,1.41905]],[[167.53104,317.46039],[-0.82169,-0.80321],[0.4819,-2.02936]],[[171.25847,311.12558],[-0.81201,1.35333],[1.8603,-3.10049]],[[176.64934,301.47429],[-1.9524,2.95634],[1.04197,-1.57774]],[[180.21199,297.27402],[-1.02644,1.64646],[1.9641,-3.1505]],[[185.83843,287.89236],[-2.24084,2.98113],[1.53361,-3.45124]],[[189.52454,277.28152],[-1.42546,3.45722],[0.32718,-0.79354]],[[190.76884,275.0271],[-0.85193,0.10473],[1.00699,-0.12379]],[[193.22348,276.8268],[-0.6895,-0.74427],[1.90398,2.05521]],[[198.15917,285.20353],[-1.5992,-2.41937],[0.58895,0.89099]],[[199.82775,287.93894],[-0.60918,-0.87729],[0.36326,0.52313]],[[200.97436,289.46729],[-0.30621,-0.55843],[0.08555,0.15602]],[[200.95842,290.00088],[-0.09569,0.15002],[0.93536,-1.4664]],[[203.79998,285.60002],[-1.08249,1.44332],[3.78385,-5.04512]],[[214.17013,269.94203],[-3.52035,5.21054],[3.82127,-5.65593]],[[226.68998,253.91243],[-3.53838,5.92092],[1.36619,-2.28231]],[[230.10032,247.06345],[-1.15945,2.35889],[1.31612,-2.67764]],[[234.51441,238.83077],[-0.54699,3.01851],[0.53225,-2.93718]],[[236.52674,229.77027],[-0.74402,2.96312],[0.65856,-2.62281]],[[238.4996,222.07987],[-0.02573,2.63058],[-2.58836,0.35693]],[[230.49999,222.00003],[2.39907,0],[0,0]]],&quot;closed&quot;:true,&quot;fillColor&quot;:[0,0,0],&quot;strokeWidth&quot;:0.5}]}" fill="#4c2915"/><path d="M211.67864,194.28621c9.69582,0.11366 19.40827,-3.40416 28.70088,-6.12675l0.04525,0.15104c3.19707,4.76421 4.61458,10.87205 1.67356,16.12939c-0.09687,0.89709 -0.79747,2.58675 -1.10304,3.97416c-0.21985,-0.796 -0.49583,-1.30709 -1.16206,-2.14055c-1.45691,-1.82257 -2.64618,-3.27949 -3.91328,-5.33156c-0.80356,-1.30139 -2.20317,-4.47067 -4.40306,-3.03665c-0.72268,0.47109 -0.67451,1.51671 -1.03931,2.29844c-1.25771,2.69515 -2.23928,5.67572 -2.60002,8.63031c-2.71095,-0.74843 -5.84883,-3.48404 -7.9942,-5.30162c-0.61211,-0.51858 -2.35021,-2.07038 -2.94045,-2.01618c-2.30697,0.21189 -1.86203,2.4548 -2.31434,3.87619c-1.18015,3.70866 -1.46933,7.63298 -1.55231,11.59202c-2.06035,-0.85791 -3.8383,-2.06126 -5.27738,-3.8116c-0.87107,-1.05945 -1.28715,-2.52352 -2.3785,-3.35425c-0.66708,-0.50778 -1.48417,-1.18117 -2.26688,-0.88085c-0.96673,0.37095 -1.22987,5.13254 -1.34147,6.00689c-0.0731,0.57276 0.10014,2.24961 -0.17785,1.74353c-1.55328,-2.82769 -4.62138,-8.87852 -8.23547,-6.93875c-2.18296,2.57855 -2.87134,7.48825 -5.98341,9.25679c-0.78088,0.44377 -1.99547,-1.31761 -2.42167,-1.65838c-1.00412,-0.80286 -4.16418,-4.46884 -5.38691,-4.41347c-0.71215,0.03224 -1.82628,2.00756 -2.29333,2.72891c-1.64438,2.53983 -3.67444,5.37116 -6.17905,7.08257c-2.5639,2.82026 -5.14919,6.21282 -8.87502,7.28388c-0.46246,0.13294 -0.01529,-1.03196 -0.21113,-1.4715c-0.19975,-0.44836 -0.49849,-0.84351 -0.73247,-1.275c-1.04429,-1.92579 -2.25489,-5.5342 -5.10835,-5.53084c-0.73869,0.00086 -2.70173,1.62487 -3.20625,1.99382c-2.32254,1.69842 -4.19279,4.13648 -5.40946,6.7644c-0.42287,-1.68932 -2.57489,-2.65167 -3.92675,-3.4339c-1.9768,-1.14389 -3.52067,-2.37148 -5.12974,-3.89448c-0.57299,-0.54234 -2.3537,-2.07802 -3.40145,-1.62182c-0.78909,0.34356 -1.29062,1.19158 -1.65501,1.97127c-0.21716,0.46472 0.07457,1.02332 0.01025,1.53223c-0.24397,1.93064 -1.17661,3.99819 -1.70544,5.88477c-0.49598,1.76941 -0.75638,2.09029 -0.40571,3.85259c0.05327,0.26776 0.55908,0.85043 0.29096,0.79902c-1.05919,-0.20311 -1.81054,-1.21083 -2.8061,-1.62555c-3.90038,-1.43487 -8.44549,-2.85747 -11.9625,-5.11607c-1.14559,-0.73569 -1.62475,-2.03893 -3.25768,-1.81969c-2.03455,0.27316 -2.44138,2.94656 -2.86899,4.41515c-0.16355,0.56171 -1.12409,3.41971 -1.13457,3.69788c-0.11036,2.92602 2.48341,5.44567 2.4279,8.44607c-4.54511,-0.84981 -7.04508,-3.00042 -10.34901,-6.03865c-1.49214,-1.37213 -2.13025,-3.63649 -4.36805,-4.31552c-1.11147,-0.33727 -1.71266,0.50292 -2.50652,0.95121c-2.82198,1.59365 -4.63085,3.63265 -6.46097,6.28668c-0.35906,0.52077 -2.38111,4.18056 -2.97969,4.27356c-0.81354,0.1264 -1.41644,-2.1065 -1.63001,-2.44859c-1.24822,-1.99943 -4.5384,-6.89611 -7.30038,-4.48064c-1.49325,1.30589 -0.17514,1.69696 -0.41853,3.00914c-0.75133,4.05051 -1.44871,8.19961 -2.50134,12.18393c-0.03631,0.78125 -0.07625,2.18523 -0.255,2.85732c-0.23879,0.89776 -0.55736,1.809 -1.11066,2.55523c-0.63141,0.85158 -2.09146,-0.70945 -2.97907,-1.28912c-2.78686,-1.82002 -4.90206,-3.79166 -7.28539,-6.04038c-0.60081,-0.56687 -1.0982,-1.38929 -1.89835,-1.59444c-1.79074,-0.45912 -2.53205,0.94432 -3.04517,2.21027c-1.23264,3.04114 -2.71793,5.91962 -5.10885,8.39172c-0.06423,0.03654 -1.12866,0.62313 -1.74598,0.98108c0.3096,-0.69407 0.48229,-1.56498 0.51114,-1.65361c0.76851,-2.36207 1.83188,-5.93321 1.32688,-8.44111c-0.28977,-1.43903 -1.95869,-2.14503 -2.84203,-3.05346c-2.65066,-2.72598 -5.00556,-4.94276 -6.06101,-8.61428c0,0 -0.06731,-0.23426 -0.25096,-0.43816c1.04078,-0.96731 1.78186,-1.04315 3.17817,-1.44455c3.09573,-0.88992 6.0259,-1.06245 9.1661,-1.59818c3.54259,-0.60439 6.74534,-2.11412 9.94234,-3.55741c2.79368,-1.26121 6.22972,-1.7842 9.17494,-2.63086c4.23369,-1.21705 8.10609,-1.79781 12.3538,-2.51714c5.1614,-0.87405 10.43763,-2.99947 15.47317,-4.44703c11.99209,-3.44735 24.63167,-6.18917 36.10068,-11.10893c9.54631,-2.72856 19.3139,-6.46838 29.0595,-8.329c2.25878,-0.43125 4.49838,-0.59843 6.75412,-1.1763c1.24458,-0.32485 2.55512,-0.30877 3.83035,-0.47689c6.65947,-0.87796 13.00319,-4.33767 19.62775,-5.54289c2.49705,-0.4543 4.92615,-0.23272 7.38621,-0.48769c2.35726,-0.24431 4.37836,-1.20535 6.82355,-1.28719z" data-paper-data="{&quot;noHover&quot;:false,&quot;origItem&quot;:[&quot;Path&quot;,{&quot;applyMatrix&quot;:true,&quot;segments&quot;:[[[437.13664,377.59516],[0,0],[-4.74524,-1.19378]],[[423.30982,376.30124],[4.666,0.83294],[-4.8695,-0.86926]],[[408.84368,373.16174],[5.05074,0.50654],[-13.39938,-1.34384]],[[368.05594,372.98066],[13.28566,1.99218],[-2.5441,-0.38148]],[[360.43142,371.78532],[2.57178,0.06328],[-4.6552,-0.13568]],[[346.80294,370.3236],[4.58,0.4192],[-19.76064,-1.80864]],[[286.45762,370.32946],[19.85718,0.0302],[-24.76366,3.11922]],[[211.00002,371.66666],[24.95552,0],[-10.47894,0]],[[178.80294,371.65692],[10.40396,1.17192],[-8.5622,-0.96446]],[[153.66668,369.66666],[8.8103,0],[-6.129,0]],[[134.57772,369.65168],[6.06678,-0.88058],[-6.94266,1.00772]],[[113.50172,370.99318],[7.14336,0.79578],[-6.332,-0.70538]],[[95.00002,369],[6.4422,0],[-2.90572,0]],[[88.09302,370.01958],[2.53502,-1.28422],[0.24034,0.4934]],[[88.33336,371],[0,0],[0,7.6404]],[[95.22438,390.8975],[-3.5887,-6.7044],[1.19594,2.23426]],[[99.00002,398.33334],[0.23818,-2.92614],[-0.41508,5.09962]],[[91.78494,413.81764],[2.78238,-4.1156],[-0.10442,0.15444]],[[89.88862,416.71238],[0.97862,-1.16304],[1.38436,-0.34694]],[[93.5877,415.81088],[-0.14364,0.03474],[5.9617,-3.43062]],[[108.04422,402.49726],[-4.04976,5.16442],[1.68582,-2.14984]],[[115.31876,399.92628],[-3.18838,-1.872],[1.42466,0.83646]],[[118.08658,404.0376],[-0.84162,-1.42162],[3.33858,5.6393]],[[128.75168,419.66408],[-4.3511,-5.03828],[1.38582,1.60468]],[[133.568,423.81892],[-1.68422,1.28798],[1.47586,-1.12864]],[[137.11442,419.5188],[-0.95504,1.5937],[0.71496,-1.19308]],[[139.183,414.1643],[-0.50148,1.48162],[4.2249,-7.07684]],[[150.72272,392.11254],[-3.68234,7.37056],[1.1929,-2.38772]],[[153.38964,386.57],[-3.59184,1.68502],[6.64366,-3.11672]],[[164.94652,399.20718],[-1.29448,-4.53294],[0.22148,0.77556]],[[166.5269,404.82308],[-1.63362,-0.20656],[1.20196,0.152]],[[174.61554,398.25],[-0.97792,0.80262],[4.9843,-4.0902]],[[190.5085,389.72802],[-6.30488,1.50392],[1.77362,-0.42306]],[[196.0515,389.2987],[-1.95006,-1.26242],[3.92618,2.5417]],[[202.0632,399.99614],[-2.10994,-3.46194],[4.67186,7.66554]],[[218.61526,417.2987],[-8.26684,-4.14492],[1.7646,-5.73656]],[[218.4192,399.75376],[-1.82892,5.56326],[0.17388,-0.5289]],[[222.64336,393.26382],[-0.62474,0.98934],[1.63342,-2.58658]],[[230.59884,386.35102],[-4.06164,-0.59914],[3.25988,0.48086]],[[236.05344,391.67342],[-1.7955,-2.04712],[5.51222,6.28474]],[[256.21602,408.07876],[-6.7043,-4.91326],[1.68446,1.34726]],[[260.70548,412.73892],[-1.92368,-0.97568],[0.48696,0.24698]],[[260.4072,411.12828],[-0.04554,0.5441],[0.29974,-3.58116]],[[263.31002,403.93048],[-1.93104,3.12702],[2.05894,-3.33412]],[[269.83768,393.5242],[-1.53574,3.57618],[0.40482,-0.94268]],[[270.6672,390.56034],[-0.67422,0.77326],[1.13122,-1.29734]],[[274.94454,387.6674],[-1.70658,0.22436],[2.266,-0.29792]],[[280.7716,392.73842],[-0.8017,-1.35908],[2.2513,3.81654]],[[288.44134,402.9467],[-3.16766,-3.29104],[2.16622,2.25058]],[[294.02726,411.6994],[0.12064,-3.48078],[3.79072,-4.379]],[[308.07572,401.7534],[-5.40276,1.98128],[1.17364,-0.4304]],[[315.5339,399.7392],[-1.42036,-0.4065],[5.48666,1.57026]],[[322.28476,413.22836],[-0.94318,-4.27872],[0.21132,0.95866]],[[322.98506,416.08894],[-0.13622,-0.9722],[0.13354,0.95308]],[[322.41426,418.9191],[-0.96238,0],[7.75346,0]],[[343.48118,409.8573],[-6.48658,4.00426],[5.7599,-1.90564]],[[359.26862,399.67854],[-4.56416,3.97332],[1.2963,-1.12848]],[[365.3845,395.70396],[-1.3867,-0.33152],[2.38086,0.56918]],[[373.29938,407.17818],[-1.48644,-2.09806],[0.6309,0.89048]],[[376.8403,411.67304],[-1.74618,0.4215],[6.95912,-1.6798]],[[393.45468,397.20336],[-5.6208,3.75014],[8.01866,-1.73154]],[[405.64912,415.10824],[-1.42318,-6.29352],[0.2547,1.12636]],[[406.7566,411.8256],[-0.457,1.06054],[0.69764,-1.61896]],[[412.65346,401.03024],[-2.06318,0.17886],[1.67046,-0.1448]],[[416.7238,403.98572],[-1.00166,-1.34464],[1.63872,2.19984]],[[419.44168,411.75332],[-1.0889,-2.51774],[1.79896,4.1596]],[[427.28194,421.96534],[-3.48626,-2.7875],[2.34708,-7.56404]],[[436.6693,400.55724],[-4.31768,6.47652],[1.6548,-2.4822]],[[443.45958,394.3868],[-4.55142,-0.86746],[1.16448,0.22194]],[[447.9975,399.89056],[-0.89002,-1.33504],[3.1194,4.67912]],[[460.2347,414.48554],[-4.79732,-2.93658],[2.326,-5.47984]],[[470.00056,399.3425],[-3.90674,4.48554],[1.13316,-1.30104]],[[473.46828,395.49984],[-1.6494,0.50618],[5.0209,-1.54084]],[[480.25364,403.77412],[-0.82548,-2.94548],[1.30166,4.64454]],[[484.8291,416.19086],[-1.79332,-4.3083],[0.82006,1.97014]],[[485.68128,420.92466],[0.01724,-1.65152],[1.35398,-2.49798]],[[489.99706,413.89898],[-0.6819,1.67082],[8.55812,-8.4803]],[[495.69256,381.987],[3.51276,10.92412],[0,0]],[[495.68906,381.67184],[0,0],[-19.36622,0.0985]],[[437.13672,377.59512],[18.57404,5.57598],[0,0]]],&quot;closed&quot;:true,&quot;fillColor&quot;:[0,0,0,1]}]}" fill="#1f4d15"/><path d="M393.598,177.69701l-43.03344,9.17188l-46.1721,-216.63422l43.03344,-9.17188z" fill="#a5a5a5"/><path d="M390.81497,178.54578l-37.36315,7.96336l-46.22422,-216.87873l37.36315,-7.96336z" fill="#4543d4"/><path d="M388.54656,155.12924l-40.83286,8.70287l-1.45917,-6.84623l40.83286,-8.70287z" fill="#a5a5a5"/><path d="M381.5113,122.12063l-40.83286,8.70287l-1.45917,-6.84623l40.83286,-8.70287z" fill="#a5a5a5"/><path d="M374.47605,89.11203l-40.83286,8.70287l-1.45917,-6.84623l40.83286,-8.70287z" fill="#a5a5a5"/><path d="M367.4408,56.10344l-40.83286,8.70287l-1.45917,-6.84623l40.83286,-8.70287z" fill="#a5a5a5"/><path d="M360.40555,23.09483l-40.83286,8.70287l-1.45917,-6.84623l40.83286,-8.70287z" fill="#a5a5a5"/><path d="M353.37029,-9.91378l-40.83286,8.70287l-1.45917,-6.84623l40.83286,-8.70287z" fill="#a5a5a5"/><path d="M246.69064,399.10004l-0.84953,-43.9918l221.45871,-4.2766l0.84953,43.9918z" fill="#a5a5a5"/><path d="M246.38472,396.20658l-0.73759,-38.19523l221.70866,-4.28144l0.73759,38.19523z" fill="#4543d4"/><path d="M269.80677,398.41741l-0.80609,-41.74222l6.99869,-0.13516l0.80609,41.74222z" fill="#a5a5a5"/><path d="M303.55048,397.76578l-0.80609,-41.74222l6.99869,-0.13516l0.80609,41.74222z" fill="#a5a5a5"/><path d="M337.29419,397.11416l-0.80609,-41.74222l6.99869,-0.13516l0.80609,41.74222z" fill="#a5a5a5"/><path d="M371.0379,396.46253l-0.80609,-41.74222l6.99869,-0.13516l0.80609,41.74222z" fill="#a5a5a5"/><path d="M404.78161,395.8109l-0.80609,-41.74222l6.99869,-0.13516l0.80609,41.74222z" fill="#a5a5a5"/><path d="M438.52532,395.15927l-0.80609,-41.74222l6.99869,-0.13516l0.80609,41.74222z" fill="#a5a5a5"/><path d="M546.51988,178.90829c0.83271,-2.24992 2.28991,-4.92375 2.85359,-7.47507c2.45811,0.9372 4.29885,2.99105 6.53002,4.51903c2.52064,1.72626 5.23232,3.51298 7.80216,5.03162c2.64099,1.56071 4.13736,4.83329 6.1917,6.99699c1.80979,1.90613 3.57616,3.5021 5.24236,5.57555c4.32465,5.37353 6.71736,11.7592 10.6953,17.30605c3.66469,5.11005 7.67824,9.8639 11.09633,15.16366c0.97785,1.51615 2.09408,2.80801 3.14464,4.19421c0.10749,0.14181 -0.36564,-0.13784 -0.54165,-0.11176c-0.63,0.09335 -1.21349,0.38631 -1.83019,0.5454c-1.03419,0.26681 -2.10228,0.37335 -3.14229,0.6164c-2.82403,0.66002 -6.9727,0.65174 -9.561,1.724c-0.93732,0.38829 -2.30415,0.69049 -2.53758,1.67784c-0.19749,0.83532 1.07295,1.26948 1.70359,1.85175c2.7475,2.53683 5.97919,4.50825 8.68355,7.14444c2.018,3.13626 4.58359,5.60545 6.85649,8.54097c1.18783,1.53411 1.58946,3.27967 2.70745,4.80449c2.09487,2.85716 4.92525,5.59753 7.18727,8.41834c0.98735,1.23127 2.91364,4.54634 4.64955,5.70267c-1.0385,0.49182 -1.61679,1.17297 -3.31145,1.66349c-2.36111,0.68342 -5.1459,0.01311 -7.48834,1.09637c-0.90697,0.41943 -2.2385,0.69843 -2.49441,1.66437c-0.34582,1.30534 3.67615,3.28228 4.34263,3.74262c3.75822,2.59573 6.98622,5.343 11.26903,7.29596c1.88965,1.28999 3.81477,2.90189 5.72087,4.06581c0.86162,0.52615 1.99295,0.50534 2.83811,1.05754c2.09114,1.36625 2.84594,3.56277 4.38823,5.35068c1.76938,2.05117 4.19153,3.9306 6.13521,5.81868c0.38865,0.37752 -1.08284,0.09741 -1.61109,0.21794c-0.67121,0.15316 -1.34866,0.28673 -2.00918,0.4809c-1.69436,0.49812 -3.35882,1.28108 -5.0081,1.91034c-7.97461,2.63451 -16.21975,4.85095 -24.34383,6.93769c-5.05932,1.29952 -10.17839,0.48079 -15.29156,0.85036c-2.90815,0.21019 -6.43286,-0.04254 -9.2273,0.71418c-0.89063,0.24118 -2.14846,0.25523 -2.55004,1.08596c-0.66751,1.38082 2.30676,2.65954 2.82952,3.01629c2.28499,1.5594 4.33801,3.35007 6.7301,4.78634c1.14097,0.68508 2.25995,1.43403 3.50086,1.91494c0.37112,0.14383 1.32769,-0.09967 1.21138,0.28097c-0.12062,0.39473 -0.84086,-0.10096 -1.23937,0.00651c-1.19128,0.32129 -2.32579,0.88395 -3.54336,1.08373c-1.07857,0.17698 -2.15953,0.37135 -3.22086,0.6325c-3.74284,0.9304 -7.69315,0.84514 -11.4853,1.58982c-8.89586,1.7469 -18.43267,1.8933 -27.57195,2.35807c-5.04407,0.93852 -9.9682,-0.06701 -15.00856,-0.45222c-1.21127,-0.09257 -5.66435,-0.99156 -6.60091,-0.3038c-0.73851,0.54236 -0.95628,1.60992 -0.84949,2.51994c0.04855,0.41373 2.91723,1.93126 3.03331,2.00575c2.16772,1.39072 4.60652,4.01524 7.22454,4.90503c-4.96168,0.97833 -9.86626,2.15481 -14.74786,3.48365c-3.63212,0.98873 -7.27915,2.41455 -11.07917,2.50833c-1.81752,0.04486 -3.49375,-0.54867 -5.35882,-0.3199c-4.81332,0.59039 -9.90952,2.77137 -14.30364,-0.35014c3.1171,-9.16841 1.11757,-18.86137 4.48134,-27.94924c4.16518,-11.25395 8.32608,-22.52561 12.49123,-33.77957c2.1388,-5.77887 3.80056,-12.23008 6.55241,-17.73157c2.37185,-4.7418 6.23581,-8.18933 8.06712,-13.13737c1.13835,-3.07576 2.09416,-6.33179 3.4478,-9.31933c1.33954,-2.95642 3.75893,-5.12993 5.07771,-8.02935c1.34,-2.946 2.30571,-6.13622 3.42892,-9.17102c0.15167,-0.40981 1.10507,-2.92465 1.1043,-3.20007c-0.00131,-0.47141 -0.56371,-0.81442 -0.59055,-1.28507c-0.05918,-1.03774 0.79406,-1.92337 1.15485,-2.89817c0.80562,-2.17672 2.43328,-4.95241 2.66126,-7.26068c0.09757,-0.98774 -0.24788,-2.03509 0.06384,-2.9774c2.50128,-7.56136 5.0608,-15.11059 9.02288,-22.00811c0.44724,-0.7818 1.09806,-2.87867 1.70872,-3.20446c0.35016,-0.18682 0.87486,0.08489 1.17904,-0.17005c0.67224,-0.5634 1.24569,-2.93261 1.53857,-3.72393z" data-paper-data="{&quot;noHover&quot;:false,&quot;origItem&quot;:[&quot;Path&quot;,{&quot;applyMatrix&quot;:true,&quot;segments&quot;:[[[230.5,222],[0,0],[-0.84379,0]],[[226.47427,221.85065],[0.76171,0.43489],[-0.34467,-0.19679]],[[225.9059,220.80439],[0.29675,0.26355],[-0.5175,-0.45961]],[[222.30839,220.31519],[0.88843,0.14807],[-7.84393,-1.32165]],[[198.54346,219.49905],[7.95946,-0.27875],[-0.99192,0.03474]],[[195.72975,220.47324],[0.96018,-0.25134],[-2.24388,0.58738]],[[188,220.49999],[2.32101,0],[-1.03942,0]],[[184.88268,220.42387],[0.95268,-0.41569],[-0.43206,0.18853]],[[183.88268,221.42387],[0.44164,-0.16486],[-0.25802,0.09632]],[[180.5,221.49999],[0.43698,0],[-3.23597,0]],[[170.71484,221.47032],[3.22796,0.23413],[-3.1769,-0.23043]],[[161.42911,219.49748],[3.23757,0.23009],[-3.27164,-0.23251]],[[151.5,219.5],[3.27966,0],[-5.27607,0]],[[136.39088,216.49403],[5.27026,0.57853],[-6.11461,-0.67121]],[[117.5,216.5],[6.16196,0],[-12,0]],[[81.5,216.5],[12,0],[-9.69043,-0.00025]],[[53.73979,221.99005],[9.68034,-0.25903],[-1.40225,5.20439]],[[58.37844,235.52215],[-2.22438,-4.30915],[0.86191,1.66971]],[[59.93936,240.65707],[-0.67293,-1.68895],[1.40693,3.53122]],[[66.13868,250.17369],[-2.18795,-3.06312],[2.94063,4.11688]],[[74.52655,262.79002],[-2.6397,-4.31363],[-0.07422,-2.7641]],[[76.52447,254.28008],[-0.55184,2.51565],[0.02956,-0.13474]],[[77.35361,250.73697],[-0.37115,0.18914],[0.81637,-0.41602]],[[80.10218,250.70164],[-0.76497,-0.50435],[0.97008,0.6396]],[[82.10983,256.99441],[-0.33361,-1.1681],[1.38824,4.86071]],[[86.89783,271.21766],[-2.63096,-4.40472],[3.60808,8.40977]],[[98.67831,296.23362],[-4.72602,-7.73645],[2.01462,3.29791]],[[104.15116,306.44215],[-2.17169,-3.1872],[0.6133,0.90471]],[[105.8605,309.24034],[-0.54034,-0.95009],[0.60997,1.07253]],[[108.1045,312.18414],[-0.71481,-1.0057],[0.23911,0.33643]],[[108.54003,313.34325],[-0.41205,0.02389],[0.39735,-0.02303]],[[108.30529,312.1725],[-0.00607,0.39797],[0.02029,-1.33069]],[[108.88423,308.22217],[-0.24645,1.30782],[0.51668,-2.74189]],[[111.03349,300.24333],[-0.66933,2.68419],[0.15313,-0.6141]],[[112.97067,296.50043],[-1.52666,-0.14673],[0.91847,0.08828]],[[114.87264,298.51164],[-0.53532,-0.75154],[1.67961,2.35805]],[[118.73796,306.90693],[-1.20654,-2.65439],[2.12137,4.66701]],[[124.82999,320.94225],[-2.97482,-4.29371],[4.77686,6.89468]],[[139.76723,341.35865],[-5.23869,-6.56439],[1.1626,1.32833]],[[143.29399,345.39209],[-1.05525,-1.41612],[0.41136,0.55205]],[[144.44143,347.1094],[-0.37661,-0.57632],[0.29639,0.45357]],[[145.20443,348.54467],[-0.21915,0.49552],[1.09605,-2.47818]],[[148.52908,340.77128],[-1.3095,2.37133],[1.14142,-2.06698]],[[152.0204,334.79894],[-0.55548,2.43535],[0.2245,-0.98428]],[[152.02673,331.77025],[-0.19436,0.99068],[0.42995,-2.19158]],[[153.85105,324.99428],[-0.5539,2.21993],[0.34499,-4.69441]],[[156.77385,311.89567],[-1.12988,4.42554],[0.20038,-0.78483]],[[158.77023,306.52676],[-1.34422,0.12876],[0.99471,-0.09528]],[[161.19502,308.28946],[-0.70816,-0.70501],[1.82896,1.82081]],[[164.82269,314.93153],[-1.46047,-1.97711],[1.04824,1.41905]],[[167.53104,317.46039],[-0.82169,-0.80321],[0.4819,-2.02936]],[[171.25847,311.12558],[-0.81201,1.35333],[1.8603,-3.10049]],[[176.64934,301.47429],[-1.9524,2.95634],[1.04197,-1.57774]],[[180.21199,297.27402],[-1.02644,1.64646],[1.9641,-3.1505]],[[185.83843,287.89236],[-2.24084,2.98113],[1.53361,-3.45124]],[[189.52454,277.28152],[-1.42546,3.45722],[0.32718,-0.79354]],[[190.76884,275.0271],[-0.85193,0.10473],[1.00699,-0.12379]],[[193.22348,276.8268],[-0.6895,-0.74427],[1.90398,2.05521]],[[198.15917,285.20353],[-1.5992,-2.41937],[0.58895,0.89099]],[[199.82775,287.93894],[-0.60918,-0.87729],[0.36326,0.52313]],[[200.97436,289.46729],[-0.30621,-0.55843],[0.08555,0.15602]],[[200.95842,290.00088],[-0.09569,0.15002],[0.93536,-1.4664]],[[203.79998,285.60002],[-1.08249,1.44332],[3.78385,-5.04512]],[[214.17013,269.94203],[-3.52035,5.21054],[3.82127,-5.65593]],[[226.68998,253.91243],[-3.53838,5.92092],[1.36619,-2.28231]],[[230.10032,247.06345],[-1.15945,2.35889],[1.31612,-2.67764]],[[234.51441,238.83077],[-0.54699,3.01851],[0.53225,-2.93718]],[[236.52674,229.77027],[-0.74402,2.96312],[0.65856,-2.62281]],[[238.4996,222.07987],[-0.02573,2.63058],[-2.58836,0.35693]],[[230.49999,222.00003],[2.39907,0],[0,0]]],&quot;closed&quot;:true,&quot;fillColor&quot;:[0,0,0],&quot;strokeWidth&quot;:0.5}],&quot;index&quot;:null}" fill="#4c2915"/><path d="M534.7102,187.25055c5.83817,-7.74194 8.7613,-17.64962 12.07609,-26.74782l0.14847,0.05307c5.73211,0.24869 11.49169,2.72705 13.983,8.21181c0.66513,0.60972 1.61079,2.17545 2.54715,3.24387c-0.77143,-0.29471 -1.34664,-0.37534 -2.41281,-0.33273c-2.33145,0.09322 -4.20977,0.18759 -6.61356,-0.0081c-1.52444,-0.12411 -4.90661,-0.87523 -5.05546,1.74656c-0.0489,0.86128 0.82183,1.44221 1.23524,2.19936c1.42532,2.61039 3.24419,5.16753 5.4101,7.20924c-2.20956,1.73989 -6.2727,2.64586 -9.00817,3.29654c-0.78047,0.18565 -3.06049,0.66583 -3.36667,1.17335c-1.19666,1.98369 0.87356,2.95467 1.75031,4.16142c2.2876,3.14862 5.27697,5.70744 8.41652,8.12076c-1.91214,1.15099 -3.93513,1.86979 -6.19783,1.99146c-1.36959,0.07366 -2.7954,-0.45896 -4.11133,-0.07232c-0.80435,0.23633 -1.831,0.49533 -2.05302,1.30374c-0.2742,0.99849 3.40497,4.03258 4.04305,4.64069c0.41799,0.39835 1.87126,1.25267 1.29888,1.17662c-3.19812,-0.42489 -9.89008,-1.54002 -10.46977,2.52056c0.78302,3.2865 4.32944,6.75088 3.90938,10.30563c-0.1054,0.89196 -2.24394,0.82628 -2.77101,0.96758c-1.24178,0.3329 -6.06741,0.70531 -6.74751,1.72295c-0.39612,0.5927 0.53453,2.6608 0.83871,3.46452c1.07105,2.82977 2.14828,6.14294 2.04225,9.17457c0.75192,3.73658 1.95211,7.82959 0.60651,11.4653c-0.16702,0.45127 -0.84023,-0.59932 -1.31032,-0.70209c-0.47951,-0.10485 -0.97484,-0.09844 -1.46105,-0.16573c-2.17003,-0.3003 -5.79386,-1.46392 -7.48238,0.83634c-0.43712,0.59547 -0.29257,3.1391 -0.29443,3.76413c-0.00859,2.87728 0.84661,5.82865 2.24211,8.36614c-1.61126,-0.66065 -3.66185,0.50227 -5.09312,1.12748c-2.09295,0.9142 -3.99673,1.4301 -6.17708,1.82342c-0.77642,0.14006 -3.06872,0.66412 -3.32227,1.77839c-0.19097,0.83918 0.1948,1.74574 0.60681,2.50135c0.24559,0.45034 0.86841,0.54645 1.24018,0.89988c1.4104,1.34077 2.5229,3.31737 3.72897,4.86146c1.13117,1.44819 1.23528,1.84811 2.86253,2.61017c0.24723,0.11579 1.01632,0.05374 0.816,0.23922c-0.79136,0.73272 -2.04833,0.74061 -2.97242,1.29667c-3.46741,2.29105 -7.30706,5.10865 -11.2107,6.60271c-1.27153,0.48666 -2.60519,0.10017 -3.39643,1.54532c-0.98585,1.80059 0.92626,3.71276 1.85567,4.92759c0.35548,0.46465 2.0881,2.93221 2.30593,3.10552c2.29129,1.82311 5.858,1.22739 8.24171,3.05041c-3.37831,3.15709 -6.59218,3.896 -10.99748,4.75635c-1.98953,0.38856 -4.19152,-0.43955 -6.06475,0.96039c-0.93041,0.69531 -0.61001,1.6775 -0.71946,2.5826c-0.38899,3.21745 0.18118,5.88286 1.23412,8.92992c0.20663,0.59785 1.95588,4.3956 1.67602,4.93283c-0.38037,0.73017 -2.53615,-0.10766 -2.93826,-0.1384c-2.35021,-0.17969 -8.2442,-0.4319 -7.93571,3.22431c0.16677,1.9767 1.26298,1.14684 2.17559,2.12059c2.81709,3.00584 5.74557,6.02667 8.33078,9.23596c0.60772,0.49229 1.71486,1.35658 2.15023,1.89889c0.58155,0.72442 1.12668,1.52109 1.39978,2.40902c0.31166,1.01328 -1.811,1.26404 -2.80396,1.63538c-3.11765,1.16591 -5.95932,1.70098 -9.18309,2.28779c-0.81267,0.14793 -1.76987,0.0611 -2.40934,0.58398c-1.43114,1.1702 -0.74014,2.59908 -0.02463,3.76268c1.71885,2.79526 3.15695,5.69761 3.73097,9.08852c-0.00864,0.07339 -0.16706,1.27838 -0.24464,1.98774c-0.37553,-0.66073 -0.97463,-1.316 -1.02892,-1.39177c-1.44699,-2.01896 -3.69305,-4.99201 -6.01229,-6.07168c-1.33078,-0.61951 -2.88857,0.30625 -4.14379,0.4793c-3.76661,0.51926 -6.9478,1.1021 -10.53051,-0.22389c0,0 -0.22857,-0.08463 -0.50165,-0.05756c-0.16224,-1.41159 0.21591,-2.05343 0.72019,-3.41596c1.11804,-3.02084 2.71577,-5.48314 4.14544,-8.32988c1.61287,-3.21152 2.29513,-6.68592 3.02749,-10.1163c0.63997,-2.99762 2.25525,-6.07508 3.31893,-8.94906c1.52902,-4.13127 3.3564,-7.59443 5.29461,-11.44201c2.35513,-4.67519 3.77043,-10.18454 5.58904,-15.09827c4.33101,-11.702 9.61403,-23.50735 12.44909,-35.66073c3.46035,-9.30608 6.23735,-19.38974 10.51488,-28.34191c0.99142,-2.07489 2.18416,-3.97781 3.05568,-6.13715c0.47601,-1.19496 1.2657,-2.24098 1.88611,-3.36773c3.23987,-5.88409 4.21319,-13.04406 7.16878,-19.094c1.11407,-2.28046 2.73225,-4.1056 3.98494,-6.23812c1.20035,-2.04341 1.62419,-4.24086 3.00752,-6.2588z" data-paper-data="{&quot;noHover&quot;:false,&quot;origItem&quot;:[&quot;Path&quot;,{&quot;applyMatrix&quot;:true,&quot;segments&quot;:[[[437.13664,377.59516],[0,0],[-4.74524,-1.19378]],[[423.30982,376.30124],[4.666,0.83294],[-4.8695,-0.86926]],[[408.84368,373.16174],[5.05074,0.50654],[-13.39938,-1.34384]],[[368.05594,372.98066],[13.28566,1.99218],[-2.5441,-0.38148]],[[360.43142,371.78532],[2.57178,0.06328],[-4.6552,-0.13568]],[[346.80294,370.3236],[4.58,0.4192],[-19.76064,-1.80864]],[[286.45762,370.32946],[19.85718,0.0302],[-24.76366,3.11922]],[[211.00002,371.66666],[24.95552,0],[-10.47894,0]],[[178.80294,371.65692],[10.40396,1.17192],[-8.5622,-0.96446]],[[153.66668,369.66666],[8.8103,0],[-6.129,0]],[[134.57772,369.65168],[6.06678,-0.88058],[-6.94266,1.00772]],[[113.50172,370.99318],[7.14336,0.79578],[-6.332,-0.70538]],[[95.00002,369],[6.4422,0],[-2.90572,0]],[[88.09302,370.01958],[2.53502,-1.28422],[0.24034,0.4934]],[[88.33336,371],[0,0],[0,7.6404]],[[95.22438,390.8975],[-3.5887,-6.7044],[1.19594,2.23426]],[[99.00002,398.33334],[0.23818,-2.92614],[-0.41508,5.09962]],[[91.78494,413.81764],[2.78238,-4.1156],[-0.10442,0.15444]],[[89.88862,416.71238],[0.97862,-1.16304],[1.38436,-0.34694]],[[93.5877,415.81088],[-0.14364,0.03474],[5.9617,-3.43062]],[[108.04422,402.49726],[-4.04976,5.16442],[1.68582,-2.14984]],[[115.31876,399.92628],[-3.18838,-1.872],[1.42466,0.83646]],[[118.08658,404.0376],[-0.84162,-1.42162],[3.33858,5.6393]],[[128.75168,419.66408],[-4.3511,-5.03828],[1.38582,1.60468]],[[133.568,423.81892],[-1.68422,1.28798],[1.47586,-1.12864]],[[137.11442,419.5188],[-0.95504,1.5937],[0.71496,-1.19308]],[[139.183,414.1643],[-0.50148,1.48162],[4.2249,-7.07684]],[[150.72272,392.11254],[-3.68234,7.37056],[1.1929,-2.38772]],[[153.38964,386.57],[-3.59184,1.68502],[6.64366,-3.11672]],[[164.94652,399.20718],[-1.29448,-4.53294],[0.22148,0.77556]],[[166.5269,404.82308],[-1.63362,-0.20656],[1.20196,0.152]],[[174.61554,398.25],[-0.97792,0.80262],[4.9843,-4.0902]],[[190.5085,389.72802],[-6.30488,1.50392],[1.77362,-0.42306]],[[196.0515,389.2987],[-1.95006,-1.26242],[3.92618,2.5417]],[[202.0632,399.99614],[-2.10994,-3.46194],[4.67186,7.66554]],[[218.61526,417.2987],[-8.26684,-4.14492],[1.7646,-5.73656]],[[218.4192,399.75376],[-1.82892,5.56326],[0.17388,-0.5289]],[[222.64336,393.26382],[-0.62474,0.98934],[1.63342,-2.58658]],[[230.59884,386.35102],[-4.06164,-0.59914],[3.25988,0.48086]],[[236.05344,391.67342],[-1.7955,-2.04712],[5.51222,6.28474]],[[256.21602,408.07876],[-6.7043,-4.91326],[1.68446,1.34726]],[[260.70548,412.73892],[-1.92368,-0.97568],[0.48696,0.24698]],[[260.4072,411.12828],[-0.04554,0.5441],[0.29974,-3.58116]],[[263.31002,403.93048],[-1.93104,3.12702],[2.05894,-3.33412]],[[269.83768,393.5242],[-1.53574,3.57618],[0.40482,-0.94268]],[[270.6672,390.56034],[-0.67422,0.77326],[1.13122,-1.29734]],[[274.94454,387.6674],[-1.70658,0.22436],[2.266,-0.29792]],[[280.7716,392.73842],[-0.8017,-1.35908],[2.2513,3.81654]],[[288.44134,402.9467],[-3.16766,-3.29104],[2.16622,2.25058]],[[294.02726,411.6994],[0.12064,-3.48078],[3.79072,-4.379]],[[308.07572,401.7534],[-5.40276,1.98128],[1.17364,-0.4304]],[[315.5339,399.7392],[-1.42036,-0.4065],[5.48666,1.57026]],[[322.28476,413.22836],[-0.94318,-4.27872],[0.21132,0.95866]],[[322.98506,416.08894],[-0.13622,-0.9722],[0.13354,0.95308]],[[322.41426,418.9191],[-0.96238,0],[7.75346,0]],[[343.48118,409.8573],[-6.48658,4.00426],[5.7599,-1.90564]],[[359.26862,399.67854],[-4.56416,3.97332],[1.2963,-1.12848]],[[365.3845,395.70396],[-1.3867,-0.33152],[2.38086,0.56918]],[[373.29938,407.17818],[-1.48644,-2.09806],[0.6309,0.89048]],[[376.8403,411.67304],[-1.74618,0.4215],[6.95912,-1.6798]],[[393.45468,397.20336],[-5.6208,3.75014],[8.01866,-1.73154]],[[405.64912,415.10824],[-1.42318,-6.29352],[0.2547,1.12636]],[[406.7566,411.8256],[-0.457,1.06054],[0.69764,-1.61896]],[[412.65346,401.03024],[-2.06318,0.17886],[1.67046,-0.1448]],[[416.7238,403.98572],[-1.00166,-1.34464],[1.63872,2.19984]],[[419.44168,411.75332],[-1.0889,-2.51774],[1.79896,4.1596]],[[427.28194,421.96534],[-3.48626,-2.7875],[2.34708,-7.56404]],[[436.6693,400.55724],[-4.31768,6.47652],[1.6548,-2.4822]],[[443.45958,394.3868],[-4.55142,-0.86746],[1.16448,0.22194]],[[447.9975,399.89056],[-0.89002,-1.33504],[3.1194,4.67912]],[[460.2347,414.48554],[-4.79732,-2.93658],[2.326,-5.47984]],[[470.00056,399.3425],[-3.90674,4.48554],[1.13316,-1.30104]],[[473.46828,395.49984],[-1.6494,0.50618],[5.0209,-1.54084]],[[480.25364,403.77412],[-0.82548,-2.94548],[1.30166,4.64454]],[[484.8291,416.19086],[-1.79332,-4.3083],[0.82006,1.97014]],[[485.68128,420.92466],[0.01724,-1.65152],[1.35398,-2.49798]],[[489.99706,413.89898],[-0.6819,1.67082],[8.55812,-8.4803]],[[495.69256,381.987],[3.51276,10.92412],[0,0]],[[495.68906,381.67184],[0,0],[-19.36622,0.0985]],[[437.13672,377.59512],[18.57404,5.57598],[0,0]]],&quot;closed&quot;:true,&quot;fillColor&quot;:[0,0,0,1]}]}" fill="#1f4d15"/><path d="M698.90965,161.30854l-8.33018,43.20426l-217.49417,-41.93489l8.33018,-43.20426z" fill="#a5a5a5"/><path d="M698.60632,164.20227l-7.23256,37.51146l-217.73965,-41.98221l7.23256,-37.51147z" fill="#4543d4"/><path d="M676.15815,157.16237l-7.9042,40.99495l-6.8734,-1.32525l7.90421,-40.99496z" fill="#a5a5a5"/><path d="M643.01851,150.77274l-7.9042,40.99496l-6.8734,-1.32525l7.9042,-40.99496z" fill="#a5a5a5"/><path d="M609.87888,144.38311l-7.90421,40.99496l-6.8734,-1.32525l7.90421,-40.99496z" fill="#a5a5a5"/><path d="M576.73926,137.99349l-7.9042,40.99496l-6.87341,-1.32525l7.90421,-40.99496z" fill="#a5a5a5"/><path d="M543.59963,131.60386l-7.90421,40.99496l-6.8734,-1.32525l7.9042,-40.99495z" fill="#a5a5a5"/><path d="M510.45999,125.21423l-7.90421,40.99496l-6.8734,-1.32525l7.90421,-40.99496z" fill="#a5a5a5"/></g></g></svg>