<svg version="1.1" xmlns="http://www.w3.org/2000/svg" xmlns:xlink="http://www.w3.org/1999/xlink" width="785.15895" height="268.8817" viewBox="0,0,785.15895,268.8817"><g transform="translate(56.98285,-157.06369)"><g data-paper-data="{&quot;isPaintingLayer&quot;:true}" fill="#000000" fill-rule="nonzero" stroke="none" stroke-width="0" stroke-linecap="butt" stroke-linejoin="miter" stroke-miterlimit="10" stroke-dasharray="" stroke-dashoffset="0" style="mix-blend-mode: normal"><path d="M29.5,267.12297c0,0 377.72812,-92.59211 436.87545,-107.59221c17.96177,-4.55521 136.69053,-3.32008 223.12455,8.09221c86.43401,11.41229 1,21.5 1,21.5c0,0 -123.01971,-23.89076 -227.10586,-2.95646c-183.2235,36.85077 -402.21852,126.55416 -463.59968,114.64993c-30.51925,-5.91888 29.70554,-33.69347 29.70554,-33.69347z"/><path d="M-41.125,392.55741v-127h192c0,0 -34.07373,15.63762 -80.59974,45.32105c-97.18874,62.00606 -47.88587,70.23453 -92.40026,99.67895c-65.1461,43.09143 -19,-18 -19,-18z"/></g></g></svg>