<svg version="1.1" xmlns="http://www.w3.org/2000/svg" xmlns:xlink="http://www.w3.org/1999/xlink" width="759.46762" height="465.01707" viewBox="0,0,759.46762,465.01707"><defs><linearGradient x1="319" y1="-7.35" x2="319" y2="365.65" gradientUnits="userSpaceOnUse" id="color-1"><stop offset="0" stop-color="#00b5ff"/><stop offset="1" stop-color="#000000"/></linearGradient><linearGradient x1="409.52241" y1="88.2444" x2="409.52241" y2="104.2444" gradientUnits="userSpaceOnUse" id="color-2"><stop offset="0" stop-color="#ff0000" stop-opacity="0"/><stop offset="1" stop-color="#ff0000"/></linearGradient><linearGradient x1="411.80682" y1="63.5" x2="411.80682" y2="95.5" gradientUnits="userSpaceOnUse" id="color-3"><stop offset="0" stop-color="#ff0000" stop-opacity="0"/><stop offset="1" stop-color="#ff0000"/></linearGradient></defs><g transform="translate(12,22.94327)"><g data-paper-data="{&quot;isPaintingLayer&quot;:true}" fill-rule="nonzero" stroke-linejoin="miter" stroke-miterlimit="10" stroke-dasharray="" stroke-dashoffset="0" style="mix-blend-mode: normal"><path d="M-12,365.65v-373h662v373z" fill="url(#color-1)" stroke="none" stroke-width="0.5" stroke-linecap="butt"/><path d="M409.52246,88.2444c5.1502,0 9.8168,0.8966 13.1958,2.3449c3.379,1.4477 5.4708,3.4477 5.4708,5.6551c0,2.2075 -2.0918,4.2075 -5.4708,5.6552c-3.379,1.4483 -8.0456,2.3448 -13.1958,2.3448c-5.1503,0 -9.8169,-0.8965 -13.1959,-2.3448c-3.379,-1.4477 -5.4708,-3.4477 -5.4708,-5.6552c0,-2.2074 2.0918,-4.2074 5.4708,-5.6551c3.379,-1.4483 8.0456,-2.3449 13.1959,-2.3449z" fill="url(#color-2)" stroke="none" stroke-width="0.59259" stroke-linecap="butt"/><path d="M-4.43147,251h229.38279c76.38447,0 87.16818,-43.373 118.08463,-74l42.07613,-81l48.86261,-1c16.27125,-0.333 29.8917,64.231 55.64908,92c24.48831,24.873 59.35857,43.708 92.29603,63l21.71671,1h43.43343v68h-651.50142z" fill="#343434" stroke="#000000" stroke-width="2" stroke-linecap="butt"/><path d="M387.20585,63.5h49.20193v32h-49.20193z" fill="url(#color-3)" stroke="none" stroke-width="1.03362" stroke-linecap="round"/><g stroke="#000000" stroke-width="1"><path d="M107,252.4l9.5,-0.25l0.25,43.75h-9.25z" fill="#663b00" stroke-linecap="butt"/><path d="M97.75,252.15l15,-41l13,41z" fill="#cc0000" stroke-linecap="round"/></g><path d="M-2.67248,315.5226h647.98344v45.4838h-647.98344z" fill="#343434" stroke="#000000" stroke-width="1.5" stroke-linecap="round"/><g fill="#4c4c4c" stroke="#000000" stroke-width="1.5"><g><path d="M72.7677,295.3724l18.0268,-11.6624l15.7254,11.6624z" stroke-linecap="round"/><path d="M77.3545,295.4459h24.9306v21.4786h-24.9306z" stroke-linecap="butt"/><path d="M84.6413,304.6839h9.9722v12.2735h-9.9722z" stroke-linecap="butt"/></g><g><path d="M98.0677,295.4724l18.0268,-11.6624l15.7254,11.6624z" stroke-linecap="round"/><path d="M102.6045,295.5459h24.9306v21.4786h-24.9306z" stroke-linecap="butt"/><path d="M109.8913,304.7839h9.9722v12.2735h-9.9722z" stroke-linecap="butt"/></g><g><path d="M122.7177,295.2224l18.0268,-11.6624l15.7254,11.6624z" stroke-linecap="round"/><path d="M127.3045,295.2959h24.9306v21.4786h-24.9306z" stroke-linecap="butt"/><path d="M134.5913,304.4839h9.9722v12.2735h-9.9722z" stroke-linecap="butt"/></g></g><g fill="#4c4c4c" stroke="#000000" stroke-width="1.5"><path d="M82.1926,312.3987l28.1302,-18.1989l24.5391,18.1989z" stroke-linecap="round"/><path d="M89.3188,312.5164h38.9035v33.5169h-38.9035z" stroke-linecap="butt"/><path d="M100.7451,326.8838h15.5614v19.1524h-15.5614z" stroke-linecap="butt"/></g><g fill="#4c4c4c" stroke="#000000" stroke-width="1.5"><path d="M121.6926,312.5487l28.1302,-18.1989l24.5391,18.1989z" stroke-linecap="round"/><path d="M128.8188,312.6664h38.9035v33.5169h-38.9035z" stroke-linecap="butt"/><path d="M140.1951,327.0338h15.5614v19.1524h-15.5614z" stroke-linecap="butt"/></g><g fill="#4c4c4c" stroke="#000000" stroke-width="1.5"><path d="M160.1926,313.0987l28.1302,-18.1989l24.5391,18.1989z" stroke-linecap="round"/><path d="M167.3188,313.2164h38.9035v33.5169h-38.9035z" stroke-linecap="butt"/><path d="M178.6951,327.5338h15.5614v19.1524h-15.5614z" stroke-linecap="butt"/></g><path d="M746.26294,-13.89037l-67.53036,355.2882l-45.02024,99.67361l-438.94737,-1.60764l-4.50203,-461.39236z" data-paper-data="{&quot;index&quot;:null}" fill="#3a3a3a" stroke="#000000" stroke-width="2" stroke-linecap="round"/><path d="M298.6637,312.898c-0.748,0.6637 -1.4117,-0.08431 -1.4117,-0.08431l-1.29165,-1.50746c-1.48425,-2.97413 -2.95851,-5.95116 -4.12262,-9.06673c-1.16543,-1.85073 -2.24066,-1.02346 -4.35151,-1.12997c-2.3007,-0.11608 -6.20462,-0.36856 -8.24818,-1.40209c-1.75347,-0.88682 -2.73215,-3.36852 -4.19715,-4.61662c-3.94756,-3.36311 -8.93323,-4.94083 -14.04089,-4.94083c0,0 -1,0 -1,-1c0,-1 1,-1 1,-1c5.55815,0 11.05972,1.74091 15.34145,5.42144c1.20973,1.03987 2.34217,3.65458 3.78242,4.34288c1.85895,0.88841 5.359,1.09281 7.46258,1.19773c0.47859,0.02387 4.17446,0.02429 4.40352,0.14551c0.76229,0.40343 1.07064,1.35244 1.60596,2.02867c1.19984,3.1284 2.65826,6.13021 4.15393,9.1269l0.99814,1.07318c0,0 0.6637,0.748 -0.0843,1.4117z" fill="#000000" stroke="none" stroke-width="0.5" stroke-linecap="butt"/><path d="M407,281.1528c-0.0028,1 -1.00279,0.99719 -1.00279,0.99719l-1.70598,-0.00477c-2.02414,-0.00569 -4.04538,-0.03587 -6.06896,-0.08423c-2.23701,-0.27333 -3.97683,-0.67848 -6.07063,-1.48062c-1.086,-0.41605 -2.12201,-1.43744 -3.26585,-1.22745c-0.53247,0.09775 -0.76,0.78273 -1.21098,1.08221c-1.64759,1.09406 -3.57341,1.83055 -5.26161,2.88758c-2.15004,1.3462 -4.29772,3.74158 -6.49227,4.8181c-0.59713,0.29291 -1.36514,0.05572 -1.96595,0.341c-2.23588,1.06165 -4.15853,3.38558 -6.50776,4.56262c0,0 -0.89443,0.44722 -1.34164,-0.44721c-0.44722,-0.89443 0.44721,-1.34164 0.44721,-1.34164c2.39648,-1.19561 4.23667,-3.43923 6.52893,-4.57306c0.59897,-0.29627 1.36918,-0.06272 1.97476,-0.34524c2.08513,-0.97277 4.24503,-3.42726 6.29575,-4.70995c1.70288,-1.06512 3.54527,-1.83836 5.25007,-2.88031c0.67768,-0.41419 1.16755,-1.2419 1.95196,-1.36642c0.81495,-0.12936 1.5922,0.43517 2.3806,0.67869c2.58959,0.79989 4.7113,1.67285 7.43247,2.00697c1.97699,0.04486 3.95201,0.07345 5.92951,0.07897l1.70598,0.00477c0,0 1,0.0028 0.9972,1.00279z" fill="#000000" stroke="none" stroke-width="0.5" stroke-linecap="butt"/><path d="M527.93991,295.49142c-0.34142,0.93991 -1.28133,0.59849 -1.28133,0.59849l-1.60096,-0.58154c-2.42207,-0.88509 -4.91,-1.56888 -7.37727,-2.35276c-3.48482,0.17149 -5.2052,3.32567 -9.19288,2.90983c-5.53875,-0.57759 -11.22977,-5.29216 -17.04943,-3.53393c-2.3573,0.71218 -4.78252,2.40875 -6.99082,3.5129c0,0 -0.89443,0.44722 -1.34164,-0.44721c-0.44722,-0.89443 0.44721,-1.34164 0.44721,-1.34164c5.44431,-2.72215 9.5354,-4.72558 15.78678,-3.27076c3.6714,0.85441 7.1819,3.61812 11.12825,3.1407c2.94679,-0.35649 4.2845,-2.73127 7.44868,-2.95592c2.62021,0.78886 5.25856,1.53219 7.82397,2.45894l1.60096,0.58155c0,0 0.93991,0.34142 0.59849,1.28133z" fill="#000000" stroke="none" stroke-width="0.5" stroke-linecap="butt"/><path d="M603.95957,300.43147c-0.28147,0.95957 -1.24104,0.6781 -1.24104,0.6781l-1.78784,-0.81914c-1.04396,-1.95974 -2.52594,-2.23492 -4.03415,-3.9073c-1.26639,-1.40422 -2.11141,-2.97781 -3.4562,-4.30045c-5.16667,0.21218 -10.5643,0.35964 -15.7204,-0.08235c-3.3074,-0.28352 -6.46006,-1.57712 -9.80242,-1.85374c-3.25285,-0.26921 -6.65179,0.0034 -9.91752,0.0034c0,0 -1,0 -1,-1c0,-1 1,-1 1,-1c3.32132,0 6.77389,-0.27042 10.08248,0.00341c3.33871,0.27632 6.50676,1.58434 9.80453,1.85391c5.3937,0.4409 10.86799,0.05581 16.27474,0.21c1.75998,1.52611 2.70524,3.1187 4.22509,4.83202c1.60718,1.81176 3.00007,2.07962 4.28498,4.25698l0.60965,-0.11588c0,0 0.95957,0.28147 0.6781,1.24104z" fill="#000000" stroke="none" stroke-width="0.5" stroke-linecap="butt"/><path d="M197.09753,267.58075c-0.43075,-0.90247 0.47172,-1.33322 0.47172,-1.33322l0.67291,-0.32118c3.07772,-1.46751 6.12155,-3.7296 9.52267,-3.75721c2.21386,0.05676 4.20393,0.0593 6.27322,0.97643c1.09887,0.48703 1.82164,2.00198 3.02305,1.96559c0.55705,-0.01687 0.81267,-0.80606 1.33017,-1.01288c1.63106,-0.65186 4.01988,-1.61715 5.78114,-1.9576c5.75716,-1.11284 11.73524,-2.06516 17.67552,-2.97904c0,0 0.98837,-0.15205 1.14042,0.83632c0.15205,0.98837 -0.83632,1.14042 -0.83632,1.14042c-5.92347,0.91131 -11.85956,1.9248 -17.61094,2.96803c-1.7422,0.31601 -3.80399,1.27033 -5.44135,1.86218c-0.73281,0.26489 -1.26031,1.15697 -2.0394,1.14257c-0.13127,-0.00243 -3.42269,-1.95177 -3.83882,-2.13986c-1.79014,-0.80912 -3.56865,-0.7542 -5.48899,-0.80242c-2.90591,-0.07732 -5.97107,2.2925 -8.62888,3.56242l-0.67292,0.32118c0,0 -0.90247,0.43075 -1.33322,-0.47172z" fill="#000000" stroke="none" stroke-width="0.5" stroke-linecap="butt"/><path d="M232,326.15c0,1 -1,1 -1,1h-1.24443c-4.6836,-0.00003 -9.36702,0.00348 -14.05056,-0.02475c-2.97085,-0.28494 -5.04836,-1.41544 -7.84028,-2.12655c-2.53534,-0.64576 -5.36625,-1.18209 -7.80244,-2.26001c-2.29903,-1.01724 -4.16712,-3.28107 -6.76463,-3.58148c-3.04945,-0.35267 -4.44922,1.2331 -7.11432,2.07904c-1.25882,0.39957 -2.61534,0.44137 -3.86713,0.86244c0,0 -0.94869,0.31623 -1.26492,-0.63245c-0.31623,-0.94869 0.63246,-1.26491 0.63246,-1.26491c1.26479,-0.41813 2.62775,-0.47759 3.89982,-0.87303c2.91157,-0.90509 4.59134,-2.5856 7.95689,-2.15629c2.92566,0.37319 4.7645,2.6021 7.33107,3.73772c2.34275,1.03658 5.05929,1.51842 7.49228,2.15225c2.68752,0.70015 4.59877,1.79228 7.44243,2.06585c4.6498,0.0233 9.29947,0.02216 13.94933,0.02219h1.24441c0,0 1,0 1,1z" fill="#000000" stroke="none" stroke-width="0.5" stroke-linecap="butt"/><path d="M210.17033,216.70826c-0.55826,-0.82967 0.27141,-1.38792 0.27141,-1.38792l0.55267,-0.37187c1.09425,-0.73216 2.40753,-1.09967 3.49095,-1.84775c4.25271,-2.93642 3.51464,-9.77159 3.51462,-14.09479c-0.00025,-4.06362 -0.22994,-7.62352 -1.40364,-11.51153c-1.12224,-3.71756 -3.68368,-7.36181 -4.5696,-11.11463c-0.85663,-3.62874 -0.02675,-8.49003 -0.02675,-12.22975c0,0 0,-1 1,-1c1,0 1,1 1,1c0,3.57131 -0.84256,8.31443 -0.02675,11.77025c0.87245,3.69578 3.40826,7.32099 4.53625,10.99114c1.2457,4.05318 1.49023,7.85611 1.49049,12.09445c0.00002,5.19216 0.49243,12.163 -4.35123,15.72167c-1.07624,0.79072 -2.43198,1.13154 -3.53784,1.88028l-0.55267,0.37187c0,0 -0.82967,0.55826 -1.38792,-0.27141z" fill="#000000" stroke="none" stroke-width="0.5" stroke-linecap="butt"/></g></g></svg>