<svg version="1.1" xmlns="http://www.w3.org/2000/svg" xmlns:xlink="http://www.w3.org/1999/xlink" width="26.5" height="40" viewBox="0,0,26.5,40"><g transform="translate(-306.3,-155.4)"><g data-paper-data="{&quot;isPaintingLayer&quot;:true}" fill-rule="nonzero" stroke-linejoin="miter" stroke-miterlimit="10" stroke-dasharray="" stroke-dashoffset="0" style="mix-blend-mode: normal"><path d="M325.65,164c4.295,8.534 5.911,18.79 4.75,28.3c-0.344,2.812 -5.577,1.398 -8.4,1.35c-3.066,-0.052 -8.495,1.51 -9.1,-1.5c-1.882,-9.375 -1.308,-19.804 2.5,-28.45c1.514,-3.103 8.793,-2.584 10.25,0.3z" fill="#006bff" stroke="#000000" stroke-width="2" stroke-linecap="round"/><path d="M323.25,156.4c2.29,0 4.365,0.933 5.867,2.44c1.503,1.507 2.433,3.588 2.433,5.885c0,2.297 -0.93,4.378 -2.433,5.885c-1.502,1.507 -3.577,2.44 -5.867,2.44c-2.29,0 -4.365,-0.933 -5.867,-2.44c-1.503,-1.507 -2.433,-3.588 -2.433,-5.885c0,-2.297 0.93,-4.378 2.433,-5.885c1.502,-1.507 3.577,-2.44 5.867,-2.44z" fill="#006bff" stroke="#000000" stroke-width="2" stroke-linecap="butt"/><path d="M319.9,160.5c0.524,0 0.999,0.272 1.343,0.711c0.344,0.439 0.557,1.045 0.557,1.714c0,0.669 -0.213,1.275 -0.557,1.714c-0.344,0.439 -0.819,0.711 -1.343,0.711c-0.524,0 -0.999,-0.272 -1.343,-0.711c-0.344,-0.439 -0.557,-1.045 -0.557,-1.714c0,-0.669 0.213,-1.275 0.557,-1.714c0.344,-0.439 0.819,-0.711 1.343,-0.711z" fill="#ff0000" stroke="none" stroke-width="1" stroke-linecap="butt"/><path d="M323.35,159.5c0.276,0 0.526,0.112 0.707,0.293c0.181,0.181 0.293,0.431 0.293,0.707c0,0.276 -0.112,0.526 -0.293,0.707c-0.181,0.181 -0.431,0.293 -0.707,0.293c-0.276,0 -0.526,-0.112 -0.707,-0.293c-0.181,-0.181 -0.293,-0.431 -0.293,-0.707c0,-0.276 0.112,-0.526 0.293,-0.707c0.181,-0.181 0.431,-0.293 0.707,-0.293z" fill="#ff0000" stroke="none" stroke-width="1" stroke-linecap="butt"/><path d="M327.8,163.25c0.414,0 0.789,0.174 1.06,0.454c0.272,0.281 0.44,0.668 0.44,1.096c0,0.428 -0.168,0.815 -0.44,1.096c-0.271,0.28 -0.646,0.454 -1.06,0.454c-0.414,0 -0.789,-0.174 -1.06,-0.454c-0.272,-0.281 -0.44,-0.668 -0.44,-1.096c0,-0.428 0.168,-0.815 0.44,-1.096c0.271,-0.28 0.646,-0.454 1.06,-0.454z" fill="#ff0000" stroke="none" stroke-width="1" stroke-linecap="butt"/><path d="M324.55,178.65c1.338,0 2.551,0.552 3.429,1.443c0.878,0.892 1.421,2.123 1.421,3.482c0,1.359 -0.543,2.59 -1.421,3.482c-0.878,0.891 -2.091,1.443 -3.429,1.443c-1.338,0 -2.551,-0.552 -3.429,-1.443c-0.878,-0.892 -1.421,-2.123 -1.421,-3.482c0,-1.359 0.543,-2.59 1.421,-3.482c0.878,-0.891 2.091,-1.443 3.429,-1.443z" fill="#006bff" stroke="#000000" stroke-width="2" stroke-linecap="butt"/><path d="M313.575,170.65c1.676,0 3.195,0.65 4.295,1.7c1.099,1.05 1.78,2.5 1.78,4.1c0,1.6 -0.681,3.05 -1.78,4.1c-1.1,1.05 -2.619,1.7 -4.295,1.7c-1.676,0 -3.195,-0.65 -4.295,-1.7c-1.099,-1.05 -1.78,-2.5 -1.78,-4.1c0,-1.6 0.681,-3.05 1.78,-4.1c1.1,-1.05 2.619,-1.7 4.295,-1.7z" fill="#006bff" stroke="#000000" stroke-width="2" stroke-linecap="butt"/><path d="M329.05,188.4c0.759,0 1.446,0.331 1.944,0.865c0.498,0.534 0.806,1.271 0.806,2.085c0,0.814 -0.308,1.551 -0.806,2.085c-0.498,0.534 -1.185,0.865 -1.944,0.865c-0.759,0 -1.446,-0.331 -1.944,-0.865c-0.498,-0.534 -0.806,-1.271 -0.806,-2.085c0,-0.814 0.308,-1.551 0.806,-2.085c0.498,-0.534 1.185,-0.865 1.944,-0.865z" fill="#006bff" stroke="#000000" stroke-width="2" stroke-linecap="butt"/><path d="M312.975,183.4c1.566,0 2.984,0.616 4.012,1.612c1.027,0.996 1.663,2.371 1.663,3.888c0,1.517 -0.636,2.892 -1.663,3.888c-1.028,0.996 -2.446,1.612 -4.012,1.612c-1.566,0 -2.984,-0.616 -4.012,-1.612c-1.027,-0.996 -1.663,-2.371 -1.663,-3.888c0,-1.517 0.636,-2.892 1.663,-3.888c1.028,-0.996 2.446,-1.612 4.012,-1.612z" fill="#006bff" stroke="#000000" stroke-width="2" stroke-linecap="butt"/><path d="M328.925,172.55c0.655,0 1.249,0.28 1.679,0.733c0.43,0.452 0.696,1.077 0.696,1.767c0,0.69 -0.266,1.315 -0.696,1.767c-0.43,0.453 -1.024,0.733 -1.679,0.733c-0.655,0 -1.249,-0.28 -1.679,-0.733c-0.43,-0.452 -0.696,-1.077 -0.696,-1.767c0,-0.69 0.266,-1.315 0.696,-1.767c0.43,-0.453 1.024,-0.733 1.679,-0.733z" fill="#006bff" stroke="#000000" stroke-width="2" stroke-linecap="butt"/></g></g></svg>