<svg version="1.1" xmlns="http://www.w3.org/2000/svg" xmlns:xlink="http://www.w3.org/1999/xlink" width="95.86919" height="100.88495" viewBox="0,0,95.86919,100.88495"><g transform="translate(-193.93482,-147.25351)"><g data-paper-data="{&quot;isPaintingLayer&quot;:true}" fill-rule="nonzero" stroke-linecap="round" stroke-linejoin="miter" stroke-miterlimit="10" stroke-dasharray="" stroke-dashoffset="0" style="mix-blend-mode: normal"><path d="M256.87541,228.25171c-2.5031,-0.953 -4.8508,-2.2443 -7.1512,-3.6361c-3.1619,-1.8458 -7.3993,-2.5433 -9.4612,-5.6301c-0.7404,-1.3853 2.5065,-2.5198 3.3929,-3.3244c1.0606,-0.9464 2.1334,-1.917 3.3001,-2.7129c1.5833,-0.9785 2.0027,-2.5904 2.8595,-2.4364c2.6001,0.3184 4.0529,2.4736 5.6205,3.5389c4.6221,3.5912 9.8684,6.3886 14.4463,10.0415c1.1444,0.9135 -0.7945,1.0879 -1.0013,1.7493c-0.4456,1.4643 -0.4597,2.8347 -1.1072,4.4684c-0.2378,0.6267 0.1339,1.9762 -0.7706,1.8456c-3.5904,-0.5239 -6.8621,-2.3429 -10.1278,-3.9038z" id="ID0.8758031786419451" fill="#bfbfbf" stroke="#000000" stroke-width="2"/><path d="M266.07821,229.79851c1.68,-0.9263 2.0171,-3.0209 3.1068,-4.898c0.5065,-0.8609 0.2924,-1.7805 1.6287,-2.5194c0.9264,-0.4347 2.0965,0.2824 3.0623,0.7889c1.5373,0.7902 2.8338,2.0725 4.4089,2.8502c3.3855,1.7956 7.5991,2.968 10.5191,5.3712c0.7909,0.6685 -0.3978,1.4444 -0.6633,2.1314c-0.9033,2.3238 -1.3748,4.8638 -2.2835,7.2163c-0.6756,1.3839 -1.6702,5.61 -3.7532,6.2663c-1.6528,-1.6044 -1.9002,-6.6059 -4.0557,-8.278c-1.9924,-1.65 -4.4125,-2.8501 -6.849,-3.7727c-4.221,-1.5974 -11.4877,-2.8526 -12.9015,-4.1726c-0.8383,-0.9468 5.596,0.2918 7.7804,-0.9836z" id="ID0.8758031786419451" fill="#6a00c0" stroke="#000000" stroke-width="2"/><path d="M275.80861,216.86281c0.6852,0.6192 -0.6711,1.1485 -1.0374,1.7099c-0.9388,1.4855 -2.0379,2.3041 -2.9587,3.5268c-0.4127,0.5567 0.5885,2.2263 -0.8237,1.8396c-5.6486,-1.5476 -10.9483,-4.2988 -16.6243,-5.7589c-1.8942,-0.6545 -4.8545,0.0045 -7.0633,-2.2387c-0.4771,-0.5187 1.2775,-1.9069 1.1772,-3.9644c0.0196,-1.4011 0.1083,-2.8503 0.2483,-4.2648c0.128,-1.1903 -0.8612,-4.5954 0.6878,-4.7001c3.5875,0.021 6.1769,3.3817 9.3141,4.891c2.5545,1.178 4.9842,2.3843 7.3385,3.8093c3.334,1.5667 7.0204,2.7027 9.7415,5.1503z" id="ID0.8758031786419451" fill="#bfbfbf" stroke="#000000" stroke-width="2"/><path d="M203.93841,202.75701c-1.5887,-1.9447 -2.9667,-4.1252 -3.9321,-6.4354c-1.3558,-3.255 -3.1925,-6.3676 -2.8801,-9.6266c0.0189,-1.6047 2.3317,-2.0063 3.7012,-2.4298c1.3576,-0.4126 2.8273,-0.7012 4.2374,-0.5437c2.9902,0.3271 6.3871,0.7967 8.3551,2.7307c0.8565,0.8802 -2.3566,1.3972 -1.7585,2.7107c1.3256,5.759 4.9628,10.6569 6.8987,16.1845c0.4838,1.3821 -1.2512,0.4991 -1.778,0.9494c-1.1558,1.0035 -1.8962,2.1567 -3.313,3.1963c-0.5346,0.4045 -0.8473,1.7074 -1.6337,1.1536c-3.0188,-2.1358 -5.5568,-5.0262 -7.897,-7.8897z" id="ID0.8758031786419451" fill="#bfbfbf" stroke="#000000" stroke-width="2"/><path d="M261.98861,177.04701c0.2409,0.9312 -1.0887,0.7644 -1.6556,1.122c-1.4725,0.9592 -2.8127,1.2454 -4.1593,1.9731c-0.6071,0.3341 -0.3927,2.269 -1.5154,1.329c-4.4898,-3.7608 -7.7905,-8.8915 -12.7121,-12.1628c-1.0182,-1.0229 -2.6351,1.8015 -3.1567,0.6897c-1.1158,-2.5236 -0.3574,-5.8679 0.391,-8.7814c0.3499,-1.375 1.2862,-2.5459 2.003,-3.7734c0.6124,-1.0286 0.9613,-3.9915 2.5838,-3.9858c3.5084,1.5387 6.0478,4.9312 8.9877,7.4689c1.8706,1.6195 3.3758,3.7764 4.6354,5.9489c1.8543,3.1996 3.6641,6.5938 4.5982,10.1718z" id="ID0.8758031786419451" fill="#bfbfbf" stroke="#000000" stroke-width="2"/><path d="M215.08691,163.07641c2.7277,-1.9101 5.7165,-3.399 8.8716,-4.3135c3.3735,-0.9767 8.5164,-4.2294 10.8629,-1.4351c6.1223,7.3029 6.6817,17.777 10.648,26.377c2.051,4.464 4.8813,8.5675 7.7749,12.5568c2.6667,3.6526 7.0181,7.2743 8.6452,10.7389c0.5291,0.9704 -2.7538,-1.8802 -4.3317,-1.8672c-0.8248,0.038 -1.2922,0.99 -1.9137,1.6279c-1.8593,1.9052 -2.9251,4.3668 -5.2356,6.054c-2.2945,1.6664 -5.4389,1.7721 -7.9226,3.0489c-0.9464,0.2754 -1.859,0.7438 -2.2615,1.5646c-0.5629,1.1883 0.4631,4.3113 -0.0802,3.3994c-2.4353,-2.9542 -3.4438,-7.574 -5.8781,-11.1332c-3.0411,-4.4223 -6.3965,-7.5851 -10.7477,-12.0203c-6.5946,-6.722 -14.8653,-9.4441 -20.3109,-19.6921c-1.5355,-2.8751 3.2015,-5.5527 5.0623,-8.0621c2.116,-2.4816 4.1843,-4.9934 6.8171,-6.844z" id="ID0.733084324747324" fill="#6a00c0" stroke="#000000" stroke-width="2"/><path d="M261.27401,192.14721c-3.6884,-4.2301 -8.1421,-7.9938 -11.1222,-12.627c-0.7461,-1.158 0.9908,-1.1395 1.8318,-1.7571c1.1485,-0.8383 2.3012,-1.7108 3.5796,-2.3317c1.8356,-0.8896 4.8308,-0.3277 6.1124,-2.1566c0.9985,-1.7184 -1.5408,-6.6972 -0.6512,-6.2497c0.6936,0.3823 2.0758,5.9509 3.9798,8.4954c3.8776,5.1902 9.3009,9.6241 13.5039,15.0337c0.8413,1.2234 -1.3155,0.5249 -1.8695,0.2784c-2.0548,-0.9175 -3.2862,-3.7841 -5.3747,-4.1234c-2.9946,-0.0207 -6.122,1.081 -8.1027,3.1684c-0.8919,0.9839 2.2746,2.6825 2.2813,4.2378c-0.067,0.69 -1.6138,0.8546 -2.2868,0.6187c-0.9798,-0.5261 -0.9714,-1.5436 -1.8817,-2.5869z" id="ID0.8758031786419451" fill="#bf0000" stroke="#000000" stroke-width="2"/><path d="M228.81001,219.34431c-0.0165,0.7129 -0.716,2.1024 -1.3854,1.9217c-1.453,-0.5547 -1.9258,-4.1168 -3.161,-3.6291c-2.6518,1.1173 -4.7855,3.6554 -5.8222,6.4649c-0.419,2.074 1.8293,4.2372 1.9632,6.4835c0.0354,0.6053 -0.0716,2.8699 -0.9197,1.6513c-3.58,-5.8407 -5.8166,-12.4791 -9.3061,-17.9379c-1.7095,-2.679 -6.4331,-5.936 -6.5462,-6.7199c-0.1051,-0.9902 3.6585,3.1416 5.6185,2.8132c2.1634,-0.5543 2.6939,-3.5553 4.1735,-4.9592c1.0319,-0.9774 2.2549,-1.7483 3.4443,-2.5275c0.8745,-0.5691 1.4697,-2.201 2.2902,-1.0945c3.2847,4.4226 5.2361,9.9173 7.8938,14.8605c0.6552,1.2197 1.6103,1.5706 1.7571,2.673z" id="ID0.8758031786419451" fill="#bf0000" stroke="#000000" stroke-width="2"/><path d="M203.37941,175.49351c0.3866,-3.4611 -3.8636,-9.9553 -3.7035,-9.8759c1.514,-0.6265 6.1175,5.2046 8.4875,8.2212c1.0347,1.2531 2.0328,2.0726 3.2249,3.7902c1.3482,1.8979 3.3582,3.709 3.8447,5.8421c0.4871,2.1324 0.1413,4.2813 -1.1545,5.9389c-1.2957,1.6577 -3.2976,2.5121 -5.4845,2.5542c-2.1875,0.0429 -4.387,-1.6346 -6.5976,-2.3204c-1.989,-0.6981 -3.3768,0.3774 -4.9313,0.0165c-1.0149,-0.4228 -2.2842,-0.6242 -2.115,-1.2725c0.309,-2.3503 2.3523,-3.9949 3.2375,-5.8465c0.6888,-1.4252 -0.195,-3.4512 0.8447,-4.7341c0.8977,-1.3482 4.1382,-0.5883 4.3471,-2.3137z" id="ID0.8758031786419451" fill="#6a00c0" stroke="#000000" stroke-width="2"/><path d="M235.71931,152.68181c1.5671,-0.5204 3.1514,1.021 4.7278,0.879c2.0449,-0.1754 4.3043,-1.5075 6.6126,-0.9678c0.6664,0.0703 0.4072,1.329 0.4449,2.4278c-0.2104,1.5819 -1.7062,2.5013 -1.7544,4.6087c-0.1376,2.3105 0.6564,4.9602 -0.1551,6.9921c-0.8106,2.0315 -2.316,3.6035 -4.3241,4.2315c-2.0081,0.628 -4.1409,0.1938 -5.9645,-1.014c-1.8246,-1.2074 -2.8105,-3.727 -4.1111,-5.6578c-1.1869,-1.7213 -1.6018,-2.9442 -2.4095,-4.3543c-1.987,-3.2816 -5.8202,-9.6455 -4.7001,-10.8414c-0.0179,-0.1777 4.5604,6.0894 7.9356,6.9482c1.6882,0.4129 2.1198,-2.8873 3.6979,-3.252z" id="ID0.8758031786419451" fill="#6a00c0" stroke="#000000" stroke-width="2"/><path d="M209.90841,167.85801c-1.4506,-0.3146 -3.2245,-3.0527 -3.3257,-3.0496c-0.1063,-0.0042 2.932,4.6267 2.5033,3.6185c-1.3953,-2.488 -4.6459,-6.9405 -6.2323,-10.7665c-0.5257,-1.2766 -0.4746,-2.8004 -0.1544,-4.1515c0.4703,-2.0217 1.0477,-4.2244 2.7664,-5.2554c1.6317,-1.2868 3.9658,-1.0521 6.0989,-0.8777c1.2569,0.0996 2.7217,0.6439 3.546,1.1972c2.5703,2.2723 4.34,4.4807 6.2906,6.8959c0.7771,0.9581 1.3857,1.7834 1.5865,2.7328c0.1574,0.4419 -0.4316,0.4518 -0.6801,0.7745c-0.9883,1.2819 -1.3685,2.3475 -2.2306,3.3671c-0.9083,1.0916 -1.7571,2.3464 -2.9262,3.2403c-1.2833,0.7042 -2.7766,0.8447 -4.2063,1.39c-0.981,0.3625 -1.5875,1.1152 -3.0361,0.8844z" id="ID0.8758031786419451" fill="#6a00c0" stroke="#000000" stroke-width="2"/><path d="M205.31111,157.70461l4.4973,-1.4088l3.1098,-3.8538l1.5645,2.2616l-7.607,5.2626z" id="ID0.5234519117511809" fill="#ff0000" stroke="none" stroke-width="1"/><path d="M265.97821,220.44851c1.68,-0.9263 2.0171,-3.0209 3.1068,-4.898c0.5065,-0.8609 0.2924,-1.7805 1.6287,-2.5194c0.9264,-0.4347 2.0965,0.2824 3.0623,0.7889c1.5373,0.7902 2.8338,2.0725 4.4089,2.8502c3.3855,1.7956 7.5991,2.968 10.5191,5.3712c0.7909,0.6685 -0.3978,1.4444 -0.6633,2.1314c-0.9033,2.3238 -1.3748,4.8638 -2.2835,7.2163c-0.6756,1.3839 -1.6702,5.61 -3.7532,6.2663c-1.6528,-1.6044 -1.9002,-6.6059 -4.0557,-8.278c-1.9924,-1.65 -4.4125,-2.8501 -6.849,-3.7727c-4.221,-1.5974 -11.4877,-2.8526 -12.9015,-4.1726c-0.8383,-0.9468 5.596,0.2918 7.7804,-0.9836z" id="ID0.8758031786419451" fill="#6a00c0" stroke="#000000" stroke-width="2"/></g></g></svg>