<svg xmlns="http://www.w3.org/2000/svg" xmlns:xlink="http://www.w3.org/1999/xlink" version="1.1" width="20.978443145751953" height="27.092185974121094" viewBox="0.797825813293457 0.27741026878356934 20.978443145751953 27.092185974121094">
  <defs>
    <radialGradient id="grad_1" cx="0.525" cy="0.23379999999999998" r="0.99606">
      <stop offset="0" stop-color="#FFD499" stop-opacity="1"/>
      <stop offset="1" stop-color="#FF9400" stop-opacity="1"/>
    </radialGradient>
  <radialGradient id="grad_1-,0,0,1,-227.7,-155.7" cx="11.7615" cy="7.144" r="22.1587" gradientUnits="userSpaceOnUse">
      <stop offset="0" stop-color="#FFD499" stop-opacity="1"/>
      <stop offset="1" stop-color="#FF9400" stop-opacity="1"/>
    </radialGradient></defs>
  <!-- Exported by Scratch - http://scratch.mit.edu/ -->
  <path id="ID0.17864482337608933" fill="url(#grad_1-,0,0,1,-227.7,-155.7)" stroke="#FF9400" stroke-width="2" stroke-linecap="round" d="M 5.1 6 C 5.506 5.025 6.763 9.259 8.3 9.9 C 9.114 10.239 10.446 9.149 10.3 8.3 C 10.053 5.766 6.445 1.616 7.3 1.3 C 8.155 0.984 12.831 4.047 14.45 6.5 C 15.457 8.031 13.043 12.352 14.1 12.15 C 15.649 11.852 18.614 5.36 20.1 5.4 C 21.311 5.435 19.765 9.939 19.9 12.2 C 20.025 14.259 21.147 16.254 20.65 18.2 C 20.408 19.508 19.109 21.377 17.9 21 C 16.381 20.525 16.662 17.716 15.4 16.6 C 14.935 16.188 14.046 16.968 14 17.6 C 13.591 19.611 14.613 21.721 14.15 23.85 C 13.912 24.93 12.469 26.97 11.8 26.2 C 10.374 24.551 11.575 19.183 10.15 19.1 C 8.564 19.013 7.162 25.073 5.8 25.6 C 4.956 25.924 5.99 22.471 5.588 21.092 C 4.624 17.796 1.707 12.98 1.8 11.5 C 1.864 10.495 5.194 16.493 5.8 15.5 C 6.785 13.886 4.313 7.936 5.1 6 Z "/>
</svg>