<svg version="1.1" xmlns="http://www.w3.org/2000/svg" xmlns:xlink="http://www.w3.org/1999/xlink" width="135.17788" height="192.50168" viewBox="0,0,135.17788,192.50168"><g transform="translate(-252.27844,-74.61404)"><g data-paper-data="{&quot;isPaintingLayer&quot;:true}" fill="#000000" fill-rule="nonzero" stroke="#000000" stroke-width="15" stroke-linecap="round" stroke-linejoin="miter" stroke-miterlimit="10" stroke-dasharray="" stroke-dashoffset="0" style="mix-blend-mode: normal"><path d="M259.77844,116.32671c3.80871,-7.12439 25.55166,23.93697 40.05929,29.58225c4.8934,1.91668 11.13648,-4.74549 12.32594,-9.86075c2.50833,-10.90229 -8.52955,-25.44073 -3.08148,-34.51262c3.40196,-5.559 17.19468,-2.03378 19.7215,4.00593c7.80848,16.66467 -3.83337,55.12775 6.77926,54.23412c14.41518,-1.25725 40.41674,-58.32016 44.37337,-57.3156c3.95663,1.01073 -15.67859,42.53064 -19.41335,64.71116c-1.34353,8.02418 5.2755,16.04837 5.23852,24.65187c-0.49304,7.56812 -2.12622,23.35149 -6.77926,22.49483c-6.02122,-1.12782 -7.62975,-20.23919 -15.40742,-27.11706c-2.86578,-2.53914 -7.96255,0.62246 -8.62816,6.16297c-2.65624,22.14971 5.25085,46.04353 0,66.2519c-1.52842,6.29239 -11.11183,-7.25998 -13.55853,-13.25038c-5.6576,-13.84819 -1.38667,-43.24555 -10.1689,-43.75707c-9.77447,-0.53618 -14.29809,38.29668 -26.80891,40.05929c-9.99633,1.39899 -17.07142,-21.10816 -20.33779,-33.89632c-2.73636,-14.55693 -2.87194,-35.35695 3.08148,-44.68152c3.14928,-4.93037 17.74935,22.49483 17.25631,16.33186c-1.47911,-17.38573 -27.78266,-55.67009 -24.65187,-64.09487z"/></g></g></svg>