<svg version="1.1" xmlns="http://www.w3.org/2000/svg" xmlns:xlink="http://www.w3.org/1999/xlink" width="931.9003" height="403.96151" viewBox="0,0,931.9003,403.96151"><g transform="translate(173.08594,-62.64502)"><g data-paper-data="{&quot;isPaintingLayer&quot;:true}" fill-rule="nonzero" stroke="#000000" stroke-width="2" stroke-linecap="butt" stroke-linejoin="miter" stroke-miterlimit="10" stroke-dasharray="" stroke-dashoffset="0" style="mix-blend-mode: normal"><path d="M531.56224,249.54093l-21.26903,-120.13171l220.5697,-39.05134l21.26903,120.13171z" fill="#4543d4"/><path d="M108.97111,232.75824c1.68387,0 6.51515,0.52284 8.03522,-0.27624c0.68783,-0.36159 0.54274,-1.43903 1.13494,-1.92329c1.03272,-0.84451 5.40791,-0.6287 7.18086,-0.90077c15.65343,-2.42846 31.55499,-2.02433 47.43896,-1.51214c1.97949,0.06383 3.70042,1.32707 5.61657,1.7889c4.47791,1.07928 10.80018,0.04476 15.43201,0.04476c2.07427,0 4.32277,-0.90547 6.22394,-0.14167c0.86222,0.34641 1.11464,1.5343 1.99599,1.83722c0.5149,0.17698 5.88194,0.13797 6.75398,0.13797c6.45774,0 13.09729,0.37048 19.53904,-0.05972c6.33986,-0.4234 12.08351,-3.2063 18.54442,-3.62908c6.52891,-0.42722 13.28478,0.00233 19.8297,0.00233c10.52897,0 19.65762,-4.45968 30.17499,-5.52269c12.20237,-1.23331 25.42717,0.01755 37.72403,0.01755c23.94732,0 47.92485,0.01867 71.87217,0.01867c19.33832,-0.00046 36.09405,9.62703 55.41224,10.10298c2.79834,9.56277 -4.81343,16.95363 -9.25242,24.87144c-1.72003,3.068 -1.77029,6.33503 -3.11319,9.43838c-2.80768,6.48842 -8.00238,11.86365 -12.36867,17.49196c-5.86836,7.56453 -11.46741,15.26581 -16.73523,23.19186c0.14811,-5.07888 -3.07449,-10.95531 -4.17576,-15.57768c-0.05898,-0.24758 -0.91207,-6.15872 -1.65274,-6.50626c-1.62915,-0.76441 -3.77801,-1.07002 -5.30459,-0.1433c-1.9359,1.17523 -3.33794,9.42217 -4.00369,11.56849c-2.77039,8.93128 -4.29928,18.05786 -9.54965,26.15128c-7.20031,15.45247 -14.08021,31.793 -23.5115,46.00829c-4.02039,6.05972 -6.5971,12.9213 -10.93093,18.7776c-1.2239,1.66235 -2.33644,3.40109 -3.41475,5.14682c-1.21726,1.97071 -3.05616,3.56686 -4.48264,5.41478c-0.47717,0.61817 -0.04838,2.17544 -0.87066,2.13154c-0.79295,-0.04232 0.32534,-1.5354 0.31324,-2.26665c-0.04048,-2.44507 -0.66714,-4.85098 -1.15896,-7.25402c-1.03109,-5.03807 -2.96034,-9.71791 -4.29607,-14.64995c-0.30558,-1.12837 -0.63857,-7.06918 -3.6852,-6.79957c-1.83291,0.16221 -2.73045,2.32075 -3.79875,3.70166c-3.35185,4.33278 -5.32032,10.56778 -7.7281,15.44507c-4.23343,8.57536 -6.24694,17.91876 -12.18352,25.80821c-9.53274,12.66858 -19.39208,25.4631 -29.84647,37.52479c-2.32009,2.44073 -4.93838,4.8096 -7.04424,7.41164c-0.82091,1.01436 -1.54016,2.09656 -2.29173,3.15551c-0.59147,0.83341 -1.08651,3.54773 -1.52385,2.63725c-2.18729,-4.55351 -4.02698,-9.92605 -6.64023,-14.28323c-2.27782,-3.79796 -5.86588,-6.49953 -6.97439,-10.97435c-0.44801,-1.80856 0.37453,-3.7448 -0.01332,-5.56512c-0.85801,-4.0269 -2.54128,-8.37231 -3.64663,-12.4513c-0.68846,-8.62571 -3.59415,-15.94035 -5.84896,-24.07203c-0.39989,-1.44208 -1.31391,-9.6336 -3.99644,-9.87019c-1.98506,-0.17507 -3.42953,1.94148 -4.84274,3.23689c-3.64989,3.34563 -4.32433,8.57189 -7.23886,12.20472c-2.09188,2.60742 -3.76728,3.16955 -5.40704,4.64541c-0.96169,-3.72883 -5.83171,-9.1625 -7.45217,-11.64917c-3.71244,-5.69697 -6.88064,-12.32206 -10.77687,-17.75416c-2.07937,-2.89901 -5.06807,-4.70439 -7.11644,-7.72966c-3.91957,-5.78886 -6.76364,-11.78468 -11.23549,-17.26234c-3.06049,-6.34146 -4.51162,-13.16763 -7.35628,-19.52008c-0.65292,-1.45808 -0.58548,-3.92421 -2.2856,-4.11664c-2.00955,-0.22746 -3.52189,1.93514 -4.89786,3.30269c-3.7996,3.77633 -6.65778,10.93062 -9.84915,15.37607c-1.17532,1.63714 -2.11454,3.40972 -3.33022,5.02169c-0.72492,0.96122 -1.67739,1.77986 -2.28847,2.80594c-0.17072,0.28668 0.02495,1.28031 -0.16602,1.00466c-1.86662,-2.69443 -3.5112,-5.44181 -5.67143,-8.09383c-7.55109,-9.27012 -13.66805,-19.21817 -20.69329,-28.79224c-7.62576,-10.39245 -17.91944,-18.58818 -24.98067,-29.46753c-2.72638,-4.19361 -4.48981,-8.25528 -6.80362,-12.58961c-2.62647,-4.92001 -7.71476,-9.58572 -8.80633,-15.13206c-1.06216,-5.3969 -2.5278,-11.20919 -4.01257,-16.65376c-1.31424,-4.81926 -3.88304,-9.30114 -3.93439,-14.13468c5.16535,0.65584 11.17888,-0.14994 15.9665,-0.14994z" data-paper-data="{&quot;noHover&quot;:false,&quot;origItem&quot;:[&quot;Path&quot;,{&quot;applyMatrix&quot;:true,&quot;segments&quot;:[[[230.5,222],[0,0],[-0.84379,0]],[[226.47427,221.85065],[0.76171,0.43489],[-0.34467,-0.19679]],[[225.9059,220.80439],[0.29675,0.26355],[-0.5175,-0.45961]],[[222.30839,220.31519],[0.88843,0.14807],[-7.84393,-1.32165]],[[198.54346,219.49905],[7.95946,-0.27875],[-0.99192,0.03474]],[[195.72975,220.47324],[0.96018,-0.25134],[-2.24388,0.58738]],[[188,220.49999],[2.32101,0],[-1.03942,0]],[[184.88268,220.42387],[0.95268,-0.41569],[-0.43206,0.18853]],[[183.88268,221.42387],[0.44164,-0.16486],[-0.25802,0.09632]],[[180.5,221.49999],[0.43698,0],[-3.23597,0]],[[170.71484,221.47032],[3.22796,0.23413],[-3.1769,-0.23043]],[[161.42911,219.49748],[3.23757,0.23009],[-3.27164,-0.23251]],[[151.5,219.5],[3.27966,0],[-5.27607,0]],[[136.39088,216.49403],[5.27026,0.57853],[-6.11461,-0.67121]],[[117.5,216.5],[6.16196,0],[-12,0]],[[81.5,216.5],[12,0],[-9.69043,-0.00025]],[[53.73979,221.99005],[9.68034,-0.25903],[-1.40225,5.20439]],[[58.37844,235.52215],[-2.22438,-4.30915],[0.86191,1.66971]],[[59.93936,240.65707],[-0.67293,-1.68895],[1.40693,3.53122]],[[66.13868,250.17369],[-2.18795,-3.06312],[2.94063,4.11688]],[[74.52655,262.79002],[-2.6397,-4.31363],[-0.07422,-2.7641]],[[76.52447,254.28008],[-0.55184,2.51565],[0.02956,-0.13474]],[[77.35361,250.73697],[-0.37115,0.18914],[0.81637,-0.41602]],[[80.10218,250.70164],[-0.76497,-0.50435],[0.97008,0.6396]],[[82.10983,256.99441],[-0.33361,-1.1681],[1.38824,4.86071]],[[86.89783,271.21766],[-2.63096,-4.40472],[3.60808,8.40977]],[[98.67831,296.23362],[-4.72602,-7.73645],[2.01462,3.29791]],[[104.15116,306.44215],[-2.17169,-3.1872],[0.6133,0.90471]],[[105.8605,309.24034],[-0.54034,-0.95009],[0.60997,1.07253]],[[108.1045,312.18414],[-0.71481,-1.0057],[0.23911,0.33643]],[[108.54003,313.34325],[-0.41205,0.02389],[0.39735,-0.02303]],[[108.30529,312.1725],[-0.00607,0.39797],[0.02029,-1.33069]],[[108.88423,308.22217],[-0.24645,1.30782],[0.51668,-2.74189]],[[111.03349,300.24333],[-0.66933,2.68419],[0.15313,-0.6141]],[[112.97067,296.50043],[-1.52666,-0.14673],[0.91847,0.08828]],[[114.87264,298.51164],[-0.53532,-0.75154],[1.67961,2.35805]],[[118.73796,306.90693],[-1.20654,-2.65439],[2.12137,4.66701]],[[124.82999,320.94225],[-2.97482,-4.29371],[4.77686,6.89468]],[[139.76723,341.35865],[-5.23869,-6.56439],[1.1626,1.32833]],[[143.29399,345.39209],[-1.05525,-1.41612],[0.41136,0.55205]],[[144.44143,347.1094],[-0.37661,-0.57632],[0.29639,0.45357]],[[145.20443,348.54467],[-0.21915,0.49552],[1.09605,-2.47818]],[[148.52908,340.77128],[-1.3095,2.37133],[1.14142,-2.06698]],[[152.0204,334.79894],[-0.55548,2.43535],[0.2245,-0.98428]],[[152.02673,331.77025],[-0.19436,0.99068],[0.42995,-2.19158]],[[153.85105,324.99428],[-0.5539,2.21993],[0.34499,-4.69441]],[[156.77385,311.89567],[-1.12988,4.42554],[0.20038,-0.78483]],[[158.77023,306.52676],[-1.34422,0.12876],[0.99471,-0.09528]],[[161.19502,308.28946],[-0.70816,-0.70501],[1.82896,1.82081]],[[164.82269,314.93153],[-1.46047,-1.97711],[1.04824,1.41905]],[[167.53104,317.46039],[-0.82169,-0.80321],[0.4819,-2.02936]],[[171.25847,311.12558],[-0.81201,1.35333],[1.8603,-3.10049]],[[176.64934,301.47429],[-1.9524,2.95634],[1.04197,-1.57774]],[[180.21199,297.27402],[-1.02644,1.64646],[1.9641,-3.1505]],[[185.83843,287.89236],[-2.24084,2.98113],[1.53361,-3.45124]],[[189.52454,277.28152],[-1.42546,3.45722],[0.32718,-0.79354]],[[190.76884,275.0271],[-0.85193,0.10473],[1.00699,-0.12379]],[[193.22348,276.8268],[-0.6895,-0.74427],[1.90398,2.05521]],[[198.15917,285.20353],[-1.5992,-2.41937],[0.58895,0.89099]],[[199.82775,287.93894],[-0.60918,-0.87729],[0.36326,0.52313]],[[200.97436,289.46729],[-0.30621,-0.55843],[0.08555,0.15602]],[[200.95842,290.00088],[-0.09569,0.15002],[0.93536,-1.4664]],[[203.79998,285.60002],[-1.08249,1.44332],[3.78385,-5.04512]],[[214.17013,269.94203],[-3.52035,5.21054],[3.82127,-5.65593]],[[226.68998,253.91243],[-3.53838,5.92092],[1.36619,-2.28231]],[[230.10032,247.06345],[-1.15945,2.35889],[1.31612,-2.67764]],[[234.51441,238.83077],[-0.54699,3.01851],[0.53225,-2.93718]],[[236.52674,229.77027],[-0.74402,2.96312],[0.65856,-2.62281]],[[238.4996,222.07987],[-0.02573,2.63058],[-2.58836,0.35693]],[[230.49999,222.00003],[2.39907,0],[0,0]]],&quot;closed&quot;:true,&quot;fillColor&quot;:[0,0,0],&quot;strokeWidth&quot;:0.5}],&quot;index&quot;:null}" fill="#4c2915"/><path d="M421.02567,225.00266c18.53327,4.76136 39.10068,3.57011 58.42439,3.486l0.00351,0.26926c3.50505,9.32816 2.85619,20.02201 -5.68312,27.2634c-0.6804,1.42672 -2.95569,3.86945 -4.30671,6.00248c0.01719,-1.41024 -0.2303,-2.37932 -1.04856,-4.06164c-1.78938,-3.67887 -3.26706,-6.6313 -4.56585,-10.59729c-0.82367,-2.51515 -1.76066,-8.3774 -6.77055,-7.06167c-1.64579,0.43223 -2.1299,2.17117 -3.26056,3.28213c-3.89817,3.83022 -7.4241,8.2592 -9.74498,12.93847c-4.78678,-2.50755 -9.29677,-8.47816 -12.40932,-12.47369c-0.88807,-1.13999 -3.36604,-4.50711 -4.52796,-4.69663c-4.54142,-0.74072 -4.92471,3.15059 -6.57588,5.27015c-4.3082,5.53033 -7.02652,11.83499 -9.36845,18.29397c-3.47861,-2.38026 -6.22515,-5.19427 -8.02015,-8.74617c-1.08651,-2.14991 -1.07733,-4.74927 -2.71246,-6.62772c-0.99945,-1.14819 -2.19531,-2.63899 -3.86208,-2.51536c-2.05866,0.15273 -5.18862,7.84393 -5.88474,9.22637c-0.456,0.9056 -1.04825,3.7396 -1.30239,2.77781c-1.42005,-5.37407 -3.96837,-16.75317 -11.96942,-15.2746c-5.60847,3.20227 -9.63567,10.93592 -16.57951,12.37033c-1.74235,0.35992 -3.10073,-3.10417 -3.73026,-3.86457c-1.48318,-1.79154 -5.52273,-9.29966 -7.89836,-9.78571c-1.38366,-0.28309 -4.60956,2.43337 -5.90302,3.39699c-4.55414,3.39284 -10.00872,7.08216 -15.75599,8.7094c-6.47234,3.41926 -13.30123,7.76777 -21.03766,7.76777c-0.96026,0 0.53963,-1.701 0.40639,-2.51484c-0.13593,-0.83017 -0.491,-1.6197 -0.70185,-2.43831c-0.94112,-3.65361 -1.27348,-10.14741 -6.74808,-11.48826c-1.41725,-0.34711 -6.07761,1.39218 -7.24867,1.75971c-5.3909,1.69183 -10.32213,4.81105 -14.10453,8.5503c0.12038,-2.97225 -3.47648,-5.56719 -5.63797,-7.48896c-3.1607,-2.81024 -5.44491,-5.55357 -7.69128,-8.81254c-0.79994,-1.16053 -3.36853,-4.52127 -5.62957,-4.26688c-1.70283,0.19159 -3.13231,1.34683 -4.26105,2.45463c-0.67274,0.66029 -0.42119,1.71479 -0.82512,2.51974c-1.53237,3.05372 -4.46105,6.0072 -6.51547,8.85422c-1.9268,2.67018 -2.60315,3.07399 -2.90224,6.13196c-0.04544,0.46461 0.60339,1.65964 0.11749,1.44876c-1.91946,-0.83314 -2.80491,-2.84166 -4.48567,-3.99208c-6.68959,-4.19546 -14.62246,-8.67494 -20.12258,-14.04151c-1.79156,-1.74805 -1.992,-4.11319 -5.24474,-4.5238c-4.05273,-0.51161 -6.30698,3.68437 -7.93682,5.89307c-0.62337,0.8448 -4.04137,5.08251 -4.21486,5.53414c-1.82491,4.7505 1.76056,10.10992 -0.00015,15.00839c-8.24869,-3.53937 -11.85774,-8.24882 -16.51934,-14.79448c-2.1053,-2.95617 -2.08072,-6.97384 -5.99829,-9.14421c-1.94578,-1.07799 -3.56205,0.01736 -5.33178,0.3786c-6.29104,1.2842 -10.88452,3.77742 -15.85788,7.27006c-0.97578,0.68536 -6.87177,5.73822 -8.07109,5.60842c-1.63003,-0.17639 -1.55525,-4.12581 -1.77623,-4.78807c-1.29164,-3.87069 -4.9022,-13.4602 -11.53128,-10.79881c-3.58396,1.43885 -1.27153,2.70266 -2.4618,4.74153c-3.67426,6.29375 -7.29935,12.77477 -11.51498,18.81772c-0.50037,1.26516 -1.35107,3.55073 -2.06446,4.56949c-0.95295,1.36087 -2.06638,2.70619 -3.539,3.66995c-1.68053,1.09981 -3.62012,-2.15126 -5.00289,-3.5215c-4.34156,-4.30221 -7.31132,-8.53635 -10.64256,-13.35179c-0.83976,-1.21393 -1.34029,-2.79845 -2.76182,-3.51271c-3.18138,-1.59851 -5.37695,0.35522 -7.05907,2.19099c-4.04087,4.40993 -8.47658,8.43367 -14.42519,11.3631c-0.14333,0.02967 -2.50826,0.49023 -3.88958,0.78646c0.97647,-0.99312 1.78784,-2.34108 1.89204,-2.47298c2.77628,-3.51433 6.78469,-8.87404 7.19887,-13.22864c0.23765,-2.49864 -2.574,-4.44488 -3.76731,-6.35273c-3.58082,-5.72492 -6.87518,-10.47453 -6.87518,-16.99872c0,0 0.00007,-0.41627 -0.23976,-0.83757c2.52946,-1.09661 3.99261,-0.87143 6.89196,-0.87143c6.42805,0 12.14305,1.09938 18.46115,1.70171c7.12768,0.67952 14.10272,-0.28729 21.03014,-1.14779c6.05346,-0.75193 12.93191,0.01092 19.04746,0.01092c8.79097,0 16.53818,0.87392 25.08158,1.69748c10.38113,1.00071 21.67246,0.00169 32.1284,0.00169c24.90074,0 50.65435,1.46355 75.36366,-1.19996c19.81359,0.02578 40.60913,-1.50383 60.32641,0.04058c4.56994,0.35795 8.95753,1.14027 13.60251,1.25613c2.56614,0.05404 5.07079,0.6988 7.6093,1.02454c13.2565,1.70113 27.33084,-0.98422 40.70081,0.16329c5.03966,0.43254 9.57635,1.94235 14.43517,2.6846c4.65576,0.71125 9.06197,0.0875 13.79681,1.10687z" data-paper-data="{&quot;noHover&quot;:false,&quot;origItem&quot;:[&quot;Path&quot;,{&quot;applyMatrix&quot;:true,&quot;segments&quot;:[[[437.13664,377.59516],[0,0],[-4.74524,-1.19378]],[[423.30982,376.30124],[4.666,0.83294],[-4.8695,-0.86926]],[[408.84368,373.16174],[5.05074,0.50654],[-13.39938,-1.34384]],[[368.05594,372.98066],[13.28566,1.99218],[-2.5441,-0.38148]],[[360.43142,371.78532],[2.57178,0.06328],[-4.6552,-0.13568]],[[346.80294,370.3236],[4.58,0.4192],[-19.76064,-1.80864]],[[286.45762,370.32946],[19.85718,0.0302],[-24.76366,3.11922]],[[211.00002,371.66666],[24.95552,0],[-10.47894,0]],[[178.80294,371.65692],[10.40396,1.17192],[-8.5622,-0.96446]],[[153.66668,369.66666],[8.8103,0],[-6.129,0]],[[134.57772,369.65168],[6.06678,-0.88058],[-6.94266,1.00772]],[[113.50172,370.99318],[7.14336,0.79578],[-6.332,-0.70538]],[[95.00002,369],[6.4422,0],[-2.90572,0]],[[88.09302,370.01958],[2.53502,-1.28422],[0.24034,0.4934]],[[88.33336,371],[0,0],[0,7.6404]],[[95.22438,390.8975],[-3.5887,-6.7044],[1.19594,2.23426]],[[99.00002,398.33334],[0.23818,-2.92614],[-0.41508,5.09962]],[[91.78494,413.81764],[2.78238,-4.1156],[-0.10442,0.15444]],[[89.88862,416.71238],[0.97862,-1.16304],[1.38436,-0.34694]],[[93.5877,415.81088],[-0.14364,0.03474],[5.9617,-3.43062]],[[108.04422,402.49726],[-4.04976,5.16442],[1.68582,-2.14984]],[[115.31876,399.92628],[-3.18838,-1.872],[1.42466,0.83646]],[[118.08658,404.0376],[-0.84162,-1.42162],[3.33858,5.6393]],[[128.75168,419.66408],[-4.3511,-5.03828],[1.38582,1.60468]],[[133.568,423.81892],[-1.68422,1.28798],[1.47586,-1.12864]],[[137.11442,419.5188],[-0.95504,1.5937],[0.71496,-1.19308]],[[139.183,414.1643],[-0.50148,1.48162],[4.2249,-7.07684]],[[150.72272,392.11254],[-3.68234,7.37056],[1.1929,-2.38772]],[[153.38964,386.57],[-3.59184,1.68502],[6.64366,-3.11672]],[[164.94652,399.20718],[-1.29448,-4.53294],[0.22148,0.77556]],[[166.5269,404.82308],[-1.63362,-0.20656],[1.20196,0.152]],[[174.61554,398.25],[-0.97792,0.80262],[4.9843,-4.0902]],[[190.5085,389.72802],[-6.30488,1.50392],[1.77362,-0.42306]],[[196.0515,389.2987],[-1.95006,-1.26242],[3.92618,2.5417]],[[202.0632,399.99614],[-2.10994,-3.46194],[4.67186,7.66554]],[[218.61526,417.2987],[-8.26684,-4.14492],[1.7646,-5.73656]],[[218.4192,399.75376],[-1.82892,5.56326],[0.17388,-0.5289]],[[222.64336,393.26382],[-0.62474,0.98934],[1.63342,-2.58658]],[[230.59884,386.35102],[-4.06164,-0.59914],[3.25988,0.48086]],[[236.05344,391.67342],[-1.7955,-2.04712],[5.51222,6.28474]],[[256.21602,408.07876],[-6.7043,-4.91326],[1.68446,1.34726]],[[260.70548,412.73892],[-1.92368,-0.97568],[0.48696,0.24698]],[[260.4072,411.12828],[-0.04554,0.5441],[0.29974,-3.58116]],[[263.31002,403.93048],[-1.93104,3.12702],[2.05894,-3.33412]],[[269.83768,393.5242],[-1.53574,3.57618],[0.40482,-0.94268]],[[270.6672,390.56034],[-0.67422,0.77326],[1.13122,-1.29734]],[[274.94454,387.6674],[-1.70658,0.22436],[2.266,-0.29792]],[[280.7716,392.73842],[-0.8017,-1.35908],[2.2513,3.81654]],[[288.44134,402.9467],[-3.16766,-3.29104],[2.16622,2.25058]],[[294.02726,411.6994],[0.12064,-3.48078],[3.79072,-4.379]],[[308.07572,401.7534],[-5.40276,1.98128],[1.17364,-0.4304]],[[315.5339,399.7392],[-1.42036,-0.4065],[5.48666,1.57026]],[[322.28476,413.22836],[-0.94318,-4.27872],[0.21132,0.95866]],[[322.98506,416.08894],[-0.13622,-0.9722],[0.13354,0.95308]],[[322.41426,418.9191],[-0.96238,0],[7.75346,0]],[[343.48118,409.8573],[-6.48658,4.00426],[5.7599,-1.90564]],[[359.26862,399.67854],[-4.56416,3.97332],[1.2963,-1.12848]],[[365.3845,395.70396],[-1.3867,-0.33152],[2.38086,0.56918]],[[373.29938,407.17818],[-1.48644,-2.09806],[0.6309,0.89048]],[[376.8403,411.67304],[-1.74618,0.4215],[6.95912,-1.6798]],[[393.45468,397.20336],[-5.6208,3.75014],[8.01866,-1.73154]],[[405.64912,415.10824],[-1.42318,-6.29352],[0.2547,1.12636]],[[406.7566,411.8256],[-0.457,1.06054],[0.69764,-1.61896]],[[412.65346,401.03024],[-2.06318,0.17886],[1.67046,-0.1448]],[[416.7238,403.98572],[-1.00166,-1.34464],[1.63872,2.19984]],[[419.44168,411.75332],[-1.0889,-2.51774],[1.79896,4.1596]],[[427.28194,421.96534],[-3.48626,-2.7875],[2.34708,-7.56404]],[[436.6693,400.55724],[-4.31768,6.47652],[1.6548,-2.4822]],[[443.45958,394.3868],[-4.55142,-0.86746],[1.16448,0.22194]],[[447.9975,399.89056],[-0.89002,-1.33504],[3.1194,4.67912]],[[460.2347,414.48554],[-4.79732,-2.93658],[2.326,-5.47984]],[[470.00056,399.3425],[-3.90674,4.48554],[1.13316,-1.30104]],[[473.46828,395.49984],[-1.6494,0.50618],[5.0209,-1.54084]],[[480.25364,403.77412],[-0.82548,-2.94548],[1.30166,4.64454]],[[484.8291,416.19086],[-1.79332,-4.3083],[0.82006,1.97014]],[[485.68128,420.92466],[0.01724,-1.65152],[1.35398,-2.49798]],[[489.99706,413.89898],[-0.6819,1.67082],[8.55812,-8.4803]],[[495.69256,381.987],[3.51276,10.92412],[0,0]],[[495.68906,381.67184],[0,0],[-19.36622,0.0985]],[[437.13672,377.59512],[18.57404,5.57598],[0,0]]],&quot;closed&quot;:true,&quot;fillColor&quot;:[0,0,0,1]}]}" fill="#1f4d15"/><path d="M53.90965,161.30854l-8.33018,43.20426l-217.49417,-41.93489l8.33018,-43.20426z" fill="#a5a5a5"/><path d="M53.60633,164.20227l-7.23256,37.51146l-217.73965,-41.98221l7.23256,-37.51147z" fill="#4543d4"/><path d="M31.15815,157.16237l-7.9042,40.99495l-6.8734,-1.32525l7.90421,-40.99496z" fill="#a5a5a5"/><path d="M-1.98148,150.77274l-7.9042,40.99496l-6.8734,-1.32525l7.9042,-40.99496z" fill="#a5a5a5"/><path d="M-35.12112,144.38311l-7.90421,40.99496l-6.8734,-1.32525l7.90421,-40.99496z" fill="#a5a5a5"/><path d="M-68.26074,137.99349l-7.9042,40.99496l-6.87341,-1.32525l7.90421,-40.99496z" fill="#a5a5a5"/><path d="M-101.40037,131.60386l-7.90421,40.99496l-6.8734,-1.32525l7.9042,-40.99495z" fill="#a5a5a5"/><path d="M-134.54,125.21423l-7.90421,40.99496l-6.8734,-1.32525l7.90421,-40.99496z" fill="#a5a5a5"/><path d="M509.70148,137.53564l-6.00429,-33.46563l224.41658,-40.2641l6.00429,33.46563z" fill="#a5a5a5"/><path d="M545.15251,260.33699l-26.93497,-152.13401l30.52527,-5.40443l26.93497,152.13401z" fill="#a5a5a5"/><path d="M641.15942,243.3392l-26.93497,-152.13401l30.52527,-5.40443l26.93497,152.13401z" fill="#a5a5a5"/><path d="M509.70148,137.53564l-6.00429,-33.46563l224.41658,-40.26411l6.00429,33.46563z" fill="#a5a5a5"/><path d="M533.23689,270.46828l-6.00429,-33.46563l224.41658,-40.26411l6.00429,33.46563z" fill="#a5a5a5"/></g></g></svg>