<svg version="1.1" xmlns="http://www.w3.org/2000/svg" xmlns:xlink="http://www.w3.org/1999/xlink" width="699.11633" height="273.32945" viewBox="0,0,699.11633,273.32945"><g transform="translate(89.60418,-152.50036)"><g data-paper-data="{&quot;isPaintingLayer&quot;:true}" fill-rule="nonzero" stroke="#000000" stroke-width="2" stroke-linecap="butt" stroke-linejoin="miter" stroke-miterlimit="10" stroke-dasharray="" stroke-dashoffset="0" style="mix-blend-mode: normal"><path d="M95.25879,326.19661c2.30859,0.65264 5.08903,1.89439 7.67687,2.25506c-0.74038,2.52437 -2.64263,4.52139 -3.98986,6.86613c-1.52205,2.64896 -3.08931,5.49312 -4.40051,8.17474c-1.34752,2.75587 -4.49187,4.50572 -6.48678,6.72433c-1.75744,1.95451 -3.2091,3.84126 -5.14465,5.66583c-5.01566,4.73504 -11.19269,7.62399 -16.40848,12.02708c-4.80506,4.05635 -9.22751,8.43238 -14.24113,12.25787c-1.4343,1.0944 -2.63408,2.30905 -3.93309,3.46569c-0.13289,0.11834 0.10857,-0.37537 0.06869,-0.54878c-0.14275,-0.62067 -0.48083,-1.17924 -0.68807,-1.78146c-0.34755,-1.00992 -0.53801,-2.06628 -0.86235,-3.08388c-0.88073,-2.76317 -1.19972,-6.89956 -2.4728,-9.39522c-0.46102,-0.90377 -0.87009,-2.2425 -1.87278,-2.39732c-0.84829,-0.13098 -1.18089,1.16975 -1.7116,1.84435c-2.3122,2.93905 -4.02257,6.31617 -6.43722,9.22005c-2.96731,2.2591 -5.22643,5.01147 -7.97351,7.50884c-1.43563,1.30514 -3.14408,1.84321 -4.57596,3.07799c-2.68301,2.31371 -5.19159,5.35144 -7.82518,7.82892c-1.14955,1.08139 -4.30235,3.26318 -5.31814,5.0849c-0.5722,-0.99646 -1.29685,-1.51923 -1.91951,-3.16992c-0.86754,-2.29985 -0.41898,-5.12883 -1.68364,-7.37852c-0.48966,-0.87106 -0.87283,-2.17643 -1.85595,-2.35535c-1.32855,-0.24177 -2.98208,3.9236 -3.38841,4.62432c-2.29119,3.95126 -4.77527,7.38591 -6.38432,11.80942c-1.13692,1.98552 -2.59194,4.03179 -3.60187,6.02376c-0.45654,0.90044 -0.34656,2.0266 -0.83037,2.91269c-1.19704,2.19239 -3.32718,3.11811 -4.98786,4.79662c-1.90521,1.92566 -3.58773,4.48852 -5.31661,6.57507c-0.34569,0.41721 -0.18252,-1.07179 -0.34435,-1.58888c-0.20563,-0.65704 -0.39222,-1.32184 -0.63788,-1.96498c-0.63021,-1.64979 -1.54203,-3.2473 -2.29943,-4.84181c-3.25534,-7.74195 -6.11525,-15.78657 -8.83633,-23.72073c-1.69456,-4.94105 -1.28217,-10.10875 -2.05391,-15.17684c-0.43893,-2.88251 -0.46502,-6.41617 -1.43981,-9.14221c-0.31068,-0.86883 -0.4239,-2.12163 -1.28372,-2.45643c-1.42917,-0.55651 -2.46929,2.50936 -2.7837,3.05863c-1.3743,2.40088 -2.99745,4.58875 -4.24055,7.08668c-0.59294,1.19145 -1.2513,2.36603 -1.63283,3.64101c-0.11411,0.38131 0.20409,1.3157 -0.18454,1.22977c-0.40301,-0.08911 0.03432,-0.8462 -0.10425,-1.235c-0.41426,-1.16223 -1.06466,-2.24882 -1.35986,-3.44684c-0.2615,-1.06125 -0.54054,-2.12351 -0.88459,-3.16093c-1.22274,-3.65778 -1.44934,-7.60251 -2.49083,-11.3241c-2.44316,-8.73034 -3.34138,-18.22589 -4.5256,-27.30004c-1.33348,-4.95432 -0.71949,-9.94242 -0.73307,-14.99747c-0.00326,-1.2148 0.54167,-5.72492 -0.21783,-6.60431c-0.59892,-0.69343 -1.68034,-0.82631 -2.57909,-0.64807c-0.40861,0.08104 -1.69513,3.06047 -1.76023,3.18208c-1.21539,2.27066 -3.63936,4.90889 -4.31988,7.58894c-1.36666,-4.86905 -2.92635,-9.66554 -4.63611,-14.42712c-1.27215,-3.54281 -2.98121,-7.06601 -3.37445,-10.84679c-0.18809,-1.80832 0.27137,-3.52614 -0.1038,-5.36736c-0.96823,-4.75175 -3.5444,-9.66004 -0.77923,-14.28669c9.38572,2.38418 18.89075,-0.3737 28.21564,2.26273c11.54743,3.26448 23.11219,6.5233 34.65963,9.78777c5.92957,1.6763 12.49177,2.824 18.19318,5.13332c4.91411,1.99043 8.65569,5.57041 13.73277,7.00571c3.15597,0.89219 6.47725,1.58818 9.56225,2.70195c3.05287,1.10216 5.41045,3.34256 8.40486,4.42854c3.04252,1.10344 6.29898,1.8145 9.41291,2.69482c0.4205,0.11887 3.00271,0.87093 3.27721,0.84843c0.46984,-0.0385 0.76742,-0.6262 1.23448,-0.69008c1.02984,-0.14085 1.98001,0.63987 2.98023,0.92264c2.23348,0.63141 5.12892,2.03505 7.44797,2.08024c0.99235,0.01935 2.0092,-0.40763 2.97316,-0.17122c7.7351,1.89705 15.4627,3.8531 22.65126,7.25876c0.81464,0.38418 2.95632,0.86757 3.32926,1.45063c0.21386,0.33433 -0.01561,0.87883 0.26252,1.16196c0.61467,0.6257 3.02173,1.01049 3.83369,1.24003z" data-paper-data="{&quot;noHover&quot;:false,&quot;origItem&quot;:[&quot;Path&quot;,{&quot;applyMatrix&quot;:true,&quot;segments&quot;:[[[230.5,222],[0,0],[-0.84379,0]],[[226.47427,221.85065],[0.76171,0.43489],[-0.34467,-0.19679]],[[225.9059,220.80439],[0.29675,0.26355],[-0.5175,-0.45961]],[[222.30839,220.31519],[0.88843,0.14807],[-7.84393,-1.32165]],[[198.54346,219.49905],[7.95946,-0.27875],[-0.99192,0.03474]],[[195.72975,220.47324],[0.96018,-0.25134],[-2.24388,0.58738]],[[188,220.49999],[2.32101,0],[-1.03942,0]],[[184.88268,220.42387],[0.95268,-0.41569],[-0.43206,0.18853]],[[183.88268,221.42387],[0.44164,-0.16486],[-0.25802,0.09632]],[[180.5,221.49999],[0.43698,0],[-3.23597,0]],[[170.71484,221.47032],[3.22796,0.23413],[-3.1769,-0.23043]],[[161.42911,219.49748],[3.23757,0.23009],[-3.27164,-0.23251]],[[151.5,219.5],[3.27966,0],[-5.27607,0]],[[136.39088,216.49403],[5.27026,0.57853],[-6.11461,-0.67121]],[[117.5,216.5],[6.16196,0],[-12,0]],[[81.5,216.5],[12,0],[-9.69043,-0.00025]],[[53.73979,221.99005],[9.68034,-0.25903],[-1.40225,5.20439]],[[58.37844,235.52215],[-2.22438,-4.30915],[0.86191,1.66971]],[[59.93936,240.65707],[-0.67293,-1.68895],[1.40693,3.53122]],[[66.13868,250.17369],[-2.18795,-3.06312],[2.94063,4.11688]],[[74.52655,262.79002],[-2.6397,-4.31363],[-0.07422,-2.7641]],[[76.52447,254.28008],[-0.55184,2.51565],[0.02956,-0.13474]],[[77.35361,250.73697],[-0.37115,0.18914],[0.81637,-0.41602]],[[80.10218,250.70164],[-0.76497,-0.50435],[0.97008,0.6396]],[[82.10983,256.99441],[-0.33361,-1.1681],[1.38824,4.86071]],[[86.89783,271.21766],[-2.63096,-4.40472],[3.60808,8.40977]],[[98.67831,296.23362],[-4.72602,-7.73645],[2.01462,3.29791]],[[104.15116,306.44215],[-2.17169,-3.1872],[0.6133,0.90471]],[[105.8605,309.24034],[-0.54034,-0.95009],[0.60997,1.07253]],[[108.1045,312.18414],[-0.71481,-1.0057],[0.23911,0.33643]],[[108.54003,313.34325],[-0.41205,0.02389],[0.39735,-0.02303]],[[108.30529,312.1725],[-0.00607,0.39797],[0.02029,-1.33069]],[[108.88423,308.22217],[-0.24645,1.30782],[0.51668,-2.74189]],[[111.03349,300.24333],[-0.66933,2.68419],[0.15313,-0.6141]],[[112.97067,296.50043],[-1.52666,-0.14673],[0.91847,0.08828]],[[114.87264,298.51164],[-0.53532,-0.75154],[1.67961,2.35805]],[[118.73796,306.90693],[-1.20654,-2.65439],[2.12137,4.66701]],[[124.82999,320.94225],[-2.97482,-4.29371],[4.77686,6.89468]],[[139.76723,341.35865],[-5.23869,-6.56439],[1.1626,1.32833]],[[143.29399,345.39209],[-1.05525,-1.41612],[0.41136,0.55205]],[[144.44143,347.1094],[-0.37661,-0.57632],[0.29639,0.45357]],[[145.20443,348.54467],[-0.21915,0.49552],[1.09605,-2.47818]],[[148.52908,340.77128],[-1.3095,2.37133],[1.14142,-2.06698]],[[152.0204,334.79894],[-0.55548,2.43535],[0.2245,-0.98428]],[[152.02673,331.77025],[-0.19436,0.99068],[0.42995,-2.19158]],[[153.85105,324.99428],[-0.5539,2.21993],[0.34499,-4.69441]],[[156.77385,311.89567],[-1.12988,4.42554],[0.20038,-0.78483]],[[158.77023,306.52676],[-1.34422,0.12876],[0.99471,-0.09528]],[[161.19502,308.28946],[-0.70816,-0.70501],[1.82896,1.82081]],[[164.82269,314.93153],[-1.46047,-1.97711],[1.04824,1.41905]],[[167.53104,317.46039],[-0.82169,-0.80321],[0.4819,-2.02936]],[[171.25847,311.12558],[-0.81201,1.35333],[1.8603,-3.10049]],[[176.64934,301.47429],[-1.9524,2.95634],[1.04197,-1.57774]],[[180.21199,297.27402],[-1.02644,1.64646],[1.9641,-3.1505]],[[185.83843,287.89236],[-2.24084,2.98113],[1.53361,-3.45124]],[[189.52454,277.28152],[-1.42546,3.45722],[0.32718,-0.79354]],[[190.76884,275.0271],[-0.85193,0.10473],[1.00699,-0.12379]],[[193.22348,276.8268],[-0.6895,-0.74427],[1.90398,2.05521]],[[198.15917,285.20353],[-1.5992,-2.41937],[0.58895,0.89099]],[[199.82775,287.93894],[-0.60918,-0.87729],[0.36326,0.52313]],[[200.97436,289.46729],[-0.30621,-0.55843],[0.08555,0.15602]],[[200.95842,290.00088],[-0.09569,0.15002],[0.93536,-1.4664]],[[203.79998,285.60002],[-1.08249,1.44332],[3.78385,-5.04512]],[[214.17013,269.94203],[-3.52035,5.21054],[3.82127,-5.65593]],[[226.68998,253.91243],[-3.53838,5.92092],[1.36619,-2.28231]],[[230.10032,247.06345],[-1.15945,2.35889],[1.31612,-2.67764]],[[234.51441,238.83077],[-0.54699,3.01851],[0.53225,-2.93718]],[[236.52674,229.77027],[-0.74402,2.96312],[0.65856,-2.62281]],[[238.4996,222.07987],[-0.02573,2.63058],[-2.58836,0.35693]],[[230.49999,222.00003],[2.39907,0],[0,0]]],&quot;closed&quot;:true,&quot;fillColor&quot;:[0,0,0],&quot;strokeWidth&quot;:0.5}]}" fill="#4c2915"/><path d="M86.01098,315.08178c8.17833,5.20929 18.28572,7.34179 27.61704,9.92859l-0.0412,0.15219c0.20424,5.73387 -1.81208,11.671 -7.08324,14.58718c-0.55535,0.71115 -2.04161,1.77737 -3.03284,2.79509c0.23294,-0.79227 0.26795,-1.37205 0.14137,-2.43153c-0.27683,-2.31683 -0.51907,-4.18185 -0.51361,-6.59359c0.00347,-1.52948 0.48546,-4.96036 -2.1399,-4.90194c-0.86245,0.01919 -1.37289,0.93303 -2.09507,1.40488c-2.48983,1.62679 -4.89553,3.6417 -6.76003,5.96191c-1.90876,-2.06544 -3.13241,-6.04445 -3.99684,-8.72007c-0.24664,-0.7634 -0.90517,-2.99844 -1.43526,-3.26362c-2.0719,-1.03645 -2.87656,1.1039 -4.01039,2.07311c-2.95836,2.52884 -5.27341,5.71073 -7.43156,9.03086c-1.29823,-1.81539 -2.17437,-3.77538 -2.47414,-6.02143c-0.18146,-1.35951 0.23703,-2.82289 -0.25221,-4.10422c-0.29904,-0.78321 -0.63821,-1.78623 -1.46162,-1.94379c-1.01701,-0.19458 -3.75144,3.71245 -4.30731,4.39651c-0.36413,0.44811 -1.10116,1.96423 -1.0705,1.38765c0.17129,-3.22167 0.75509,-9.98074 -3.33856,-10.23832c-3.2145,1.03982 -6.38834,4.84846 -9.96515,4.71011c-0.8975,-0.03471 -1.00071,-2.17177 -1.18314,-2.68605c-0.42982,-1.21165 -1.18171,-5.99287 -2.24983,-6.59058c-0.6221,-0.34813 -2.61035,0.74275 -3.38756,1.10938c-2.73646,1.29092 -5.95434,2.62615 -8.98489,2.75957c-3.66563,1.04432 -7.65121,2.56363 -11.38173,1.50901c-0.46304,-0.1309 0.53117,-0.88489 0.59655,-1.36162c0.0667,-0.48629 0.02124,-0.97957 0.04996,-1.46957c0.12819,-2.18696 1.00233,-5.89129 -1.42395,-7.39309c-0.6281,-0.38879 -3.1524,-0.04405 -3.77563,0.0034c-2.86899,0.2184 -5.74371,1.30374 -8.16322,2.89505c0.5315,-1.65835 -0.78956,-3.61082 -1.52571,-4.98831c-1.07645,-2.01432 -1.7409,-3.87147 -2.30499,-6.014c-0.20087,-0.76296 -0.90411,-3.00677 -2.03491,-3.17164c-0.85163,-0.12418 -1.72494,0.33189 -2.44569,0.80223c-0.42957,0.28035 -0.47625,0.90881 -0.79925,1.3073c-1.22534,1.51176 -3.10802,2.77671 -4.55217,4.10083c-1.35445,1.24188 -1.74491,1.37721 -2.37623,3.0595c-0.09593,0.2556 0.02659,1.0174 -0.17411,0.83233c-0.79286,-0.7311 -0.89988,-1.98353 -1.52709,-2.86087c-2.55742,-3.27589 -5.66912,-6.88132 -7.46644,-10.65495c-0.58544,-1.22918 -0.30535,-2.58917 -1.80842,-3.26395c-1.87274,-0.84074 -3.62813,1.21624 -4.76586,2.23858c-0.43516,0.39103 -2.75836,2.31289 -2.91395,2.54371c-1.63669,2.42796 -0.76148,5.93656 -2.39079,8.45665c-3.41374,-3.11875 -4.40385,-6.26433 -5.60901,-10.58803c-0.54429,-1.95268 0.10755,-4.21313 -1.43579,-5.9701c-0.76654,-0.87266 -1.72039,-0.47579 -2.6313,-0.5135c-3.23811,-0.13398 -5.85024,0.64466 -8.80475,1.93467c-0.57969,0.25315 -4.22762,2.29652 -4.78526,2.0599c-0.7579,-0.32159 -0.09273,-2.53674 -0.0938,-2.94002c-0.00626,-2.35706 -0.21975,-8.25258 -3.84023,-7.65665c-1.95738,0.32217 -1.04364,1.34951 -1.94237,2.33608c-2.77427,3.04542 -5.55468,6.20306 -8.55005,9.03336c-0.44281,0.64466 -1.21709,1.81652 -1.72337,2.29332c-0.67629,0.63689 -1.42748,1.24315 -2.2911,1.58544c-0.98554,0.39061 -1.40295,-1.70565 -1.85146,-2.66623c-1.4082,-3.01597 -2.16576,-5.80658 -3.00503,-8.97401c-0.21157,-0.79847 -0.20052,-1.75953 -0.77221,-2.35577c-1.27944,-1.33438 -2.64936,-0.53282 -3.7529,0.27225c-2.65097,1.93398 -5.43083,3.59654 -8.7659,4.43625c-0.07384,-0.00282 -1.28758,-0.0657 -2.00084,-0.08708c0.62905,-0.42648 1.23502,-1.0754 1.30627,-1.1355c1.89853,-1.60174 4.68515,-4.07531 5.57851,-6.47249c0.51261,-1.3755 -0.53315,-2.85541 -0.80467,-4.09308c-0.81475,-3.71391 -1.64671,-6.83922 -0.60746,-10.51535c0,0 0.06634,-0.23454 0.01781,-0.50463c1.39439,-0.27308 2.06406,0.05326 3.46213,0.44849c3.09962,0.87627 5.68028,2.27479 8.63092,3.47546c3.32874,1.35452 6.84612,1.76059 10.32359,2.22008c3.03876,0.40152 6.23405,1.76902 9.18297,2.60268c4.23901,1.19838 7.83552,2.74689 11.82399,4.37556c4.84639,1.97901 10.45022,2.95532 15.49209,4.38067c12.00717,3.39445 24.19246,7.72981 36.5316,9.59737c9.55003,2.7155 19.82133,4.68845 29.08302,8.2465c2.14662,0.82466 4.1377,1.86358 6.35906,2.56206c1.22878,0.38026 2.33383,1.08499 3.50601,1.61459c6.12132,2.76564 13.33575,3.17114 19.59998,5.64031c2.36123,0.93072 4.30833,2.39988 6.53302,3.48046c2.13172,1.03543 4.35576,1.28461 6.47653,2.50445z" data-paper-data="{&quot;noHover&quot;:false,&quot;origItem&quot;:[&quot;Path&quot;,{&quot;applyMatrix&quot;:true,&quot;segments&quot;:[[[437.13664,377.59516],[0,0],[-4.74524,-1.19378]],[[423.30982,376.30124],[4.666,0.83294],[-4.8695,-0.86926]],[[408.84368,373.16174],[5.05074,0.50654],[-13.39938,-1.34384]],[[368.05594,372.98066],[13.28566,1.99218],[-2.5441,-0.38148]],[[360.43142,371.78532],[2.57178,0.06328],[-4.6552,-0.13568]],[[346.80294,370.3236],[4.58,0.4192],[-19.76064,-1.80864]],[[286.45762,370.32946],[19.85718,0.0302],[-24.76366,3.11922]],[[211.00002,371.66666],[24.95552,0],[-10.47894,0]],[[178.80294,371.65692],[10.40396,1.17192],[-8.5622,-0.96446]],[[153.66668,369.66666],[8.8103,0],[-6.129,0]],[[134.57772,369.65168],[6.06678,-0.88058],[-6.94266,1.00772]],[[113.50172,370.99318],[7.14336,0.79578],[-6.332,-0.70538]],[[95.00002,369],[6.4422,0],[-2.90572,0]],[[88.09302,370.01958],[2.53502,-1.28422],[0.24034,0.4934]],[[88.33336,371],[0,0],[0,7.6404]],[[95.22438,390.8975],[-3.5887,-6.7044],[1.19594,2.23426]],[[99.00002,398.33334],[0.23818,-2.92614],[-0.41508,5.09962]],[[91.78494,413.81764],[2.78238,-4.1156],[-0.10442,0.15444]],[[89.88862,416.71238],[0.97862,-1.16304],[1.38436,-0.34694]],[[93.5877,415.81088],[-0.14364,0.03474],[5.9617,-3.43062]],[[108.04422,402.49726],[-4.04976,5.16442],[1.68582,-2.14984]],[[115.31876,399.92628],[-3.18838,-1.872],[1.42466,0.83646]],[[118.08658,404.0376],[-0.84162,-1.42162],[3.33858,5.6393]],[[128.75168,419.66408],[-4.3511,-5.03828],[1.38582,1.60468]],[[133.568,423.81892],[-1.68422,1.28798],[1.47586,-1.12864]],[[137.11442,419.5188],[-0.95504,1.5937],[0.71496,-1.19308]],[[139.183,414.1643],[-0.50148,1.48162],[4.2249,-7.07684]],[[150.72272,392.11254],[-3.68234,7.37056],[1.1929,-2.38772]],[[153.38964,386.57],[-3.59184,1.68502],[6.64366,-3.11672]],[[164.94652,399.20718],[-1.29448,-4.53294],[0.22148,0.77556]],[[166.5269,404.82308],[-1.63362,-0.20656],[1.20196,0.152]],[[174.61554,398.25],[-0.97792,0.80262],[4.9843,-4.0902]],[[190.5085,389.72802],[-6.30488,1.50392],[1.77362,-0.42306]],[[196.0515,389.2987],[-1.95006,-1.26242],[3.92618,2.5417]],[[202.0632,399.99614],[-2.10994,-3.46194],[4.67186,7.66554]],[[218.61526,417.2987],[-8.26684,-4.14492],[1.7646,-5.73656]],[[218.4192,399.75376],[-1.82892,5.56326],[0.17388,-0.5289]],[[222.64336,393.26382],[-0.62474,0.98934],[1.63342,-2.58658]],[[230.59884,386.35102],[-4.06164,-0.59914],[3.25988,0.48086]],[[236.05344,391.67342],[-1.7955,-2.04712],[5.51222,6.28474]],[[256.21602,408.07876],[-6.7043,-4.91326],[1.68446,1.34726]],[[260.70548,412.73892],[-1.92368,-0.97568],[0.48696,0.24698]],[[260.4072,411.12828],[-0.04554,0.5441],[0.29974,-3.58116]],[[263.31002,403.93048],[-1.93104,3.12702],[2.05894,-3.33412]],[[269.83768,393.5242],[-1.53574,3.57618],[0.40482,-0.94268]],[[270.6672,390.56034],[-0.67422,0.77326],[1.13122,-1.29734]],[[274.94454,387.6674],[-1.70658,0.22436],[2.266,-0.29792]],[[280.7716,392.73842],[-0.8017,-1.35908],[2.2513,3.81654]],[[288.44134,402.9467],[-3.16766,-3.29104],[2.16622,2.25058]],[[294.02726,411.6994],[0.12064,-3.48078],[3.79072,-4.379]],[[308.07572,401.7534],[-5.40276,1.98128],[1.17364,-0.4304]],[[315.5339,399.7392],[-1.42036,-0.4065],[5.48666,1.57026]],[[322.28476,413.22836],[-0.94318,-4.27872],[0.21132,0.95866]],[[322.98506,416.08894],[-0.13622,-0.9722],[0.13354,0.95308]],[[322.41426,418.9191],[-0.96238,0],[7.75346,0]],[[343.48118,409.8573],[-6.48658,4.00426],[5.7599,-1.90564]],[[359.26862,399.67854],[-4.56416,3.97332],[1.2963,-1.12848]],[[365.3845,395.70396],[-1.3867,-0.33152],[2.38086,0.56918]],[[373.29938,407.17818],[-1.48644,-2.09806],[0.6309,0.89048]],[[376.8403,411.67304],[-1.74618,0.4215],[6.95912,-1.6798]],[[393.45468,397.20336],[-5.6208,3.75014],[8.01866,-1.73154]],[[405.64912,415.10824],[-1.42318,-6.29352],[0.2547,1.12636]],[[406.7566,411.8256],[-0.457,1.06054],[0.69764,-1.61896]],[[412.65346,401.03024],[-2.06318,0.17886],[1.67046,-0.1448]],[[416.7238,403.98572],[-1.00166,-1.34464],[1.63872,2.19984]],[[419.44168,411.75332],[-1.0889,-2.51774],[1.79896,4.1596]],[[427.28194,421.96534],[-3.48626,-2.7875],[2.34708,-7.56404]],[[436.6693,400.55724],[-4.31768,6.47652],[1.6548,-2.4822]],[[443.45958,394.3868],[-4.55142,-0.86746],[1.16448,0.22194]],[[447.9975,399.89056],[-0.89002,-1.33504],[3.1194,4.67912]],[[460.2347,414.48554],[-4.79732,-2.93658],[2.326,-5.47984]],[[470.00056,399.3425],[-3.90674,4.48554],[1.13316,-1.30104]],[[473.46828,395.49984],[-1.6494,0.50618],[5.0209,-1.54084]],[[480.25364,403.77412],[-0.82548,-2.94548],[1.30166,4.64454]],[[484.8291,416.19086],[-1.79332,-4.3083],[0.82006,1.97014]],[[485.68128,420.92466],[0.01724,-1.65152],[1.35398,-2.49798]],[[489.99706,413.89898],[-0.6819,1.67082],[8.55812,-8.4803]],[[495.69256,381.987],[3.51276,10.92412],[0,0]],[[495.68906,381.67184],[0,0],[-19.36622,0.0985]],[[437.13672,377.59512],[18.57404,5.57598],[0,0]]],&quot;closed&quot;:true,&quot;fillColor&quot;:[0,0,0,1]}]}" fill="#1f4d15"/><path d="M363.37479,199.68765c2.09209,-1.17418 4.93451,-2.26662 7.01697,-3.8447c1.26505,2.30657 1.33635,5.06366 2.04575,7.67318c0.80142,2.94811 1.70917,6.06605 2.68259,8.88789c1.00036,2.89999 0.01967,6.36223 0.18248,9.34139c0.14342,2.62453 0.45474,4.98466 0.3804,7.64358c-0.18772,6.89509 -2.50279,13.3093 -3.0669,20.11176c-0.51969,6.26678 -0.54285,12.48829 -1.37328,18.73978c-0.23757,1.78843 -0.2244,3.49567 -0.32238,5.23223c-0.01001,0.17766 -0.18919,-0.3419 -0.34015,-0.43609c-0.54034,-0.3371 -1.17461,-0.49203 -1.74742,-0.77043c-0.9606,-0.46688 -1.84319,-1.07779 -2.79284,-1.56652c-2.57869,-1.32708 -5.73331,-4.0215 -8.39955,-4.88185c-0.96554,-0.31157 -2.20244,-0.96702 -3.01999,-0.36622c-0.69166,0.50829 -0.0053,1.66216 0.09777,2.51429c0.44901,3.7125 1.63317,7.30807 1.98495,11.06829c-0.49504,3.6964 -0.14076,7.23952 -0.31157,10.94817c-0.08926,1.93816 -0.91438,3.52797 -1.05082,5.4138c-0.25565,3.53362 0.12461,7.45486 0.01983,11.0691c-0.04575,1.57759 -0.7265,5.35077 -0.1535,7.35631c-1.10967,-0.29827 -1.99151,-0.15415 -3.60014,-0.87858c-2.24125,-1.00932 -3.92806,-3.32427 -6.41416,-4.01693c-0.96259,-0.2682 -2.15758,-0.91844 -2.97838,-0.34851c-1.10919,0.77019 0.67334,4.88201 0.88272,5.66449c1.1807,4.41225 1.85935,8.59638 3.85609,12.85895c0.60348,2.20696 1.0254,4.6821 1.7231,6.80368c0.31537,0.95904 1.19057,1.67623 1.47653,2.64445c0.70754,2.39559 -0.14076,4.55773 -0.12448,6.91887c0.01867,2.70881 0.64582,5.70978 0.90292,8.4073c0.05141,0.53937 -0.88791,-0.62743 -1.36836,-0.87789c-0.61049,-0.31825 -1.21304,-0.65546 -1.84195,-0.93554c-1.61332,-0.71845 -3.38844,-1.20055 -5.0524,-1.78989c-7.78117,-3.16043 -15.49752,-6.8146 -23.03763,-10.4891c-4.69564,-2.28833 -8.06428,-6.22882 -12.19837,-9.26038c-2.35129,-1.72422 -4.87226,-4.20054 -7.49107,-5.43479c-0.83465,-0.39338 -1.80182,-1.19768 -2.64597,-0.82512c-1.40313,0.61924 0.0338,3.52039 0.20082,4.13084c0.73005,2.66833 1.13355,5.3625 2.02495,8.00643c0.42517,1.2611 0.7922,2.55661 1.42579,3.72696c0.18948,0.35002 1.07587,0.78436 0.74064,0.99892c-0.34764,0.2225 -0.57505,-0.62173 -0.94823,-0.79809c-1.11557,-0.52716 -2.34428,-0.83369 -3.40114,-1.47044c-0.9362,-0.56406 -1.8855,-1.1164 -2.86311,-1.60517c-3.45372,-1.71647 -6.40737,-4.34101 -9.77832,-6.23089c-7.90775,-4.43344 -15.26669,-10.50125 -22.5291,-16.069c-4.45012,-2.55341 -7.54923,-6.50988 -11.13882,-10.06917c-0.86263,-0.85535 -3.67199,-4.42545 -4.83099,-4.50843c-0.91393,-0.06541 -1.77153,0.60664 -2.27982,1.36898c-0.23109,0.34659 0.97066,3.36121 1.01082,3.49318c0.75001,2.46385 0.90708,6.04312 2.32465,8.41721c-4.41315,-2.46971 -8.9112,-4.7515 -13.49047,-6.90235c-3.40718,-1.60031 -7.10893,-2.87736 -10.06413,-5.26812c-1.41345,-1.14348 -2.30564,-2.68167 -3.87447,-3.71589c-4.04879,-2.66907 -9.34365,-4.30991 -10.66803,-9.53466c8.31488,-4.96375 13.07237,-13.64234 21.52294,-18.38492c10.4645,-5.87318 20.93722,-11.76264 31.40171,-17.63584c5.37349,-3.01586 10.81926,-6.85295 16.47997,-9.26031c4.87903,-2.07493 10.05597,-2.19724 14.65692,-4.77951c2.85999,-1.60518 5.69775,-3.46595 8.66456,-4.86442c2.9359,-1.38392 6.18703,-1.47183 9.07021,-2.82577c2.9295,-1.37569 5.73217,-3.17991 8.55407,-4.76369c0.38106,-0.21388 2.73673,-1.51165 2.9146,-1.72193c0.30444,-0.35992 0.09833,-0.98559 0.38284,-1.36147c0.62732,-0.82878 1.85106,-0.9505 2.75748,-1.45922c2.02402,-1.13598 5.06229,-2.19556 6.73156,-3.80601c0.71431,-0.68912 1.12983,-1.71071 1.97782,-2.22649c6.80454,-4.13869 13.64557,-8.23042 21.13265,-10.91697c0.84722,-0.3057 2.7016,-1.48117 3.37783,-1.33364c0.38776,0.08458 0.61137,0.63152 1.00825,0.63444c0.87709,0.00644 2.849,-1.42659 3.58481,-1.83956z" data-paper-data="{&quot;noHover&quot;:false,&quot;origItem&quot;:[&quot;Path&quot;,{&quot;applyMatrix&quot;:true,&quot;segments&quot;:[[[230.5,222],[0,0],[-0.84379,0]],[[226.47427,221.85065],[0.76171,0.43489],[-0.34467,-0.19679]],[[225.9059,220.80439],[0.29675,0.26355],[-0.5175,-0.45961]],[[222.30839,220.31519],[0.88843,0.14807],[-7.84393,-1.32165]],[[198.54346,219.49905],[7.95946,-0.27875],[-0.99192,0.03474]],[[195.72975,220.47324],[0.96018,-0.25134],[-2.24388,0.58738]],[[188,220.49999],[2.32101,0],[-1.03942,0]],[[184.88268,220.42387],[0.95268,-0.41569],[-0.43206,0.18853]],[[183.88268,221.42387],[0.44164,-0.16486],[-0.25802,0.09632]],[[180.5,221.49999],[0.43698,0],[-3.23597,0]],[[170.71484,221.47032],[3.22796,0.23413],[-3.1769,-0.23043]],[[161.42911,219.49748],[3.23757,0.23009],[-3.27164,-0.23251]],[[151.5,219.5],[3.27966,0],[-5.27607,0]],[[136.39088,216.49403],[5.27026,0.57853],[-6.11461,-0.67121]],[[117.5,216.5],[6.16196,0],[-12,0]],[[81.5,216.5],[12,0],[-9.69043,-0.00025]],[[53.73979,221.99005],[9.68034,-0.25903],[-1.40225,5.20439]],[[58.37844,235.52215],[-2.22438,-4.30915],[0.86191,1.66971]],[[59.93936,240.65707],[-0.67293,-1.68895],[1.40693,3.53122]],[[66.13868,250.17369],[-2.18795,-3.06312],[2.94063,4.11688]],[[74.52655,262.79002],[-2.6397,-4.31363],[-0.07422,-2.7641]],[[76.52447,254.28008],[-0.55184,2.51565],[0.02956,-0.13474]],[[77.35361,250.73697],[-0.37115,0.18914],[0.81637,-0.41602]],[[80.10218,250.70164],[-0.76497,-0.50435],[0.97008,0.6396]],[[82.10983,256.99441],[-0.33361,-1.1681],[1.38824,4.86071]],[[86.89783,271.21766],[-2.63096,-4.40472],[3.60808,8.40977]],[[98.67831,296.23362],[-4.72602,-7.73645],[2.01462,3.29791]],[[104.15116,306.44215],[-2.17169,-3.1872],[0.6133,0.90471]],[[105.8605,309.24034],[-0.54034,-0.95009],[0.60997,1.07253]],[[108.1045,312.18414],[-0.71481,-1.0057],[0.23911,0.33643]],[[108.54003,313.34325],[-0.41205,0.02389],[0.39735,-0.02303]],[[108.30529,312.1725],[-0.00607,0.39797],[0.02029,-1.33069]],[[108.88423,308.22217],[-0.24645,1.30782],[0.51668,-2.74189]],[[111.03349,300.24333],[-0.66933,2.68419],[0.15313,-0.6141]],[[112.97067,296.50043],[-1.52666,-0.14673],[0.91847,0.08828]],[[114.87264,298.51164],[-0.53532,-0.75154],[1.67961,2.35805]],[[118.73796,306.90693],[-1.20654,-2.65439],[2.12137,4.66701]],[[124.82999,320.94225],[-2.97482,-4.29371],[4.77686,6.89468]],[[139.76723,341.35865],[-5.23869,-6.56439],[1.1626,1.32833]],[[143.29399,345.39209],[-1.05525,-1.41612],[0.41136,0.55205]],[[144.44143,347.1094],[-0.37661,-0.57632],[0.29639,0.45357]],[[145.20443,348.54467],[-0.21915,0.49552],[1.09605,-2.47818]],[[148.52908,340.77128],[-1.3095,2.37133],[1.14142,-2.06698]],[[152.0204,334.79894],[-0.55548,2.43535],[0.2245,-0.98428]],[[152.02673,331.77025],[-0.19436,0.99068],[0.42995,-2.19158]],[[153.85105,324.99428],[-0.5539,2.21993],[0.34499,-4.69441]],[[156.77385,311.89567],[-1.12988,4.42554],[0.20038,-0.78483]],[[158.77023,306.52676],[-1.34422,0.12876],[0.99471,-0.09528]],[[161.19502,308.28946],[-0.70816,-0.70501],[1.82896,1.82081]],[[164.82269,314.93153],[-1.46047,-1.97711],[1.04824,1.41905]],[[167.53104,317.46039],[-0.82169,-0.80321],[0.4819,-2.02936]],[[171.25847,311.12558],[-0.81201,1.35333],[1.8603,-3.10049]],[[176.64934,301.47429],[-1.9524,2.95634],[1.04197,-1.57774]],[[180.21199,297.27402],[-1.02644,1.64646],[1.9641,-3.1505]],[[185.83843,287.89236],[-2.24084,2.98113],[1.53361,-3.45124]],[[189.52454,277.28152],[-1.42546,3.45722],[0.32718,-0.79354]],[[190.76884,275.0271],[-0.85193,0.10473],[1.00699,-0.12379]],[[193.22348,276.8268],[-0.6895,-0.74427],[1.90398,2.05521]],[[198.15917,285.20353],[-1.5992,-2.41937],[0.58895,0.89099]],[[199.82775,287.93894],[-0.60918,-0.87729],[0.36326,0.52313]],[[200.97436,289.46729],[-0.30621,-0.55843],[0.08555,0.15602]],[[200.95842,290.00088],[-0.09569,0.15002],[0.93536,-1.4664]],[[203.79998,285.60002],[-1.08249,1.44332],[3.78385,-5.04512]],[[214.17013,269.94203],[-3.52035,5.21054],[3.82127,-5.65593]],[[226.68998,253.91243],[-3.53838,5.92092],[1.36619,-2.28231]],[[230.10032,247.06345],[-1.15945,2.35889],[1.31612,-2.67764]],[[234.51441,238.83077],[-0.54699,3.01851],[0.53225,-2.93718]],[[236.52674,229.77027],[-0.74402,2.96312],[0.65856,-2.62281]],[[238.4996,222.07987],[-0.02573,2.63058],[-2.58836,0.35693]],[[230.49999,222.00003],[2.39907,0],[0,0]]],&quot;closed&quot;:true,&quot;fillColor&quot;:[0,0,0],&quot;strokeWidth&quot;:0.5}]}" fill="#4c2915"/><path d="M348.9742,198.38982c9.46321,-2.11412 18.10935,-7.76665 26.52932,-12.54883l0.07869,0.13663c4.20494,3.90351 6.9861,9.52314 5.32987,15.31504c0.11156,0.89538 -0.18265,2.70071 -0.16172,4.12122c-0.39663,-0.72432 -0.78252,-1.15844 -1.62221,-1.8168c-1.83623,-1.43965 -3.32807,-2.58481 -5.03222,-4.29139c-1.08073,-1.08228 -3.17021,-3.84586 -4.98236,-1.94532c-0.59531,0.62434 -0.3085,1.63101 -0.48419,2.47559c-0.60574,2.91183 -0.87722,6.0381 -0.55039,8.99664c-2.81035,-0.10643 -6.49221,-2.04905 -8.99739,-3.32586c-0.71477,-0.3643 -2.76256,-1.47588 -3.32461,-1.28769c-2.1968,0.73559 -1.24909,2.81655 -1.36318,4.30381c-0.29769,3.8805 0.32129,7.76647 1.14895,11.63892c-2.20223,-0.36227 -4.20886,-1.12555 -6.01116,-2.49898c-1.09092,-0.83131 -1.83184,-2.16085 -3.08469,-2.719c-0.7658,-0.34117 -1.7156,-0.80911 -2.40851,-0.33721c-0.85582,0.58288 -0.01938,5.2778 0.07263,6.15442c0.06027,0.57425 0.61365,2.16661 0.22696,1.73782c-2.16067,-2.39583 -6.5353,-7.58124 -9.60787,-4.86396c-1.53306,3.01064 -1.07652,7.9473 -3.69976,10.38273c-0.65822,0.61111 -2.24457,-0.82458 -2.73758,-1.05847c-1.16155,-0.55103 -5.07847,-3.39412 -6.25587,-3.05966c-0.68575,0.19479 -1.31691,2.37305 -1.60598,3.18231c-1.01773,2.84937 -2.34396,6.07097 -4.38907,8.31141c-1.84837,3.33331 -3.58624,7.22856 -6.96691,9.12596c-0.41961,0.23551 -0.25167,-1.00092 -0.54314,-1.38379c-0.2973,-0.39056 -0.67874,-0.70663 -1.00548,-1.07291c-1.45831,-1.6348 -3.46458,-4.86915 -6.24113,-4.21113c-0.71879,0.17033 -2.25682,2.20144 -2.66322,2.67632c-1.87086,2.18602 -3.13179,4.98817 -3.71301,7.82515c-0.79921,-1.54722 -3.11463,-1.9901 -4.6099,-2.44127c-2.18653,-0.65978 -3.97088,-1.50038 -5.88648,-2.61353c-0.68215,-0.3964 -2.76771,-1.48251 -3.68283,-0.79807c-0.6892,0.51546 -0.98278,1.45593 -1.15853,2.29843c-0.10473,0.50215 0.30739,0.97891 0.36156,1.489c0.20553,1.93511 -0.22781,4.16149 -0.30965,6.11908c-0.07675,1.836 -0.25658,2.20807 0.48911,3.84289c0.11329,0.24839 0.7393,0.69946 0.46654,0.71094c-1.07753,0.04534 -2.04007,-0.76309 -3.10422,-0.93831c-4.12556,-0.50163 -8.87582,-0.84337 -12.81724,-2.23472c-1.28384,-0.4532 -2.04924,-1.61172 -3.5883,-1.02365c-1.91758,0.73271 -1.70014,3.42813 -1.77936,4.95566c-0.0303,0.58425 -0.30943,3.5864 -0.25581,3.85955c0.56397,2.87327 3.66668,4.73054 4.30111,7.66363c-4.61884,0.21576 -7.54558,-1.30384 -11.45849,-3.50291c-1.76717,-0.99314 -2.90782,-3.05067 -5.24173,-3.19811c-1.1592,-0.07324 -1.55157,0.88248 -2.22138,1.50096c-2.38102,2.19865 -3.67377,4.5983 -4.84608,7.60145c-0.22998,0.58926 -1.35833,4.61538 -1.9196,4.84325c-0.76283,0.3097 -1.862,-1.72529 -2.14836,-2.00925c-1.6737,-1.65967 -5.99965,-5.67076 -8.1337,-2.68599c-1.15376,1.61368 0.21891,1.69187 0.28309,3.02489c0.19812,4.11484 0.47138,8.31326 0.36106,12.4328c0.14392,0.76873 0.42719,2.14443 0.40742,2.8396c-0.02642,0.9286 -0.12741,1.88862 -0.49472,2.7419c-0.41917,0.97374 -2.19844,-0.21063 -3.19538,-0.57117c-3.13012,-1.13201 -5.64129,-2.56569 -8.477,-4.20755c-0.71485,-0.41389 -1.38767,-1.10023 -2.21355,-1.11631c-1.84831,-0.03598 -2.24781,1.50011 -2.45677,2.85003c-0.50195,3.24283 -1.28713,6.38532 -3.04703,9.34007c-0.05413,0.0503 -0.95557,0.86548 -1.47428,1.35552c0.14208,-0.74659 0.11033,-1.63389 0.11807,-1.72678c0.20602,-2.47539 0.4216,-6.19524 -0.64537,-8.52035c-0.61223,-1.33415 -2.39862,-1.63836 -3.46684,-2.31988c-3.20543,-2.04504 -6.00615,-3.66234 -7.87588,-6.99372c0,0 -0.11927,-0.21257 -0.34481,-0.36889c0.79105,-1.18031 1.49496,-1.42417 2.76191,-2.13526c2.80893,-1.57651 5.62134,-2.41678 8.55483,-3.65875c3.30939,-1.40112 6.08027,-3.60546 8.86081,-5.74381c2.42975,-1.86859 5.65412,-3.16604 8.32648,-4.6659c3.84147,-2.15602 7.4773,-3.60982 11.44662,-5.28461c4.82313,-2.03503 9.47091,-5.31441 14.03995,-7.87877c10.88112,-6.10701 22.55435,-11.67588 32.5885,-19.096c8.66553,-4.8462 17.3144,-10.72746 26.37305,-14.77461c2.09956,-0.93803 4.24104,-1.61463 6.30401,-2.69468c1.13683,-0.60176 2.4161,-0.88682 3.61873,-1.34306c6.28034,-2.38258 11.66096,-7.20558 17.83223,-9.89868c2.32619,-1.01514 4.74132,-1.35684 7.07724,-2.16948c2.23831,-0.77867 3.98497,-2.17782 6.34614,-2.81854z" data-paper-data="{&quot;noHover&quot;:false,&quot;origItem&quot;:[&quot;Path&quot;,{&quot;applyMatrix&quot;:true,&quot;segments&quot;:[[[437.13664,377.59516],[0,0],[-4.74524,-1.19378]],[[423.30982,376.30124],[4.666,0.83294],[-4.8695,-0.86926]],[[408.84368,373.16174],[5.05074,0.50654],[-13.39938,-1.34384]],[[368.05594,372.98066],[13.28566,1.99218],[-2.5441,-0.38148]],[[360.43142,371.78532],[2.57178,0.06328],[-4.6552,-0.13568]],[[346.80294,370.3236],[4.58,0.4192],[-19.76064,-1.80864]],[[286.45762,370.32946],[19.85718,0.0302],[-24.76366,3.11922]],[[211.00002,371.66666],[24.95552,0],[-10.47894,0]],[[178.80294,371.65692],[10.40396,1.17192],[-8.5622,-0.96446]],[[153.66668,369.66666],[8.8103,0],[-6.129,0]],[[134.57772,369.65168],[6.06678,-0.88058],[-6.94266,1.00772]],[[113.50172,370.99318],[7.14336,0.79578],[-6.332,-0.70538]],[[95.00002,369],[6.4422,0],[-2.90572,0]],[[88.09302,370.01958],[2.53502,-1.28422],[0.24034,0.4934]],[[88.33336,371],[0,0],[0,7.6404]],[[95.22438,390.8975],[-3.5887,-6.7044],[1.19594,2.23426]],[[99.00002,398.33334],[0.23818,-2.92614],[-0.41508,5.09962]],[[91.78494,413.81764],[2.78238,-4.1156],[-0.10442,0.15444]],[[89.88862,416.71238],[0.97862,-1.16304],[1.38436,-0.34694]],[[93.5877,415.81088],[-0.14364,0.03474],[5.9617,-3.43062]],[[108.04422,402.49726],[-4.04976,5.16442],[1.68582,-2.14984]],[[115.31876,399.92628],[-3.18838,-1.872],[1.42466,0.83646]],[[118.08658,404.0376],[-0.84162,-1.42162],[3.33858,5.6393]],[[128.75168,419.66408],[-4.3511,-5.03828],[1.38582,1.60468]],[[133.568,423.81892],[-1.68422,1.28798],[1.47586,-1.12864]],[[137.11442,419.5188],[-0.95504,1.5937],[0.71496,-1.19308]],[[139.183,414.1643],[-0.50148,1.48162],[4.2249,-7.07684]],[[150.72272,392.11254],[-3.68234,7.37056],[1.1929,-2.38772]],[[153.38964,386.57],[-3.59184,1.68502],[6.64366,-3.11672]],[[164.94652,399.20718],[-1.29448,-4.53294],[0.22148,0.77556]],[[166.5269,404.82308],[-1.63362,-0.20656],[1.20196,0.152]],[[174.61554,398.25],[-0.97792,0.80262],[4.9843,-4.0902]],[[190.5085,389.72802],[-6.30488,1.50392],[1.77362,-0.42306]],[[196.0515,389.2987],[-1.95006,-1.26242],[3.92618,2.5417]],[[202.0632,399.99614],[-2.10994,-3.46194],[4.67186,7.66554]],[[218.61526,417.2987],[-8.26684,-4.14492],[1.7646,-5.73656]],[[218.4192,399.75376],[-1.82892,5.56326],[0.17388,-0.5289]],[[222.64336,393.26382],[-0.62474,0.98934],[1.63342,-2.58658]],[[230.59884,386.35102],[-4.06164,-0.59914],[3.25988,0.48086]],[[236.05344,391.67342],[-1.7955,-2.04712],[5.51222,6.28474]],[[256.21602,408.07876],[-6.7043,-4.91326],[1.68446,1.34726]],[[260.70548,412.73892],[-1.92368,-0.97568],[0.48696,0.24698]],[[260.4072,411.12828],[-0.04554,0.5441],[0.29974,-3.58116]],[[263.31002,403.93048],[-1.93104,3.12702],[2.05894,-3.33412]],[[269.83768,393.5242],[-1.53574,3.57618],[0.40482,-0.94268]],[[270.6672,390.56034],[-0.67422,0.77326],[1.13122,-1.29734]],[[274.94454,387.6674],[-1.70658,0.22436],[2.266,-0.29792]],[[280.7716,392.73842],[-0.8017,-1.35908],[2.2513,3.81654]],[[288.44134,402.9467],[-3.16766,-3.29104],[2.16622,2.25058]],[[294.02726,411.6994],[0.12064,-3.48078],[3.79072,-4.379]],[[308.07572,401.7534],[-5.40276,1.98128],[1.17364,-0.4304]],[[315.5339,399.7392],[-1.42036,-0.4065],[5.48666,1.57026]],[[322.28476,413.22836],[-0.94318,-4.27872],[0.21132,0.95866]],[[322.98506,416.08894],[-0.13622,-0.9722],[0.13354,0.95308]],[[322.41426,418.9191],[-0.96238,0],[7.75346,0]],[[343.48118,409.8573],[-6.48658,4.00426],[5.7599,-1.90564]],[[359.26862,399.67854],[-4.56416,3.97332],[1.2963,-1.12848]],[[365.3845,395.70396],[-1.3867,-0.33152],[2.38086,0.56918]],[[373.29938,407.17818],[-1.48644,-2.09806],[0.6309,0.89048]],[[376.8403,411.67304],[-1.74618,0.4215],[6.95912,-1.6798]],[[393.45468,397.20336],[-5.6208,3.75014],[8.01866,-1.73154]],[[405.64912,415.10824],[-1.42318,-6.29352],[0.2547,1.12636]],[[406.7566,411.8256],[-0.457,1.06054],[0.69764,-1.61896]],[[412.65346,401.03024],[-2.06318,0.17886],[1.67046,-0.1448]],[[416.7238,403.98572],[-1.00166,-1.34464],[1.63872,2.19984]],[[419.44168,411.75332],[-1.0889,-2.51774],[1.79896,4.1596]],[[427.28194,421.96534],[-3.48626,-2.7875],[2.34708,-7.56404]],[[436.6693,400.55724],[-4.31768,6.47652],[1.6548,-2.4822]],[[443.45958,394.3868],[-4.55142,-0.86746],[1.16448,0.22194]],[[447.9975,399.89056],[-0.89002,-1.33504],[3.1194,4.67912]],[[460.2347,414.48554],[-4.79732,-2.93658],[2.326,-5.47984]],[[470.00056,399.3425],[-3.90674,4.48554],[1.13316,-1.30104]],[[473.46828,395.49984],[-1.6494,0.50618],[5.0209,-1.54084]],[[480.25364,403.77412],[-0.82548,-2.94548],[1.30166,4.64454]],[[484.8291,416.19086],[-1.79332,-4.3083],[0.82006,1.97014]],[[485.68128,420.92466],[0.01724,-1.65152],[1.35398,-2.49798]],[[489.99706,413.89898],[-0.6819,1.67082],[8.55812,-8.4803]],[[495.69256,381.987],[3.51276,10.92412],[0,0]],[[495.68906,381.67184],[0,0],[-19.36622,0.0985]],[[437.13672,377.59512],[18.57404,5.57598],[0,0]]],&quot;closed&quot;:true,&quot;fillColor&quot;:[0,0,0,1]}]}" fill="#1f4d15"/><path d="M590.44792,187.73653c2.38192,0.28636 5.32141,1.08145 7.93387,1.03604c-0.33955,2.6087 -1.90874,4.8768 -2.87566,7.40225c-1.0924,2.85312 -2.19916,5.90609 -3.0782,8.75874c-0.90339,2.93164 -3.73799,5.14838 -5.36433,7.64977c-1.43274,2.20363 -2.57392,4.29285 -4.20278,6.39576c-4.21984,5.45623 -9.87354,9.26902 -14.34261,14.42839c-4.11714,4.75307 -7.80669,9.76256 -12.1657,14.31995c-1.24703,1.30378 -2.24371,2.68995 -3.34743,4.03422c-0.11291,0.13753 0.04898,-0.38767 -0.01733,-0.55279c-0.23737,-0.59099 -0.65806,-1.09031 -0.95627,-1.65306c-0.50011,-0.94373 -0.85224,-1.95772 -1.33061,-2.91263c-1.29898,-2.59296 -2.2562,-6.62969 -3.90125,-8.89748c-0.59572,-0.82125 -1.20765,-2.08025 -2.22222,-2.07755c-0.85834,0.00229 -0.98499,1.33888 -1.40455,2.08769c-1.82794,3.26235 -2.99334,6.86403 -4.92795,10.10754c-2.58066,2.69233 -4.38514,5.76203 -6.71125,8.65555c-1.21563,1.51217 -2.81985,2.30893 -4.04269,3.75101c-2.29133,2.70215 -4.29795,6.09247 -6.51504,8.94873c-0.96775,1.24673 -3.74365,3.89148 -4.46434,5.8488c-0.71995,-0.89556 -1.51696,-1.2995 -2.38831,-2.83353c-1.21403,-2.1373 -1.21005,-5.00162 -2.80861,-7.02773c-0.61894,-0.78449 -1.2001,-2.01456 -2.19908,-2.0387c-1.34998,-0.03261 -2.33687,4.33895 -2.6295,5.09425c-1.65006,4.25903 -3.57086,8.03765 -4.47374,12.65731c-0.81492,2.13794 -1.93466,4.38527 -2.62314,6.50986c-0.31123,0.96039 -0.02777,2.05583 -0.36817,3.00628c-0.8422,2.35163 -2.80282,3.59679 -4.18281,5.51275c-1.58319,2.19806 -2.84748,4.99104 -4.23151,7.32067c-0.27674,0.46581 -0.34668,-1.03047 -0.58682,-1.51617c-0.30513,-0.61716 -0.59266,-1.24493 -0.93517,-1.84214c-0.87867,-1.53196 -2.02742,-2.96857 -3.02316,-4.42618c-4.41767,-7.14277 -8.49168,-14.64593 -12.41141,-22.06152c-2.44102,-4.61811 -2.83582,-9.78718 -4.38493,-14.67404c-0.88106,-2.77943 -1.45537,-6.26621 -2.84151,-8.80789c-0.44178,-0.81007 -0.7481,-2.03011 -1.64947,-2.22738c-1.49823,-0.32791 -2.04983,2.86225 -2.27516,3.45367c-0.98495,2.58511 -2.2488,4.99842 -3.08908,7.65904c-0.4008,1.26905 -0.86885,2.53159 -1.04784,3.85034c-0.05354,0.3944 0.40585,1.26807 0.0086,1.24351c-0.41196,-0.02547 -0.09745,-0.84127 -0.2947,-1.20385c-0.58965,-1.08384 -1.40084,-2.05629 -1.87843,-3.19397c-0.42307,-1.00779 -0.86362,-2.01386 -1.36454,-2.9853c-1.77572,-3.42363 -2.61192,-7.28537 -4.21849,-10.80018c-3.76876,-8.24526 -6.1301,-17.48627 -8.70855,-26.2666c-2.08638,-4.68727 -2.25414,-9.71021 -3.05225,-14.70188c-0.19179,-1.19957 -0.35358,-5.73961 -1.24038,-6.49044c-0.6993,-0.59205 -1.78824,-0.55545 -2.64843,-0.23986c-0.39108,0.14349 -1.1995,3.28651 -1.24494,3.41675c-0.84818,2.4318 -2.83323,5.41433 -3.08948,8.16753c-2.10592,-4.59788 -4.39127,-9.09412 -6.81945,-13.53257c-1.80668,-3.30239 -4.04194,-6.51758 -5.0173,-10.19149c-0.46652,-1.7572 -0.27929,-3.52552 -0.93572,-5.28619c-1.69411,-4.54385 -5.00097,-8.99274 -2.98752,-13.99255c9.64205,0.89833 18.60375,-3.3016 28.22486,-2.14464c11.9142,1.43239 23.84465,2.8565 35.75886,4.28888c6.11791,0.73553 12.77872,0.85066 18.7695,2.24695c5.16352,1.20348 9.41547,4.15926 14.65381,4.78904c3.25621,0.39147 6.64527,0.56346 9.86576,1.18484c3.18695,0.6149 5.86373,2.46217 8.99042,3.07016c3.17693,0.61777 6.50429,0.81471 9.71713,1.20098c0.43386,0.05215 3.10151,0.39426 3.36919,0.32942c0.45817,-0.11097 0.66091,-0.73774 1.11239,-0.87334c0.99549,-0.29901 2.05534,0.32476 3.08733,0.44883c2.30442,0.27705 5.38265,1.21422 7.6806,0.89887c0.98332,-0.13493 1.92157,-0.71458 2.91054,-0.63067c7.93582,0.67333 15.87338,1.40611 23.50347,3.6546c0.8644,0.25307 3.05516,0.39814 3.51409,0.91624c0.26317,0.29708 0.121,0.8706 0.43971,1.10712c0.70435,0.5227 3.14196,0.52918 3.97971,0.62989z" data-paper-data="{&quot;noHover&quot;:false,&quot;origItem&quot;:[&quot;Path&quot;,{&quot;applyMatrix&quot;:true,&quot;segments&quot;:[[[230.5,222],[0,0],[-0.84379,0]],[[226.47427,221.85065],[0.76171,0.43489],[-0.34467,-0.19679]],[[225.9059,220.80439],[0.29675,0.26355],[-0.5175,-0.45961]],[[222.30839,220.31519],[0.88843,0.14807],[-7.84393,-1.32165]],[[198.54346,219.49905],[7.95946,-0.27875],[-0.99192,0.03474]],[[195.72975,220.47324],[0.96018,-0.25134],[-2.24388,0.58738]],[[188,220.49999],[2.32101,0],[-1.03942,0]],[[184.88268,220.42387],[0.95268,-0.41569],[-0.43206,0.18853]],[[183.88268,221.42387],[0.44164,-0.16486],[-0.25802,0.09632]],[[180.5,221.49999],[0.43698,0],[-3.23597,0]],[[170.71484,221.47032],[3.22796,0.23413],[-3.1769,-0.23043]],[[161.42911,219.49748],[3.23757,0.23009],[-3.27164,-0.23251]],[[151.5,219.5],[3.27966,0],[-5.27607,0]],[[136.39088,216.49403],[5.27026,0.57853],[-6.11461,-0.67121]],[[117.5,216.5],[6.16196,0],[-12,0]],[[81.5,216.5],[12,0],[-9.69043,-0.00025]],[[53.73979,221.99005],[9.68034,-0.25903],[-1.40225,5.20439]],[[58.37844,235.52215],[-2.22438,-4.30915],[0.86191,1.66971]],[[59.93936,240.65707],[-0.67293,-1.68895],[1.40693,3.53122]],[[66.13868,250.17369],[-2.18795,-3.06312],[2.94063,4.11688]],[[74.52655,262.79002],[-2.6397,-4.31363],[-0.07422,-2.7641]],[[76.52447,254.28008],[-0.55184,2.51565],[0.02956,-0.13474]],[[77.35361,250.73697],[-0.37115,0.18914],[0.81637,-0.41602]],[[80.10218,250.70164],[-0.76497,-0.50435],[0.97008,0.6396]],[[82.10983,256.99441],[-0.33361,-1.1681],[1.38824,4.86071]],[[86.89783,271.21766],[-2.63096,-4.40472],[3.60808,8.40977]],[[98.67831,296.23362],[-4.72602,-7.73645],[2.01462,3.29791]],[[104.15116,306.44215],[-2.17169,-3.1872],[0.6133,0.90471]],[[105.8605,309.24034],[-0.54034,-0.95009],[0.60997,1.07253]],[[108.1045,312.18414],[-0.71481,-1.0057],[0.23911,0.33643]],[[108.54003,313.34325],[-0.41205,0.02389],[0.39735,-0.02303]],[[108.30529,312.1725],[-0.00607,0.39797],[0.02029,-1.33069]],[[108.88423,308.22217],[-0.24645,1.30782],[0.51668,-2.74189]],[[111.03349,300.24333],[-0.66933,2.68419],[0.15313,-0.6141]],[[112.97067,296.50043],[-1.52666,-0.14673],[0.91847,0.08828]],[[114.87264,298.51164],[-0.53532,-0.75154],[1.67961,2.35805]],[[118.73796,306.90693],[-1.20654,-2.65439],[2.12137,4.66701]],[[124.82999,320.94225],[-2.97482,-4.29371],[4.77686,6.89468]],[[139.76723,341.35865],[-5.23869,-6.56439],[1.1626,1.32833]],[[143.29399,345.39209],[-1.05525,-1.41612],[0.41136,0.55205]],[[144.44143,347.1094],[-0.37661,-0.57632],[0.29639,0.45357]],[[145.20443,348.54467],[-0.21915,0.49552],[1.09605,-2.47818]],[[148.52908,340.77128],[-1.3095,2.37133],[1.14142,-2.06698]],[[152.0204,334.79894],[-0.55548,2.43535],[0.2245,-0.98428]],[[152.02673,331.77025],[-0.19436,0.99068],[0.42995,-2.19158]],[[153.85105,324.99428],[-0.5539,2.21993],[0.34499,-4.69441]],[[156.77385,311.89567],[-1.12988,4.42554],[0.20038,-0.78483]],[[158.77023,306.52676],[-1.34422,0.12876],[0.99471,-0.09528]],[[161.19502,308.28946],[-0.70816,-0.70501],[1.82896,1.82081]],[[164.82269,314.93153],[-1.46047,-1.97711],[1.04824,1.41905]],[[167.53104,317.46039],[-0.82169,-0.80321],[0.4819,-2.02936]],[[171.25847,311.12558],[-0.81201,1.35333],[1.8603,-3.10049]],[[176.64934,301.47429],[-1.9524,2.95634],[1.04197,-1.57774]],[[180.21199,297.27402],[-1.02644,1.64646],[1.9641,-3.1505]],[[185.83843,287.89236],[-2.24084,2.98113],[1.53361,-3.45124]],[[189.52454,277.28152],[-1.42546,3.45722],[0.32718,-0.79354]],[[190.76884,275.0271],[-0.85193,0.10473],[1.00699,-0.12379]],[[193.22348,276.8268],[-0.6895,-0.74427],[1.90398,2.05521]],[[198.15917,285.20353],[-1.5992,-2.41937],[0.58895,0.89099]],[[199.82775,287.93894],[-0.60918,-0.87729],[0.36326,0.52313]],[[200.97436,289.46729],[-0.30621,-0.55843],[0.08555,0.15602]],[[200.95842,290.00088],[-0.09569,0.15002],[0.93536,-1.4664]],[[203.79998,285.60002],[-1.08249,1.44332],[3.78385,-5.04512]],[[214.17013,269.94203],[-3.52035,5.21054],[3.82127,-5.65593]],[[226.68998,253.91243],[-3.53838,5.92092],[1.36619,-2.28231]],[[230.10032,247.06345],[-1.15945,2.35889],[1.31612,-2.67764]],[[234.51441,238.83077],[-0.54699,3.01851],[0.53225,-2.93718]],[[236.52674,229.77027],[-0.74402,2.96312],[0.65856,-2.62281]],[[238.4996,222.07987],[-0.02573,2.63058],[-2.58836,0.35693]],[[230.49999,222.00003],[2.39907,0],[0,0]]],&quot;closed&quot;:true,&quot;fillColor&quot;:[0,0,0],&quot;strokeWidth&quot;:0.5}]}" fill="#4c2915"/><path d="M579.58685,178.19198c8.88784,3.87662 19.20374,4.41429 28.8235,5.52122l-0.01708,0.15674c1.09184,5.63266 0.02158,11.81082 -4.733,15.50989c-0.43823,0.78874 -1.74096,2.07275 -2.56219,3.232c0.10713,-0.81883 0.05172,-1.39701 -0.23779,-2.424c-0.63312,-2.24577 -1.16193,-4.05058 -1.53091,-6.43394c-0.23399,-1.51148 -0.29043,-4.97559 -2.87489,-4.51034c-0.84902,0.15284 -1.21141,1.13483 -1.85159,1.71307c-2.20712,1.99357 -4.27088,4.35749 -5.75261,6.93901c-2.20624,-1.7441 -4.03272,-5.48493 -5.30201,-7.99393c-0.36215,-0.71586 -1.35965,-2.82158 -1.92448,-3.00126c-2.20767,-0.70226 -2.67033,1.53705 -3.63997,2.67052c-2.52995,2.95741 -4.32301,6.4601 -5.93961,10.075c-1.5643,-1.59186 -2.73407,-3.39209 -3.37886,-5.56438c-0.3903,-1.31486 -0.20404,-2.82547 -0.88625,-4.01532c-0.41699,-0.7273 -0.90775,-1.66551 -1.74564,-1.69334c-1.03489,-0.03435 -3.12968,4.24979 -3.57262,5.01184c-0.29016,0.4992 -0.7829,2.11135 -0.84212,1.537c-0.33089,-3.20921 -0.80338,-9.97697 -4.88739,-9.59597c-3.01412,1.52621 -5.55827,5.78136 -9.1132,6.19991c-0.89201,0.10503 -1.32571,-1.9901 -1.58576,-2.46983c-0.6127,-1.13024 -2.09766,-5.73679 -3.24562,-6.16145c-0.6686,-0.24734 -2.46341,1.13895 -3.17429,1.62179c-2.5029,1.70005 -5.4745,3.51861 -8.44761,4.12085c-3.45909,1.60068 -7.16051,3.72026 -11.00952,3.25751c-0.47775,-0.05744 0.38737,-0.95662 0.37795,-1.43772c-0.0096,-0.49075 -0.13108,-0.97099 -0.17877,-1.45951c-0.21285,-2.18035 0.07567,-5.97547 -2.55432,-7.08243c-0.68084,-0.28658 -3.12103,0.44583 -3.72933,0.58945c-2.80031,0.66111 -5.47171,2.17954 -7.61487,4.12714c0.26763,-1.72075 -1.3405,-3.44449 -2.28156,-4.69101c-1.37609,-1.8228 -2.32077,-3.5543 -3.21061,-5.58329c-0.31687,-0.72253 -1.35989,-2.82998 -2.50258,-2.81731c-0.86058,0.00952 -1.65251,0.59563 -2.29151,1.17215c-0.38084,0.34363 -0.3294,0.97172 -0.58663,1.41552c-0.97581,1.68365 -2.63931,3.22551 -3.86041,4.75776c-1.14525,1.43708 -1.50997,1.63138 -1.8725,3.39128c-0.05509,0.26739 0.1842,1.00094 -0.0428,0.84927c-0.89674,-0.59916 -1.19688,-1.8198 -1.95267,-2.58914c-3.03494,-2.83919 -6.66859,-5.91788 -9.02991,-9.36677c-0.76915,-1.1234 -0.70357,-2.51038 -2.29316,-2.94366c-1.98055,-0.53984 -3.39535,1.76469 -4.36059,2.95125c-0.36919,0.45384 -2.36589,2.71304 -2.48377,2.96521c-1.23996,2.65259 0.16929,5.9828 -1.04908,8.72526c-3.85649,-2.55103 -5.32288,-5.50478 -7.18461,-9.58899c-0.84081,-1.84452 -0.54776,-4.17875 -2.34513,-5.67485c-0.89271,-0.74309 -1.77339,-0.20297 -2.67912,-0.09882c-3.21966,0.3703 -5.67925,1.54498 -8.3977,3.27799c-0.53337,0.34007 -3.81988,2.92494 -4.40749,2.77775c-0.79863,-0.20004 -0.48539,-2.4916 -0.54904,-2.88982c-0.37207,-2.32752 -1.49814,-8.11843 -4.98223,-6.96772c-1.88364,0.62211 -0.8215,1.49516 -1.55619,2.60928c-2.2679,3.43916 -4.52444,6.99013 -7.04415,10.25109c-0.33737,0.70558 -0.92036,1.98343 -1.34649,2.53304c-0.56923,0.73415 -1.2172,1.44967 -2.01722,1.92187c-0.91296,0.53886 -1.65071,-1.46719 -2.2429,-2.34651c-1.8593,-2.76082 -3.04087,-5.4 -4.36165,-8.39876c-0.33295,-0.75595 -0.47122,-1.70707 -1.12854,-2.20734c-1.47107,-1.1196 -2.69996,-0.1151 -3.66515,0.85152c-2.31862,2.32205 -4.8067,4.39598 -7.971,5.74321c-0.07338,0.00868 -1.28217,0.13497 -1.9901,0.22457c0.55522,-0.51896 1.05311,-1.25408 1.11417,-1.32451c1.62688,-1.87703 3.99574,-4.75319 4.50616,-7.25999c0.29288,-1.4384 -0.96993,-2.73804 -1.43029,-3.91856c-1.38139,-3.54242 -2.68841,-6.5007 -2.2324,-10.29359c0,0 0.02913,-0.24199 -0.06074,-0.50128c1.3351,-0.48622 2.04731,-0.26779 3.48978,-0.09438c3.19807,0.38449 5.96454,1.36546 9.0658,2.09355c3.49865,0.82138 7.03643,0.67652 10.54307,0.59063c3.06425,-0.07506 6.43309,0.77986 9.47567,1.14565c4.37365,0.52583 8.16694,1.49728 12.35988,2.48707c5.09485,1.20271 10.7823,1.2973 15.98431,1.92272c12.38855,1.48942 25.09911,3.8807 37.57858,3.8102c9.8558,1.20012 20.30885,1.55474 30.01059,3.63196c2.24861,0.48144 4.37683,1.19869 6.67969,1.54388c1.27291,0.18491 2.47396,0.70956 3.71415,1.05078c6.47643,1.7819 13.66636,1.06258 20.23794,2.52942c2.47708,0.5529 4.62864,1.702 6.9941,2.42414c2.26661,0.69197 4.50237,0.59289 6.78679,1.46873z" data-paper-data="{&quot;noHover&quot;:false,&quot;origItem&quot;:[&quot;Path&quot;,{&quot;applyMatrix&quot;:true,&quot;segments&quot;:[[[437.13664,377.59516],[0,0],[-4.74524,-1.19378]],[[423.30982,376.30124],[4.666,0.83294],[-4.8695,-0.86926]],[[408.84368,373.16174],[5.05074,0.50654],[-13.39938,-1.34384]],[[368.05594,372.98066],[13.28566,1.99218],[-2.5441,-0.38148]],[[360.43142,371.78532],[2.57178,0.06328],[-4.6552,-0.13568]],[[346.80294,370.3236],[4.58,0.4192],[-19.76064,-1.80864]],[[286.45762,370.32946],[19.85718,0.0302],[-24.76366,3.11922]],[[211.00002,371.66666],[24.95552,0],[-10.47894,0]],[[178.80294,371.65692],[10.40396,1.17192],[-8.5622,-0.96446]],[[153.66668,369.66666],[8.8103,0],[-6.129,0]],[[134.57772,369.65168],[6.06678,-0.88058],[-6.94266,1.00772]],[[113.50172,370.99318],[7.14336,0.79578],[-6.332,-0.70538]],[[95.00002,369],[6.4422,0],[-2.90572,0]],[[88.09302,370.01958],[2.53502,-1.28422],[0.24034,0.4934]],[[88.33336,371],[0,0],[0,7.6404]],[[95.22438,390.8975],[-3.5887,-6.7044],[1.19594,2.23426]],[[99.00002,398.33334],[0.23818,-2.92614],[-0.41508,5.09962]],[[91.78494,413.81764],[2.78238,-4.1156],[-0.10442,0.15444]],[[89.88862,416.71238],[0.97862,-1.16304],[1.38436,-0.34694]],[[93.5877,415.81088],[-0.14364,0.03474],[5.9617,-3.43062]],[[108.04422,402.49726],[-4.04976,5.16442],[1.68582,-2.14984]],[[115.31876,399.92628],[-3.18838,-1.872],[1.42466,0.83646]],[[118.08658,404.0376],[-0.84162,-1.42162],[3.33858,5.6393]],[[128.75168,419.66408],[-4.3511,-5.03828],[1.38582,1.60468]],[[133.568,423.81892],[-1.68422,1.28798],[1.47586,-1.12864]],[[137.11442,419.5188],[-0.95504,1.5937],[0.71496,-1.19308]],[[139.183,414.1643],[-0.50148,1.48162],[4.2249,-7.07684]],[[150.72272,392.11254],[-3.68234,7.37056],[1.1929,-2.38772]],[[153.38964,386.57],[-3.59184,1.68502],[6.64366,-3.11672]],[[164.94652,399.20718],[-1.29448,-4.53294],[0.22148,0.77556]],[[166.5269,404.82308],[-1.63362,-0.20656],[1.20196,0.152]],[[174.61554,398.25],[-0.97792,0.80262],[4.9843,-4.0902]],[[190.5085,389.72802],[-6.30488,1.50392],[1.77362,-0.42306]],[[196.0515,389.2987],[-1.95006,-1.26242],[3.92618,2.5417]],[[202.0632,399.99614],[-2.10994,-3.46194],[4.67186,7.66554]],[[218.61526,417.2987],[-8.26684,-4.14492],[1.7646,-5.73656]],[[218.4192,399.75376],[-1.82892,5.56326],[0.17388,-0.5289]],[[222.64336,393.26382],[-0.62474,0.98934],[1.63342,-2.58658]],[[230.59884,386.35102],[-4.06164,-0.59914],[3.25988,0.48086]],[[236.05344,391.67342],[-1.7955,-2.04712],[5.51222,6.28474]],[[256.21602,408.07876],[-6.7043,-4.91326],[1.68446,1.34726]],[[260.70548,412.73892],[-1.92368,-0.97568],[0.48696,0.24698]],[[260.4072,411.12828],[-0.04554,0.5441],[0.29974,-3.58116]],[[263.31002,403.93048],[-1.93104,3.12702],[2.05894,-3.33412]],[[269.83768,393.5242],[-1.53574,3.57618],[0.40482,-0.94268]],[[270.6672,390.56034],[-0.67422,0.77326],[1.13122,-1.29734]],[[274.94454,387.6674],[-1.70658,0.22436],[2.266,-0.29792]],[[280.7716,392.73842],[-0.8017,-1.35908],[2.2513,3.81654]],[[288.44134,402.9467],[-3.16766,-3.29104],[2.16622,2.25058]],[[294.02726,411.6994],[0.12064,-3.48078],[3.79072,-4.379]],[[308.07572,401.7534],[-5.40276,1.98128],[1.17364,-0.4304]],[[315.5339,399.7392],[-1.42036,-0.4065],[5.48666,1.57026]],[[322.28476,413.22836],[-0.94318,-4.27872],[0.21132,0.95866]],[[322.98506,416.08894],[-0.13622,-0.9722],[0.13354,0.95308]],[[322.41426,418.9191],[-0.96238,0],[7.75346,0]],[[343.48118,409.8573],[-6.48658,4.00426],[5.7599,-1.90564]],[[359.26862,399.67854],[-4.56416,3.97332],[1.2963,-1.12848]],[[365.3845,395.70396],[-1.3867,-0.33152],[2.38086,0.56918]],[[373.29938,407.17818],[-1.48644,-2.09806],[0.6309,0.89048]],[[376.8403,411.67304],[-1.74618,0.4215],[6.95912,-1.6798]],[[393.45468,397.20336],[-5.6208,3.75014],[8.01866,-1.73154]],[[405.64912,415.10824],[-1.42318,-6.29352],[0.2547,1.12636]],[[406.7566,411.8256],[-0.457,1.06054],[0.69764,-1.61896]],[[412.65346,401.03024],[-2.06318,0.17886],[1.67046,-0.1448]],[[416.7238,403.98572],[-1.00166,-1.34464],[1.63872,2.19984]],[[419.44168,411.75332],[-1.0889,-2.51774],[1.79896,4.1596]],[[427.28194,421.96534],[-3.48626,-2.7875],[2.34708,-7.56404]],[[436.6693,400.55724],[-4.31768,6.47652],[1.6548,-2.4822]],[[443.45958,394.3868],[-4.55142,-0.86746],[1.16448,0.22194]],[[447.9975,399.89056],[-0.89002,-1.33504],[3.1194,4.67912]],[[460.2347,414.48554],[-4.79732,-2.93658],[2.326,-5.47984]],[[470.00056,399.3425],[-3.90674,4.48554],[1.13316,-1.30104]],[[473.46828,395.49984],[-1.6494,0.50618],[5.0209,-1.54084]],[[480.25364,403.77412],[-0.82548,-2.94548],[1.30166,4.64454]],[[484.8291,416.19086],[-1.79332,-4.3083],[0.82006,1.97014]],[[485.68128,420.92466],[0.01724,-1.65152],[1.35398,-2.49798]],[[489.99706,413.89898],[-0.6819,1.67082],[8.55812,-8.4803]],[[495.69256,381.987],[3.51276,10.92412],[0,0]],[[495.68906,381.67184],[0,0],[-19.36622,0.0985]],[[437.13672,377.59512],[18.57404,5.57598],[0,0]]],&quot;closed&quot;:true,&quot;fillColor&quot;:[0,0,0,1]}]}" fill="#1f4d15"/></g></g></svg>