<svg version="1.1" xmlns="http://www.w3.org/2000/svg" xmlns:xlink="http://www.w3.org/1999/xlink" width="22.30504" height="52.06524" viewBox="0,0,22.30504,52.06524"><defs><radialGradient cx="320.25" cy="199.85" r="12.85" gradientUnits="userSpaceOnUse" id="color-1"><stop offset="0" stop-color="#ff9600"/><stop offset="1" stop-color="#ffee00"/></radialGradient></defs><g transform="translate(-308.64023,-160.63476)"><g data-paper-data="{&quot;isPaintingLayer&quot;:true}" fill-rule="nonzero" stroke-linejoin="miter" stroke-miterlimit="10" stroke-dasharray="" stroke-dashoffset="0" style="mix-blend-mode: normal"><path d="M327.25,199.85c0,7.09686 -3.13401,12.85 -7,12.85c-3.86599,0 -7,-5.75314 -7,-12.85c0,-7.09686 3.13401,-12.85 7,-12.85c3.86599,0 7,5.75314 7,12.85z" fill="url(#color-1)" stroke="none" stroke-width="0" stroke-linecap="butt"/><path d="M328.90221,194.60652v0z" data-paper-data="{&quot;index&quot;:null}" fill="#008204" stroke="#000000" stroke-width="1.5" stroke-linecap="butt"/><path d="M322.19025,182.1294l7.76862,4.88719l0.21598,14.55526l-7.57436,-4.7618z" data-paper-data="{&quot;index&quot;:null}" fill="#4c7dff" stroke="#000000" stroke-width="1.5" stroke-linecap="round"/><path d="M308.64023,194.90718z" fill="#008204" stroke="#000000" stroke-width="1.5" stroke-linecap="butt"/><path d="M317.47087,196.88615l-7.42973,4.98446l-0.21598,-14.55526l7.6202,-5.11553z" fill="#ffffff" stroke="#000000" stroke-width="1.5" stroke-linecap="round"/><path d="M319.58331,172.00026c4.74137,-0.20487 8.83228,5.35151 9.13728,12.4105c0.305,7.059 -3.29139,12.94751 -8.03277,13.15238c-4.74137,0.20487 -8.83228,-5.35151 -9.13728,-12.4105c-0.305,-7.059 3.29139,-12.94751 8.03277,-13.15238z" fill="#828282" stroke="#000000" stroke-width="1.5" stroke-linecap="butt"/><path d="M312.83248,177.68364l7.28005,-15.27012l6.47783,14.29055" fill="#828282" stroke="#000000" stroke-width="1.5" stroke-linecap="round"/><path d="M328.31468,186.59508l-16.52787,0.23787l-0.07161,-4.68077l16.52787,-0.23787z" fill="#ff0000" stroke="#000000" stroke-width="1.5" stroke-linecap="butt"/></g></g></svg>