<svg version="1.1" xmlns="http://www.w3.org/2000/svg" xmlns:xlink="http://www.w3.org/1999/xlink" width="78.04397" height="123.54291" viewBox="0,0,78.04397,123.54291"><g transform="translate(-200.60293,-138.4342)"><g data-paper-data="{&quot;isPaintingLayer&quot;:true}" fill-rule="nonzero" stroke-linecap="round" stroke-linejoin="miter" stroke-miterlimit="10" stroke-dasharray="" stroke-dashoffset="0" style="mix-blend-mode: normal"><path d="M241.1352,232.1083c-1.7547,-2.0235 -3.2125,-4.2716 -4.5811,-6.5858c-1.913,-3.1218 -5.3166,-5.7405 -5.6734,-9.4354c0.0028,-1.5707 3.4001,-1.0347 4.5617,-1.3244c1.3821,-0.3323 2.7863,-0.6801 4.1908,-0.8295c1.8577,-0.1134 2.9896,-1.3352 3.6717,-0.7943c2.1403,1.5103 2.4011,4.0963 3.2784,5.7762c2.3741,5.3503 5.6735,10.2962 7.9794,15.6799c0.5763,1.3461 -1.2145,0.5828 -1.7095,1.0677c-1.0852,1.0795 -1.7458,2.2802 -3.0889,3.4134c-0.506,0.4398 -0.8166,1.8046 -1.5518,1.2617c-2.9157,-2.1596 -4.9381,-5.3097 -7.0773,-8.2295z" id="ID0.8758031786419451" fill="#bfbfbf" stroke="#000000" stroke-width="2"/><path d="M248.6696,238.8771c1.9082,-0.1985 3.0348,-1.9961 4.7697,-3.3004c0.8019,-0.5955 0.9631,-1.5258 2.4816,-1.6857c1.0226,-0.0394 1.8208,1.077 2.5129,1.9197c1.1079,1.3267 1.8024,3.0129 2.95,4.3429c2.4183,2.9728 5.8421,5.6942 7.595,9.0453c0.4679,0.9238 -0.9292,1.1752 -1.4414,1.7044c-1.7374,1.7883 -3.1612,3.9438 -4.9148,5.7563c-1.1614,1.0114 -3.724,4.5159 -5.8981,4.3087c-0.8971,-2.1215 0.8239,-6.8241 -0.5098,-9.2039c-1.192,-2.2959 -2.9533,-4.3442 -4.8378,-6.1432c-3.2649,-3.1158 -9.4683,-7.1031 -10.2561,-8.8697c-0.4031,-1.1986 5.0401,2.4491 7.5488,2.1256z" id="ID0.8758031786419451" fill="#6a00c0" stroke="#000000" stroke-width="2"/><path d="M265.8485,228.4925c0.4224,0.8213 -1.0334,0.8375 -1.5744,1.2334c-1.4029,1.0583 -2.7202,1.4361 -4.0135,2.2548c-0.5826,0.3752 -0.2355,2.2907 -1.4202,1.4302c-4.7383,-3.4425 -8.725,-7.8879 -13.5197,-11.2582c-1.5411,-1.2813 -4.5434,-1.7101 -5.8178,-4.5887c-0.2632,-0.6538 1.8686,-1.333 2.5013,-3.2933c0.5131,-1.3039 1.1078,-2.6285 1.7384,-3.9025c0.54,-1.0683 0.817,-4.6033 2.3031,-4.1543c3.349,1.2865 4.5848,5.345 6.9869,7.8649c1.974,2.0041 3.8212,3.9907 5.5207,6.1552c2.5659,2.6431 5.6137,5.0077 7.2952,8.2585z" id="ID0.8758031786419451" fill="#bfbfbf" stroke="#000000" stroke-width="2"/><path d="M203.7018,189.9235c-0.7996,-2.3805 -1.3189,-4.907 -1.4062,-7.4093c-0.1191,-3.5241 -0.7383,-7.0847 0.7048,-10.0234c0.5842,-1.4947 2.8899,-1.0538 4.3208,-0.9664c1.4158,0.0934 2.8927,0.3424 4.1563,0.9876c2.6821,1.362 5.6944,3.0009 6.8526,5.5053c0.4905,1.1258 -2.6982,0.4749 -2.6024,1.9151c-0.7934,5.856 0.8799,11.7228 0.7391,17.5779c-0.0354,1.4638 -1.3468,0.0251 -1.9986,0.2604c-1.4358,0.5306 -2.5357,1.3481 -4.2283,1.8205c-0.643,0.1896 -1.3957,1.2982 -1.9359,0.5023c-2.0701,-3.0642 -3.4239,-6.6646 -4.6022,-10.17z" id="ID0.8758031786419451" fill="#bfbfbf" stroke="#000000" stroke-width="2"/><path d="M267.0062,186.3275c-0.1035,0.9562 -1.2884,0.3306 -1.9452,0.4651c-1.7162,0.3774 -3.0712,0.1718 -4.588,0.3772c-0.686,0.0982 -1.1687,1.9841 -1.8871,0.7082c-2.8726,-5.1039 -4.1488,-11.0697 -7.5982,-15.8681c-0.5914,-1.3165 -3.1015,0.7549 -3.1968,-0.4695c-0.1529,-2.7549 1.7377,-5.616 3.4667,-8.0775c0.8128,-1.1629 2.1023,-1.9278 3.2064,-2.823c0.9361,-0.7462 2.3088,-3.395 3.8249,-2.8167c2.7389,2.6785 3.9168,6.7492 5.7711,10.1615c1.1783,2.1757 1.8248,4.7252 2.2362,7.2025c0.6049,3.6483 1.0995,7.4629 0.71,11.1403z" id="ID0.8758031786419451" fill="#bfbfbf" stroke="#000000" stroke-width="2"/><path d="M228.1588,156.7803c3.2265,-0.8239 6.5485,-1.1614 9.8233,-0.9028c3.5011,0.2774 9.4613,-0.9497 10.6699,2.4932c3.149,8.9944 -0.0262,18.9913 0.6477,28.4377c0.3425,4.9007 1.5415,9.7394 2.8399,14.4935c1.2051,4.3589 3.9972,9.2838 4.2961,13.0998c0.1523,1.0947 -1.9125,-2.7315 -3.3932,-3.2765c-0.7852,-0.2557 -1.5587,0.4699 -2.3653,0.8473c-2.4123,1.1259 -4.2787,3.0525 -7.0362,3.8151c-2.7351,0.7488 -5.7142,-0.2626 -8.4888,0.0549c-0.9827,-0.0766 -2.0019,0.0394 -2.6683,0.6652c-0.9463,0.9129 -1.0892,4.197 -1.2755,3.1521c-1.2352,-3.6239 -0.5473,-8.3022 -1.568,-12.4917c-1.2836,-5.2113 -3.3059,-9.3551 -5.8106,-15.0412c-3.7961,-8.6176 -10.5728,-14.0849 -12.0488,-25.5957c-0.4212,-3.232 4.9561,-4.0644 7.5832,-5.755c2.8559,-1.5746 5.678,-3.1942 8.7946,-3.9959z" id="ID0.733084324747324" fill="#6a00c0" stroke="#000000" stroke-width="2"/><path d="M260.9605,200.1905c-1.9571,-5.2601 -4.7948,-10.354 -5.9469,-15.7411c-0.289,-1.3468 1.3294,-0.7162 2.3343,-0.9971c1.3706,-0.3786 2.7571,-0.7879 4.1724,-0.9174c2.0314,-0.184 4.6353,1.3993 6.4802,0.1408c1.541,-1.2551 0.9234,-6.8098 1.5976,-6.077c0.514,0.6026 -0.1594,6.3005 0.7235,9.3534c1.795,6.2252 5.3032,12.2885 7.3253,18.8338c0.3551,1.4416 -1.4162,0.0265 -1.8474,-0.3997c-1.5985,-1.584 -1.7383,-4.7008 -3.5724,-5.7557c-2.7944,-1.0768 -6.1094,-1.1505 -8.6995,0.103c-1.182,0.6056 1.1808,3.3129 0.6378,4.7703c-0.3063,0.622 -1.8116,0.2297 -2.358,-0.2287c-0.7309,-0.8381 -0.3637,-1.7871 -0.8469,-3.0846z" id="ID0.8758031786419451" fill="#b600bf" stroke="#000000" stroke-width="2"/><path d="M221.0102,214.1383c-0.2673,0.6612 -1.4123,1.7141 -1.9748,1.3088c-1.1635,-1.0321 -0.348,-4.5317 -1.6759,-4.5116c-2.8754,0.109 -5.768,1.7301 -7.73,3.9925c-1.1243,1.7924 0.2153,4.6101 -0.4527,6.7591c-0.1807,0.5788 -1.0804,2.6597 -1.4436,1.22c-1.2868,-6.7285 -1.0352,-13.7291 -2.3723,-20.0684c-0.6534,-3.1101 -3.9225,-7.8253 -3.7515,-8.5986c0.2514,-0.9635 2.3134,4.2311 4.2632,4.616c2.2197,0.2454 3.7757,-2.375 5.6558,-3.166c1.3106,-0.55 2.727,-0.8394 4.1149,-1.1484c1.0192,-0.2236 2.1522,-1.5402 2.5291,-0.2152c1.5114,5.2975 1.3968,11.1273 2.1377,16.6905c0.1823,1.3726 0.952,2.0381 0.7001,3.1213z" id="ID0.8758031786419451" fill="#b600bf" stroke="#000000" stroke-width="2"/><path d="M212.7188,164.2825c1.5839,-3.1017 -0.0991,-10.6784 0.0226,-10.5475c1.6377,-0.0515 3.8854,7.0295 5.0376,10.6886c0.5256,1.5378 1.1699,2.6569 1.6788,4.6848c0.5911,2.2517 1.8321,4.6559 1.5339,6.8235c-0.2972,2.1669 -1.3796,4.0553 -3.1772,5.1486c-1.7977,1.0933 -3.9723,1.1857 -6.0331,0.4529c-2.0617,-0.7323 -3.5272,-3.0784 -5.3532,-4.5007c-1.6144,-1.3555 -3.2925,-0.8393 -4.6194,-1.7259c-0.8003,-0.7539 -1.9166,-1.3905 -1.5294,-1.9374c1.119,-2.0897 3.6114,-2.9068 5.0934,-4.3266c1.1477,-1.0901 1.0363,-3.2977 2.462,-4.1308c1.3159,-0.9443 4.0793,0.9109 4.884,-0.6295z" id="ID0.8758031786419451" fill="#6a00c0" stroke="#000000" stroke-width="2"/><path d="M251.0704,154.4014c1.6499,0.0664 2.5878,2.068 4.1129,2.4918c1.975,0.5581 4.5592,0.1096 6.5283,1.4296c0.5986,0.3011 -0.0883,1.3872 -0.4411,2.4286c-0.7555,1.4057 -2.4795,1.7376 -3.2688,3.6923c-0.9447,2.1129 -1.1374,4.8724 -2.6142,6.4868c-1.4757,1.6144 -3.4393,2.5535 -5.5398,2.4319c-2.1005,-0.1215 -3.9425,-1.2809 -5.2222,-3.0548c-1.2806,-1.774 -1.3133,-4.4794 -1.8483,-6.7451c-0.5026,-2.0294 -0.459,-3.32 -0.7167,-4.9246c-0.7002,-3.7718 -2.0392,-11.0794 -0.569,-11.8026c0.0461,-0.1726 2.1163,7.3075 4.9708,9.3027c1.4337,0.9825 3.0029,-1.9527 4.6081,-1.7366z" id="ID0.8758031786419451" fill="#6a00c0" stroke="#000000" stroke-width="2"/><path d="M221.5692,159.3445c-1.2461,-0.8065 -1.9388,-3.9947 -2.0346,-4.0275c-0.098,-0.0415 1.1093,5.364 1.0642,4.2694c-0.4268,-2.8205 -1.8957,-8.134 -2.0289,-12.2737c-0.041,-1.3801 0.5449,-2.7876 1.3216,-3.9386c1.1539,-1.7254 2.4719,-3.5823 4.444,-3.9399c1.9809,-0.6278 4.0818,0.4161 6.0159,1.3325c1.1407,0.537 2.319,1.5635 2.8947,2.3722c1.6023,3.0335 2.4782,5.7246 3.4503,8.673c0.3887,1.1708 0.6667,2.1578 0.5193,3.1169c-0.0088,0.4691 -0.5633,0.2703 -0.9098,0.4845c-1.3772,0.8504 -2.1093,1.7131 -3.2759,2.3625c-1.2352,0.7006 -2.4725,1.5748 -3.8819,1.9983c-1.4493,0.2056 -2.896,-0.1902 -4.4261,-0.1849c-1.0459,-0.0073 -1.8791,0.4828 -3.1528,-0.2447z" id="ID0.8758031786419451" fill="#6a00c0" stroke="#000000" stroke-width="2"/><path d="M220.9369,148.343l4.705,0.2699l4.2703,-2.5073l0.6652,2.6683l-8.9754,2.2374z" id="ID0.5234519117511809" fill="#ff0000" stroke="none" stroke-width="1"/><path d="M256.4089,229.3513c1.8989,-0.2733 2.9539,-2.1139 4.6363,-3.4853c0.7779,-0.6266 0.9023,-1.5625 2.4134,-1.782c1.0202,-0.0795 1.8617,1.0046 2.5864,1.8194c1.1592,1.2822 1.9194,2.9397 3.1185,4.2235c2.5333,2.8755 6.0614,5.4602 7.9447,8.7398c0.5038,0.9046 -0.8823,1.2108 -1.3732,1.7598c-1.6658,1.8551 -3.0038,4.065 -4.6847,5.945c-1.1207,1.0563 -3.5436,4.6588 -5.7242,4.5373c-0.9798,-2.0846 0.555,-6.8513 -0.8712,-9.1768c-1.2814,-2.2473 -3.1219,-4.2247 -5.0756,-5.9482c-3.3849,-2.9851 -9.7403,-6.7254 -10.5969,-8.4597c-0.45,-1.1818 5.1325,2.2492 7.6265,1.8272z" id="ID0.8758031786419451" fill="#6a00c0" stroke="#000000" stroke-width="2"/></g></g></svg>