<svg xmlns="http://www.w3.org/2000/svg" xmlns:xlink="http://www.w3.org/1999/xlink" version="1.1" width="49.793060302734375" height="25.304405212402344" viewBox="0.2619302272796631 0.04116487503051758 49.793060302734375 25.304405212402344">
  <!-- Exported by Scratch - http://scratch.mit.edu/ -->
  <path id="ID0.6207913532853127" fill="#493B29" stroke="#000000" stroke-width="2" stroke-linecap="round" d="M 27.4 10.55 C 24.3 10.38 20.999 11.604 17.8 11.05 C 16.865 10.872 16.803 9.27 16.1 8.55 C 15.058 7.482 13.967 5.685 12.45 5.8 C 10.195 5.971 8.883 9.749 6.6 9.45 C 4.655 9.125 4.915 4.942 3.3 4.45 C 2.258 4.134 1.029 6.423 1.3 7.65 C 1.762 9.74 3.622 11.333 5.3 12.65 C 6.098 13.285 7.374 13.401 8.3 12.95 C 9.786 12.367 10.299 9.937 11.95 9.8 C 13.238 9.688 14.209 11.346 14.6 12.65 C 15.068 14.221 14.075 15.841 14.1 17.55 C 14.132 19.694 14.063 21.956 14.8 23.95 C 15.02 24.544 15.716 24.29 16.6 24.3 C 20.137 24.345 23.67 24.139 27.2 24.15 C 30.164 24.089 33.144 24.229 36.1 24.15 C 37.215 24.121 38.785 24.67 39.45 23.8 C 40.628 22.024 40.905 19.635 40.7 17.55 C 40.505 15.565 39.902 13.064 38.1 12.15 C 34.939 10.451 30.997 10.748 27.4 10.55 Z "/>
  <path id="ID0.9006165927276015" fill="#493B29" stroke="#000000" stroke-width="2" stroke-linecap="round" d="M 46.1 1.05 C 44.97 0.848 44.966 4.169 43.7 4.95 C 41.677 6.111 39.192 6.448 36.95 6.45 C 35.291 6.451 32.379 3.979 32.2 4.95 C 31.904 6.554 34.819 9.395 36 11.6 C 36.757 13.011 36.728 14.887 37.905 16.018 C 39.082 17.15 40.707 17.85 42.5 17.85 C 44.293 17.85 45.918 17.15 47.095 16.018 C 48.272 14.887 48.837 13.194 49 11.6 C 49.196 9.69 48.846 7.667 48.3 5.8 C 47.817 4.145 47.364 1.277 46.1 1.05 Z "/>
  <path id="ID0.06972245080396533" fill="#FF0000" stroke="none" d="M 44.75 8.15 C 44.35 8.15 43.987 8.234 43.725 8.37 C 43.462 8.506 43.3 8.693 43.3 8.9 C 43.3 9.107 43.462 9.294 43.725 9.43 C 43.987 9.566 44.35 9.65 44.75 9.65 C 45.15 9.65 45.513 9.566 45.775 9.43 C 46.038 9.294 46.2 9.107 46.2 8.9 C 46.2 8.693 46.038 8.506 45.775 8.37 C 45.513 8.234 45.15 8.15 44.75 8.15 Z " stroke-width="1"/>
  <path id="ID0.7516237935051322" fill="#FF0000" stroke="none" d="M 39.525 9.55 C 39.132 9.55 38.776 9.6 38.518 9.682 C 38.26 9.763 38.1 9.876 38.1 10 C 38.1 10.124 38.26 10.237 38.518 10.318 C 38.776 10.4 39.132 10.45 39.525 10.45 C 39.918 10.45 40.274 10.4 40.532 10.318 C 40.79 10.237 40.95 10.124 40.95 10 C 40.95 9.876 40.79 9.763 40.532 9.682 C 40.274 9.6 39.918 9.55 39.525 9.55 Z " stroke-width="1"/>
</svg>