<svg xmlns="http://www.w3.org/2000/svg" xmlns:xlink="http://www.w3.org/1999/xlink" version="1.1" width="48.33427765873786" height="30.292979746140208" viewBox="0.12801073537411 1.5473108147198131 48.33427765873786 30.292979746140208">
  <!-- Exported by Scratch - http://scratch.mit.edu/ -->
  <g id="ID0.8484620321542025">
    <path id="ID0.5887186862528324" fill="#666666" stroke="#000000" stroke-width="1.5161290100087343" stroke-linecap="round" d="M 10.0151 30.2825 L 9.8983 12.195 L 26.5466 16.6946 L 25.5906 20.8866 L 10.0151 30.2825 Z "/>
    <g id="ID0.9927080664783716">
      <path id="ID0.5887186862528324" fill="#666666" stroke="#000000" stroke-width="1.516128959186248" stroke-linecap="round" d="M 2.7058 5.2723 L 12.1371 2.5873 L 10.2475 30.8003 L 1.168 30.2411 L 2.7058 5.2723 Z "/>
      <path id="ID0.6224060878157616" fill="#666666" stroke="#000000" stroke-width="1.516128959186248" d="M 25.1979 17.1254 L 43.357 18.2439 L 43.237 21.4264 L 24.8508 20.294 L 25.1979 17.1254 Z "/>
    </g>
    <g id="ID0.27431527338922024">
      <path id="ID0.936144629959017" fill="#00FF55" stroke="#000000" stroke-width="1.516128959186248" d="M 43.155 16.6578 L 47.4223 18.8953 L 47.2965 20.9382 L 42.7356 23.4675 L 43.155 16.6578 Z "/>
      <path id="ID0.936144629959017" fill="#00FF55" stroke="#000000" stroke-width="1.8920286516260432" d="M 34.8925 14.9713 L 40.2178 17.7635 L 39.7193 21.2397 L 34.3691 23.4693 L 34.8925 14.9713 Z "/>
      <path id="ID0.936144629959017" fill="#00FF55" stroke="#000000" stroke-width="2.0799784949195046" d="M 25.9412 14.0656 L 31.7955 17.1352 L 31.2475 20.9567 L 25.3658 23.4078 L 25.9412 14.0656 Z "/>
      <path id="ID0.936144629959017" fill="#00FF55" stroke="#000000" stroke-width="1.8920286516260432" d="M 3.0257 6.8535 L 10.0752 10.8893 L 2.9758 16.8971 L 3.0257 6.8535 Z "/>
      <path id="ID0.936144629959017" fill="#00FF55" stroke="#000000" stroke-width="1.8920286516260432" d="M 2.2462 18.1821 L 9.2957 22.2179 L 2.1963 28.2257 L 2.2462 18.1821 Z "/>
    </g>
  </g>
</svg>