<svg version="1.1" xmlns="http://www.w3.org/2000/svg" xmlns:xlink="http://www.w3.org/1999/xlink" width="125.11355" height="124.94254" viewBox="0,0,125.11355,124.94254"><g transform="translate(-180.70625,-135.00645)"><g data-paper-data="{&quot;isPaintingLayer&quot;:true}" fill-rule="nonzero" stroke-linejoin="miter" stroke-miterlimit="10" stroke-dasharray="" stroke-dashoffset="0" style="mix-blend-mode: normal"><path d="M254.0475,238.0123c-0.1827,0.9053 -1.3302,0.0092 -1.9999,-0.0192c-1.7566,-0.0489 -3.0216,-0.5761 -4.5431,-0.7437c-0.6893,-0.0706 -1.6139,1.6426 -2.0023,0.2308c-1.5528,-5.6472 -1.8925,-11.6088 -3.5345,-17.2348c-0.4042,-1.963 -2.482,-4.172 -1.6807,-7.2165c0.2025,-0.6751 2.2919,0.1251 4.0099,-1.0115c1.2147,-0.6983 2.5062,-1.362 3.794,-1.9636c1.0889,-0.4976 3.5119,-3.0864 4.3926,-1.8079c1.8133,3.0956 0.2454,7.0377 0.5491,10.5058c0.2911,2.7979 0.4941,5.503 0.4706,8.2549c0.3548,3.6666 1.2598,7.4164 0.5443,11.0057z" id="ID0.8758031786419451" fill="#ffffff" stroke="#000000" stroke-width="2" stroke-linecap="round"/><path d="M227.9982,227.2657c-0.1107,-2.676 0.1507,-5.3427 0.5231,-8.0054c0.4501,-3.6335 -0.579,-7.8028 1.4452,-10.9144c0.9813,-1.2265 3.3037,1.3103 4.3926,1.8079c1.2878,0.6016 2.6027,1.205 3.794,1.9636c1.5234,1.0694 3.17,0.8196 3.3662,1.6677c0.7322,2.5151 -0.6759,4.6997 -1.037,6.5603c-1.4786,5.6635 -1.9817,11.5876 -3.5345,17.2348c-0.3884,1.4118 -1.313,-0.3014 -2.0023,-0.2308c-1.5215,0.1676 -2.7865,0.6948 -4.5431,0.7437c-0.6697,0.0284 -1.7634,0.902 -1.9999,0.0192c-0.9337,-3.5062 -0.5515,-7.23 -0.4043,-10.8466z" id="ID0.8758031786419451" fill="#ffffff" stroke="#000000" stroke-width="2" stroke-linecap="round"/><path d="M211.5457,152.5608c2.4773,0.4115 4.9519,1.1391 7.2023,2.2367c3.1675,1.5492 6.6021,2.674 8.5194,5.3278c1.0455,1.2175 -0.4263,3.0464 -1.1752,4.2687c-0.747,1.2063 -1.5495,2.5752 -2.8232,3.2062c-2.099,1.0465 -4.5338,1.6014 -6.955,1.7811c-0.6693,-0.0819 -0.2836,-0.8565 -1.5921,-1.5118c-5.2196,-2.6549 -10.7638,-4.7264 -15.8675,-7.5993c-1.2759,-0.7185 0.6101,-1.2011 0.7083,-1.887c0.2055,-1.5168 0,-2.8718 0.3776,-4.588c0.1344,-0.6568 -0.4911,-1.8418 0.4652,-1.9452c3.6774,-0.3893 7.4919,0.1056 11.1402,0.7108z" id="ID0.8758031786419451" fill="#ffffff" stroke="#000000" stroke-width="2" stroke-linecap="round"/><path d="M282.4069,177.2987c0.3585,0.8925 -0.9814,0.8978 -1.4978,1.3254c-1.337,1.1404 -2.6294,1.5963 -3.8713,2.491c-0.5591,0.4093 -0.098,2.3006 -1.3321,1.5126c-4.9358,-3.1528 -9.3054,-7.1658 -14.1692,-10.4289c-1.3068,-0.8988 -3.5249,-0.9563 -4.238,-2.5258c-0.7847,-1.4662 0.0881,-3.264 0.4557,-5.1436c0.2786,-1.3949 0.9485,-2.6901 1.5017,-3.9995c0.4752,-1.0988 0.4405,-4.082 2.0504,-4.2847c3.677,1.0753 6.6312,4.1135 9.8727,6.2525c2.0631,1.3657 3.8329,3.3115 5.3612,5.3041c2.2499,2.9349 4.4807,6.0685 5.8667,9.4969z" id="ID0.8758031786419451" fill="#ffffff" stroke="#000000" stroke-width="2" stroke-linecap="round"/><path d="M240.25,155c3.33,-0.019 6.635,0.457 9.75,1.5c3.33,1.116 9.41,1.367 9.75,5c0.88,9.489 -4.619,18.421 -6.25,27.75c-0.853,4.838 -0.86,9.823 -0.75,14.75c0.115,4.521 1.633,9.975 1,13.75c-0.117,1.099 -1.195,-3.113 -2.5,-4c-0.7,-0.438 -1.626,0.079 -2.5,0.25c-2.613,0.509 -4.89,1.927 -7.75,2c-2.835,0.065 -5.481,-1.637 -8.25,-2c-0.935,-0.312 -1.952,-0.446 -2.75,0c-1.139,0.657 -2.072,3.809 -2,2.75c-0.322,-3.815 1.477,-8.188 1.5,-12.5c0.015,-5.367 -0.945,-9.877 -2,-16c-1.599,-9.28 -6.852,-16.224 -5.5,-27.75c0.373,-3.238 5.792,-2.745 8.75,-3.75c3.152,-0.837 6.282,-1.726 9.5,-1.75z" id="ID0.733084324747324" fill="#ffffff" stroke="#000000" stroke-width="2" stroke-linecap="round"/><path d="M288.4867,194.7406c-4.6044,-3.2092 -9.8379,-5.7802 -13.8528,-9.5522c-1.0047,-0.9425 0.6848,-1.3458 1.3509,-2.149c0.9109,-1.0918 1.8175,-2.2178 2.9072,-3.1303c1.565,-1.3082 4.607,-1.4896 5.4068,-3.5748c0.5518,-1.9092 -3.1192,-6.1234 -2.1477,-5.9051c0.7657,0.2027 3.4572,5.2698 5.9215,7.2764c5.0208,4.0948 11.3575,7.0808 16.7472,11.3094c1.1129,0.9828 -1.149,0.8284 -1.7462,0.7236c-2.216,-0.3917 -4.1059,-2.8741 -6.2143,-2.6966c-2.9102,0.7062 -5.6771,2.5336 -7.0922,5.0391c-0.6267,1.1708 2.8573,2.0506 3.241,3.5578c0.1023,0.6857 -1.3584,1.2206 -2.0685,1.1549c-1.0782,-0.2727 -1.3168,-1.2619 -2.4529,-2.0532z" id="ID0.8758031786419451" fill="#ffffff" stroke="#000000" stroke-width="2" stroke-linecap="round"/><path d="M181.6002,151.9022c-0.3196,-0.6375 -0.353,-2.1927 0.3229,-2.347c1.5435,-0.1912 3.631,2.7337 4.4934,1.7238c1.8186,-2.23 2.5136,-5.4722 2.1123,-8.4398c-0.6021,-2.0284 -3.6021,-2.8852 -4.7735,-4.8067c-0.315,-0.5181 -1.2821,-2.5686 0.0384,-1.8897c5.9002,3.481 10.9878,8.2963 16.629,11.4824c2.7659,1.5649 8.4652,2.2276 8.9326,2.867c0.557,0.8255 -4.7043,-1.06 -6.2818,0.1489c-1.6511,1.5038 -0.7129,4.4033 -1.3617,6.337c-0.4533,1.3471 -1.1722,2.6014 -1.8575,3.8471c-0.5057,0.9128 -0.2665,2.6332 -1.51,2.0405c-4.9746,-2.3668 -9.274,-6.3056 -13.9389,-9.4261c-1.1506,-0.7703 -2.1587,-0.6325 -2.8052,-1.5374z" id="ID0.8758031786419451" fill="#ffffff" stroke="#000000" stroke-width="2" stroke-linecap="round"/><path d="M224.7142,154.5307c3.1776,-1.4256 6.6116,-8.3859 6.6245,-8.2077c1.3089,0.9857 -1.3745,7.9134 -2.7685,11.4874c-0.5536,1.5279 -0.7523,2.8039 -1.626,4.7034c-0.9497,2.1255 -1.4883,4.7769 -3.0784,6.2798c-1.5891,1.5029 -3.6157,2.2969 -5.7018,2.0231c-2.0861,-0.2738 -3.8391,-1.5639 -4.9865,-3.4261c-1.1484,-1.8623 -0.8212,-4.6091 -1.3536,-6.8615c-0.4093,-2.0679 -2.0408,-2.7167 -2.5197,-4.239c-0.1516,-1.089 -0.623,-2.2845 0.0214,-2.4682c2.1813,-0.928 4.6359,-0.0037 6.6805,-0.1821c1.5774,-0.1308 2.8735,-1.9214 4.5067,-1.6778c1.6172,0.0883 2.6092,3.2654 4.2014,2.5687z" id="ID0.8758031786419451" fill="#ffffff" stroke="#000000" stroke-width="2" stroke-linecap="round"/><path d="M247.5124,236.458c1.5136,1.1789 3.5714,0.6632 5.7261,0.9247c0.9909,0.1262 1.7516,-0.433 2.9574,0.5038c0.7646,0.6801 0.5668,2.0382 0.482,3.1254c-0.1203,1.7243 -0.7878,3.4213 -0.8817,5.1754c-0.3158,3.8192 0.2676,8.1537 -0.7902,11.7847c-0.3026,0.9902 -1.4843,0.2036 -2.2202,0.2304c-2.4918,0.0858 -5.012,0.6536 -7.5322,0.7457c-1.5382,-0.0754 -5.8142,0.6762 -7.2383,-0.9795c0.8229,-2.1513 5.322,-4.35 6.0092,-6.9901c0.7311,-2.4815 0.8801,-5.1787 0.7676,-7.7816c-0.1956,-4.5089 -1.9062,-11.682 -1.2503,-13.5017c0.5397,-1.1436 1.9375,5.258 3.9706,6.7628z" id="ID0.8758031786419451" fill="#ffffff" stroke="#000000" stroke-width="2" stroke-linecap="round"/><path d="M230.2624,236.408c1.5136,1.1789 3.5714,0.6632 5.7261,0.9247c0.9909,0.1262 1.7516,-0.433 2.9574,0.5038c0.7646,0.6801 0.5668,2.0382 0.482,3.1254c-0.1203,1.7243 -0.7878,3.4213 -0.8817,5.1754c-0.3158,3.8192 0.2676,8.1537 -0.7902,11.7847c-0.3026,0.9902 -1.4843,0.2036 -2.2202,0.2304c-2.4918,0.0858 -5.012,0.6536 -7.5322,0.7457c-1.5382,-0.0754 -5.8142,0.6762 -7.2383,-0.9795c0.8229,-2.1513 5.322,-4.35 6.0092,-6.9901c0.7311,-2.4815 0.8801,-5.1787 0.7676,-7.7816c-0.1956,-4.5089 -1.9062,-11.682 -1.2503,-13.5017c0.5397,-1.1436 1.9375,5.258 3.9706,6.7628z" id="ID0.8758031786419451" fill="#ffffff" stroke="#000000" stroke-width="2" stroke-linecap="round"/><path d="M262.0383,156.268c1.6424,0.1703 2.4524,2.2269 3.9477,2.746c1.936,0.6814 4.5434,0.3966 6.4253,1.838c0.5784,0.3382 -0.1755,1.3789 -0.5932,2.396c-0.8425,1.3553 -2.5841,1.578 -3.4949,3.479c-1.0759,2.0493 -1.4421,4.7911 -3.0177,6.3092c-1.5745,1.5183 -3.5933,2.3318 -5.682,2.0782c-2.0886,-0.2537 -3.854,-1.5268 -5.0193,-3.3778c-1.1664,-1.8511 -1.0286,-4.5532 -1.4198,-6.8481c-0.3737,-2.0571 -0.2488,-3.3424 -0.4049,-4.96c-0.4613,-3.8084 -1.3372,-11.1858 0.1757,-11.815c0.0568,-0.1694 1.6517,7.4263 4.3748,9.5974c1.3689,1.0708 3.1199,-1.7597 4.7083,-1.4429z" id="ID0.8758031786419451" fill="#ffffff" stroke="#000000" stroke-width="2" stroke-linecap="round"/><path d="M233.25,156c-1.014,-1.084 -0.915,-4.345 -1,-4.4c-0.085,-0.064 -0.221,5.473 0,4.4c0.268,-2.84 0.128,-8.351 1,-12.4c0.294,-1.349 1.203,-2.573 2.235,-3.502c1.537,-1.395 3.265,-2.878 5.265,-2.748c2.074,-0.13 3.86,1.391 5.515,2.748c0.977,0.797 1.872,2.078 2.235,3.002c0.821,3.331 1.02,6.154 1.25,9.25c0.094,1.23 0.125,2.255 -0.25,3.15c-0.122,0.453 -0.612,0.126 -1,0.25c-1.542,0.492 -2.461,1.152 -3.75,1.5c-1.368,0.381 -2.78,0.93 -4.25,1c-1.456,-0.151 -2.764,-0.885 -4.25,-1.25c-1.013,-0.26 -1.94,0.014 -3,-1z" id="ID0.8758031786419451" fill="#ffffff" stroke="#000000" stroke-width="2" stroke-linecap="round"/><path d="M235.25,145l4.5,1.4l4.75,-1.4v2.75h-9.25z" id="ID0.5234519117511809" fill="#000000" stroke="none" stroke-width="1" stroke-linecap="round"/><path d="M233.50333,171.52169c-0.17185,0.18157 -0.35342,0.00973 -0.35342,0.00973l-0.27241,-0.28842c-1.04378,-1.10741 -0.71513,-3.20556 -1.05856,-4.64213c-0.38844,-1.79509 -4.41243,-0.03325 -4.41623,-2.09738c-0.0044,-2.40504 -0.9696,-2.37848 -3.09498,-3.21559c-1.10577,-0.43552 -4.84652,-1.08495 -4.99115,-2.46892c-0.12525,-1.19849 -1.41349,-3.02978 -2.70043,-3.02978c0,0 -0.25,0 -0.25,-0.25c0,-0.25 0.25,-0.25 0.25,-0.25c1.57013,0 3.04868,2.05157 3.19772,3.47781c0.09778,0.93568 3.78932,1.70602 4.67709,2.05568c2.21143,0.871 3.4069,1.06655 3.41174,3.67989c0.00223,1.20902 3.91813,0.08054 4.40252,1.98205c0.31436,1.31499 0.01668,3.43996 0.93612,4.41544l0.25225,0.26822c0,0 0.18157,0.17185 0.00973,0.35342z" fill="#edff00" stroke="none" stroke-width="0.5" stroke-linecap="butt"/><path d="M208.76224,161.3578c-0.00761,0.00934 -0.01614,0.01869 -0.02569,0.02803c-0.17867,0.17487 -0.35353,-0.0038 -0.35353,-0.0038l0.38586,-0.42488c0.41666,-0.00003 0.83332,-0.00009 1.24999,-0.00014c0.53153,-0.00007 1.67961,-0.11553 2.76495,-0.13216c-0.41133,-0.08614 -0.82315,-0.17013 -1.23584,-0.25091c-1.79919,-0.35218 -3.59838,-0.70436 -5.39757,-1.05655c-1.81244,-0.35478 -3.58784,-0.76422 -5.37259,-1.23902c-1.46204,-0.38895 -4.47596,-0.60133 -5.01933,-2.08059c-0.10612,-0.82003 0.46617,-0.71253 0.62063,-0.96558c0.5315,-0.87077 -0.03435,-3.18971 0.28385,-4.28802c0.40583,-1.40077 -2.07374,-2.01717 -2.07374,-3.75777c0,0 0,-0.25 0.25,-0.25c0.25,0 0.25,0.25 0.25,0.25c0,1.78835 2.59258,2.03789 2.05399,3.89691c-0.36575,1.26244 -0.26354,2.59187 -0.26401,3.89906c-0.00007,0.20152 -0.85516,1.02549 -0.65138,1.043c0.42648,1.16106 3.32809,1.41053 4.67854,1.7698c1.77415,0.47199 3.53843,0.87886 5.3401,1.23153c1.79919,0.35218 3.59838,0.70436 5.39757,1.05655c1.06554,0.20857 2.12541,0.43843 3.18564,0.67159l0.00001,-0.00004l0.48351,0.1065c0.11461,0.02277 0.20101,0.1239 0.20101,0.2452c0,0.13082 -0.10048,0.23817 -0.22848,0.24909l-0.49496,0.04816l-0.00894,-0.09189c-1.18395,0.52331 -3.7108,0.145 -4.76288,0.14515c-0.41667,0.00006 -0.83334,0.00011 -1.25001,0.00014z" fill="#edff00" stroke="none" stroke-width="0.5" stroke-linecap="butt"/><path d="M236.51037,169.19545c-0.23212,-0.09285 -0.13927,-0.32497 -0.13927,-0.32497l-0.09729,0.22784c-1.91987,-0.78835 -3.50265,-1.19725 -3.49755,-3.4862c0.00501,-2.21284 0.88526,-3.31382 2.47311,-4.79802c0.61138,-0.52282 2.84869,-1.61971 4.15017,-1.71355c-0.65789,-0.55426 -0.45744,-1.95208 -0.25877,-2.86902c0.44498,-2.0537 1.01178,-3.4195 2.59228,-4.8239c1.07511,-0.95532 1.78133,-3.10929 3.1439,-3.56348c0,0 0.23717,-0.07906 0.31623,0.15811c0.07906,0.23717 -0.15811,0.31623 -0.15811,0.31623c-1.18889,0.3963 -1.9774,2.58099 -2.9699,3.4629c-1.50457,1.33693 -2.01054,2.59362 -2.43574,4.55602c-0.27217,1.25611 -0.3253,2.44135 0.42569,2.49843l0.24711,0.01878c0.13025,0.00863 0.23323,0.11701 0.23323,0.24945c0,0.11669 -0.07995,0.21471 -0.18806,0.24227l-0.47631,0.13296l-0.01136,-0.0407c-1.04248,0.79122 -3.39506,0.76384 -4.26892,1.74078c-1.5037,1.40555 -2.31,2.36598 -2.31454,4.43386c-0.00455,2.04052 1.4317,2.30159 3.18748,3.02256l0.3716,0.42038c0,0 -0.09285,0.23212 -0.32497,0.13927z" fill="#edff00" stroke="none" stroke-width="0.5" stroke-linecap="butt"/><path d="M239.12476,176.33327l-0.02866,0.02167l-0.00292,-0.00535c0.01979,-0.00876 0.03158,-0.01633 0.03158,-0.01633zM239.0961,176.35494l0.14535,0.26642c0.00394,1.14511 -0.14722,2.5645 0.18634,3.66423c-0.19701,0.07297 1.1952,0.06111 1.58177,0.05871c1.16636,-0.00725 2.31509,-0.05328 3.47829,-0.13938c1.8589,-0.13758 3.56634,-0.39947 5.38109,-0.82538c0.44584,-0.10464 2.82033,-0.70553 3.64521,-0.81047c-0.2133,-0.21833 -0.45462,-0.71943 -0.45149,-0.98702c0.02512,-2.13394 1.01729,-3.31711 2.0428,-5.08904c0.91969,-1.58909 1.89042,-3.11352 2.67942,-4.77298c0.77008,-1.61968 0.94191,-2.63014 0.94191,-4.42467c0,0 0,-0.25 0.25,-0.25c0.25,0 0.25,0.25 0.25,0.25c0,1.83907 -0.19846,2.97383 -0.99035,4.63937c-0.7948,1.67167 -1.77189,3.20816 -2.69823,4.80874c-0.98518,1.70225 -1.9519,2.80606 -1.97558,4.84443c-0.0017,0.14503 0.81235,0.40307 0.66947,0.75641c-0.3839,0.94944 -3.33317,1.30709 -4.24892,1.52201c-1.83836,0.43145 -3.5752,0.69786 -5.45842,0.83724c-1.25747,0.09307 -4.80995,0.74952 -5.57544,-0.27284c-0.3491,-1.15095 -0.20375,-2.61134 -0.20786,-3.80763zM239.09318,176.34959c-0.06381,0.02825 -0.21078,0.0689 -0.31385,-0.09169c-0.13503,-0.2104 0.07537,-0.34543 0.07537,-0.34543z" fill="#edff00" stroke="none" stroke-width="0.5" stroke-linecap="butt"/><path d="M282.99921,188.24975c-0.19431,0.1573 -0.35161,-0.03701 -0.35161,-0.03701l-0.06193,-0.44656c-0.03195,-1.49528 -0.66746,-3.05153 -1.31778,-4.39929c-0.76502,-1.58545 -1.43896,-3.5164 -1.72949,-5.25881c-0.28456,-1.70666 -2.83055,-1.57972 -4.3081,-2.07596c-1.96257,-0.65915 -2.83632,-1.94803 -4.28248,-3.38182c-1.01357,-1.00489 -2.04903,-1.95667 -3.12375,-2.88933l-0.44447,0.00153l-0.00156,-0.45437c-0.01388,-0.05855 -0.00636,-0.13048 0.05808,-0.20689c0.00114,-0.00136 0.00229,-0.00271 0.00346,-0.00404c0.09646,-0.11114 0.2022,-0.09918 0.27214,-0.07116c0.02961,0.01054 0.05665,0.0265 0.07992,0.04669l0.37857,0.32449l-0.00104,0.00121c1.07679,0.93503 2.11484,1.88964 3.13068,2.89679c1.40364,1.39163 2.2136,2.63282 4.08964,3.26291c1.70345,0.57212 4.29775,0.40251 4.6421,2.46771c0.28346,1.70002 0.93926,3.5749 1.68661,5.12375c0.68016,1.4096 1.33394,3.04185 1.36735,4.6059l-0.04934,0.14264c0,0 0.1573,0.19431 -0.03701,0.35161z" fill="#edff00" stroke="none" stroke-width="0.5" stroke-linecap="butt"/><path d="M234.08516,182.3353c-0.09504,-0.20164 -0.18992,-0.40334 -0.28552,-0.60463c-0.28462,-0.7204 0.07838,-1.50801 -0.10381,-2.21222c-0.24343,-0.94091 -1.09891,-1.98992 -1.57113,-2.84501c-0.0015,-0.36903 -0.9697,-0.29965 -1.13503,-0.19006c-0.6463,0.4284 -1.04103,1.87459 -1.66753,2.50109c0,0 -0.17678,0.17678 -0.35355,0c-0.17678,-0.17678 0,-0.35355 0,-0.35355c0.82404,-0.82404 2.16431,-4.14138 3.59381,-2.19919c0.47222,0.85509 1.3277,1.9041 1.57113,2.84501c0.16183,0.62551 -0.24823,1.71505 0.11778,2.23943c0.00368,0.00774 0.00735,0.01548 0.01102,0.02322c0.13061,0.02085 0.18604,0.15744 0.18604,0.15744l0.27205,0.24947c0.92795,1.23267 1.15608,3.27104 2.15293,4.69547c0.77511,1.10758 2.30116,3.53485 3.86795,2.00315c2.53243,-1.98925 2.07822,1.99175 2.07822,3.4796c0,1.83333 0,3.66667 0,5.5c0,1.41667 0,2.83333 0,4.25v0.5c0,0.0316 -0.00586,0.06183 -0.01656,0.08966c-0.02437,0.07172 -0.08459,0.16034 -0.23344,0.16034c-0.14885,0 -0.20908,-0.08863 -0.23344,-0.16034c-0.01017,-0.02645 -0.01597,-0.05508 -0.01651,-0.08498l-0.01067,-0.49922l0.01062,-0.00023c0,-0.00174 0,-0.00348 0,-0.00523c0,-1.41667 0,-2.83333 0,-4.25c0,-1.83333 0,-3.66667 0,-5.5c0,-0.83333 0,-1.66667 0,-2.5c0,-0.51496 0.24039,-1.28646 0.04995,-0.95848c-0.16991,0.29262 -1.10573,-0.03817 -1.27864,0.33642c-1.84271,1.80144 -3.68338,-0.72545 -4.62713,-2.074c-0.61563,-0.8797 -0.95279,-2.033 -1.33726,-3.06152c-0.03737,0.02224 -0.08102,0.03501 -0.12766,0.03501c-0.07926,0 -0.1499,-0.03688 -0.1957,-0.09442l-0.3132,-0.38693l0.00658,-0.00532c-0.25611,-0.17963 -0.3782,-0.52351 -0.46776,-0.98363z" fill="#edff00" stroke="none" stroke-width="0.5" stroke-linecap="butt"/><path d="M249.51621,191.50508c0.03289,-0.05105 0.1411,-0.18524 0.32464,-0.09348c0.22361,0.1118 0.1118,0.33541 0.1118,0.33541l-0.18507,0.1466c-0.2523,0.1196 -0.35208,0.1322 -0.54034,0.34134c-1.32912,1.47657 -1.63556,2.81043 -1.63431,4.81856c0.00113,1.81472 0.35115,3.71398 0.21944,5.49837c-0.15229,1.79997 -1.72224,0.49662 -2.70533,0.92011c-0.54341,0.23409 -1.16685,1.16684 -1.58966,1.59157c-0.51846,0.4307 -2.18946,3.35294 -2.18946,3.87388c0,0 0,0.25 -0.25,0.25c-0.25,0 -0.25,-0.25 -0.25,-0.25c0,-0.80853 1.71786,-3.5468 2.33511,-4.22663c0.42297,-0.42488 1.04678,-1.35814 1.59041,-1.59232c1.12268,-0.48362 2.49399,0.51975 2.56028,-0.60341c0.13068,-1.77045 -0.21968,-3.65873 -0.2208,-5.46125c-0.0013,-2.09135 0.36269,-3.59808 1.76269,-5.15339c0.20355,-0.22613 0.42534,-0.32949 0.69778,-0.45864z" fill="#edff00" stroke="none" stroke-width="0.5" stroke-linecap="butt"/><path d="M232.08976,243.49054c-0.24698,-0.03874 -0.20824,-0.28572 -0.20824,-0.28572l-0.01222,-0.22902c-0.74424,-1.71923 -0.97477,-3.30352 -1.15798,-5.15335c-0.16318,-1.72664 -0.2356,-3.87939 0.16855,-5.56104c0.43641,-1.81592 0.40084,-3.52905 0.40617,-5.39384c0.00548,-1.80083 0.17883,-3.77792 0.70525,-5.51111c0.53823,-1.77206 1.02746,-3.48779 1.67576,-5.23475c0.34681,-0.93453 1.61198,-2.92446 2.73447,-3.43488v-0.1213h0.5c0.0316,0 0.06183,0.00586 0.08966,0.01656c0.07172,0.02437 0.16034,0.08459 0.16034,0.23344c0,0.14479 -0.08386,0.20572 -0.15444,0.23137l-0.44028,0.20871l-0.03767,-0.07946c-0.89476,0.46873 -2.08079,2.30429 -2.38333,3.11952c-0.64554,1.7395 -1.13031,3.44204 -1.6661,5.2061c-0.51239,1.68699 -0.679,3.61396 -0.68367,5.36723c-0.00544,1.90253 0.0258,3.65421 -0.42001,5.50925c-0.38869,1.61736 -0.33074,3.73493 -0.15714,5.39493c0.17852,1.8025 0.39456,3.3299 1.11926,5.004l0.04732,0.50514c0,0 -0.03874,0.24698 -0.28572,0.20824z" fill="#edff00" stroke="none" stroke-width="0.5" stroke-linecap="butt"/><path d="M250.12519,240.78879c-0.23006,0.09784 -0.3279,-0.13222 -0.3279,-0.13222l-0.02212,-0.49532c-0.01606,-0.75052 -0.10899,-1.458 -0.2296,-2.19833c-0.27022,-1.65876 0.06352,-3.88079 -0.46746,-5.41474c-0.43616,-1.55452 -2.58314,-3.28688 -2.58156,-4.89774c0.00181,-1.83732 -0.03074,-3.73542 0.42749,-5.53066c0.41119,-1.61094 2.98963,-2.89966 1.47091,-4.25926c-1.31483,-1.17707 -3.19226,-1.73828 -4.82788,-2.34764c-1.48817,-0.56833 -3.00954,-0.65749 -4.57736,-0.65749c0,0 -0.25,0 -0.25,-0.25c0,-0.25 0.25,-0.25 0.25,-0.25c1.63576,0 3.19579,0.12056 4.75191,0.68895c1.69764,0.63247 3.62023,1.22025 4.98682,2.44365c1.93379,1.73118 -0.8621,2.96173 -1.31994,4.75545c-0.44782,1.75448 -0.4102,3.61201 -0.41196,5.40749c-0.00134,1.36475 2.03735,3.38652 2.55405,4.7337c0.54508,1.57468 0.21234,3.80293 0.48846,5.4979c0.12425,0.76269 0.21943,1.4945 0.23599,2.26802l-0.01765,0.31034c0,0 0.09784,0.23006 -0.13222,0.3279z" fill="#edff00" stroke="none" stroke-width="0.5" stroke-linecap="butt"/><path d="M244.78486,244.85031l-0.37507,-0.03863c-0.43252,-0.67452 -0.4329,-1.27161 -0.95609,-1.93274c-0.77523,-1.58753 1.81483,-3.79702 2.85432,-4.72468c1.63146,-1.0553 3.32722,2.44935 3.44011,3.79284c0.15511,1.84596 0.23191,3.65861 0.23349,5.51106c0.00117,1.42968 0.09621,2.8171 0.24293,4.23049l0.04204,-0.0009l0.01068,0.49901c0.00005,0.00207 0.00008,0.00414 0.00008,0.00622c0,0.02182 -0.0028,0.04299 -0.00805,0.06317c-0.01601,0.07285 -0.06476,0.16593 -0.20755,0.18449c-0.00387,0.00053 -0.00777,0.00098 -0.0117,0.00133c-0.14483,0.01414 -0.21327,-0.06655 -0.24498,-0.13445c-0.01415,-0.02741 -0.02338,-0.05778 -0.02653,-0.08993l-0.05488,-0.49394l0.00183,-0.0002c-0.14742,-1.42438 -0.24258,-2.82415 -0.24387,-4.26486c-0.00158,-1.83891 -0.07777,-3.63718 -0.23174,-5.46962c-0.05117,-0.60895 -1.6176,-3.62971 -1.85438,-3.54513c-0.19564,0.06988 -0.7087,-0.18487 -0.75456,0.08348c-0.9828,0.87706 -1.7387,1.57248 -2.35787,2.74326c-0.09839,0.18605 -0.68853,1.34531 -0.43728,1.29809c0.52295,0.66084 0.57308,1.33088 0.9849,1.97312l-0.03728,0.30135c0.0057,-0.00461 0.01172,-0.00918 0.01809,-0.01369c0.20401,-0.1445 0.34851,0.0595 0.34851,0.0595l-0.36758,-0.03786l-0.04043,0.32687c0,0 -0.13117,-0.18518 0.03286,-0.32765z" fill="#edff00" stroke="none" stroke-width="0.5" stroke-linecap="butt"/><path d="M233.63006,225.39323c0.2498,0.00999 0.23981,0.25979 0.23981,0.25979l0.2625,-0.40222c0.055,0.06261 0.10999,0.12522 0.16499,0.18783c1.24005,1.41168 1.65804,3.43023 1.76628,5.24936c0.1089,1.8301 0.2178,3.66019 0.3267,5.49029c0.11251,1.89079 -0.02144,3.6381 -0.23599,5.51827c-0.21598,1.89268 -0.18211,3.57354 -0.20255,5.41062c-0.02481,2.1539 -3.47668,2.40131 -3.47668,0.90944c0,0 0,-0.25 0.25,-0.25c0.25,0 0.25,0.25 0.25,0.25c0,0.58901 2.45777,0.85439 2.47671,-0.915c0.02056,-1.84798 -0.01134,-3.55943 0.20574,-5.46174c0.21148,-1.85331 0.34451,-3.56887 0.23365,-5.43188c-0.1089,-1.8301 -0.2178,-3.66019 -0.3267,-5.49029c-0.10193,-1.71292 -0.47574,-3.62047 -1.64282,-4.94908c-0.055,-0.06261 -0.10999,-0.12522 -0.16499,-0.18783l-0.38645,0.05226c0,0 0.00999,-0.2498 0.25979,-0.23981z" fill="#edff00" stroke="none" stroke-width="0.5" stroke-linecap="butt"/><path d="M236.18834,209.10909c-0.17166,0.18175 -0.35341,0.0101 -0.35341,0.0101l-0.02404,-0.02504c-0.31975,-0.34284 -0.85767,-0.93002 -1.27668,-1.54494c-0.07267,-0.0544 -0.41943,-0.31398 -0.47626,-0.35652c-1.13554,-0.85005 -2.17069,-1.87169 -3.23334,-2.82592l-0.04551,0.03998l-0.3292,-0.37477c-0.01315,-0.01481 -0.02456,-0.0312 -0.03392,-0.04884c-0.03782,-0.06516 -0.06506,-0.16819 0.03111,-0.27968c0.001,-0.00117 0.00202,-0.00233 0.00304,-0.00348c0.09765,-0.1104 0.20336,-0.09736 0.27306,-0.0686c0.02943,0.01081 0.05626,0.02701 0.0793,0.04738l0.37538,0.32845l-0.00241,0.00276c0.93202,0.83844 1.84326,1.72856 2.82171,2.50449c-0.04685,-0.15413 -0.07152,-0.30146 -0.06758,-0.43783l-0.21594,-0.04953l0.11067,-0.48246c0.02355,-0.11361 0.1242,-0.19899 0.24479,-0.19899c0.09038,0 0.16956,0.04796 0.21348,0.11983l0.26525,0.41883l-0.00938,0.00594c0.16049,0.29599 0.27881,0.58941 0.31182,0.8828c0.44807,0.67868 0.88611,1.50811 1.32629,1.98009l0.0017,0.00256c0,0 0.18175,0.17166 0.0101,0.35341z" fill="#edff00" stroke="none" stroke-width="0.5" stroke-linecap="butt"/><path d="M248.45601,163.47226c0.12141,0.21854 -0.09713,0.33995 -0.09713,0.33995l0.12859,0.10355c0,0.75 -0.00002,1.5 -0.00003,2.25c-0.00002,1.07631 0.36809,3.55685 -0.14111,4.77473l0.1079,0.01945l-0.08794,0.4878c-0.01918,0.11901 -0.12238,0.20991 -0.2468,0.20991c-0.10049,0 -0.18714,-0.0593 -0.22686,-0.14481l-0.2178,-0.44398l0.0021,-0.00103c-0.6039,-1.28722 -1.05316,-2.69981 -1.36251,-4.0795c-0.39704,-1.77082 -0.6995,-3.60004 -1.26742,-5.32372c-0.75251,-2.28394 -1.81547,1.51613 -2.25148,2.53342c-0.63071,1.47156 -1.12323,3.17793 -2.47385,4.07835c0,0 -0.20801,0.13868 -0.34669,-0.06934c-0.13868,-0.20801 0.06934,-0.34669 0.06934,-0.34669c1.24962,-0.83308 1.69838,-2.47514 2.29163,-3.8593c0.43121,-1.0061 2.1092,-5.76093 3.18594,-2.49291c0.5731,1.7394 0.87978,3.58394 1.28042,5.37079c0.2649,1.18146 0.63325,2.39204 1.12009,3.51888c-0.18927,-1.27066 0.06503,-3.48239 0.06504,-4.23208c0.00001,-0.75 0.00002,-1.5 0.00003,-2.25l0.12859,-0.54062c0,0 0.21854,-0.12141 0.33995,0.09713z" fill="#edff00" stroke="none" stroke-width="0.5" stroke-linecap="butt"/></g></g></svg>