<svg version="1.1" xmlns="http://www.w3.org/2000/svg" xmlns:xlink="http://www.w3.org/1999/xlink" width="635.67309" height="387.37981" viewBox="0,0,635.67309,387.37981"><g transform="translate(15.06215,27.78156)"><g data-paper-data="{&quot;isPaintingLayer&quot;:true}" fill-rule="nonzero" stroke="#000000" stroke-width="2" stroke-linecap="butt" stroke-linejoin="miter" stroke-miterlimit="10" stroke-dasharray="" stroke-dashoffset="0" style="mix-blend-mode: normal"><path d="M88.59727,-26.73996l43.96024,1.87022l-9.4149,221.29982l-43.96024,-1.87022z" data-paper-data="{&quot;index&quot;:null}" fill="#a5a5a5"/><path d="M91.49348,-26.61673l38.16783,1.62379l-9.42554,221.54959l-38.16783,-1.6238z" data-paper-data="{&quot;index&quot;:null}" fill="#4543d4"/><path d="M80.69882,164.47211l41.71227,1.77459l-0.29754,6.99368l-41.71228,-1.77459z" data-paper-data="{&quot;index&quot;:null}" fill="#a5a5a5"/><path d="M82.13336,130.75262l41.71228,1.77459l-0.29754,6.99367l-41.71228,-1.77459z" data-paper-data="{&quot;index&quot;:null}" fill="#a5a5a5"/><path d="M83.56792,97.03311l41.71227,1.77459l-0.29754,6.99368l-41.71228,-1.77459z" data-paper-data="{&quot;index&quot;:null}" fill="#a5a5a5"/><path d="M85.00246,63.31362l41.71228,1.77459l-0.29754,6.99368l-41.71227,-1.77459z" data-paper-data="{&quot;index&quot;:null}" fill="#a5a5a5"/><path d="M86.43701,29.59413l41.71228,1.77459l-0.29754,6.99367l-41.71227,-1.77459z" data-paper-data="{&quot;index&quot;:null}" fill="#a5a5a5"/><path d="M87.87157,-4.12538l41.71228,1.77459l-0.29754,6.99368l-41.71227,-1.77459z" data-paper-data="{&quot;index&quot;:null}" fill="#a5a5a5"/><path d="M1.30899,309.28439l-0.12659,-43.99982l221.49908,-0.6373l0.12659,43.99982z" fill="#a5a5a5"/><path d="M1.05065,306.3863l-0.10991,-38.20219l221.74908,-0.63803l0.10991,38.20219z" fill="#4543d4"/><path d="M24.43321,308.98168l-0.12012,-41.74983l6.99997,-0.02014l0.12012,41.74983z" fill="#a5a5a5"/><path d="M58.18308,308.88457l-0.12012,-41.74983l6.99997,-0.02014l0.12012,41.74983z" fill="#a5a5a5"/><path d="M91.93294,308.78747l-0.12012,-41.74983l6.99997,-0.02014l0.12012,41.74983z" fill="#a5a5a5"/><path d="M125.6828,308.69036l-0.12012,-41.74983l6.99997,-0.02014l0.12012,41.74983z" fill="#a5a5a5"/><path d="M159.43266,308.59326l-0.12012,-41.74983l6.99997,-0.02014l0.12012,41.74983z" fill="#a5a5a5"/><path d="M193.18253,308.49614l-0.12012,-41.74983l6.99997,-0.02014l0.12012,41.74983z" fill="#a5a5a5"/><path d="M223.10899,308.61772l-0.12659,-43.99982l221.49908,-0.6373l0.12659,43.99982z" fill="#a5a5a5"/><path d="M222.85065,305.71964l-0.10992,-38.2022l221.74908,-0.63803l0.10991,38.20219z" fill="#4543d4"/><path d="M246.23322,308.31501l-0.12013,-41.74983l6.99998,-0.02014l0.12012,41.74983z" fill="#a5a5a5"/><path d="M279.98308,308.21791l-0.12012,-41.74983l6.99997,-0.02014l0.12012,41.74984z" fill="#a5a5a5"/><path d="M313.73294,308.1208l-0.12013,-41.74983l6.99998,-0.02014l0.12012,41.74983z" fill="#a5a5a5"/><path d="M347.4828,308.02369l-0.12012,-41.74983l6.99997,-0.02015l0.12012,41.74983z" fill="#a5a5a5"/><path d="M381.23266,307.92659l-0.12012,-41.74983l6.99997,-0.02015l0.12013,41.74983z" fill="#a5a5a5"/><path d="M414.98253,307.82947l-0.12012,-41.74983l6.99997,-0.02015l0.12013,41.74984z" fill="#a5a5a5"/><path d="M517.55751,356.55986l-43.96024,1.87022l-9.4149,-221.29982l43.96024,-1.87022z" fill="#a5a5a5"/><path d="M514.67194,356.93285l-38.16783,1.6238l-9.42554,-221.54959l38.16783,-1.62379z" fill="#4543d4"/><path d="M516.33861,333.46579l-41.71228,1.77459l-0.29754,-6.99368l41.71227,-1.77459z" fill="#a5a5a5"/><path d="M514.90406,299.74629l-41.71228,1.77459l-0.29754,-6.99367l41.71228,-1.77459z" fill="#a5a5a5"/><path d="M513.46951,266.02679l-41.71228,1.77459l-0.29754,-6.99368l41.71227,-1.77459z" fill="#a5a5a5"/><path d="M512.03495,232.3073l-41.71227,1.77459l-0.29754,-6.99368l41.71228,-1.77459z" fill="#a5a5a5"/><path d="M510.6004,198.5878l-41.71227,1.77459l-0.29754,-6.99367l41.71228,-1.77459z" fill="#a5a5a5"/><path d="M509.16584,164.8683l-41.71227,1.77459l-0.29754,-6.99368l41.71228,-1.77459z" fill="#a5a5a5"/><path d="M-13.69101,229.28439l-0.12659,-43.99982l221.49908,-0.6373l0.12659,43.99982z" fill="#a5a5a5"/><path d="M-13.94935,226.38631l-0.10992,-38.2022l221.74909,-0.63803l0.10991,38.20219z" fill="#4543d4"/><path d="M9.43322,228.98168l-0.12013,-41.74983l6.99998,-0.02014l0.12012,41.74983z" fill="#a5a5a5"/><path d="M43.18308,228.88458l-0.12012,-41.74983l6.99997,-0.02014l0.12013,41.74984z" fill="#a5a5a5"/><path d="M76.93294,228.78747l-0.12013,-41.74983l6.99998,-0.02014l0.12012,41.74983z" fill="#a5a5a5"/><path d="M110.6828,228.69036l-0.12013,-41.74983l6.99997,-0.02015l0.12012,41.74983z" fill="#a5a5a5"/><path d="M144.43266,228.59326l-0.12012,-41.74983l6.99997,-0.02015l0.12013,41.74983z" fill="#a5a5a5"/><path d="M178.18253,228.49614l-0.12013,-41.74983l6.99998,-0.02015l0.12013,41.74984z" fill="#a5a5a5"/><path d="M208.10899,228.61772l-0.12659,-43.99982l221.49908,-0.6373l0.12659,43.99982z" fill="#a5a5a5"/><path d="M207.85065,225.71964l-0.10992,-38.2022l221.74908,-0.63803l0.10991,38.20219z" fill="#4543d4"/><path d="M231.23322,228.31501l-0.12013,-41.74983l6.99998,-0.02014l0.12012,41.74983z" fill="#a5a5a5"/><path d="M264.98308,228.21791l-0.12012,-41.74983l6.99997,-0.02014l0.12012,41.74984z" fill="#a5a5a5"/><path d="M298.73294,228.1208l-0.12013,-41.74983l6.99998,-0.02014l0.12012,41.74983z" fill="#a5a5a5"/><path d="M332.4828,228.02369l-0.12012,-41.74983l6.99997,-0.02015l0.12012,41.74983z" fill="#a5a5a5"/><path d="M366.23266,227.92659l-0.12012,-41.74983l6.99997,-0.02015l0.12013,41.74983z" fill="#a5a5a5"/><path d="M399.98253,227.82947l-0.12012,-41.74983l6.99997,-0.02015l0.12013,41.74984z" fill="#a5a5a5"/><path d="M176.30899,145.28439l-0.12659,-43.99982l221.49908,-0.6373l0.12659,43.99982z" fill="#a5a5a5"/><path d="M176.05065,142.3863l-0.10991,-38.20219l221.74908,-0.63803l0.10991,38.20219z" fill="#4543d4"/><path d="M199.43321,144.98168l-0.12012,-41.74983l6.99997,-0.02014l0.12012,41.74983z" fill="#a5a5a5"/><path d="M233.18308,144.88457l-0.12012,-41.74983l6.99997,-0.02014l0.12012,41.74983z" fill="#a5a5a5"/><path d="M266.93294,144.78747l-0.12012,-41.74983l6.99997,-0.02014l0.12012,41.74983z" fill="#a5a5a5"/><path d="M300.6828,144.69036l-0.12012,-41.74983l6.99997,-0.02014l0.12012,41.74983z" fill="#a5a5a5"/><path d="M334.43266,144.59326l-0.12012,-41.74983l6.99997,-0.02014l0.12012,41.74983z" fill="#a5a5a5"/><path d="M368.18253,144.49614l-0.12012,-41.74983l6.99997,-0.02014l0.12012,41.74983z" fill="#a5a5a5"/><path d="M398.10899,144.61772l-0.12659,-43.99982l221.49908,-0.6373l0.12659,43.99982z" fill="#a5a5a5"/><path d="M397.85065,141.71964l-0.10992,-38.2022l221.74908,-0.63803l0.10991,38.20219z" fill="#4543d4"/><path d="M421.23322,144.31501l-0.12013,-41.74983l6.99998,-0.02014l0.12012,41.74983z" fill="#a5a5a5"/><path d="M454.98308,144.21791l-0.12012,-41.74983l6.99997,-0.02014l0.12012,41.74984z" fill="#a5a5a5"/><path d="M488.73294,144.1208l-0.12013,-41.74983l6.99998,-0.02014l0.12012,41.74983z" fill="#a5a5a5"/><path d="M522.4828,144.02369l-0.12012,-41.74983l6.99997,-0.02015l0.12012,41.74983z" fill="#a5a5a5"/><path d="M556.23266,143.92659l-0.12012,-41.74983l6.99997,-0.02015l0.12013,41.74983z" fill="#a5a5a5"/><path d="M589.98253,143.82947l-0.12012,-41.74983l6.99997,-0.02015l0.12013,41.74984z" fill="#a5a5a5"/></g></g></svg>