<svg version="1.1" xmlns="http://www.w3.org/2000/svg" xmlns:xlink="http://www.w3.org/1999/xlink" width="132.62143" height="123.60698" viewBox="0,0,132.62143,123.60698"><g transform="translate(-174.41047,-136.34203)"><g data-paper-data="{&quot;isPaintingLayer&quot;:true}" fill-rule="nonzero" stroke-linecap="round" stroke-linejoin="miter" stroke-miterlimit="10" stroke-dasharray="" stroke-dashoffset="0" style="mix-blend-mode: normal"><path d="M254.0475,238.01231c-0.1827,0.9053 -1.3302,0.0092 -1.9999,-0.0192c-1.7566,-0.0489 -3.0216,-0.5761 -4.5431,-0.7437c-0.6893,-0.0706 -1.6139,1.6426 -2.0023,0.2308c-1.5528,-5.6472 -1.8925,-11.6088 -3.5345,-17.2348c-0.4042,-1.963 -2.482,-4.172 -1.6807,-7.2165c0.2025,-0.6751 2.2919,0.1251 4.0099,-1.0115c1.2147,-0.6983 2.5062,-1.362 3.794,-1.9636c1.0889,-0.4976 3.5119,-3.0864 4.3926,-1.8079c1.8133,3.0956 0.2454,7.0377 0.5491,10.5058c0.2911,2.7979 0.4941,5.503 0.4706,8.2549c0.3548,3.6666 1.2598,7.4164 0.5443,11.0057z" id="ID0.8758031786419451" fill="#bfbfbf" stroke="#000000" stroke-width="2"/><path d="M227.9982,227.26571c-0.1107,-2.676 0.1507,-5.3427 0.5231,-8.0054c0.4501,-3.6335 -0.579,-7.8028 1.4452,-10.9144c0.9813,-1.2265 3.3037,1.3103 4.3926,1.8079c1.2878,0.6016 2.6027,1.205 3.794,1.9636c1.5234,1.0694 3.17,0.8196 3.3662,1.6677c0.7322,2.5151 -0.6759,4.6997 -1.037,6.5603c-1.4786,5.6635 -1.9817,11.5876 -3.5345,17.2348c-0.3884,1.4118 -1.313,-0.3014 -2.0023,-0.2308c-1.5215,0.1676 -2.7865,0.6948 -4.5431,0.7437c-0.6697,0.0284 -1.7634,0.902 -1.9999,0.0192c-0.9337,-3.5062 -0.5515,-7.23 -0.4043,-10.8466z" id="ID0.8758031786419451" fill="#bfbfbf" stroke="#000000" stroke-width="2"/><path d="M208.5217,162.55171c2.3169,-0.9687 4.7996,-1.6683 7.2891,-1.9353c3.5064,-0.372 7.0133,-1.2457 10.0481,-0.0176c1.5329,0.4754 1.2588,2.8068 1.2745,4.2402c0.0087,1.4189 0.0569,3.0049 -0.6863,4.2166c-1.2213,2.0023 -2.9884,3.7669 -4.9434,5.2065c-0.6104,0.2865 -0.6955,-0.5746 -2.1522,-0.4339c-5.8322,0.5268 -11.6292,1.7204 -17.4793,2.0009c-1.4626,0.0699 -0.1219,-1.3416 -0.4034,-1.9748c-0.6325,-1.3939 -1.5269,-2.4322 -2.1197,-4.0865c-0.2353,-0.6277 -1.3952,-1.2987 -0.6403,-1.8947c2.9076,-2.2851 6.4013,-3.8942 9.8129,-5.3214z" id="ID0.8758031786419451" fill="#bfbfbf" stroke="#000000" stroke-width="2"/><path d="M282.7338,168.20211c0.7695,0.5771 -0.3733,1.2767 -0.593,1.9101c-0.5515,1.6685 -1.4199,2.7287 -2.0175,4.1378c-0.2658,0.64 1.1096,2.0178 -0.3543,1.9842c-5.8552,-0.1351 -11.6726,-1.2993 -17.5236,-1.5661c-1.5834,-0.0906 -3.5095,1.0108 -4.9334,0.039c-1.4314,-0.8465 -1.6178,-2.8362 -2.2785,-4.634c-0.4854,-1.337 -0.5845,-2.7918 -0.7908,-4.1982c-0.1637,-1.1859 -1.7408,-3.7184 -0.4696,-4.7268c3.7014,-0.988 7.803,0.077 11.6839,0.2243c2.4722,0.0974 4.9947,0.8428 7.3348,1.7537c3.4461,1.3421 6.9787,2.8639 9.942,5.076z" id="ID0.8758031786419451" fill="#bfbfbf" stroke="#000000" stroke-width="2"/><path d="M240.25,155c3.33,-0.019 6.635,0.457 9.75,1.5c3.33,1.116 9.41,1.367 9.75,5c0.88,9.489 -4.619,18.421 -6.25,27.75c-0.853,4.838 -0.86,9.823 -0.75,14.75c0.115,4.521 1.633,9.975 1,13.75c-0.117,1.099 -1.195,-3.113 -2.5,-4c-0.7,-0.438 -1.626,0.079 -2.5,0.25c-2.613,0.509 -4.89,1.927 -7.75,2c-2.835,0.065 -5.481,-1.637 -8.25,-2c-0.935,-0.312 -1.952,-0.446 -2.75,0c-1.139,0.657 -2.072,3.809 -2,2.75c-0.322,-3.815 1.477,-8.188 1.5,-12.5c0.015,-5.367 -0.945,-9.877 -2,-16c-1.599,-9.28 -6.852,-16.224 -5.5,-27.75c0.373,-3.238 5.792,-2.745 8.75,-3.75c3.152,-0.837 6.282,-1.726 9.5,-1.75z" id="ID0.733084324747324" fill="#6a00c0" stroke="#000000" stroke-width="2"/><path d="M295.1604,180.19441c-5.6041,-0.3041 -11.4071,0.2655 -16.8065,-0.8275c-1.3504,-0.2723 -0.1263,-1.5047 0.017,-2.5383c0.1997,-1.4078 0.3776,-2.8424 0.8235,-4.1919c0.6418,-1.9362 3.1326,-3.6921 2.7147,-5.8859c-0.5361,-1.9138 -5.8759,-3.5638 -4.9349,-3.8896c0.7576,-0.2309 5.7137,2.66 8.8653,3.0685c6.4244,0.8378 13.3839,0.0402 20.1924,0.7976c1.4636,0.2496 -0.5407,1.3092 -1.1036,1.5345c-2.0902,0.8337 -5.004,-0.2817 -6.703,0.9792c-2.1023,2.1327 -3.4926,5.143 -3.3766,8.0182c0.0837,1.3254 3.5089,0.239 4.6287,1.3184c0.448,0.5291 -0.5122,1.7529 -1.1506,2.071c-1.0602,0.3358 -1.7838,-0.3796 -3.1664,-0.4542z" id="ID0.8758031786419451" fill="#bf0000" stroke="#000000" stroke-width="2"/><path d="M183.8539,180.10511c-0.6432,-0.308 -1.6227,-1.5165 -1.183,-2.0525c1.1025,-1.097 4.5445,-0.0649 4.6072,-1.3914c0.0705,-2.8767 -1.3671,-5.8647 -3.5028,-7.9639c-1.7188,-1.2339 -4.6146,-0.0726 -6.7177,-0.8732c-0.5664,-0.2164 -2.5872,-1.2441 -1.1277,-1.5168c6.7957,-0.8649 13.7669,-0.1773 20.1773,-1.1166c3.1447,-0.4582 8.0546,-3.4271 8.8157,-3.2082c0.946,0.311 -4.3671,2.0451 -4.8728,3.9671c-0.3832,2.2002 2.135,3.9165 2.8073,5.8422c0.4672,1.3423 0.6678,2.774 0.8896,4.1785c0.1597,1.0311 1.4031,2.244 0.0572,2.5376c-5.3815,1.1782 -11.1928,0.7004 -16.7914,1.093c-1.3812,0.0964 -2.0935,0.8231 -3.1589,0.5042z" id="ID0.8758031786419451" fill="#bf0000" stroke="#000000" stroke-width="2"/><path d="M224.3307,157.93531c2.8003,-2.0706 4.6705,-9.6033 4.7212,-9.4319c1.4889,0.6838 0.3452,8.0245 -0.2543,11.8136c-0.2149,1.6108 -0.1369,2.8998 -0.5852,4.9419c-0.4744,2.2792 -0.435,4.9845 -1.668,6.792c-1.2319,1.8073 -3.0424,3.0154 -5.1389,3.1929c-2.0965,0.1775 -4.0844,-0.709 -5.6026,-2.2835c-1.5193,-1.5745 -1.7855,-4.3278 -2.7861,-6.4148c-0.8411,-1.933 -2.5734,-2.2188 -3.3661,-3.6039c-0.3803,-1.0316 -1.0959,-2.099 -0.5056,-2.416c1.9332,-1.3719 4.5284,-0.9925 6.4879,-1.603c1.5132,-0.4643 2.3975,-2.4902 4.045,-2.6005c1.5989,-0.2588 3.2458,2.6335 4.6527,1.6132z" id="ID0.8758031786419451" fill="#6a00c0" stroke="#000000" stroke-width="2"/><path d="M247.5124,236.45801c1.5136,1.1789 3.5714,0.6632 5.7261,0.9247c0.9909,0.1262 1.7516,-0.433 2.9574,0.5038c0.7646,0.6801 0.5668,2.0382 0.482,3.1254c-0.1203,1.7243 -0.7878,3.4213 -0.8817,5.1754c-0.3158,3.8192 0.2676,8.1537 -0.7902,11.7847c-0.3026,0.9902 -1.4843,0.2036 -2.2202,0.2304c-2.4918,0.0858 -5.012,0.6536 -7.5322,0.7457c-1.5382,-0.0754 -5.8142,0.6762 -7.2383,-0.9795c0.8229,-2.1513 5.322,-4.35 6.0092,-6.9901c0.7311,-2.4815 0.8801,-5.1787 0.7676,-7.7816c-0.1956,-4.5089 -1.9062,-11.682 -1.2503,-13.5017c0.5397,-1.1436 1.9375,5.258 3.9706,6.7628z" id="ID0.8758031786419451" fill="#6a00c0" stroke="#000000" stroke-width="2"/><path d="M230.2624,236.40801c1.5136,1.1789 3.5714,0.6632 5.7261,0.9247c0.9909,0.1262 1.7516,-0.433 2.9574,0.5038c0.7646,0.6801 0.5668,2.0382 0.482,3.1254c-0.1203,1.7243 -0.7878,3.4213 -0.8817,5.1754c-0.3158,3.8192 0.2676,8.1537 -0.7902,11.7847c-0.3026,0.9902 -1.4843,0.2036 -2.2202,0.2304c-2.4918,0.0858 -5.012,0.6536 -7.5322,0.7457c-1.5382,-0.0754 -5.8142,0.6762 -7.2383,-0.9795c0.8229,-2.1513 5.322,-4.35 6.0092,-6.9901c0.7311,-2.4815 0.8801,-5.1787 0.7676,-7.7816c-0.1956,-4.5089 -1.9062,-11.682 -1.2503,-13.5017c0.5397,-1.1436 1.9375,5.258 3.9706,6.7628z" id="ID0.8758031786419451" fill="#6a00c0" stroke="#000000" stroke-width="2"/><path d="M262.0383,156.268c1.6424,0.1703 2.4524,2.2269 3.9477,2.746c1.936,0.6814 4.5434,0.3966 6.4253,1.838c0.5784,0.3382 -0.1755,1.3789 -0.5932,2.396c-0.8425,1.3553 -2.5841,1.578 -3.4949,3.479c-1.0759,2.0493 -1.4421,4.7911 -3.0177,6.3092c-1.5745,1.5183 -3.5933,2.3318 -5.682,2.0782c-2.0886,-0.2537 -3.854,-1.5268 -5.0193,-3.3778c-1.1664,-1.8511 -1.0286,-4.5532 -1.4198,-6.8481c-0.3737,-2.0571 -0.2488,-3.3424 -0.4049,-4.96c-0.4613,-3.8084 -1.3372,-11.1858 0.1757,-11.815c0.0568,-0.1694 1.6517,7.4263 4.3748,9.5974c1.3689,1.0708 3.1199,-1.7597 4.7083,-1.4429z" id="ID0.8758031786419451" fill="#6a00c0" stroke="#000000" stroke-width="2"/><path d="M233.25,156c-1.014,-1.084 -0.915,-4.345 -1,-4.4c-0.085,-0.064 -0.221,5.473 0,4.4c0.268,-2.84 0.128,-8.351 1,-12.4c0.294,-1.349 1.203,-2.573 2.235,-3.502c1.537,-1.395 3.265,-2.878 5.265,-2.748c2.074,-0.13 3.86,1.391 5.515,2.748c0.977,0.797 1.872,2.078 2.235,3.002c0.821,3.331 1.02,6.154 1.25,9.25c0.094,1.23 0.125,2.255 -0.25,3.15c-0.122,0.453 -0.612,0.126 -1,0.25c-1.542,0.492 -2.461,1.152 -3.75,1.5c-1.368,0.381 -2.78,0.93 -4.25,1c-1.456,-0.151 -2.764,-0.885 -4.25,-1.25c-1.013,-0.26 -1.94,0.014 -3,-1z" id="ID0.8758031786419451" fill="#6a00c0" stroke="#000000" stroke-width="2"/><path d="M235.25,145l4.5,1.4l4.75,-1.4v2.75h-9.25z" id="ID0.5234519117511809" fill="#ff0000" stroke="none" stroke-width="1"/></g></g></svg>