<svg version="1.1" xmlns="http://www.w3.org/2000/svg" xmlns:xlink="http://www.w3.org/1999/xlink" width="603.81627" height="701.72164" viewBox="0,0,603.81627,701.72164"><defs><linearGradient x1="-12.31817" y1="36.3607" x2="-12.31817" y2="37.3607" gradientUnits="userSpaceOnUse" id="color-1"><stop offset="0" stop-color="#4d4d4d"/><stop offset="1" stop-color="#ff0000"/></linearGradient></defs><g transform="translate(24.63634,133.78689)"><g data-paper-data="{&quot;isPaintingLayer&quot;:true}" fill-rule="nonzero" stroke="#000000" stroke-width="2" stroke-linecap="butt" stroke-linejoin="miter" stroke-miterlimit="10" stroke-dasharray="" stroke-dashoffset="0" style="mix-blend-mode: normal"><path d="M-24.63634,73.7214v0z" fill="url(#color-1)"/><path d="M118.17831,385.71444l-43.99995,0.07085l-0.35666,-221.49972l43.99995,-0.07085z" fill="#a5a5a5"/><path d="M115.27988,385.96911l-38.2023,0.06152l-0.35706,-221.74971l38.2023,-0.06152z" fill="#4543d4"/><path d="M117.90489,362.58985l-41.74995,0.06723l-0.01127,-6.99999l41.74995,-0.06723z" fill="#a5a5a5"/><path d="M117.85054,328.83989l-41.74995,0.06723l-0.01127,-6.99999l41.74995,-0.06723z" fill="#a5a5a5"/><path d="M117.79622,295.08993l-41.74996,0.06723l-0.01127,-6.99999l41.74995,-0.06723z" fill="#a5a5a5"/><path d="M117.74185,261.33998l-41.74995,0.06723l-0.01127,-6.99999l41.74995,-0.06723z" fill="#a5a5a5"/><path d="M117.68752,227.59003l-41.74995,0.06723l-0.01127,-6.99999l41.74995,-0.06724z" fill="#a5a5a5"/><path d="M117.63317,193.84006l-41.74995,0.06723l-0.01127,-6.99999l41.74995,-0.06723z" fill="#a5a5a5"/><path d="M280.17832,183.71444l-43.99995,0.07085l-0.35666,-221.49972l43.99995,-0.07085z" fill="#a5a5a5"/><path d="M277.27988,183.96911l-38.2023,0.06152l-0.35706,-221.74971l38.2023,-0.06152z" fill="#4543d4"/><path d="M279.9049,160.58985l-41.74995,0.06723l-0.01127,-6.99999l41.74995,-0.06723z" fill="#a5a5a5"/><path d="M279.85055,126.83989l-41.74995,0.06723l-0.01127,-6.99999l41.74995,-0.06723z" fill="#a5a5a5"/><path d="M279.79622,93.08993l-41.74996,0.06723l-0.01127,-6.99999l41.74995,-0.06723z" fill="#a5a5a5"/><path d="M279.74186,59.33998l-41.74995,0.06723l-0.01127,-6.99999l41.74995,-0.06723z" fill="#a5a5a5"/><path d="M279.68752,25.59003l-41.74995,0.06723l-0.01127,-6.99999l41.74995,-0.06724z" fill="#a5a5a5"/><path d="M279.63317,-8.15994l-41.74995,0.06723l-0.01127,-6.99999l41.74995,-0.06723z" fill="#a5a5a5"/><path d="M282.17832,509.71444l-43.99995,0.07085l-0.35666,-221.49972l43.99995,-0.07085z" fill="#a5a5a5"/><path d="M279.27988,509.96911l-38.2023,0.06152l-0.35706,-221.74971l38.2023,-0.06152z" fill="#4543d4"/><path d="M281.9049,486.58985l-41.74995,0.06723l-0.01127,-6.99999l41.74995,-0.06723z" fill="#a5a5a5"/><path d="M281.85055,452.83989l-41.74995,0.06723l-0.01127,-6.99999l41.74995,-0.06723z" fill="#a5a5a5"/><path d="M281.79622,419.08993l-41.74996,0.06723l-0.01127,-6.99999l41.74995,-0.06723z" fill="#a5a5a5"/><path d="M281.74186,385.33998l-41.74995,0.06723l-0.01127,-6.99999l41.74995,-0.06723z" fill="#a5a5a5"/><path d="M281.68752,351.59003l-41.74995,0.06723l-0.01127,-6.99999l41.74995,-0.06724z" fill="#a5a5a5"/><path d="M281.63317,317.84006l-41.74995,0.06723l-0.01127,-6.99999l41.74995,-0.06723z" fill="#a5a5a5"/><path d="M423.17832,381.71444l-43.99995,0.07085l-0.35666,-221.49972l43.99995,-0.07085z" fill="#a5a5a5"/><path d="M420.27989,381.96911l-38.2023,0.06152l-0.35706,-221.74971l38.2023,-0.06152z" fill="#4543d4"/><path d="M422.9049,358.58985l-41.74995,0.06723l-0.01127,-6.99999l41.74995,-0.06723z" fill="#a5a5a5"/><path d="M422.85055,324.83989l-41.74995,0.06723l-0.01127,-6.99999l41.74995,-0.06723z" fill="#a5a5a5"/><path d="M422.79622,291.08993l-41.74996,0.06723l-0.01127,-6.99999l41.74995,-0.06723z" fill="#a5a5a5"/><path d="M422.74186,257.33998l-41.74995,0.06723l-0.01127,-6.99999l41.74995,-0.06723z" fill="#a5a5a5"/><path d="M422.68752,223.59003l-41.74995,0.06723l-0.01127,-6.99999l41.74995,-0.06724z" fill="#a5a5a5"/><path d="M422.63317,189.84006l-41.74995,0.06723l-0.01127,-6.99999l41.74995,-0.06723z" fill="#a5a5a5"/><path d="M422.17832,88.71444l-43.99995,0.07085l-0.35666,-221.49972l43.99995,-0.07085z" fill="#a5a5a5"/><path d="M419.27989,88.96911l-38.2023,0.06152l-0.35706,-221.74971l38.2023,-0.06152z" fill="#4543d4"/><path d="M421.9049,65.58985l-41.74995,0.06723l-0.01127,-6.99999l41.74995,-0.06723z" fill="#a5a5a5"/><path d="M421.85055,31.83989l-41.74995,0.06723l-0.01127,-6.99999l41.74995,-0.06723z" fill="#a5a5a5"/><path d="M421.79622,-1.91007l-41.74996,0.06723l-0.01127,-6.99999l41.74995,-0.06723z" fill="#a5a5a5"/><path d="M421.74186,-35.66002l-41.74995,0.06723l-0.01127,-6.99999l41.74995,-0.06723z" fill="#a5a5a5"/><path d="M421.68752,-69.40997l-41.74995,0.06723l-0.01127,-6.99999l41.74995,-0.06724z" fill="#a5a5a5"/><path d="M421.63317,-103.15994l-41.74995,0.06723l-0.01127,-6.99999l41.74995,-0.06723z" fill="#a5a5a5"/><path d="M578.17832,172.71444l-43.99995,0.07085l-0.35666,-221.49972l43.99995,-0.07085z" fill="#a5a5a5"/><path d="M575.27989,172.96911l-38.2023,0.06152l-0.35706,-221.74971l38.2023,-0.06152z" fill="#4543d4"/><path d="M577.9049,149.58985l-41.74995,0.06723l-0.01127,-6.99999l41.74995,-0.06723z" fill="#a5a5a5"/><path d="M577.85055,115.83989l-41.74995,0.06723l-0.01127,-6.99999l41.74995,-0.06723z" fill="#a5a5a5"/><path d="M577.79622,82.08993l-41.74996,0.06723l-0.01127,-6.99999l41.74995,-0.06723z" fill="#a5a5a5"/><path d="M577.74186,48.33998l-41.74995,0.06723l-0.01127,-6.99999l41.74995,-0.06723z" fill="#a5a5a5"/><path d="M577.68752,14.59003l-41.74995,0.06723l-0.01127,-6.99999l41.74995,-0.06724z" fill="#a5a5a5"/><path d="M577.63316,-19.15994l-41.74995,0.06723l-0.01127,-6.99999l41.74995,-0.06723z" fill="#a5a5a5"/><path d="M578.17832,566.61695l-43.99995,0.07085l-0.35666,-221.49972l43.99995,-0.07085z" fill="#a5a5a5"/><path d="M575.27988,566.87162l-38.2023,0.06152l-0.35706,-221.74971l38.2023,-0.06152z" fill="#4543d4"/><path d="M577.9049,543.49236l-41.74995,0.06723l-0.01127,-6.99999l41.74995,-0.06723z" fill="#a5a5a5"/><path d="M577.85055,509.7424l-41.74995,0.06723l-0.01127,-6.99999l41.74995,-0.06723z" fill="#a5a5a5"/><path d="M577.79622,475.99244l-41.74996,0.06723l-0.01127,-6.99999l41.74995,-0.06723z" fill="#a5a5a5"/><path d="M577.74186,442.24249l-41.74995,0.06723l-0.01127,-6.99999l41.74995,-0.06723z" fill="#a5a5a5"/><path d="M577.68752,408.49254l-41.74995,0.06723l-0.01127,-6.99999l41.74995,-0.06724z" fill="#a5a5a5"/><path d="M577.63316,374.74257l-41.74995,0.06723l-0.01127,-6.99999l41.74995,-0.06723z" fill="#a5a5a5"/></g></g></svg>