<svg version="1.1" xmlns="http://www.w3.org/2000/svg" xmlns:xlink="http://www.w3.org/1999/xlink" width="43.21407" height="23.60252" viewBox="0,0,43.21407,23.60252"><g transform="translate(-89.79951,-24.64367)"><g data-paper-data="{&quot;isPaintingLayer&quot;:true}" fill-rule="nonzero" stroke="#000000" stroke-width="1.5" stroke-linejoin="miter" stroke-miterlimit="10" stroke-dasharray="" stroke-dashoffset="0" style="mix-blend-mode: normal"><path d="M96.38475,44.90316v0v0v0z" data-paper-data="{&quot;index&quot;:null}" fill="#008204" stroke-linecap="butt"/><path d="M110.91727,39.90211l-5.1669,7.58546l-14.55347,-0.3143l5.03452,-7.3959z" data-paper-data="{&quot;index&quot;:null}" fill="#828282" stroke-linecap="round"/><path d="M96.82228,24.64367v0v0z" fill="#008204" stroke-linecap="butt"/><path d="M96.3422,34.64839l-4.71054,-7.60635l14.55347,0.3143l4.83459,7.80146z" fill="#828282" stroke-linecap="round"/><path d="M121.70729,37.76187c-0.10246,4.74469 -5.91198,8.46737 -12.97591,8.31481c-7.06394,-0.15255 -12.70731,-4.12255 -12.60485,-8.86725c0.10246,-4.74469 5.91198,-8.46737 12.97591,-8.31481c7.06394,0.15255 12.70731,4.12255 12.60485,8.86725z" fill="#008204" stroke-linecap="butt"/><path d="M116.47279,30.65732l14.76687,8.25319l-14.67988,5.53925" fill="#008204" stroke-linecap="round"/><path d="M107.98075,45.5384l0.34614,-16.02805l4.68019,0.10108l-0.34614,16.02805z" fill="#006503" stroke-linecap="butt"/></g></g></svg>