<svg version="1.1" xmlns="http://www.w3.org/2000/svg" xmlns:xlink="http://www.w3.org/1999/xlink" width="50.72886" height="32.67374" viewBox="0,0,50.72886,32.67374"><g transform="translate(-290.47886,-149.85954)"><g data-paper-data="{&quot;isPaintingLayer&quot;:true}" fill-rule="nonzero" stroke-linejoin="miter" stroke-miterlimit="10" stroke-dasharray="" stroke-dashoffset="0" style="mix-blend-mode: normal"><path d="M328.7622,161.9735c1.9931,0.3318 3.3181,2.537 4.0992,4.3723c0.8205,1.9277 1.2724,4.2898 0.681,6.3373c-0.3737,1.0293 -2.036,0.9762 -3.0911,1.3381c-2.7964,0.9615 -5.6813,1.7212 -8.4907,2.6679c-3.371,1.0476 -6.6797,2.3032 -10.0676,3.3206c-0.8463,0.2554 -1.4342,0.7064 -1.8221,0.2056c-1.3009,-1.6813 -1.9131,-3.86 -2.5863,-5.8958c-0.5362,-1.6229 -0.0331,-3.4948 -0.9918,-4.8246c-0.5853,-0.815 -2.0484,-0.761 -2.8579,-0.255c-1.1481,0.7129 -0.9296,2.7627 -2.0077,3.6182c-0.9896,0.7837 -2.4203,1.5246 -3.6253,1.1391c-2.1359,-0.6863 -4.2375,-2.027 -5.4675,-3.8899c-0.4294,-0.7529 0.8922,-2.0246 1.7269,-2.0101c1.6377,0.0315 2.8803,2.4649 4.5041,1.9914c2.0078,-0.5889 2.329,-3.6898 4.1147,-4.752c1.0923,-0.6503 2.5938,-0.5822 3.8146,-0.2028c0.9605,0.2978 1.4259,1.9859 2.3713,1.8755c3.2179,-0.4305 6.0002,-2.5877 9.0086,-3.3548c3.491,-0.8893 7.1627,-2.3543 10.6876,-1.681z" fill="#000000" stroke="#000000" stroke-width="2" stroke-linecap="round"/><path d="M340.4775,155.8873c0.1513,1.9393 0.0788,3.991 -0.5049,5.8202c-0.4866,1.5266 -1.387,3.0677 -2.771,3.9331c-1.3842,0.8664 -3.1183,1.2181 -4.8731,0.8502c-1.7549,-0.3679 -3.2017,-1.3864 -4.1214,-2.7358c-0.9199,-1.3485 -0.5065,-3.1786 -0.9579,-4.7149c-0.7035,-2.4004 -2.9735,-5.7791 -2.3547,-7.2882c0.3744,-0.9136 2.7172,2.1033 4.3412,2.4427c2.1947,0.4581 4.6959,0.6381 6.9141,-0.0831c1.3993,-0.5046 2.0847,-3.7541 3.1492,-3.3246c1.1905,0.4815 1.0454,3.3815 1.1785,5.1004z" fill="#000000" stroke="#000000" stroke-width="2" stroke-linecap="round"/><path d="M338.275,157.42c0.263,0.136 0.425,0.323 0.425,0.53c0,0.207 -0.162,0.394 -0.425,0.53c-0.262,0.136 -0.625,0.22 -1.025,0.22c-0.4,0 -0.763,-0.084 -1.025,-0.22c-0.263,-0.136 -0.425,-0.323 -0.425,-0.53c0,-0.207 0.162,-0.394 0.425,-0.53c0.262,-0.136 0.625,-0.22 1.025,-0.22c0.4,0 0.763,0.084 1.025,0.22z" fill="#ff0000" stroke="none" stroke-width="1" stroke-linecap="butt"/><path d="M333.132,158.732c0.258,0.081 0.418,0.194 0.418,0.318c0,0.124 -0.16,0.237 -0.418,0.318c-0.258,0.082 -0.614,0.132 -1.007,0.132c-0.393,0 -0.749,-0.05 -1.007,-0.132c-0.258,-0.081 -0.418,-0.194 -0.418,-0.318c0,-0.124 0.16,-0.237 0.418,-0.318c0.258,-0.082 0.614,-0.132 1.007,-0.132c0.393,0 0.749,0.05 1.007,0.132z" fill="#ff0000" stroke="none" stroke-width="1" stroke-linecap="butt"/><path d="M329.73502,178.35828c-0.45,-0.6 0.15,-1.05 0.15,-1.05l0.71283,-0.48651c2.25363,-0.62052 0.91121,-2.448 0.62238,-4.16519c0,0 -0.1233,-0.7398 0.6165,-0.86309c0.7398,-0.1233 0.86309,0.6165 0.86309,0.6165c0.42281,2.56326 1.55249,4.66547 -1.62762,5.83481l-0.28717,0.26349c0,0 -0.6,0.45 -1.05,-0.15z" fill="#000000" stroke="none" stroke-width="0.5" stroke-linecap="butt"/><path d="M329.1972,181.86979c-0.71151,0.23717 -0.94868,-0.47434 -0.94868,-0.47434l-0.08431,-0.27676c-1.63169,-3.27198 -2.16342,-4.11812 -0.07822,-7.25144c0,0 0.41603,-0.62404 1.04006,-0.20801c0.62404,0.41603 0.20801,1.04006 0.20801,1.04006c-1.80619,2.70486 -1.29472,2.82263 0.17178,5.74856l0.16569,0.47324c0,0 0.23717,0.71151 -0.47434,0.94868z" fill="#000000" stroke="none" stroke-width="0.5" stroke-linecap="butt"/><path d="M321.17969,179.68861c-0.53033,-0.53033 0,-1.06066 0,-1.06066l0.5469,-0.5332c0.18708,-0.35703 0.24494,-0.78356 0.23343,-1.18647c0,0 0,-0.75 0.75,-0.75c0.75,0 0.75,0.75 0.75,0.75c-0.01358,0.70894 -0.2053,1.42644 -0.51657,2.06353l-0.7031,0.7168c0,0 -0.53033,0.53033 -1.06066,0z" fill="#000000" stroke="none" stroke-width="0.5" stroke-linecap="butt"/><path d="M318.24035,181.43861c-0.53033,0.53033 -1.06066,0 -1.06066,0l-0.0107,-0.03129c-1.50516,-1.16475 -1.16467,-2.36928 -0.68012,-4.08008c0,0 0.20604,-0.72114 0.92718,-0.5151c0.72114,0.20604 0.5151,0.92718 0.5151,0.92718c-0.24405,0.84581 -0.82664,2.01168 0.06988,2.41992l0.2393,0.21871c0,0 0.53033,0.53033 0,1.06066z" fill="#000000" stroke="none" stroke-width="0.5" stroke-linecap="butt"/><path d="M311.48844,182.16389c-0.09467,0.18561 -0.28216,0.36939 -0.65342,0.36939c-0.75,0 -0.75,-0.75 -0.75,-0.75l0.41459,-0.79582c1.00405,-0.50202 1.88125,-1.12246 2.875,-1.625c0,0 0.67082,-0.33541 1.00623,0.33541c0.33541,0.67082 -0.33541,1.00623 -0.33541,1.00623c-0.88484,0.43636 -1.6838,0.99006 -2.55699,1.45978z" fill="#000000" stroke="none" stroke-width="0.5" stroke-linecap="butt"/><path d="M337.544,169.28232c-0.62404,-0.41603 -0.20801,-1.04006 -0.20801,-1.04006l0.26374,-0.3949c1.46995,-2.04812 1.76868,-3.97275 2.11784,-6.42014c0,0 0.10607,-0.74246 0.84853,-0.6364c0.74246,0.10607 0.6364,0.84853 0.6364,0.84853c-0.38471,2.68929 -0.77787,4.8242 -2.38216,7.07986l-0.23626,0.3551c0,0 -0.41603,0.62404 -1.04006,0.20801z" fill="#000000" stroke="none" stroke-width="0.5" stroke-linecap="butt"/><path d="M334.26002,171.25828c-0.6,-0.45 -0.15,-1.05 -0.15,-1.05l0.2352,-0.1733c0.18521,-1.10609 0.57034,-2.14983 0.75,-3.25c0,0 0.1233,-0.7398 0.86309,-0.6165c0.7398,0.1233 0.6165,0.86309 0.6165,0.86309c-0.18689,1.10223 -0.56639,2.14274 -0.75,3.25l-0.5148,0.8267c0,0 -0.45,0.6 -1.05,0.15z" fill="#000000" stroke="none" stroke-width="0.5" stroke-linecap="butt"/><path d="M320.6642,155.99369c-0.33541,-0.67082 0.33541,-1.00623 0.33541,-1.00623l0.62322,-0.29484c0.82713,-0.99761 1.54346,-2.0503 2.39776,-3.02822c0,0 0.49388,-0.56443 1.05831,-0.07055c0.56443,0.49388 0.07055,1.05831 0.07055,1.05831c-0.91683,1.04601 -1.68805,2.17282 -2.60224,3.22178l-0.87678,0.45516c0,0 -0.67082,0.33541 -1.00623,-0.33541z" fill="#000000" stroke="none" stroke-width="0.5" stroke-linecap="butt"/><path d="M319.23242,157.85138c0.1819,-0.72761 0.90951,-0.54571 0.90951,-0.54571l0.41112,0.1084c2.72918,0.34533 3.28111,-0.6517 5.57156,-1.80161c0,0 0.67082,-0.33541 1.00623,0.33541c0.33541,0.67082 -0.33541,1.00623 -0.33541,1.00623c-2.47281,1.23075 -3.43433,2.31847 -6.42844,1.94839l-0.58888,-0.1416c0,0 -0.72761,-0.1819 -0.54571,-0.90951z" fill="#000000" stroke="none" stroke-width="0.5" stroke-linecap="butt"/><path d="M318.80469,160.00295c0.377,-0.377 0.75401,-0.21799 0.94049,-0.09454c2.07328,-0.00096 4.12597,-0.05224 6.10267,-0.71164c0,0 0.71151,-0.23717 0.94868,0.47434c0.23717,0.71151 -0.47434,0.94868 -0.47434,0.94868c-2.22739,0.74192 -4.52653,0.78591 -6.86217,0.78849l-0.65533,-0.34467c0,0 -0.53033,-0.53033 0,-1.06066z" fill="#000000" stroke="none" stroke-width="0.5" stroke-linecap="butt"/><path d="M290.58502,176.03328c0,-0.75 0.75,-0.75 0.75,-0.75l0.1279,0.09882c0.06642,-0.03774 1.74822,-0.93108 1.75323,-1.12815c0.0139,-0.54663 -1.08647,-0.30355 -1.50248,-0.65841c-1.47662,-1.25957 -1.77473,-3.06469 -0.08906,-4.10808c0,0 0.67082,-0.33541 1.00623,0.33541c0.33541,0.67082 -0.33541,1.00623 -0.33541,1.00623c-1.61088,0.35456 2.37073,2.84847 2.40846,3.23351c0.12004,1.22478 -1.67443,2.14962 -2.49677,2.62185l-0.8721,0.09882c0,0 -0.75,0 -0.75,-0.75z" fill="#000000" stroke="none" stroke-width="0.5" stroke-linecap="butt"/><path d="M294.0392,177.99369c-0.33541,-0.67082 0.33541,-1.00623 0.33541,-1.00623l0.30508,-0.10951c1.3393,-1.3393 1.30632,-1.82851 1.53612,-3.6877c0,0 0.09303,-0.74421 0.83723,-0.65118c0.74421,0.09303 0.65118,0.83723 0.65118,0.83723c-0.2661,2.10306 -0.42373,3.02215 -1.96388,4.5623l-0.69492,0.39049c0,0 -0.67082,0.33541 -1.00623,-0.33541z" fill="#000000" stroke="none" stroke-width="0.5" stroke-linecap="butt"/><path d="M295.71002,164.90828c0,-0.75 0.75,-0.75 0.75,-0.75h0.125c1.84174,0 3.8192,-0.80301 5.67231,-0.35494c0.87471,0.2115 1.1564,0.6191 2.07769,0.60494c0,0 0.75,0 0.75,0.75c0,0.75 -0.75,0.75 -0.75,0.75c-1.00128,-0.01114 -1.51999,-0.40858 -2.42231,-0.64506c-1.65783,-0.4345 -3.65577,0.39506 -5.32769,0.39506h-0.125c0,0 -0.75,0 -0.75,-0.75z" fill="#000000" stroke="none" stroke-width="0.5" stroke-linecap="butt"/><path d="M300.33502,176.53328c0,-0.75 0.75,-0.75 0.75,-0.75l-0.08104,0.02886c2.96547,-0.83501 1.3875,-2.21763 2.38813,-4.56587c0.57413,-1.34734 1.28011,-1.07958 2.3575,-1.63381c0,0 0.67082,-0.33541 1.00623,0.33541c0.33541,0.67082 -0.33541,1.00623 -0.33541,1.00623c-0.4492,0.21969 -0.99353,0.21177 -1.42818,0.45899c-0.8216,0.4673 -0.25786,2.72271 -0.42729,3.4175c-0.36974,1.51617 -1.83009,2.04234 -3.1489,2.42383l-0.33104,0.02886c0,0 -0.75,0 -0.75,-0.75z" fill="#000000" stroke="none" stroke-width="0.5" stroke-linecap="butt"/><path d="M331.33502,151.78328c0,-0.75 0.75,-0.75 0.75,-0.75h0.625c2.08233,0.00773 3.54477,-1.125 5.625,-1.125c0,0 0.75,0 0.75,0.75c0,0.75 -0.75,0.75 -0.75,0.75c-2.01856,0 -3.52567,1.11839 -5.625,1.125h-0.625c0,0 -0.75,0 -0.75,-0.75z" fill="#000000" stroke="none" stroke-width="0.5" stroke-linecap="butt"/></g></g></svg>