<svg xmlns="http://www.w3.org/2000/svg" xmlns:xlink="http://www.w3.org/1999/xlink" version="1.1" width="30.576369388123066" height="19.160069568176777" viewBox="0.4065150701901753 0.5083150350949605 30.576369388123066 19.160069568176777">
  <!-- Exported by Scratch - http://scratch.mit.edu/ -->
  <g id="ID0.8484620321542025">
    <path id="ID0.5887186862528324" fill="#666666" stroke="#000000" stroke-width="0.9589396440501261" stroke-linecap="round" d="M 6.6646 18.6238 L 6.5908 7.1835 L 17.1207 10.0295 L 16.516 12.681 L 6.6646 18.6238 Z "/>
    <g id="ID0.9927080664783716">
      <path id="ID0.5887186862528324" fill="#666666" stroke="#000000" stroke-width="0.9589395906131288" stroke-linecap="round" d="M 2.037 2.8643 L 8.0022 1.1661 L 6.8071 19.0106 L 1.0643 18.6569 L 2.037 2.8643 Z "/>
      <path id="ID0.6224060878157616" fill="#666666" stroke="#000000" stroke-width="0.9589395906131288" d="M 16.2632 10.333 L 27.7487 11.0404 L 27.6728 13.0533 L 16.0437 12.337 L 16.2632 10.333 Z "/>
    </g>
    <g id="ID0.27431527338922024">
      <path id="ID0.936144629959017" fill="#00FF55" stroke="#000000" stroke-width="0.9589395906131288" d="M 27.626 10.0582 L 30.3251 11.4734 L 30.2455 12.7655 L 27.3608 14.3652 L 27.626 10.0582 Z "/>
      <path id="ID0.936144629959017" fill="#00FF55" stroke="#000000" stroke-width="1.1966932336248604" d="M 22.3717 8.9951 L 25.7399 10.7612 L 25.4247 12.9599 L 22.0407 14.3701 L 22.3717 8.9951 Z "/>
      <path id="ID0.936144629959017" fill="#00FF55" stroke="#000000" stroke-width="1.315569980164083" d="M 16.7086 8.4162 L 20.4114 10.3577 L 20.0648 12.7748 L 16.3447 14.3251 L 16.7086 8.4162 Z "/>
      <path id="ID0.936144629959017" fill="#00FF55" stroke="#000000" stroke-width="1.1966932336248604" d="M 2.2444 3.8475 L 6.7031 6.4001 L 2.2128 10.2 L 2.2444 3.8475 Z "/>
      <path id="ID0.936144629959017" fill="#00FF55" stroke="#000000" stroke-width="1.1966932336248604" d="M 1.7384 11.0263 L 6.1972 13.5789 L 1.7068 17.3788 L 1.7384 11.0263 Z "/>
    </g>
  </g>
</svg>