<svg version="1.1" xmlns="http://www.w3.org/2000/svg" xmlns:xlink="http://www.w3.org/1999/xlink" width="22.08833" height="23.29907" viewBox="0,0,22.08833,23.29907"><defs><radialGradient cx="319.247" cy="174.0161" r="20.9223" gradientUnits="userSpaceOnUse" id="color-1"><stop offset="0" stop-color="#aeff99"/><stop offset="1" stop-color="#35ff00"/></radialGradient></defs><g transform="translate(-307.5,-168.2)"><g data-paper-data="{&quot;isPaintingLayer&quot;:true}" fill="url(#color-1)" fill-rule="nonzero" stroke="#35ff00" stroke-width="2" stroke-linecap="round" stroke-linejoin="miter" stroke-miterlimit="10" stroke-dasharray="" stroke-dashoffset="0" style="mix-blend-mode: normal"><path d="M311.5,173.2c0.578,-1.206 3.236,0.855 4.8,0.7c0.846,-0.084 1.975,-0.748 2,-1.6c0.037,-1.274 -2.668,-2.818 -1.9,-3.1c1.307,-0.618 4.303,0.194 6.05,1.3c2.221,1.405 4.369,3.705 5.45,5.7c0.955,1.701 1.446,4.111 0.75,6c-0.951,2.58 -3.092,4.839 -5.35,6.5c-1.507,1.103 -4.576,2.394 -5.65,1.5c-0.947,-0.793 2.714,-4.079 1.75,-4.6c-1.301,-0.704 -4.914,2.648 -6.4,2.1c-0.918,-0.348 2.606,-2.847 1.8,-4.1c-1.249,-1.95 -6.043,-1.529 -6.3,-2.5c-0.224,-1 4.628,0.116 5.3,-1.6c0.835,-2.131 -2.972,-4.706 -2.3,-6.3z"/></g></g></svg>