<svg version="1.1" xmlns="http://www.w3.org/2000/svg" xmlns:xlink="http://www.w3.org/1999/xlink" width="136.48938" height="181.41136" viewBox="0,0,136.48938,181.41136"><defs><radialGradient cx="323.1494" cy="135.66162" r="147.0889" gradientUnits="userSpaceOnUse" id="color-1"><stop offset="0" stop-color="#ffd499"/><stop offset="1" stop-color="#ff9400"/></radialGradient></defs><g transform="translate(-249.51077,-89.36929)"><g data-paper-data="{&quot;isPaintingLayer&quot;:true}" fill="url(#color-1)" fill-rule="nonzero" stroke="#ff9400" stroke-width="15" stroke-linecap="round" stroke-linejoin="miter" stroke-miterlimit="10" stroke-dasharray="" stroke-dashoffset="0" style="mix-blend-mode: normal"><path d="M278.93053,128.06778c2.69502,-6.47203 11.03895,21.63316 21.24152,25.8881c5.40331,2.25027 14.2451,-4.98512 13.27595,-10.62076c-1.63958,-16.82063 -25.58939,-44.36823 -19.91393,-46.46583c5.67547,-2.0976 36.71464,18.23452 47.46152,34.51747c6.68444,10.16274 -9.33963,38.84543 -2.32329,37.50456c10.28222,-1.97812 29.96382,-45.07185 39.82785,-44.80633c8.03859,0.23233 -2.22372,30.12977 -1.3276,45.13823c0.82975,13.66759 8.27756,26.91035 4.97848,39.82785c-1.60639,8.68247 -10.22912,21.08885 -18.25443,18.58633c-10.08308,-3.15304 -8.21781,-21.79911 -16.59494,-29.20709c-3.08666,-2.73485 -8.98782,2.44277 -9.29317,6.63798c-2.71493,13.34897 4.06908,27.3551 0.9957,41.48735c-1.57984,7.16901 -11.15844,20.71048 -15.59924,15.59924c-9.46575,-10.94602 -1.49354,-46.57867 -10.95266,-47.12962c-10.52783,-0.5775 -19.83427,39.64863 -28.87519,43.14684c-5.60245,2.1507 1.26122,-20.77022 -1.40725,-29.92399c-6.39901,-21.87877 -25.76198,-53.84726 -25.14465,-63.67146c0.42483,-6.67117 22.52929,33.14341 26.5519,26.5519c6.53841,-10.71369 -9.87067,-50.20965 -4.64658,-63.06077z"/></g></g></svg>