<svg version="1.1" xmlns="http://www.w3.org/2000/svg" xmlns:xlink="http://www.w3.org/1999/xlink" width="696" height="527.85238" viewBox="0,0,696,527.85238"><defs><linearGradient x1="40.56312" y1="237.85238" x2="40.56312" y2="383.85238" gradientUnits="userSpaceOnUse" id="color-1"><stop offset="0" stop-color="#ff4c4c"/><stop offset="1" stop-color="#b2b2b2"/></linearGradient><linearGradient x1="254.56312" y1="37.85238" x2="254.56312" y2="183.85238" gradientUnits="userSpaceOnUse" id="color-2"><stop offset="0" stop-color="#ff4c4c"/><stop offset="1" stop-color="#b2b2b2"/></linearGradient><linearGradient x1="484.56312" y1="-42.14762" x2="484.56312" y2="103.85238" gradientUnits="userSpaceOnUse" id="color-3"><stop offset="0" stop-color="#ff4c4c"/><stop offset="1" stop-color="#b2b2b2"/></linearGradient><linearGradient x1="467.56312" y1="97.85238" x2="467.56312" y2="243.85238" gradientUnits="userSpaceOnUse" id="color-4"><stop offset="0" stop-color="#ff4c4c"/><stop offset="1" stop-color="#b2b2b2"/></linearGradient><linearGradient x1="346.56312" y1="285.85238" x2="346.56312" y2="431.85238" gradientUnits="userSpaceOnUse" id="color-5"><stop offset="0" stop-color="#ff4c4c"/><stop offset="1" stop-color="#b2b2b2"/></linearGradient><linearGradient x1="583.56312" y1="286.85238" x2="583.56312" y2="432.85238" gradientUnits="userSpaceOnUse" id="color-6"><stop offset="0" stop-color="#ff4c4c"/><stop offset="1" stop-color="#b2b2b2"/></linearGradient><linearGradient x1="470.56312" y1="328.85238" x2="470.56312" y2="474.85238" gradientUnits="userSpaceOnUse" id="color-7"><stop offset="0" stop-color="#ff4c4c"/><stop offset="1" stop-color="#b2b2b2"/></linearGradient><linearGradient x1="241.56312" y1="195.85238" x2="241.56312" y2="341.85238" gradientUnits="userSpaceOnUse" id="color-8"><stop offset="0" stop-color="#ff4c4c"/><stop offset="1" stop-color="#b2b2b2"/></linearGradient><linearGradient x1="-13" y1="-29.5" x2="446" y2="-29.5" gradientUnits="userSpaceOnUse" id="color-9"><stop offset="0" stop-color="#ff4c4c"/><stop offset="1" stop-color="#b2b2b2"/></linearGradient></defs><g transform="translate(35.93688,52)"><g data-paper-data="{&quot;isPaintingLayer&quot;:true}" fill-rule="nonzero" stroke="#000000" stroke-width="2" stroke-linecap="butt" stroke-linejoin="miter" stroke-miterlimit="10" stroke-dasharray="" stroke-dashoffset="0" style="mix-blend-mode: normal"><path d="M-34.93688,383.85238v-146h151v146z" fill="url(#color-1)"/><path d="M179.06312,183.85238v-146h151v146z" fill="url(#color-2)"/><path d="M409.06312,103.85238v-146h151v146z" fill="url(#color-3)"/><path d="M392.06312,243.85238v-146h151v146z" fill="url(#color-4)"/><path d="M271.06312,431.85238v-146h151v146z" fill="url(#color-5)"/><path d="M508.06312,432.85238v-146h151v146z" fill="url(#color-6)"/><path d="M395.06312,474.85238v-146h151v146z" fill="url(#color-7)"/><path d="M166.06312,341.85238v-146h151v146z" fill="url(#color-8)"/><path d="M-13,-8v-43h459v43z" fill="url(#color-9)"/></g></g></svg>