<svg xmlns="http://www.w3.org/2000/svg" xmlns:xlink="http://www.w3.org/1999/xlink" version="1.1" width="50.09495548418869" height="31.69347194842209" viewBox="1.4507193366104885 3.7479071417862695 50.09495548418869 31.69347194842209">
  <!-- Exported by Scratch - http://scratch.mit.edu/ -->
  <path id="ID0.6207913532853127" fill="#493B29" stroke="#000000" stroke-width="2.0000000398527535" stroke-linecap="round" d="M 28.0746 17.6545 C 25.0662 18.4216 22.2839 20.5788 19.066 21.0093 C 18.1206 21.1197 17.6552 19.4316 16.6947 19.1338 C 15.4739 18.7544 13.9724 18.6863 12.8801 19.3366 C 11.0944 20.3988 10.7732 23.4997 8.7654 24.0886 C 7.1416 24.5621 5.899 22.1287 4.2613 22.0972 C 3.4266 22.0827 2.105 23.3544 2.5344 24.1073 C 3.7644 25.9702 5.866 27.3109 8.0019 27.9972 C 9.2069 28.3827 10.6376 27.6418 11.6272 26.8581 C 12.7053 26.0026 12.4868 23.9528 13.6349 23.2399 C 14.4444 22.7339 15.9075 22.6799 16.4928 23.4949 C 17.4515 24.8247 16.9484 26.6966 17.4846 28.3195 C 18.1578 30.3553 18.77 32.534 20.0709 34.2153 C 20.4588 34.7161 21.0467 34.2651 21.893 34.0097 C 25.2809 32.9923 28.5896 31.7367 31.9606 30.6891 C 34.77 29.7424 37.6549 28.9827 40.4513 28.0212 C 41.5064 27.6593 43.1687 27.7124 43.5424 26.6831 C 44.1338 24.6356 43.6819 22.2735 42.8614 20.3458 C 42.0803 18.5105 40.7553 16.3053 38.7622 15.9735 C 35.2373 15.3002 31.5656 16.7652 28.0746 17.6545 Z "/>
  <path id="ID0.9006165927276015" fill="#493B29" stroke="#000000" stroke-width="1.9999999814015332" stroke-linecap="round" d="M 49.299 4.7869 C 48.2345 4.3574 47.5491 7.6069 46.1498 8.1115 C 43.9316 8.8327 41.4304 8.6527 39.2357 8.1946 C 37.6117 7.8552 35.2689 4.8383 34.8945 5.7519 C 34.2757 7.261 36.5457 10.6397 37.2492 13.0401 C 37.7006 14.5764 37.2872 16.4065 38.2071 17.755 C 39.1268 19.1044 40.5736 20.1229 42.3285 20.4908 C 44.0833 20.8587 45.8174 20.507 47.2016 19.6406 C 48.5856 18.7752 49.486 17.2341 49.9726 15.7075 C 50.5563 13.8783 50.6288 11.8266 50.4775 9.8873 C 50.3444 8.1684 50.4895 5.2684 49.299 4.7869 Z "/>
  <path id="ID0.06972245080396533" fill="#FF0000" stroke="none" d="M 47.25 11.2 C 46.85 11.2 46.487 11.284 46.225 11.42 C 45.962 11.556 45.8 11.743 45.8 11.95 C 45.8 12.157 45.962 12.344 46.225 12.48 C 46.487 12.616 46.85 12.7 47.25 12.7 C 47.65 12.7 48.013 12.616 48.275 12.48 C 48.538 12.344 48.7 12.157 48.7 11.95 C 48.7 11.743 48.538 11.556 48.275 11.42 C 48.013 11.284 47.65 11.2 47.25 11.2 Z " stroke-width="1"/>
  <path id="ID0.7516237935051322" fill="#FF0000" stroke="none" d="M 42.125 12.6 C 41.732 12.6 41.376 12.65 41.118 12.732 C 40.86 12.813 40.7 12.926 40.7 13.05 C 40.7 13.174 40.86 13.287 41.118 13.368 C 41.376 13.45 41.732 13.5 42.125 13.5 C 42.518 13.5 42.874 13.45 43.132 13.368 C 43.39 13.287 43.55 13.174 43.55 13.05 C 43.55 12.926 43.39 12.813 43.132 12.732 C 42.874 12.65 42.518 12.6 42.125 12.6 Z " stroke-width="1"/>
</svg>