<svg version="1.1" xmlns="http://www.w3.org/2000/svg" xmlns:xlink="http://www.w3.org/1999/xlink" width="731" height="454" viewBox="0,0,731,454"><defs><linearGradient x1="521.5" y1="64" x2="521.5" y2="92" gradientUnits="userSpaceOnUse" id="color-1"><stop offset="0" stop-color="#866f28"/><stop offset="1" stop-color="#473911"/></linearGradient><linearGradient x1="521.5" y1="139" x2="521.5" y2="167" gradientUnits="userSpaceOnUse" id="color-2"><stop offset="0" stop-color="#866f28"/><stop offset="1" stop-color="#473911"/></linearGradient><linearGradient x1="40" y1="302" x2="40" y2="400" gradientUnits="userSpaceOnUse" id="color-3"><stop offset="0" stop-color="#866f28"/><stop offset="1" stop-color="#473911"/></linearGradient><linearGradient x1="105" y1="-52" x2="105" y2="55" gradientUnits="userSpaceOnUse" id="color-4"><stop offset="0" stop-color="#866f28"/><stop offset="1" stop-color="#473911"/></linearGradient><linearGradient x1="357.5" y1="207.5" x2="357.5" y2="385" gradientUnits="userSpaceOnUse" id="color-5"><stop offset="0" stop-color="#866f28"/><stop offset="1" stop-color="#473911"/></linearGradient><linearGradient x1="601" y1="-51" x2="601" y2="388" gradientUnits="userSpaceOnUse" id="color-6"><stop offset="0" stop-color="#866f28"/><stop offset="1" stop-color="#473911"/></linearGradient></defs><g transform="translate(63,53)"><g data-paper-data="{&quot;isPaintingLayer&quot;:true}" fill-rule="nonzero" stroke="#000000" stroke-width="2" stroke-linecap="butt" stroke-linejoin="miter" stroke-miterlimit="10" stroke-dasharray="" stroke-dashoffset="0" style="mix-blend-mode: normal"><path d="M491.5,92v-28h60v28z" fill="url(#color-1)"/><path d="M491.5,167v-28h60v28z" fill="url(#color-2)"/><path d="M-25,388.00001v-87.33033h141v87.33033z" fill="#b2b2b2"/><path d="M-40,400v-98h160v98z" fill="url(#color-3)"/><path d="M-62,55v-107h334v107z" fill="url(#color-4)"/><path d="M160,385v-177.5h395v177.5z" fill="url(#color-5)"/><path d="M535,388v-439h132v439z" fill="url(#color-6)"/></g></g></svg>