<svg xmlns="http://www.w3.org/2000/svg" xmlns:xlink="http://www.w3.org/1999/xlink" version="1.1" width="21.626955032348633" height="28.36541175842285" viewBox="0.7580413818359375 0.24888980388641357 21.626955032348633 28.36541175842285">
  <defs>
    <radialGradient id="grad_1" cx="0.525" cy="0.23379999999999998" r="0.99606">
      <stop offset="0" stop-color="#FFD499" stop-opacity="1"/>
      <stop offset="1" stop-color="#FF9400" stop-opacity="1"/>
    </radialGradient>
  <radialGradient id="grad_1-,0,0,1,-227.7,-156.7" cx="12.0622" cy="7.4131" r="23.1501" gradientUnits="userSpaceOnUse">
      <stop offset="0" stop-color="#FFD499" stop-opacity="1"/>
      <stop offset="1" stop-color="#FF9400" stop-opacity="1"/>
    </radialGradient></defs>
  <!-- Exported by Scratch - http://scratch.mit.edu/ -->
  <path id="ID0.17864482337608933" fill="url(#grad_1-,0,0,1,-227.7,-156.7)" stroke="#FF9400" stroke-width="2" stroke-linecap="round" d="M 1.8 4.1 C 2.418 2.944 5.946 7.984 8.3 8.9 C 9.094 9.211 10.107 8.13 10.3 7.3 C 10.707 5.531 8.916 3.172 9.8 1.7 C 10.352 0.798 12.59 1.37 13 2.35 C 14.267 5.054 12.378 11.295 14.1 11.15 C 16.439 10.946 20.658 1.687 21.3 1.85 C 21.942 2.014 18.756 8.751 18.15 12.35 C 17.932 13.652 19.006 14.954 19 16.35 C 18.92 17.578 18.655 20.139 17.9 20 C 16.923 19.817 16.662 16.716 15.4 15.6 C 14.935 15.188 14.108 15.701 14 16.6 C 13.569 20.194 14.852 24.071 14 27.35 C 13.752 28.371 12.197 26.172 11.8 25.2 C 10.882 22.953 11.575 18.183 10.15 18.1 C 8.564 18.013 7.83 24.314 5.8 24.6 C 4.178 24.827 3.03 21.175 2.5 19.1 C 2.056 16.738 2.034 13.363 3 11.85 C 3.511 11.05 5.88 15.5 5.8 14.5 C 5.56 11.679 1.292 5.467 1.8 4.1 Z "/>
  <path id="ID0.6939080404117703" fill="#FFC16C" stroke="#FE9300" stroke-width="0.29629629850387573" d="M 13.4648 7.2759 C 13.5435 7.2759 13.6147 7.3038 13.6664 7.3487 C 13.718 7.3936 13.75 7.4556 13.75 7.5241 C 13.75 7.5925 13.718 7.6546 13.6664 7.6995 C 13.6147 7.7444 13.5435 7.7722 13.4648 7.7722 C 13.3861 7.7722 13.3149 7.7444 13.2632 7.6995 C 13.2116 7.6546 13.1796 7.5925 13.1796 7.5241 C 13.1796 7.4556 13.2116 7.3936 13.2632 7.3487 C 13.3149 7.3038 13.3861 7.2759 13.4648 7.2759 Z "/>
</svg>