<svg version="1.1" xmlns="http://www.w3.org/2000/svg" xmlns:xlink="http://www.w3.org/1999/xlink" width="519.65838" height="431.13629" viewBox="0,0,519.65838,431.13629"><g transform="translate(-27.00001,-31.09272)"><g data-paper-data="{&quot;isPaintingLayer&quot;:true}" fill-rule="nonzero" stroke-linecap="butt" stroke-linejoin="miter" stroke-miterlimit="10" stroke-dasharray="" stroke-dashoffset="0" style="mix-blend-mode: normal"><path d="M33.00001,218.5c0,-70.41631 57.08369,-127.5 127.5,-127.5c70.41631,0 127.5,57.08369 127.5,127.5c0,70.41631 -57.08369,127.5 -127.5,127.5c-70.41631,0 -127.5,-57.08369 -127.5,-127.5z" fill="#4c2915" stroke="#1f4d15" stroke-width="12"/><path d="M394.14352,50.18925c-1.08348,-2.14046 -2.05314,-5.02708 -3.54056,-7.17524c2.35865,-1.16508 5.11626,-1.11819 7.75378,-1.71514c2.97974,-0.67439 6.1337,-1.44773 8.99465,-2.29936c2.94018,-0.8752 6.35724,0.25291 9.34064,0.21789c2.62826,-0.03086 4.99956,-0.24078 7.65286,-0.05259c6.88072,0.48294 13.18986,3.07067 19.96191,3.92568c6.23876,0.78769 12.45357,1.07737 18.66374,2.17485c1.77661,0.31397 3.48285,0.37396 5.21362,0.54624c0.17707,0.01761 -0.34969,0.17436 -0.45026,0.32115c-0.35994,0.5254 -0.5419,1.15246 -0.84458,1.71281c-0.5076,0.93972 -1.15576,1.79532 -1.68473,2.72317c-1.43634,2.51947 -4.26342,5.55575 -5.23721,8.18269c-0.35265,0.9513 -1.06049,2.15899 -0.49526,3.00153c0.47819,0.7128 1.66042,0.0765 2.51617,0.01003c3.72833,-0.28955 7.37133,-1.31858 11.14317,-1.50895c3.6718,0.65295 7.22683,0.45077 10.92477,0.78031c1.93255,0.17221 3.48556,1.06468 5.36381,1.28179c3.51942,0.4068 7.45336,0.19488 11.05979,0.45439c1.57418,0.11329 5.31474,0.95507 7.34298,0.46852c-0.34554,1.09587 -0.23933,1.98308 -1.03201,3.55919c-1.10441,2.19595 -3.4895,3.78204 -4.28804,6.23618c-0.30919,0.95022 -1.01002,2.11625 -0.47578,2.96072c0.72197,1.14117 4.90638,-0.46357 5.69711,-0.63923c4.45878,-0.99059 8.66814,-1.48937 13.01234,-3.30167c2.23079,-0.50838 4.72173,-0.82387 6.87126,-1.43004c0.97167,-0.274 1.72569,-1.11767 2.70528,-1.36189c2.42371,-0.60426 4.54752,0.33588 6.90719,0.42078c2.70712,0.0974 5.7322,-0.40062 8.43826,-0.54192c0.54108,-0.02826 -0.6649,0.86021 -0.93571,1.3295c-0.34411,0.5963 -0.70682,1.18385 -1.0136,1.80018c-0.78691,1.58106 -1.34461,3.33389 -2.00469,4.97109c-3.49089,7.63863 -7.47227,15.19136 -11.46642,22.56712c-2.48739,4.5933 -6.56858,7.79003 -9.77447,11.79045c-1.82337,2.27527 -4.40541,4.68784 -5.75073,7.25136c-0.42877,0.81703 -1.27377,1.74886 -0.93772,2.60819c0.55857,1.42837 3.51861,0.11705 4.13566,-0.02366c2.69715,-0.61506 5.40613,-0.90277 8.08583,-1.68009c1.27815,-0.37075 2.58821,-0.68195 3.78462,-1.26481c0.35781,-0.17431 0.82973,-1.04129 1.02973,-0.69717c0.2074,0.35685 -0.6458,0.54789 -0.83798,0.91317c-0.57447,1.09196 -0.93336,2.30642 -1.6148,3.33502c-0.60365,0.91118 -1.19615,1.83595 -1.72636,2.79172c-1.86285,3.37701 -4.61152,6.21551 -6.64408,9.5024c-4.76814,7.71056 -11.14565,14.80279 -17.01941,21.82001c-2.74171,4.33664 -6.82732,7.26341 -10.53712,10.69723c-0.89152,0.82519 -4.5787,3.47903 -4.71125,4.63341c-0.10451,0.91029 0.53019,1.7959 1.27005,2.33638c0.33637,0.24572 3.39971,-0.82577 3.53327,-0.86024c2.49372,-0.64378 6.07644,-0.64736 8.50907,-1.96192c-2.65651,4.30329 -5.1289,8.69946 -7.47396,13.18238c-1.74481,3.3355 -3.17926,6.97914 -5.69444,9.8292c-1.20299,1.36317 -2.77798,2.18863 -3.87846,3.71172c-2.84007,3.93072 -4.70624,9.15043 -9.98294,10.24976c-4.60298,-8.51989 -13.06978,-13.64481 -17.44598,-22.29081c-5.41949,-10.7065 -10.85487,-21.42192 -16.27437,-32.12842c-2.78289,-5.49776 -6.38316,-11.10291 -8.5458,-16.86156c-1.86401,-4.96345 -1.76441,-10.14087 -4.14721,-14.84822c-1.48118,-2.92614 -3.21866,-5.841 -4.48876,-8.865c-1.25687,-2.9925 -1.20542,-6.24441 -2.4346,-9.18294c-1.24892,-2.98575 -2.93142,-5.86313 -4.39286,-8.7503c-0.19736,-0.38988 -1.39302,-2.79898 -1.59549,-2.98569c-0.34655,-0.31959 -0.98047,-0.14046 -1.34381,-0.44081c-0.80114,-0.66226 -0.87032,-1.89008 -1.33975,-2.81746c-1.04823,-2.07083 -1.97667,-5.15171 -3.51413,-6.88844c-0.65789,-0.74318 -1.66074,-1.20207 -2.13971,-2.07138c-3.84339,-6.9756 -7.63828,-13.98564 -10.0016,-21.58094c-0.26912,-0.85954 -1.36406,-2.76257 -1.1877,-3.43186c0.10112,-0.38378 0.65713,-0.58375 0.67705,-0.98014c0.04401,-0.876 -1.30322,-2.9075 -1.6843,-3.66033z" data-paper-data="{&quot;noHover&quot;:false,&quot;origItem&quot;:[&quot;Path&quot;,{&quot;applyMatrix&quot;:true,&quot;segments&quot;:[[[230.5,222],[0,0],[-0.84379,0]],[[226.47427,221.85065],[0.76171,0.43489],[-0.34467,-0.19679]],[[225.9059,220.80439],[0.29675,0.26355],[-0.5175,-0.45961]],[[222.30839,220.31519],[0.88843,0.14807],[-7.84393,-1.32165]],[[198.54346,219.49905],[7.95946,-0.27875],[-0.99192,0.03474]],[[195.72975,220.47324],[0.96018,-0.25134],[-2.24388,0.58738]],[[188,220.49999],[2.32101,0],[-1.03942,0]],[[184.88268,220.42387],[0.95268,-0.41569],[-0.43206,0.18853]],[[183.88268,221.42387],[0.44164,-0.16486],[-0.25802,0.09632]],[[180.5,221.49999],[0.43698,0],[-3.23597,0]],[[170.71484,221.47032],[3.22796,0.23413],[-3.1769,-0.23043]],[[161.42911,219.49748],[3.23757,0.23009],[-3.27164,-0.23251]],[[151.5,219.5],[3.27966,0],[-5.27607,0]],[[136.39088,216.49403],[5.27026,0.57853],[-6.11461,-0.67121]],[[117.5,216.5],[6.16196,0],[-12,0]],[[81.5,216.5],[12,0],[-9.69043,-0.00025]],[[53.73979,221.99005],[9.68034,-0.25903],[-1.40225,5.20439]],[[58.37844,235.52215],[-2.22438,-4.30915],[0.86191,1.66971]],[[59.93936,240.65707],[-0.67293,-1.68895],[1.40693,3.53122]],[[66.13868,250.17369],[-2.18795,-3.06312],[2.94063,4.11688]],[[74.52655,262.79002],[-2.6397,-4.31363],[-0.07422,-2.7641]],[[76.52447,254.28008],[-0.55184,2.51565],[0.02956,-0.13474]],[[77.35361,250.73697],[-0.37115,0.18914],[0.81637,-0.41602]],[[80.10218,250.70164],[-0.76497,-0.50435],[0.97008,0.6396]],[[82.10983,256.99441],[-0.33361,-1.1681],[1.38824,4.86071]],[[86.89783,271.21766],[-2.63096,-4.40472],[3.60808,8.40977]],[[98.67831,296.23362],[-4.72602,-7.73645],[2.01462,3.29791]],[[104.15116,306.44215],[-2.17169,-3.1872],[0.6133,0.90471]],[[105.8605,309.24034],[-0.54034,-0.95009],[0.60997,1.07253]],[[108.1045,312.18414],[-0.71481,-1.0057],[0.23911,0.33643]],[[108.54003,313.34325],[-0.41205,0.02389],[0.39735,-0.02303]],[[108.30529,312.1725],[-0.00607,0.39797],[0.02029,-1.33069]],[[108.88423,308.22217],[-0.24645,1.30782],[0.51668,-2.74189]],[[111.03349,300.24333],[-0.66933,2.68419],[0.15313,-0.6141]],[[112.97067,296.50043],[-1.52666,-0.14673],[0.91847,0.08828]],[[114.87264,298.51164],[-0.53532,-0.75154],[1.67961,2.35805]],[[118.73796,306.90693],[-1.20654,-2.65439],[2.12137,4.66701]],[[124.82999,320.94225],[-2.97482,-4.29371],[4.77686,6.89468]],[[139.76723,341.35865],[-5.23869,-6.56439],[1.1626,1.32833]],[[143.29399,345.39209],[-1.05525,-1.41612],[0.41136,0.55205]],[[144.44143,347.1094],[-0.37661,-0.57632],[0.29639,0.45357]],[[145.20443,348.54467],[-0.21915,0.49552],[1.09605,-2.47818]],[[148.52908,340.77128],[-1.3095,2.37133],[1.14142,-2.06698]],[[152.0204,334.79894],[-0.55548,2.43535],[0.2245,-0.98428]],[[152.02673,331.77025],[-0.19436,0.99068],[0.42995,-2.19158]],[[153.85105,324.99428],[-0.5539,2.21993],[0.34499,-4.69441]],[[156.77385,311.89567],[-1.12988,4.42554],[0.20038,-0.78483]],[[158.77023,306.52676],[-1.34422,0.12876],[0.99471,-0.09528]],[[161.19502,308.28946],[-0.70816,-0.70501],[1.82896,1.82081]],[[164.82269,314.93153],[-1.46047,-1.97711],[1.04824,1.41905]],[[167.53104,317.46039],[-0.82169,-0.80321],[0.4819,-2.02936]],[[171.25847,311.12558],[-0.81201,1.35333],[1.8603,-3.10049]],[[176.64934,301.47429],[-1.9524,2.95634],[1.04197,-1.57774]],[[180.21199,297.27402],[-1.02644,1.64646],[1.9641,-3.1505]],[[185.83843,287.89236],[-2.24084,2.98113],[1.53361,-3.45124]],[[189.52454,277.28152],[-1.42546,3.45722],[0.32718,-0.79354]],[[190.76884,275.0271],[-0.85193,0.10473],[1.00699,-0.12379]],[[193.22348,276.8268],[-0.6895,-0.74427],[1.90398,2.05521]],[[198.15917,285.20353],[-1.5992,-2.41937],[0.58895,0.89099]],[[199.82775,287.93894],[-0.60918,-0.87729],[0.36326,0.52313]],[[200.97436,289.46729],[-0.30621,-0.55843],[0.08555,0.15602]],[[200.95842,290.00088],[-0.09569,0.15002],[0.93536,-1.4664]],[[203.79998,285.60002],[-1.08249,1.44332],[3.78385,-5.04512]],[[214.17013,269.94203],[-3.52035,5.21054],[3.82127,-5.65593]],[[226.68998,253.91243],[-3.53838,5.92092],[1.36619,-2.28231]],[[230.10032,247.06345],[-1.15945,2.35889],[1.31612,-2.67764]],[[234.51441,238.83077],[-0.54699,3.01851],[0.53225,-2.93718]],[[236.52674,229.77027],[-0.74402,2.96312],[0.65856,-2.62281]],[[238.4996,222.07987],[-0.02573,2.63058],[-2.58836,0.35693]],[[230.49999,222.00003],[2.39907,0],[0,0]]],&quot;closed&quot;:true,&quot;fillColor&quot;:[0,0,0],&quot;strokeWidth&quot;:0.5}]}" fill="#4c2915" stroke="#000000" stroke-width="2"/><path d="M392.22995,64.52102c-1.70677,-9.54509 -6.9837,-18.42545 -11.40077,-27.04256l0.13987,-0.07276c4.08008,-4.03386 9.81369,-6.57172 15.52932,-4.66887c0.89934,-0.0731 2.69041,0.29818 4.11052,0.33812c-0.74064,0.36523 -1.19091,0.73217 -1.88463,1.54289c-1.51699,1.77287 -2.72501,3.21428 -4.50303,4.84375c-1.12759,1.03337 -3.97814,3.00254 -2.15699,4.89445c0.59826,0.6215 1.6163,0.37809 2.45258,0.58981c2.88321,0.72993 5.99498,1.13509 8.9648,0.9353c-0.22672,2.80322 -2.32529,6.39846 -3.70826,8.84664c-0.39458,0.69851 -1.59287,2.6968 -1.42893,3.2664c0.6408,2.22629 2.76045,1.3686 4.24145,1.54631c3.86419,0.46366 7.77311,0.01173 11.67746,-0.64927c-0.45628,2.18469 -1.30483,4.15677 -2.75421,5.89858c-0.87728,1.0543 -2.23734,1.73758 -2.84865,2.96537c-0.37367,0.75048 -0.88187,1.67936 -0.44008,2.39186c0.54568,0.88 5.27213,0.24547 6.15189,0.1911c0.5763,-0.03562 2.19091,-0.52027 1.74595,-0.1523c-2.4862,2.05604 -7.85426,6.20451 -5.2711,9.39067c2.9422,1.66063 7.89389,1.416 10.2147,4.14117c0.58235,0.6838 -0.91998,2.20718 -1.17478,2.68972c-0.60029,1.13688 -3.60857,4.9284 -3.32486,6.11905c0.16523,0.69347 2.31446,1.41736 3.11059,1.74083c2.80316,1.13886 5.96498,2.60189 8.11575,4.74111c3.25106,1.98948 7.06829,3.89263 8.81911,7.35147c0.21731,0.42932 -1.01078,0.20856 -1.40579,0.48335c-0.40294,0.28029 -0.73505,0.64785 -1.115,0.9586c-1.69577,1.38693 -5.01311,3.25281 -4.47465,6.055c0.13939,0.72543 2.10274,2.34905 2.55977,2.77542c2.10386,1.96279 4.84942,3.34261 7.6589,4.04484c-1.58004,0.73219 -2.12171,3.02652 -2.63653,4.50109c-0.75284,2.15626 -1.66912,3.90296 -2.86331,5.76911c-0.42526,0.66454 -1.59972,2.70166 -0.95511,3.64526c0.48546,0.71065 1.41248,1.04425 2.24668,1.25594c0.49721,0.12615 0.99118,-0.26516 1.50312,-0.29744c1.94214,-0.12244 4.14791,0.40588 6.1002,0.57151c1.83103,0.15534 2.19506,0.35093 3.86032,-0.32403c0.25302,-0.10254 0.73049,-0.70866 0.73027,-0.43565c-0.00086,1.07849 -0.84979,2.0055 -1.07043,3.06117c-0.67791,4.10028 -1.22285,8.83154 -2.78177,12.70974c-0.50779,1.26324 -1.69804,1.97831 -1.17643,3.54115c0.64989,1.94722 3.35214,1.84545 4.87487,1.99004c0.58242,0.0553 3.56986,0.46279 3.84505,0.42092c2.89479,-0.44037 4.88328,-3.46066 7.84086,-3.96885c0.01769,4.62384 -1.6259,7.48279 -3.99059,11.2979c-1.06793,1.723 -3.17245,2.77446 -3.41973,5.09991c-0.12283,1.155 0.81519,1.58794 1.40442,2.28364c2.09463,2.47303 4.43669,3.86739 7.38687,5.16729c0.57887,0.25501 4.55294,1.55481 4.75656,2.12533c0.27674,0.7754 -1.80347,1.78637 -2.09944,2.0603c-1.72985,1.60106 -5.92258,5.7512 -3.03198,8.01117c1.56277,1.22183 1.6997,-0.14623 3.03423,-0.15324c4.11955,-0.02166 8.32582,-0.1148 12.43686,0.17191c0.7742,-0.11086 2.16076,-0.33493 2.85445,-0.2854c0.92662,0.06617 1.88142,0.20821 2.71819,0.61174c0.95488,0.4605 -0.30462,2.1874 -0.70754,3.16797c-1.26506,3.07875 -2.80501,5.52619 -4.56685,8.28897c-0.44414,0.69646 -1.15867,1.33926 -1.21012,2.16369c-0.11513,1.84507 1.40244,2.31002 2.74217,2.57662c3.21835,0.64042 6.32432,1.55949 9.20096,3.44437c0.04794,0.05623 0.82376,0.99177 1.29112,1.53099c-0.73982,-0.17394 -1.62766,-0.18023 -1.72014,-0.19194c-2.46429,-0.31187 -6.17149,-0.68663 -8.54018,0.27976c-1.35915,0.55451 -1.73962,2.32623 -2.46627,3.36427c-2.18048,3.11487 -3.91629,5.84374 -7.32471,7.56904c0,0 -0.21748,0.11004 -0.38331,0.32868c-1.14533,-0.84089 -1.35882,-1.5546 -2.01497,-2.85085c-1.45472,-2.8739 -2.17374,-5.71972 -3.2889,-8.70373c-1.25806,-3.36638 -3.34166,-6.22915 -5.35893,-9.09874c-1.76277,-2.50757 -2.9209,-5.78456 -4.3049,-8.51872c-1.98946,-3.93031 -3.28617,-7.62508 -4.78938,-11.66251c-1.82654,-4.90589 -4.90379,-9.68989 -7.27005,-14.36459c-5.63525,-11.13276 -10.69892,-23.03385 -17.68235,-33.37667c-4.47051,-8.86518 -9.97585,-17.75807 -13.6312,-26.98179c-0.84722,-2.13782 -1.43145,-4.30633 -2.42213,-6.41366c-0.5525,-1.16156 -0.7825,-2.45187 -1.1868,-3.67294c-2.11133,-6.37664 -6.6994,-11.95895 -9.12565,-18.23993c-0.91455,-2.36754 -1.15247,-4.79509 -1.86429,-7.16368c-0.68207,-2.26961 -2.0051,-4.07462 -2.54408,-6.46107z" data-paper-data="{&quot;noHover&quot;:false,&quot;origItem&quot;:[&quot;Path&quot;,{&quot;applyMatrix&quot;:true,&quot;segments&quot;:[[[437.13664,377.59516],[0,0],[-4.74524,-1.19378]],[[423.30982,376.30124],[4.666,0.83294],[-4.8695,-0.86926]],[[408.84368,373.16174],[5.05074,0.50654],[-13.39938,-1.34384]],[[368.05594,372.98066],[13.28566,1.99218],[-2.5441,-0.38148]],[[360.43142,371.78532],[2.57178,0.06328],[-4.6552,-0.13568]],[[346.80294,370.3236],[4.58,0.4192],[-19.76064,-1.80864]],[[286.45762,370.32946],[19.85718,0.0302],[-24.76366,3.11922]],[[211.00002,371.66666],[24.95552,0],[-10.47894,0]],[[178.80294,371.65692],[10.40396,1.17192],[-8.5622,-0.96446]],[[153.66668,369.66666],[8.8103,0],[-6.129,0]],[[134.57772,369.65168],[6.06678,-0.88058],[-6.94266,1.00772]],[[113.50172,370.99318],[7.14336,0.79578],[-6.332,-0.70538]],[[95.00002,369],[6.4422,0],[-2.90572,0]],[[88.09302,370.01958],[2.53502,-1.28422],[0.24034,0.4934]],[[88.33336,371],[0,0],[0,7.6404]],[[95.22438,390.8975],[-3.5887,-6.7044],[1.19594,2.23426]],[[99.00002,398.33334],[0.23818,-2.92614],[-0.41508,5.09962]],[[91.78494,413.81764],[2.78238,-4.1156],[-0.10442,0.15444]],[[89.88862,416.71238],[0.97862,-1.16304],[1.38436,-0.34694]],[[93.5877,415.81088],[-0.14364,0.03474],[5.9617,-3.43062]],[[108.04422,402.49726],[-4.04976,5.16442],[1.68582,-2.14984]],[[115.31876,399.92628],[-3.18838,-1.872],[1.42466,0.83646]],[[118.08658,404.0376],[-0.84162,-1.42162],[3.33858,5.6393]],[[128.75168,419.66408],[-4.3511,-5.03828],[1.38582,1.60468]],[[133.568,423.81892],[-1.68422,1.28798],[1.47586,-1.12864]],[[137.11442,419.5188],[-0.95504,1.5937],[0.71496,-1.19308]],[[139.183,414.1643],[-0.50148,1.48162],[4.2249,-7.07684]],[[150.72272,392.11254],[-3.68234,7.37056],[1.1929,-2.38772]],[[153.38964,386.57],[-3.59184,1.68502],[6.64366,-3.11672]],[[164.94652,399.20718],[-1.29448,-4.53294],[0.22148,0.77556]],[[166.5269,404.82308],[-1.63362,-0.20656],[1.20196,0.152]],[[174.61554,398.25],[-0.97792,0.80262],[4.9843,-4.0902]],[[190.5085,389.72802],[-6.30488,1.50392],[1.77362,-0.42306]],[[196.0515,389.2987],[-1.95006,-1.26242],[3.92618,2.5417]],[[202.0632,399.99614],[-2.10994,-3.46194],[4.67186,7.66554]],[[218.61526,417.2987],[-8.26684,-4.14492],[1.7646,-5.73656]],[[218.4192,399.75376],[-1.82892,5.56326],[0.17388,-0.5289]],[[222.64336,393.26382],[-0.62474,0.98934],[1.63342,-2.58658]],[[230.59884,386.35102],[-4.06164,-0.59914],[3.25988,0.48086]],[[236.05344,391.67342],[-1.7955,-2.04712],[5.51222,6.28474]],[[256.21602,408.07876],[-6.7043,-4.91326],[1.68446,1.34726]],[[260.70548,412.73892],[-1.92368,-0.97568],[0.48696,0.24698]],[[260.4072,411.12828],[-0.04554,0.5441],[0.29974,-3.58116]],[[263.31002,403.93048],[-1.93104,3.12702],[2.05894,-3.33412]],[[269.83768,393.5242],[-1.53574,3.57618],[0.40482,-0.94268]],[[270.6672,390.56034],[-0.67422,0.77326],[1.13122,-1.29734]],[[274.94454,387.6674],[-1.70658,0.22436],[2.266,-0.29792]],[[280.7716,392.73842],[-0.8017,-1.35908],[2.2513,3.81654]],[[288.44134,402.9467],[-3.16766,-3.29104],[2.16622,2.25058]],[[294.02726,411.6994],[0.12064,-3.48078],[3.79072,-4.379]],[[308.07572,401.7534],[-5.40276,1.98128],[1.17364,-0.4304]],[[315.5339,399.7392],[-1.42036,-0.4065],[5.48666,1.57026]],[[322.28476,413.22836],[-0.94318,-4.27872],[0.21132,0.95866]],[[322.98506,416.08894],[-0.13622,-0.9722],[0.13354,0.95308]],[[322.41426,418.9191],[-0.96238,0],[7.75346,0]],[[343.48118,409.8573],[-6.48658,4.00426],[5.7599,-1.90564]],[[359.26862,399.67854],[-4.56416,3.97332],[1.2963,-1.12848]],[[365.3845,395.70396],[-1.3867,-0.33152],[2.38086,0.56918]],[[373.29938,407.17818],[-1.48644,-2.09806],[0.6309,0.89048]],[[376.8403,411.67304],[-1.74618,0.4215],[6.95912,-1.6798]],[[393.45468,397.20336],[-5.6208,3.75014],[8.01866,-1.73154]],[[405.64912,415.10824],[-1.42318,-6.29352],[0.2547,1.12636]],[[406.7566,411.8256],[-0.457,1.06054],[0.69764,-1.61896]],[[412.65346,401.03024],[-2.06318,0.17886],[1.67046,-0.1448]],[[416.7238,403.98572],[-1.00166,-1.34464],[1.63872,2.19984]],[[419.44168,411.75332],[-1.0889,-2.51774],[1.79896,4.1596]],[[427.28194,421.96534],[-3.48626,-2.7875],[2.34708,-7.56404]],[[436.6693,400.55724],[-4.31768,6.47652],[1.6548,-2.4822]],[[443.45958,394.3868],[-4.55142,-0.86746],[1.16448,0.22194]],[[447.9975,399.89056],[-0.89002,-1.33504],[3.1194,4.67912]],[[460.2347,414.48554],[-4.79732,-2.93658],[2.326,-5.47984]],[[470.00056,399.3425],[-3.90674,4.48554],[1.13316,-1.30104]],[[473.46828,395.49984],[-1.6494,0.50618],[5.0209,-1.54084]],[[480.25364,403.77412],[-0.82548,-2.94548],[1.30166,4.64454]],[[484.8291,416.19086],[-1.79332,-4.3083],[0.82006,1.97014]],[[485.68128,420.92466],[0.01724,-1.65152],[1.35398,-2.49798]],[[489.99706,413.89898],[-0.6819,1.67082],[8.55812,-8.4803]],[[495.69256,381.987],[3.51276,10.92412],[0,0]],[[495.68906,381.67184],[0,0],[-19.36622,0.0985]],[[437.13672,377.59512],[18.57404,5.57598],[0,0]]],&quot;closed&quot;:true,&quot;fillColor&quot;:[0,0,0,1]}]}" fill="#1f4d15" stroke="#000000" stroke-width="2"/><path d="M488.14028,358.71045c2.32934,0.5742 5.15018,1.72121 7.74874,1.99417c-0.65459,2.54796 -2.48823,4.60817 -3.7554,6.99713c-1.4316,2.69891 -2.90179,5.59445 -4.12156,8.31887c-1.25356,2.79986 -4.33694,4.65504 -6.25568,6.93984c-1.69034,2.01282 -3.07737,3.94758 -4.95011,5.83656c-4.85267,4.90194 -10.92847,7.99812 -15.99239,12.57507c-4.66514,4.21652 -8.93709,8.7396 -13.81848,12.73244c-1.39647,1.14227 -2.55449,2.3968 -3.81365,3.59671c-0.12881,0.12277 0.09582,-0.37883 0.0501,-0.55079c-0.16366,-0.61549 -0.52044,-1.1623 -0.74792,-1.75717c-0.38151,-0.99759 -0.60757,-2.0469 -0.96614,-3.05295c-0.97366,-2.73181 -1.43235,-6.85505 -2.7891,-9.30623c-0.49132,-0.88767 -0.94543,-2.21179 -1.95277,-2.33261c-0.85224,-0.10222 -1.14066,1.20901 -1.64826,1.90117c-2.21149,3.01556 -3.80669,6.44858 -6.12176,9.43246c-2.88922,2.35815 -5.05397,5.18534 -7.71503,7.77418c-1.39067,1.35294 -3.07995,1.94848 -4.46925,3.23097c-2.60323,2.40312 -5.00766,5.52394 -7.55597,8.08906c-1.11232,1.11964 -4.18954,3.4068 -5.14315,5.26183c-0.60557,-0.97654 -1.34748,-1.47451 -2.02561,-3.1032c-0.94482,-2.2692 -0.59217,-5.11173 -1.93219,-7.31737c-0.51884,-0.854 -0.94593,-2.14567 -1.93454,-2.29124c-1.33596,-0.19671 -2.84769,4.0222 -3.2301,4.73626c-2.15627,4.02648 -4.52277,7.54316 -5.98132,12.01855c-1.06913,2.02283 -2.45412,4.11713 -3.39611,6.14211c-0.42583,0.91537 -0.27783,2.03716 -0.7314,2.93911c-1.12222,2.23161 -3.21983,3.22884 -4.82281,4.96254c-1.839,1.98899 -3.4339,4.60728 -5.09123,6.7511c-0.33139,0.42866 -0.21866,-1.065 -0.39788,-1.57632c-0.22773,-0.64971 -0.4367,-1.30782 -0.70397,-1.94229c-0.68564,-1.62754 -1.65096,-3.1933 -2.46184,-4.76128c-3.51528,-7.62744 -6.64559,-15.57075 -9.63342,-23.40836c-1.86068,-4.88092 -1.62327,-10.05961 -2.56595,-15.0987c-0.53616,-2.86602 -0.68173,-6.39677 -1.74814,-9.08829c-0.33988,-0.85782 -0.4954,-2.10608 -1.36605,-2.41161c-1.44717,-0.50786 -2.38302,2.59142 -2.67868,3.15101c-1.29233,2.44598 -2.84056,4.68748 -3.99848,7.22602c-0.55231,1.21082 -1.17058,2.40699 -1.50878,3.69414c-0.10115,0.38495 0.24847,1.30805 -0.14284,1.23531c-0.4058,-0.07543 0.00568,-0.84688 -0.14596,-1.23077c-0.45333,-1.14756 -1.14009,-2.21154 -1.47564,-3.39889c-0.29724,-1.0518 -0.61204,-2.10402 -0.99097,-3.12921c-1.34573,-3.61434 -1.7056,-7.54915 -2.87234,-11.23339c-2.73699,-8.64273 -3.9558,-18.10248 -5.44619,-27.13139c-1.50025,-4.90639 -1.05529,-9.91241 -1.2398,-14.96411c-0.04434,-1.214 0.34777,-5.73996 -0.44103,-6.59316c-0.62203,-0.67278 -1.70732,-0.76901 -2.59953,-0.56048c-0.40564,0.09481 -1.59067,3.11604 -1.65162,3.23978c-1.13791,2.31046 -3.47128,5.02915 -4.06078,7.73068c-1.53053,-4.82005 -3.25153,-9.56106 -5.12133,-14.26209c-1.39123,-3.49777 -3.21845,-6.96116 -3.73931,-10.72648c-0.24914,-1.80093 0.15198,-3.5333 -0.28524,-5.36078c-1.12836,-4.71629 -3.86904,-9.53466 -1.2619,-14.25217c9.46098,2.06543 18.86731,-1.0123 28.27602,1.30729c11.65121,2.87212 23.31956,5.73801 34.97079,8.61013c5.98287,1.47483 12.58012,2.39996 18.35636,4.51516c4.97861,1.82311 8.83912,5.27452 13.96183,6.53732c3.18433,0.78496 6.52725,1.36824 9.64815,2.37705c3.08839,0.99829 5.52038,3.15769 8.5498,4.14179c3.0781,0.99993 6.35674,1.60045 9.49866,2.37497c0.42428,0.10458 3.03044,0.76889 3.30402,0.73712c0.46827,-0.05437 0.74581,-0.65179 1.21044,-0.73143c1.02449,-0.17559 2.00052,0.57254 3.00973,0.82133c2.25356,0.55552 5.1948,1.86045 7.51405,1.82719c0.99244,-0.01422 1.99426,-0.47534 2.96567,-0.27166c7.79483,1.63439 15.58416,3.32801 22.88377,6.48863c0.82717,0.35641 2.98397,0.7671 3.37641,1.33722c0.22505,0.32691 0.01412,0.87885 0.30166,1.15242c0.63548,0.60456 3.05417,0.90773 3.87343,1.10968z" data-paper-data="{&quot;noHover&quot;:false,&quot;origItem&quot;:[&quot;Path&quot;,{&quot;applyMatrix&quot;:true,&quot;segments&quot;:[[[230.5,222],[0,0],[-0.84379,0]],[[226.47427,221.85065],[0.76171,0.43489],[-0.34467,-0.19679]],[[225.9059,220.80439],[0.29675,0.26355],[-0.5175,-0.45961]],[[222.30839,220.31519],[0.88843,0.14807],[-7.84393,-1.32165]],[[198.54346,219.49905],[7.95946,-0.27875],[-0.99192,0.03474]],[[195.72975,220.47324],[0.96018,-0.25134],[-2.24388,0.58738]],[[188,220.49999],[2.32101,0],[-1.03942,0]],[[184.88268,220.42387],[0.95268,-0.41569],[-0.43206,0.18853]],[[183.88268,221.42387],[0.44164,-0.16486],[-0.25802,0.09632]],[[180.5,221.49999],[0.43698,0],[-3.23597,0]],[[170.71484,221.47032],[3.22796,0.23413],[-3.1769,-0.23043]],[[161.42911,219.49748],[3.23757,0.23009],[-3.27164,-0.23251]],[[151.5,219.5],[3.27966,0],[-5.27607,0]],[[136.39088,216.49403],[5.27026,0.57853],[-6.11461,-0.67121]],[[117.5,216.5],[6.16196,0],[-12,0]],[[81.5,216.5],[12,0],[-9.69043,-0.00025]],[[53.73979,221.99005],[9.68034,-0.25903],[-1.40225,5.20439]],[[58.37844,235.52215],[-2.22438,-4.30915],[0.86191,1.66971]],[[59.93936,240.65707],[-0.67293,-1.68895],[1.40693,3.53122]],[[66.13868,250.17369],[-2.18795,-3.06312],[2.94063,4.11688]],[[74.52655,262.79002],[-2.6397,-4.31363],[-0.07422,-2.7641]],[[76.52447,254.28008],[-0.55184,2.51565],[0.02956,-0.13474]],[[77.35361,250.73697],[-0.37115,0.18914],[0.81637,-0.41602]],[[80.10218,250.70164],[-0.76497,-0.50435],[0.97008,0.6396]],[[82.10983,256.99441],[-0.33361,-1.1681],[1.38824,4.86071]],[[86.89783,271.21766],[-2.63096,-4.40472],[3.60808,8.40977]],[[98.67831,296.23362],[-4.72602,-7.73645],[2.01462,3.29791]],[[104.15116,306.44215],[-2.17169,-3.1872],[0.6133,0.90471]],[[105.8605,309.24034],[-0.54034,-0.95009],[0.60997,1.07253]],[[108.1045,312.18414],[-0.71481,-1.0057],[0.23911,0.33643]],[[108.54003,313.34325],[-0.41205,0.02389],[0.39735,-0.02303]],[[108.30529,312.1725],[-0.00607,0.39797],[0.02029,-1.33069]],[[108.88423,308.22217],[-0.24645,1.30782],[0.51668,-2.74189]],[[111.03349,300.24333],[-0.66933,2.68419],[0.15313,-0.6141]],[[112.97067,296.50043],[-1.52666,-0.14673],[0.91847,0.08828]],[[114.87264,298.51164],[-0.53532,-0.75154],[1.67961,2.35805]],[[118.73796,306.90693],[-1.20654,-2.65439],[2.12137,4.66701]],[[124.82999,320.94225],[-2.97482,-4.29371],[4.77686,6.89468]],[[139.76723,341.35865],[-5.23869,-6.56439],[1.1626,1.32833]],[[143.29399,345.39209],[-1.05525,-1.41612],[0.41136,0.55205]],[[144.44143,347.1094],[-0.37661,-0.57632],[0.29639,0.45357]],[[145.20443,348.54467],[-0.21915,0.49552],[1.09605,-2.47818]],[[148.52908,340.77128],[-1.3095,2.37133],[1.14142,-2.06698]],[[152.0204,334.79894],[-0.55548,2.43535],[0.2245,-0.98428]],[[152.02673,331.77025],[-0.19436,0.99068],[0.42995,-2.19158]],[[153.85105,324.99428],[-0.5539,2.21993],[0.34499,-4.69441]],[[156.77385,311.89567],[-1.12988,4.42554],[0.20038,-0.78483]],[[158.77023,306.52676],[-1.34422,0.12876],[0.99471,-0.09528]],[[161.19502,308.28946],[-0.70816,-0.70501],[1.82896,1.82081]],[[164.82269,314.93153],[-1.46047,-1.97711],[1.04824,1.41905]],[[167.53104,317.46039],[-0.82169,-0.80321],[0.4819,-2.02936]],[[171.25847,311.12558],[-0.81201,1.35333],[1.8603,-3.10049]],[[176.64934,301.47429],[-1.9524,2.95634],[1.04197,-1.57774]],[[180.21199,297.27402],[-1.02644,1.64646],[1.9641,-3.1505]],[[185.83843,287.89236],[-2.24084,2.98113],[1.53361,-3.45124]],[[189.52454,277.28152],[-1.42546,3.45722],[0.32718,-0.79354]],[[190.76884,275.0271],[-0.85193,0.10473],[1.00699,-0.12379]],[[193.22348,276.8268],[-0.6895,-0.74427],[1.90398,2.05521]],[[198.15917,285.20353],[-1.5992,-2.41937],[0.58895,0.89099]],[[199.82775,287.93894],[-0.60918,-0.87729],[0.36326,0.52313]],[[200.97436,289.46729],[-0.30621,-0.55843],[0.08555,0.15602]],[[200.95842,290.00088],[-0.09569,0.15002],[0.93536,-1.4664]],[[203.79998,285.60002],[-1.08249,1.44332],[3.78385,-5.04512]],[[214.17013,269.94203],[-3.52035,5.21054],[3.82127,-5.65593]],[[226.68998,253.91243],[-3.53838,5.92092],[1.36619,-2.28231]],[[230.10032,247.06345],[-1.15945,2.35889],[1.31612,-2.67764]],[[234.51441,238.83077],[-0.54699,3.01851],[0.53225,-2.93718]],[[236.52674,229.77027],[-0.74402,2.96312],[0.65856,-2.62281]],[[238.4996,222.07987],[-0.02573,2.63058],[-2.58836,0.35693]],[[230.49999,222.00003],[2.39907,0],[0,0]]],&quot;closed&quot;:true,&quot;fillColor&quot;:[0,0,0],&quot;strokeWidth&quot;:0.5}]}" fill="#4c2915" stroke="#000000" stroke-width="2"/><path d="M478.52191,347.91471c8.34981,4.92976 18.52353,6.71924 27.93699,8.98901l-0.03603,0.15349c0.39802,5.72368 -1.41638,11.72561 -6.58591,14.81837c-0.53099,0.72953 -1.98034,1.84539 -2.93659,2.89604c0.20602,-0.79969 0.2214,-1.38032 0.05906,-2.43492c-0.35502,-2.30615 -0.66018,-4.1619 -0.73628,-6.57245c-0.04825,-1.52873 0.31745,-4.97393 -2.30444,-4.82677c-0.86131,0.04834 -1.34055,0.97892 -2.04636,1.47492c-2.4334,1.71006 -4.76959,3.80517 -6.55456,6.1871c-1.97752,-1.99971 -3.33501,-5.93507 -4.28943,-8.57993c-0.27231,-0.75462 -1.00604,-2.96612 -1.5448,-3.21322c-2.10576,-0.9658 -2.83759,1.20054 -3.938,2.20754c-2.87115,2.62743 -5.07728,5.88579 -7.12192,9.277c-1.35888,-1.77045 -2.30079,-3.69969 -2.67634,-5.93432c-0.22733,-1.3526 0.14144,-2.82929 -0.39085,-4.09334c-0.32536,-0.77265 -0.69825,-1.76363 -1.52652,-1.89326c-1.02301,-0.16008 -3.62376,3.83719 -4.15618,4.53965c-0.34877,0.46017 -1.03411,2.00034 -1.02296,1.42306c0.06225,-3.22562 0.41715,-10.00057 -3.68287,-10.11957c-3.1775,1.14792 -6.22072,5.06172 -9.80017,5.0444c-0.89816,-0.00434 -1.07358,-2.13669 -1.2733,-2.6445c-0.47055,-1.19642 -1.38369,-5.94948 -2.47141,-6.51073c-0.63351,-0.32689 -2.58374,0.8306 -3.34811,1.2233c-2.69124,1.38272 -5.86213,2.826 -8.88644,3.06182c-3.62822,1.16768 -7.56014,2.8209 -11.32419,1.89303c-0.4672,-0.11516 0.50095,-0.90234 0.55016,-1.38101c0.05021,-0.48827 -0.0119,-0.97973 0.00024,-1.47042c0.05417,-2.19004 0.80253,-5.92181 -1.67314,-7.34071c-0.64089,-0.36733 -3.15208,0.06258 -3.77335,0.13108c-2.85996,0.31529 -5.69634,1.49722 -8.06065,3.16944c0.47512,-1.67537 -0.91121,-3.58205 -1.69352,-4.93386c-1.14395,-1.97677 -1.87082,-3.81038 -2.50704,-5.93261c-0.22656,-0.75573 -1.00527,-2.97448 -2.141,-3.10102c-0.85534,-0.09531 -1.71272,0.39003 -2.41716,0.88448c-0.41985,0.29471 -0.44524,0.9244 -0.75459,1.33358c-1.17352,1.55233 -3.01234,2.88022 -4.41089,4.25242c-1.31168,1.28697 -1.69734,1.43543 -2.27141,3.1381c-0.08723,0.2587 0.06098,1.01592 -0.14587,0.83774c-0.81713,-0.70387 -0.96644,-1.95196 -1.62296,-2.80759c-2.66674,-3.18754 -5.89857,-6.68568 -7.82247,-10.39637c-0.62667,-1.20868 -0.39273,-2.57737 -1.91776,-3.20093c-1.9001,-0.77693 -3.58492,1.33823 -4.68743,2.39846c-0.42169,0.40552 -2.67857,2.40485 -2.82626,2.6408c-1.55365,2.48192 -0.56029,5.95891 -2.10345,8.53266c-3.51725,-3.00153 -4.61316,-6.11182 -5.96384,-10.3923c-0.61001,-1.93316 -0.03499,-4.21436 -1.63686,-5.91814c-0.79561,-0.84624 -1.73549,-0.41734 -2.64716,-0.42422c-3.24079,-0.02441 -5.82509,0.84212 -8.73429,2.2313c-0.5708,0.27261 -4.14754,2.43817 -4.71287,2.22054c-0.76834,-0.29577 -0.17846,-2.53215 -0.19317,-2.93516c-0.08596,-2.3555 -0.49869,-8.24043 -4.09695,-7.52241c-1.94536,0.38817 -0.99741,1.38403 -1.86226,2.40043c-2.6697,3.1375 -5.34174,6.38735 -8.23969,9.31732c-0.42075,0.65927 -1.15497,1.85663 -1.64483,2.35028c-0.65436,0.6594 -1.38463,1.29071 -2.23618,1.66201c-0.97177,0.42372 -1.45983,-1.65724 -1.94056,-2.6021c-1.50939,-2.96663 -2.36088,-5.73002 -3.30678,-8.86726c-0.23845,-0.79086 -0.25991,-1.75174 -0.85143,-2.32831c-1.32383,-1.29035 -2.66586,-0.44292 -3.74155,0.399c-2.58405,2.02252 -5.30611,3.77813 -8.61087,4.73014c-0.07389,-0.00032 -1.28906,-0.02212 -2.00264,-0.01937c0.61427,-0.44751 1.19795,-1.11655 1.26712,-1.17902c1.84328,-1.66503 4.54466,-4.23141 5.35645,-6.65743c0.4658,-1.39205 -0.6294,-2.83575 -0.94262,-4.06353c-0.93987,-3.68424 -1.87705,-6.77962 -0.9627,-10.48879c0,0 0.05837,-0.23665 0.00073,-0.50495c1.38436,-0.32007 2.06468,-0.01657 3.47532,0.33116c3.12748,0.77095 5.75396,2.0814 8.74351,3.1816c3.37264,1.24118 6.90174,1.52808 10.39276,1.86971c3.0506,0.29853 6.29031,1.55719 9.26573,2.29066c4.27711,1.05435 7.92393,2.48035 11.96519,3.97322c4.91054,1.81399 10.54418,2.60025 15.63137,3.85429c12.11509,2.98647 24.44001,6.9073 36.83525,8.35653c9.63639,2.39101 19.96854,4.01549 29.34525,7.25831c2.17328,0.7516 4.19835,1.7226 6.44206,2.34556c1.24093,0.33849 2.36919,1.00544 3.55861,1.4951c6.21134,2.55706 13.43536,2.71837 19.77951,4.97429c2.39135,0.85034 4.38702,2.25282 6.64697,3.25755c2.16551,0.96275 4.39672,1.13658 6.55752,2.28401z" data-paper-data="{&quot;noHover&quot;:false,&quot;origItem&quot;:[&quot;Path&quot;,{&quot;applyMatrix&quot;:true,&quot;segments&quot;:[[[437.13664,377.59516],[0,0],[-4.74524,-1.19378]],[[423.30982,376.30124],[4.666,0.83294],[-4.8695,-0.86926]],[[408.84368,373.16174],[5.05074,0.50654],[-13.39938,-1.34384]],[[368.05594,372.98066],[13.28566,1.99218],[-2.5441,-0.38148]],[[360.43142,371.78532],[2.57178,0.06328],[-4.6552,-0.13568]],[[346.80294,370.3236],[4.58,0.4192],[-19.76064,-1.80864]],[[286.45762,370.32946],[19.85718,0.0302],[-24.76366,3.11922]],[[211.00002,371.66666],[24.95552,0],[-10.47894,0]],[[178.80294,371.65692],[10.40396,1.17192],[-8.5622,-0.96446]],[[153.66668,369.66666],[8.8103,0],[-6.129,0]],[[134.57772,369.65168],[6.06678,-0.88058],[-6.94266,1.00772]],[[113.50172,370.99318],[7.14336,0.79578],[-6.332,-0.70538]],[[95.00002,369],[6.4422,0],[-2.90572,0]],[[88.09302,370.01958],[2.53502,-1.28422],[0.24034,0.4934]],[[88.33336,371],[0,0],[0,7.6404]],[[95.22438,390.8975],[-3.5887,-6.7044],[1.19594,2.23426]],[[99.00002,398.33334],[0.23818,-2.92614],[-0.41508,5.09962]],[[91.78494,413.81764],[2.78238,-4.1156],[-0.10442,0.15444]],[[89.88862,416.71238],[0.97862,-1.16304],[1.38436,-0.34694]],[[93.5877,415.81088],[-0.14364,0.03474],[5.9617,-3.43062]],[[108.04422,402.49726],[-4.04976,5.16442],[1.68582,-2.14984]],[[115.31876,399.92628],[-3.18838,-1.872],[1.42466,0.83646]],[[118.08658,404.0376],[-0.84162,-1.42162],[3.33858,5.6393]],[[128.75168,419.66408],[-4.3511,-5.03828],[1.38582,1.60468]],[[133.568,423.81892],[-1.68422,1.28798],[1.47586,-1.12864]],[[137.11442,419.5188],[-0.95504,1.5937],[0.71496,-1.19308]],[[139.183,414.1643],[-0.50148,1.48162],[4.2249,-7.07684]],[[150.72272,392.11254],[-3.68234,7.37056],[1.1929,-2.38772]],[[153.38964,386.57],[-3.59184,1.68502],[6.64366,-3.11672]],[[164.94652,399.20718],[-1.29448,-4.53294],[0.22148,0.77556]],[[166.5269,404.82308],[-1.63362,-0.20656],[1.20196,0.152]],[[174.61554,398.25],[-0.97792,0.80262],[4.9843,-4.0902]],[[190.5085,389.72802],[-6.30488,1.50392],[1.77362,-0.42306]],[[196.0515,389.2987],[-1.95006,-1.26242],[3.92618,2.5417]],[[202.0632,399.99614],[-2.10994,-3.46194],[4.67186,7.66554]],[[218.61526,417.2987],[-8.26684,-4.14492],[1.7646,-5.73656]],[[218.4192,399.75376],[-1.82892,5.56326],[0.17388,-0.5289]],[[222.64336,393.26382],[-0.62474,0.98934],[1.63342,-2.58658]],[[230.59884,386.35102],[-4.06164,-0.59914],[3.25988,0.48086]],[[236.05344,391.67342],[-1.7955,-2.04712],[5.51222,6.28474]],[[256.21602,408.07876],[-6.7043,-4.91326],[1.68446,1.34726]],[[260.70548,412.73892],[-1.92368,-0.97568],[0.48696,0.24698]],[[260.4072,411.12828],[-0.04554,0.5441],[0.29974,-3.58116]],[[263.31002,403.93048],[-1.93104,3.12702],[2.05894,-3.33412]],[[269.83768,393.5242],[-1.53574,3.57618],[0.40482,-0.94268]],[[270.6672,390.56034],[-0.67422,0.77326],[1.13122,-1.29734]],[[274.94454,387.6674],[-1.70658,0.22436],[2.266,-0.29792]],[[280.7716,392.73842],[-0.8017,-1.35908],[2.2513,3.81654]],[[288.44134,402.9467],[-3.16766,-3.29104],[2.16622,2.25058]],[[294.02726,411.6994],[0.12064,-3.48078],[3.79072,-4.379]],[[308.07572,401.7534],[-5.40276,1.98128],[1.17364,-0.4304]],[[315.5339,399.7392],[-1.42036,-0.4065],[5.48666,1.57026]],[[322.28476,413.22836],[-0.94318,-4.27872],[0.21132,0.95866]],[[322.98506,416.08894],[-0.13622,-0.9722],[0.13354,0.95308]],[[322.41426,418.9191],[-0.96238,0],[7.75346,0]],[[343.48118,409.8573],[-6.48658,4.00426],[5.7599,-1.90564]],[[359.26862,399.67854],[-4.56416,3.97332],[1.2963,-1.12848]],[[365.3845,395.70396],[-1.3867,-0.33152],[2.38086,0.56918]],[[373.29938,407.17818],[-1.48644,-2.09806],[0.6309,0.89048]],[[376.8403,411.67304],[-1.74618,0.4215],[6.95912,-1.6798]],[[393.45468,397.20336],[-5.6208,3.75014],[8.01866,-1.73154]],[[405.64912,415.10824],[-1.42318,-6.29352],[0.2547,1.12636]],[[406.7566,411.8256],[-0.457,1.06054],[0.69764,-1.61896]],[[412.65346,401.03024],[-2.06318,0.17886],[1.67046,-0.1448]],[[416.7238,403.98572],[-1.00166,-1.34464],[1.63872,2.19984]],[[419.44168,411.75332],[-1.0889,-2.51774],[1.79896,4.1596]],[[427.28194,421.96534],[-3.48626,-2.7875],[2.34708,-7.56404]],[[436.6693,400.55724],[-4.31768,6.47652],[1.6548,-2.4822]],[[443.45958,394.3868],[-4.55142,-0.86746],[1.16448,0.22194]],[[447.9975,399.89056],[-0.89002,-1.33504],[3.1194,4.67912]],[[460.2347,414.48554],[-4.79732,-2.93658],[2.326,-5.47984]],[[470.00056,399.3425],[-3.90674,4.48554],[1.13316,-1.30104]],[[473.46828,395.49984],[-1.6494,0.50618],[5.0209,-1.54084]],[[480.25364,403.77412],[-0.82548,-2.94548],[1.30166,4.64454]],[[484.8291,416.19086],[-1.79332,-4.3083],[0.82006,1.97014]],[[485.68128,420.92466],[0.01724,-1.65152],[1.35398,-2.49798]],[[489.99706,413.89898],[-0.6819,1.67082],[8.55812,-8.4803]],[[495.69256,381.987],[3.51276,10.92412],[0,0]],[[495.68906,381.67184],[0,0],[-19.36622,0.0985]],[[437.13672,377.59512],[18.57404,5.57598],[0,0]]],&quot;closed&quot;:true,&quot;fillColor&quot;:[0,0,0,1]}]}" fill="#1f4d15" stroke="#000000" stroke-width="2"/></g></g></svg>