<svg version="1.1" xmlns="http://www.w3.org/2000/svg" xmlns:xlink="http://www.w3.org/1999/xlink" width="34.83402" height="19.10473" viewBox="0,0,34.83402,19.10473"><g transform="translate(-305.52998,-172.38928)"><g data-paper-data="{&quot;isPaintingLayer&quot;:true}" fill-rule="nonzero" stroke="#000000" stroke-width="1" stroke-linejoin="miter" stroke-miterlimit="10" stroke-dasharray="" stroke-dashoffset="0" style="mix-blend-mode: normal"><path d="M310.6733,189.02084v0v0v0z" data-paper-data="{&quot;index&quot;:null}" fill="#008204" stroke-linecap="butt"/><path d="M322.51935,184.6871l-4.11986,6.30628l-11.94734,-0.02763l4.01423,-6.14863z" data-paper-data="{&quot;index&quot;:null}" fill="#828282" stroke-linecap="round"/><path d="M310.71176,172.38928v0v0z" fill="#008204" stroke-linecap="butt"/><path d="M310.47612,180.6066l-3.98575,-6.16713l11.94734,0.02763l4.09064,6.32527z" fill="#828282" stroke-linecap="round"/><path d="M331.33961,182.76012c-0.009,3.89505 -4.7173,7.04174 -10.51628,7.02833c-5.79898,-0.01341 -10.49267,-3.18184 -10.48366,-7.07688c0.009,-3.89505 4.7173,-7.04174 10.51628,-7.02833c5.79898,0.01341 10.49267,3.18184 10.48366,7.07688z" fill="#008204" stroke-linecap="butt"/><path d="M326.93184,177.01306l12.24807,6.53879l-11.95845,4.77771" fill="#008204" stroke-linecap="round"/><path d="M320.19887,189.35862l0.03042,-13.15786l3.84209,0.00889l-0.03042,13.15786z" fill="#006503" stroke-linecap="butt"/></g></g></svg>