<svg version="1.1" xmlns="http://www.w3.org/2000/svg" xmlns:xlink="http://www.w3.org/1999/xlink" width="664.0364" height="373.5" viewBox="0,0,664.0364,373.5"><defs><linearGradient x1="319" y1="-7.35" x2="319" y2="365.65" gradientUnits="userSpaceOnUse" id="color-1"><stop offset="0" stop-color="#002179"/><stop offset="1" stop-color="#3a3a3a"/></linearGradient><linearGradient x1="-14.0364" y1="182.15" x2="-14.0364" y2="366.15" gradientUnits="userSpaceOnUse" id="color-2"><stop offset="0" stop-color="#ff0000" stop-opacity="0"/><stop offset="1" stop-color="#ff0000"/></linearGradient></defs><g transform="translate(14.0364,7.35)"><g data-paper-data="{&quot;isPaintingLayer&quot;:true}" fill-rule="nonzero" stroke="none" stroke-linecap="butt" stroke-linejoin="miter" stroke-miterlimit="10" stroke-dasharray="" stroke-dashoffset="0" style="mix-blend-mode: normal"><path d="M-12,365.65v-373h662v373z" fill="url(#color-1)" stroke-width="0.5"/><path d="M351.31513,173.23333c0,-8.56041 6.93959,-15.5 15.5,-15.5c8.56041,0 15.5,6.93959 15.5,15.5c0,8.56041 -6.93959,15.5 -15.5,15.5c-8.56041,0 -15.5,-6.93959 -15.5,-15.5z" fill="#c2c2c2" stroke-width="0"/><path d="M269.5,210c0,-27.89038 22.60962,-50.5 50.5,-50.5c27.89038,0 50.5,22.60962 50.5,50.5c0,27.89038 -22.60962,50.5 -50.5,50.5c-27.89038,0 -50.5,-22.60962 -50.5,-50.5z" fill="#aac348" stroke-width="0"/><path d="M18,26.65c0,-3.58985 2.91015,-6.5 6.5,-6.5c3.58985,0 6.5,2.91015 6.5,6.5c0,3.58985 -2.91015,6.5 -6.5,6.5c-3.58985,0 -6.5,-2.91015 -6.5,-6.5z" fill="#ffffff" stroke-width="0"/><path d="M83,64.15c0,-3.31371 2.68629,-6 6,-6c3.31371,0 6,2.68629 6,6c0,3.31371 -2.68629,6 -6,6c-3.31371,0 -6,-2.68629 -6,-6z" fill="#ffffff" stroke-width="0"/><path d="M148,16.65c0,-1.38071 1.11929,-2.5 2.5,-2.5c1.38071,0 2.5,1.11929 2.5,2.5c0,1.38071 -1.11929,2.5 -2.5,2.5c-1.38071,0 -2.5,-1.11929 -2.5,-2.5z" fill="#ffffff" stroke-width="0"/><path d="M276,52.65c0,-4.14214 3.35787,-7.5 7.5,-7.5c4.14213,0 7.5,3.35786 7.5,7.5c0,4.14214 -3.35787,7.5 -7.5,7.5c-4.14213,0 -7.5,-3.35786 -7.5,-7.5z" fill="#ffffff" stroke-width="0"/><path d="M430,59.15c0,-1.65686 1.34314,-3 3,-3c1.65686,0 3,1.34314 3,3c0,1.65686 -1.34314,3 -3,3c-1.65686,0 -3,-1.34314 -3,-3z" fill="#ffffff" stroke-width="0"/><path d="M540,18.15c0,-1.10457 0.89543,-2 2,-2c1.10457,0 2,0.89543 2,2c0,1.10457 -0.89543,2 -2,2c-1.10457,0 -2,-0.89543 -2,-2z" fill="#ffffff" stroke-width="0"/><path d="M613,95.15c0,-1.10457 0.89543,-2 2,-2c1.10457,0 2,0.89543 2,2c0,1.10457 -0.89543,2 -2,2c-1.10457,0 -2,-0.89543 -2,-2z" fill="#ffffff" stroke-width="0"/><path d="M529,74.15c0,-1.10457 0.89543,-2 2,-2c1.10457,0 2,0.89543 2,2c0,1.10457 -0.89543,2 -2,2c-1.10457,0 -2,-0.89543 -2,-2z" fill="#ffffff" stroke-width="0"/><path d="M246,148.65c0,-1.933 1.567,-3.5 3.5,-3.5c1.933,0 3.5,1.567 3.5,3.5c0,1.933 -1.567,3.5 -3.5,3.5c-1.933,0 -3.5,-1.567 -3.5,-3.5z" fill="#ffffff" stroke-width="0"/><path d="M111,133.15c0,-1.65686 1.34315,-3 3,-3c1.65685,0 3,1.34314 3,3c0,1.65686 -1.34315,3 -3,3c-1.65685,0 -3,-1.34314 -3,-3z" fill="#ffffff" stroke-width="0"/><path d="M14,190.65c0,-1.933 1.56701,-3.5 3.5,-3.5c1.93299,0 3.5,1.567 3.5,3.5c0,1.933 -1.56701,3.5 -3.5,3.5c-1.93299,0 -3.5,-1.567 -3.5,-3.5z" fill="#ffffff" stroke-width="0"/><path d="M137,251.65c0,-2.48528 2.01472,-4.5 4.5,-4.5c2.48528,0 4.5,2.01472 4.5,4.5c0,2.48528 -2.01472,4.5 -4.5,4.5c-2.48528,0 -4.5,-2.01472 -4.5,-4.5z" fill="#ffffff" stroke-width="0"/><path d="M197,219.65c0,-1.933 1.567,-3.5 3.5,-3.5c1.933,0 3.5,1.567 3.5,3.5c0,1.933 -1.567,3.5 -3.5,3.5c-1.933,0 -3.5,-1.567 -3.5,-3.5z" fill="#ffffff" stroke-width="0"/><path d="M361,276.15c0,-1.65686 1.34314,-3 3,-3c1.65686,0 3,1.34314 3,3c0,1.65686 -1.34314,3 -3,3c-1.65686,0 -3,-1.34314 -3,-3z" fill="#ffffff" stroke-width="0"/><path d="M481,236.15c0,-2.20914 1.79086,-4 4,-4c2.20914,0 4,1.79086 4,4c0,2.20914 -1.79086,4 -4,4c-2.20914,0 -4,-1.79086 -4,-4z" fill="#ffffff" stroke-width="0"/><path d="M377,142.15c0,-1.10457 0.89543,-2 2,-2c1.10457,0 2,0.89543 2,2c0,1.10457 -0.89543,2 -2,2c-1.10457,0 -2,-0.89543 -2,-2z" fill="#ffffff" stroke-width="0"/><path d="M567,176.65c0,-1.933 1.567,-3.5 3.5,-3.5c1.933,0 3.5,1.567 3.5,3.5c0,1.933 -1.567,3.5 -3.5,3.5c-1.933,0 -3.5,-1.567 -3.5,-3.5z" fill="#ffffff" stroke-width="0"/><path d="M-14.0364,182.15h663v184h-663z" fill="url(#color-2)" stroke-width="0.94833"/></g></g></svg>