<svg version="1.1" xmlns="http://www.w3.org/2000/svg" xmlns:xlink="http://www.w3.org/1999/xlink" width="636.63634" height="494.71137" viewBox="0,0,636.63634,494.71137"><defs><linearGradient x1="408" y1="328.5" x2="472" y2="328.5" gradientUnits="userSpaceOnUse" id="color-1"><stop offset="0" stop-color="#ff4c4c"/><stop offset="1" stop-color="#b2b2b2"/></linearGradient><linearGradient x1="520.73109" y1="49.98462" x2="507.26891" y2="95.01538" gradientUnits="userSpaceOnUse" id="color-2"><stop offset="0" stop-color="#ff4c4c"/><stop offset="1" stop-color="#b2b2b2"/></linearGradient><linearGradient x1="160.50444" y1="312.50081" x2="149.49556" y2="372.49919" gradientUnits="userSpaceOnUse" id="color-3"><stop offset="0" stop-color="#ff4c4c"/><stop offset="1" stop-color="#b2b2b2"/></linearGradient><linearGradient x1="130.01576" y1="198.29499" x2="107.98424" y2="290.70501" gradientUnits="userSpaceOnUse" id="color-4"><stop offset="0" stop-color="#ff4c4c"/><stop offset="1" stop-color="#b2b2b2"/></linearGradient><linearGradient x1="83" y1="78" x2="83" y2="317" gradientUnits="userSpaceOnUse" id="color-5"><stop offset="0" stop-color="#ff4c4c"/><stop offset="1" stop-color="#b2b2b2"/></linearGradient><linearGradient x1="241.2171" y1="156.64393" x2="235.7829" y2="270.35607" gradientUnits="userSpaceOnUse" id="color-6"><stop offset="0" stop-color="#ff4c4c"/><stop offset="1" stop-color="#b2b2b2"/></linearGradient><linearGradient x1="207.6691" y1="-9.71226" x2="70.3309" y2="109.71226" gradientUnits="userSpaceOnUse" id="color-7"><stop offset="0" stop-color="#ff4c4c"/><stop offset="1" stop-color="#b2b2b2"/></linearGradient><linearGradient x1="313.76541" y1="119.51511" x2="329.23459" y2="157.48489" gradientUnits="userSpaceOnUse" id="color-8"><stop offset="0" stop-color="#ff4c4c"/><stop offset="1" stop-color="#b2b2b2"/></linearGradient><linearGradient x1="353.36365" y1="270.72139" x2="353.36365" y2="331.72139" gradientUnits="userSpaceOnUse" id="color-9"><stop offset="0" stop-color="#4d4d4d"/><stop offset="1" stop-color="#ff0000"/></linearGradient><linearGradient x1="-12.31817" y1="36.3607" x2="-12.31817" y2="37.3607" gradientUnits="userSpaceOnUse" id="color-10"><stop offset="0" stop-color="#4d4d4d"/><stop offset="1" stop-color="#ff0000"/></linearGradient><radialGradient cx="369.50667" cy="324.40552" r="58.1683" gradientUnits="userSpaceOnUse" id="color-11"><stop offset="0" stop-color="#ff9999"/><stop offset="1" stop-color="#ff0000"/></radialGradient><linearGradient x1="205.42892" y1="-58.6599" x2="194.57108" y2="27.6599" gradientUnits="userSpaceOnUse" id="color-12"><stop offset="0" stop-color="#ff4c4c"/><stop offset="1" stop-color="#b2b2b2"/></linearGradient><linearGradient x1="416" y1="-54" x2="416" y2="124" gradientUnits="userSpaceOnUse" id="color-13"><stop offset="0" stop-color="#ff4c4c"/><stop offset="1" stop-color="#b2b2b2"/></linearGradient><linearGradient x1="441.82244" y1="193.01566" x2="497.3038" y2="220.6891" gradientUnits="userSpaceOnUse" id="color-14"><stop offset="0" stop-color="#ff4c4c"/><stop offset="1" stop-color="#b2b2b2"/></linearGradient><linearGradient x1="569" y1="179.5" x2="611" y2="179.5" gradientUnits="userSpaceOnUse" id="color-15"><stop offset="0" stop-color="#ff4c4c"/><stop offset="1" stop-color="#b2b2b2"/></linearGradient><linearGradient x1="495.03704" y1="360.41879" x2="601.96296" y2="381.58121" gradientUnits="userSpaceOnUse" id="color-16"><stop offset="0" stop-color="#ff4c4c"/><stop offset="1" stop-color="#b2b2b2"/></linearGradient></defs><g transform="translate(24.63634,84.48782)"><g data-paper-data="{&quot;isPaintingLayer&quot;:true}" fill-rule="nonzero" stroke-linejoin="miter" stroke-miterlimit="10" stroke-dasharray="" stroke-dashoffset="0" style="mix-blend-mode: normal"><path d="M408,397v-137h64v137z" fill="url(#color-1)" stroke="#000000" stroke-width="2" stroke-linecap="butt"/><path d="M442.11802,75.53818l13.46218,-45.03076l130.30178,38.9544l-13.46218,45.03076z" fill="url(#color-2)" stroke="#000000" stroke-width="2" stroke-linecap="butt"/><path d="M62.94053,356.61753l11.00888,-59.99837l173.11006,31.76331l-11.00888,59.99837z" fill="url(#color-3)" stroke="#000000" stroke-width="2" stroke-linecap="butt"/><path d="M92.42044,286.99444l22.03153,-92.41002l31.12759,7.42115l-22.03153,92.41002z" fill="url(#color-4)" stroke="#000000" stroke-width="2" stroke-linecap="butt"/><path d="M41,317v-239h84v239z" fill="url(#color-5)" stroke="#000000" stroke-width="2" stroke-linecap="butt"/><path d="M218.30204,270.36007l5.4342,-113.71215l34.96173,-0.00798l-5.4342,113.71215z" fill="url(#color-6)" stroke="#000000" stroke-width="2" stroke-linecap="butt"/><path d="M40.80286,75.75501l137.33821,-119.42453l59.05608,67.9145l-137.33821,119.42453z" fill="url(#color-7)" stroke="#000000" stroke-width="2" stroke-linecap="butt"/><path d="M237.0884,195.02593l-15.46917,-37.96979l184.29238,-75.08208l15.46917,37.96979z" fill="url(#color-8)" stroke="#000000" stroke-width="2" stroke-linecap="butt"/><path d="M384.36365,301.22139c0,16.84468 -13.87917,30.5 -31,30.5c-17.12083,0 -31,-13.65532 -31,-30.5c0,-16.84468 13.87917,-30.5 31,-30.5c17.12083,0 31,13.65532 31,30.5z" fill="url(#color-9)" stroke="#000000" stroke-width="2" stroke-linecap="butt"/><path d="M-24.63634,73.7214z" fill="url(#color-10)" stroke="#000000" stroke-width="2" stroke-linecap="butt"/><path d="M371.78199,302.86795c3.35245,1.60795 -2.37975,8.99604 -1.95011,13.34441c0.23284,2.35212 2.07796,5.49152 4.44668,5.56173c3.54195,0.10392 7.83682,-7.41526 8.62021,-5.27983c1.71709,3.63424 -0.54291,11.96306 -3.61926,16.81917c-3.90802,6.17368 -10.30427,12.14366 -15.85167,15.14742c-4.72992,2.65369 -11.43062,4.01678 -16.68185,2.0802c-7.17215,-2.6461 -13.45086,-8.60039 -18.06692,-14.87946c-3.06532,-4.19068 -6.65204,-12.7242 -4.16565,-15.7094c2.20548,-2.6322 11.33822,7.54884 12.7875,4.86916c1.95834,-3.61647 -7.35793,-13.66412 -5.83315,-17.79505c0.96827,-2.55194 7.91309,7.24757 11.39736,5.00775c5.42243,-3.47087 4.25592,-16.79952 6.95571,-17.51323c2.78039,-0.62194 -0.32632,12.8667 4.44395,14.73641c5.92393,2.32323 13.0861,-8.25889 17.51719,-6.38927z" fill="url(#color-11)" stroke="#ff0000" stroke-width="5" stroke-linecap="round"/><path d="M-1.88087,2.94896l10.85784,-86.3198l392.9039,49.42187l-10.85784,86.3198z" fill="url(#color-12)" stroke="#000000" stroke-width="2" stroke-linecap="butt"/><path d="M387,124v-178h58v178z" fill="url(#color-13)" stroke="#000000" stroke-width="2" stroke-linecap="butt"/><path d="M463.60469,288.25107l-55.48136,-27.67344l67.39822,-135.12395l55.48136,27.67344z" fill="url(#color-14)" stroke="#000000" stroke-width="2" stroke-linecap="butt"/><path d="M569,305v-251h42v251z" fill="url(#color-15)" stroke="#000000" stroke-width="2" stroke-linecap="butt"/><path d="M489.60082,387.886l10.87244,-54.93442l106.92592,21.16242l-10.87244,54.93442z" fill="url(#color-16)" stroke="#000000" stroke-width="2" stroke-linecap="butt"/></g></g></svg>