<svg version="1.1" xmlns="http://www.w3.org/2000/svg" xmlns:xlink="http://www.w3.org/1999/xlink" width="690.35857" height="271.93" viewBox="0,0,690.35857,271.93"><defs><linearGradient x1="317.52716" y1="231.17621" x2="317.52716" y2="383.67621" gradientUnits="userSpaceOnUse" id="color-1"><stop offset="0" stop-color="#c2b280"/><stop offset="1" stop-color="#554e38"/></linearGradient></defs><g transform="translate(18.43687,-112.74621)"><g data-paper-data="{&quot;isPaintingLayer&quot;:true}" fill-rule="nonzero" stroke="#000000" stroke-width="2" stroke-linecap="butt" stroke-linejoin="miter" stroke-miterlimit="10" stroke-dasharray="" stroke-dashoffset="0" style="mix-blend-mode: normal"><path d="M583.38911,246.64925l-26.32124,35.25893l-177.49668,-132.50349l26.32124,-35.25893z" fill="#a5a5a5"/><path d="M581.85536,249.12175l-22.85303,30.61306l-177.69702,-132.65304l22.85303,-30.61306z" fill="#4543d4"/><path d="M564.71686,233.00492l-24.97526,33.45593l-5.60938,-4.18747l24.97526,-33.45593z" fill="#a5a5a5"/><path d="M537.67164,212.81533l-24.97526,33.45593l-5.60938,-4.18747l24.97526,-33.45593z" fill="#a5a5a5"/><path d="M510.62644,192.62574l-24.97526,33.45593l-5.60938,-4.18747l24.97526,-33.45593z" fill="#a5a5a5"/><path d="M483.58124,172.43616l-24.97526,33.45593l-5.60938,-4.18747l24.97526,-33.45593z" fill="#a5a5a5"/><path d="M456.53604,152.24657l-24.97526,33.45593l-5.60938,-4.18747l24.97526,-33.45593z" fill="#a5a5a5"/><path d="M429.49082,132.05699l-24.97526,33.45593l-5.60938,-4.18747l24.97526,-33.45593z" fill="#a5a5a5"/><path d="M287.33918,195.7633c2.20234,-0.95145 5.14252,-1.74396 7.37707,-3.09814c1.01964,2.42507 0.80533,5.17473 1.24096,7.84364c0.49214,3.0152 1.07245,6.21032 1.7487,9.11772c0.69498,2.98791 -0.63864,6.33012 -0.7849,9.31015c-0.12886,2.62528 -0.06338,5.00495 -0.4124,7.64192c-0.90004,6.83867 -3.86626,12.97897 -5.13108,19.68657c-1.16522,6.17939 -1.8319,12.36512 -3.30461,18.49715c-0.42131,1.75427 -0.58484,3.4537 -0.86194,5.17081c-0.02835,0.17567 -0.1528,-0.35964 -0.29321,-0.46894c-0.50257,-0.3912 -1.1174,-0.61091 -1.65834,-0.94707c-0.90715,-0.56375 -1.72179,-1.26269 -2.6158,-1.84705c-2.42756,-1.58674 -5.28651,-4.59305 -7.84943,-5.72463c-0.92813,-0.40979 -2.09058,-1.18968 -2.9659,-0.67668c-0.74053,0.43401 -0.17722,1.65269 -0.16286,2.51091c0.06253,3.73904 0.86835,7.43781 0.82923,11.21425c-0.87479,3.62536 -0.88896,7.1861 -1.44254,10.85719c-0.2893,1.91852 -1.27445,3.41445 -1.60526,5.27604c-0.61984,3.48821 -0.64729,7.42776 -1.12542,11.01177c-0.2087,1.56439 -1.27616,5.2469 -0.91372,7.30096c-1.07285,-0.41147 -1.96488,-0.35936 -3.48994,-1.24632c-2.12481,-1.23577 -3.56308,-3.7128 -5.96417,-4.65895c-0.92969,-0.36635 -2.05099,-1.13672 -2.92635,-0.65476c-1.18292,0.65131 0.16466,4.92548 0.29197,5.72542c0.7179,4.51073 0.96004,8.74261 2.5051,13.18888c0.37192,2.25756 0.53552,4.76306 1.00999,6.94544c0.21447,0.98652 1.01077,1.79041 1.19503,2.78301c0.45591,2.45594 -0.61152,4.51872 -0.83959,6.86887c-0.26167,2.69621 0.05166,5.74596 0.02831,8.4556c-0.00466,0.5418 -0.81823,-0.71591 -1.2702,-1.01474c-0.57429,-0.3797 -1.13872,-0.77744 -1.73529,-1.12107c-1.53033,-0.88149 -3.24606,-1.54465 -4.84012,-2.30298c-7.41247,-3.94847 -14.70938,-8.38132 -21.82888,-12.81615c-4.43372,-2.76182 -7.37661,-7.02968 -11.17491,-10.47266c-2.1603,-1.95822 -4.41156,-4.68205 -6.88862,-6.18062c-0.78947,-0.47761 -1.66825,-1.37765 -2.54641,-1.09444c-1.45966,0.47076 -0.33058,3.50499 -0.22761,4.12946c0.45008,2.72952 0.5727,5.451 1.18579,8.17295c0.29243,1.29831 0.52346,2.62485 1.03257,3.85447c0.15226,0.36774 0.98895,0.89145 0.63332,1.07018c-0.36879,0.18535 -0.50765,-0.67789 -0.86058,-0.8919c-1.05504,-0.63974 -2.24546,-1.07174 -3.23076,-1.81441c-0.87283,-0.65788 -1.75989,-1.30547 -2.68169,-1.89276c-3.25761,-2.06456 -5.9239,-4.98058 -9.08124,-7.20906c-7.40667,-5.22773 -14.09838,-12.02429 -20.74581,-18.3135c-4.16208,-3.0001 -6.83525,-7.25595 -10.03736,-11.16749c-0.76951,-0.94 -3.19446,-4.78159 -4.33865,-4.98401c-0.90226,-0.15961 -1.82479,0.42011 -2.40922,1.12578c-0.2657,0.32082 0.61772,3.4436 0.64402,3.57901c0.4911,2.52821 0.27703,6.10454 1.44138,8.61254c-4.13398,-2.91301 -8.37182,-5.6479 -12.70402,-8.26095c-3.22333,-1.94421 -6.77311,-3.59736 -9.46512,-6.28103c-1.28757,-1.28357 -2.01583,-2.90581 -3.46925,-4.09677c-3.75094,-3.07361 -8.84764,-5.25342 -9.62439,-10.58715c8.78378,-4.07692 14.41357,-12.21675 23.30944,-16.05965c11.01595,-4.75908 22.04177,-9.5335 33.05771,-14.29258c5.65665,-2.44377 11.47017,-5.69689 17.34955,-7.50572c5.06752,-1.55905 10.22933,-1.14512 15.07274,-3.23755c3.01071,-1.30068 6.02574,-2.85789 9.12131,-3.94195c3.06333,-1.07277 6.3061,-0.82386 9.31387,-1.87225c3.05611,-1.06525 6.03039,-2.56983 9.00099,-3.85318c0.40115,-0.1733 2.87844,-1.22041 3.0771,-1.41116c0.34004,-0.32649 0.19977,-0.97013 0.52163,-1.31455c0.7097,-0.75943 1.93946,-0.75389 2.89364,-1.16612c2.13068,-0.92049 5.26226,-1.66007 7.08918,-3.08919c0.78176,-0.61153 1.30075,-1.58465 2.19755,-2.00993c7.1962,-3.41254 14.42381,-6.77458 22.14866,-8.67214c0.8743,-0.21642 2.84033,-1.19372 3.49767,-0.97703c0.37694,0.12425 0.54275,0.69138 0.9372,0.73534c0.87172,0.09714 2.98129,-1.1242 3.75589,-1.45884z" data-paper-data="{&quot;noHover&quot;:false,&quot;origItem&quot;:[&quot;Path&quot;,{&quot;applyMatrix&quot;:true,&quot;segments&quot;:[[[230.5,222],[0,0],[-0.84379,0]],[[226.47427,221.85065],[0.76171,0.43489],[-0.34467,-0.19679]],[[225.9059,220.80439],[0.29675,0.26355],[-0.5175,-0.45961]],[[222.30839,220.31519],[0.88843,0.14807],[-7.84393,-1.32165]],[[198.54346,219.49905],[7.95946,-0.27875],[-0.99192,0.03474]],[[195.72975,220.47324],[0.96018,-0.25134],[-2.24388,0.58738]],[[188,220.49999],[2.32101,0],[-1.03942,0]],[[184.88268,220.42387],[0.95268,-0.41569],[-0.43206,0.18853]],[[183.88268,221.42387],[0.44164,-0.16486],[-0.25802,0.09632]],[[180.5,221.49999],[0.43698,0],[-3.23597,0]],[[170.71484,221.47032],[3.22796,0.23413],[-3.1769,-0.23043]],[[161.42911,219.49748],[3.23757,0.23009],[-3.27164,-0.23251]],[[151.5,219.5],[3.27966,0],[-5.27607,0]],[[136.39088,216.49403],[5.27026,0.57853],[-6.11461,-0.67121]],[[117.5,216.5],[6.16196,0],[-12,0]],[[81.5,216.5],[12,0],[-9.69043,-0.00025]],[[53.73979,221.99005],[9.68034,-0.25903],[-1.40225,5.20439]],[[58.37844,235.52215],[-2.22438,-4.30915],[0.86191,1.66971]],[[59.93936,240.65707],[-0.67293,-1.68895],[1.40693,3.53122]],[[66.13868,250.17369],[-2.18795,-3.06312],[2.94063,4.11688]],[[74.52655,262.79002],[-2.6397,-4.31363],[-0.07422,-2.7641]],[[76.52447,254.28008],[-0.55184,2.51565],[0.02956,-0.13474]],[[77.35361,250.73697],[-0.37115,0.18914],[0.81637,-0.41602]],[[80.10218,250.70164],[-0.76497,-0.50435],[0.97008,0.6396]],[[82.10983,256.99441],[-0.33361,-1.1681],[1.38824,4.86071]],[[86.89783,271.21766],[-2.63096,-4.40472],[3.60808,8.40977]],[[98.67831,296.23362],[-4.72602,-7.73645],[2.01462,3.29791]],[[104.15116,306.44215],[-2.17169,-3.1872],[0.6133,0.90471]],[[105.8605,309.24034],[-0.54034,-0.95009],[0.60997,1.07253]],[[108.1045,312.18414],[-0.71481,-1.0057],[0.23911,0.33643]],[[108.54003,313.34325],[-0.41205,0.02389],[0.39735,-0.02303]],[[108.30529,312.1725],[-0.00607,0.39797],[0.02029,-1.33069]],[[108.88423,308.22217],[-0.24645,1.30782],[0.51668,-2.74189]],[[111.03349,300.24333],[-0.66933,2.68419],[0.15313,-0.6141]],[[112.97067,296.50043],[-1.52666,-0.14673],[0.91847,0.08828]],[[114.87264,298.51164],[-0.53532,-0.75154],[1.67961,2.35805]],[[118.73796,306.90693],[-1.20654,-2.65439],[2.12137,4.66701]],[[124.82999,320.94225],[-2.97482,-4.29371],[4.77686,6.89468]],[[139.76723,341.35865],[-5.23869,-6.56439],[1.1626,1.32833]],[[143.29399,345.39209],[-1.05525,-1.41612],[0.41136,0.55205]],[[144.44143,347.1094],[-0.37661,-0.57632],[0.29639,0.45357]],[[145.20443,348.54467],[-0.21915,0.49552],[1.09605,-2.47818]],[[148.52908,340.77128],[-1.3095,2.37133],[1.14142,-2.06698]],[[152.0204,334.79894],[-0.55548,2.43535],[0.2245,-0.98428]],[[152.02673,331.77025],[-0.19436,0.99068],[0.42995,-2.19158]],[[153.85105,324.99428],[-0.5539,2.21993],[0.34499,-4.69441]],[[156.77385,311.89567],[-1.12988,4.42554],[0.20038,-0.78483]],[[158.77023,306.52676],[-1.34422,0.12876],[0.99471,-0.09528]],[[161.19502,308.28946],[-0.70816,-0.70501],[1.82896,1.82081]],[[164.82269,314.93153],[-1.46047,-1.97711],[1.04824,1.41905]],[[167.53104,317.46039],[-0.82169,-0.80321],[0.4819,-2.02936]],[[171.25847,311.12558],[-0.81201,1.35333],[1.8603,-3.10049]],[[176.64934,301.47429],[-1.9524,2.95634],[1.04197,-1.57774]],[[180.21199,297.27402],[-1.02644,1.64646],[1.9641,-3.1505]],[[185.83843,287.89236],[-2.24084,2.98113],[1.53361,-3.45124]],[[189.52454,277.28152],[-1.42546,3.45722],[0.32718,-0.79354]],[[190.76884,275.0271],[-0.85193,0.10473],[1.00699,-0.12379]],[[193.22348,276.8268],[-0.6895,-0.74427],[1.90398,2.05521]],[[198.15917,285.20353],[-1.5992,-2.41937],[0.58895,0.89099]],[[199.82775,287.93894],[-0.60918,-0.87729],[0.36326,0.52313]],[[200.97436,289.46729],[-0.30621,-0.55843],[0.08555,0.15602]],[[200.95842,290.00088],[-0.09569,0.15002],[0.93536,-1.4664]],[[203.79998,285.60002],[-1.08249,1.44332],[3.78385,-5.04512]],[[214.17013,269.94203],[-3.52035,5.21054],[3.82127,-5.65593]],[[226.68998,253.91243],[-3.53838,5.92092],[1.36619,-2.28231]],[[230.10032,247.06345],[-1.15945,2.35889],[1.31612,-2.67764]],[[234.51441,238.83077],[-0.54699,3.01851],[0.53225,-2.93718]],[[236.52674,229.77027],[-0.74402,2.96312],[0.65856,-2.62281]],[[238.4996,222.07987],[-0.02573,2.63058],[-2.58836,0.35693]],[[230.49999,222.00003],[2.39907,0],[0,0]]],&quot;closed&quot;:true,&quot;fillColor&quot;:[0,0,0],&quot;strokeWidth&quot;:0.5}]}" fill="#4c2915"/><path d="M273.15011,192.98264c9.63113,-1.12378 18.81567,-5.8515 27.68519,-9.73694l0.06414,0.14403c3.77855,4.31758 5.96342,10.19478 3.71687,15.78426c0.01832,0.90212 -0.46107,2.66733 -0.58721,4.08238c-0.31958,-0.76146 -0.65847,-1.23319 -1.42555,-1.97487c-1.67745,-1.62189 -3.0428,-2.91525 -4.56125,-4.78897c-0.96297,-1.18828 -2.75533,-4.15319 -4.75438,-2.45033c-0.6567,0.5594 -0.47557,1.59034 -0.7377,2.41222c-0.90372,2.83354 -1.49717,5.91496 -1.47817,8.89142c-2.78427,-0.3966 -6.2454,-2.70969 -8.60504,-4.23884c-0.67325,-0.43629 -2.59505,-1.75376 -3.17355,-1.62472c-2.26111,0.50436 -1.53377,2.67222 -1.80111,4.13968c-0.69754,3.82888 -0.48391,7.75804 -0.0613,11.69533c-2.15293,-0.58815 -4.06984,-1.55493 -5.72038,-3.10746c-0.99906,-0.93971 -1.59846,-2.33876 -2.78685,-3.02354c-0.7264,-0.41856 -1.62269,-0.98226 -2.36071,-0.58456c-0.91153,0.49121 -0.56528,5.24748 -0.56446,6.12892c0.00054,0.57741 0.38621,2.21847 0.04595,1.75197c-1.90121,-2.6065 -5.71593,-8.21666 -9.05312,-5.83182c-1.8363,2.83588 -1.89292,7.79328 -4.75404,9.94427c-0.71791,0.53973 -2.14722,-1.05236 -2.61338,-1.336c-1.09831,-0.66825 -4.70008,-3.9013 -5.90576,-3.69044c-0.70223,0.12281 -1.55535,2.22407 -1.92658,2.99909c-1.30705,2.7288 -2.95946,5.79591 -5.22536,7.81276c-2.1833,3.1242 -4.31482,6.81876 -7.87364,8.35624c-0.44173,0.19084 -0.14677,-1.02157 -0.39706,-1.43256c-0.25531,-0.41923 -0.60199,-0.77306 -0.88909,-1.17118c-1.28137,-1.7769 -2.94226,-5.20144 -5.77199,-4.83421c-0.73255,0.09507 -2.47245,1.95615 -2.9258,2.38643c-2.08698,1.98074 -3.63103,4.63741 -4.50263,7.39904c-0.63485,-1.62159 -2.89203,-2.30163 -4.33261,-2.90509c-2.10655,-0.88245 -3.79436,-1.90313 -5.58451,-3.20849c-0.63748,-0.46484 -2.59949,-1.76088 -3.58051,-1.17479c-0.73883,0.44139 -1.12812,1.34645 -1.39009,2.16624c-0.15613,0.48862 0.20446,1.00545 0.20557,1.51841c0.00424,1.94599 -0.65711,4.11559 -0.94102,6.05422c-0.26627,1.81821 -0.48362,2.16968 0.08892,3.87287c0.08699,0.25877 0.66297,0.7722 0.39048,0.75539c-1.07644,-0.06638 -1.95017,-0.97005 -2.99049,-1.25442c-4.05153,-0.92575 -8.74095,-1.75708 -12.51728,-3.54872c-1.23006,-0.58358 -1.87151,-1.81508 -3.46315,-1.38937c-1.98309,0.5304 -2.04567,3.23385 -2.2825,4.74499c-0.09057,0.57799 -0.67879,3.53514 -0.65372,3.81238c0.2637,2.91619 3.15762,5.08449 3.4852,8.06747c-4.61638,-0.26324 -7.3702,-2.07747 -11.03462,-4.66954c-1.65494,-1.17063 -2.57662,-3.33513 -4.88274,-3.72322c-1.14541,-0.19276 -1.63454,0.71722 -2.36473,1.2631c-2.59571,1.94052 -4.12976,4.19356 -5.60648,7.05932c-0.28971,0.56232 -1.82852,4.45009 -2.41036,4.61867c-0.79079,0.22913 -1.67352,-1.90867 -1.92897,-2.22073c-1.49302,-1.82392 -5.3808,-6.26102 -7.81219,-3.51304c-1.31452,1.48567 0.04271,1.70545 -0.03136,3.03794c-0.22864,4.11326 -0.39118,8.31741 -0.9271,12.40344c0.06362,0.7795 0.20305,2.17711 0.11147,2.86651c-0.12234,0.92088 -0.32211,1.86531 -0.77572,2.67601c-0.51765,0.92515 -2.16485,-0.43693 -3.11914,-0.89868c-2.99621,-1.44976 -5.34559,-3.13554 -7.99624,-5.06195c-0.6682,-0.48563 -1.26641,-1.23789 -2.08619,-1.33932c-1.83467,-0.227 -2.39095,1.25951 -2.73843,2.58057c-0.83475,3.17351 -1.94081,6.2179 -3.99694,8.97472c-0.05904,0.04443 -1.03998,0.76198 -1.6066,1.19573c0.21856,-0.72789 0.27877,-1.6137 0.29607,-1.7053c0.461,-2.44078 1.06026,-6.11838 0.23956,-8.54141c-0.47092,-1.39032 -2.21626,-1.87771 -3.20823,-2.66609c-2.97666,-2.36568 -5.59505,-4.26405 -7.1101,-7.77098c0,0 -0.09664,-0.22376 -0.30479,-0.40258c0.90891,-1.09214 1.63427,-1.26187 2.96799,-1.83806c2.95696,-1.27746 5.84119,-1.82225 8.88744,-2.75409c3.43659,-1.05123 6.42064,-2.95708 9.40748,-4.79631c2.61002,-1.6072 5.95131,-2.56411 8.76451,-3.77946c4.04391,-1.74704 7.81063,-2.8169 11.93191,-4.07206c5.00778,-1.52515 9.96989,-4.30609 14.7797,-6.38401c11.45453,-4.94856 23.64125,-9.2799 34.38919,-15.62213c9.12039,-3.92372 18.33128,-8.87866 27.76003,-11.96694c2.18534,-0.71578 4.38533,-1.16722 6.54896,-2.02804c1.19299,-0.48093 2.49488,-0.6321 3.73826,-0.96148c6.49313,-1.72008 12.34383,-5.96054 18.7606,-8.00076c2.41872,-0.76904 4.85625,-0.85906 7.26371,-1.42567c2.30685,-0.54293 4.18889,-1.75387 6.60367,-2.14689z" data-paper-data="{&quot;noHover&quot;:false,&quot;origItem&quot;:[&quot;Path&quot;,{&quot;applyMatrix&quot;:true,&quot;segments&quot;:[[[437.13664,377.59516],[0,0],[-4.74524,-1.19378]],[[423.30982,376.30124],[4.666,0.83294],[-4.8695,-0.86926]],[[408.84368,373.16174],[5.05074,0.50654],[-13.39938,-1.34384]],[[368.05594,372.98066],[13.28566,1.99218],[-2.5441,-0.38148]],[[360.43142,371.78532],[2.57178,0.06328],[-4.6552,-0.13568]],[[346.80294,370.3236],[4.58,0.4192],[-19.76064,-1.80864]],[[286.45762,370.32946],[19.85718,0.0302],[-24.76366,3.11922]],[[211.00002,371.66666],[24.95552,0],[-10.47894,0]],[[178.80294,371.65692],[10.40396,1.17192],[-8.5622,-0.96446]],[[153.66668,369.66666],[8.8103,0],[-6.129,0]],[[134.57772,369.65168],[6.06678,-0.88058],[-6.94266,1.00772]],[[113.50172,370.99318],[7.14336,0.79578],[-6.332,-0.70538]],[[95.00002,369],[6.4422,0],[-2.90572,0]],[[88.09302,370.01958],[2.53502,-1.28422],[0.24034,0.4934]],[[88.33336,371],[0,0],[0,7.6404]],[[95.22438,390.8975],[-3.5887,-6.7044],[1.19594,2.23426]],[[99.00002,398.33334],[0.23818,-2.92614],[-0.41508,5.09962]],[[91.78494,413.81764],[2.78238,-4.1156],[-0.10442,0.15444]],[[89.88862,416.71238],[0.97862,-1.16304],[1.38436,-0.34694]],[[93.5877,415.81088],[-0.14364,0.03474],[5.9617,-3.43062]],[[108.04422,402.49726],[-4.04976,5.16442],[1.68582,-2.14984]],[[115.31876,399.92628],[-3.18838,-1.872],[1.42466,0.83646]],[[118.08658,404.0376],[-0.84162,-1.42162],[3.33858,5.6393]],[[128.75168,419.66408],[-4.3511,-5.03828],[1.38582,1.60468]],[[133.568,423.81892],[-1.68422,1.28798],[1.47586,-1.12864]],[[137.11442,419.5188],[-0.95504,1.5937],[0.71496,-1.19308]],[[139.183,414.1643],[-0.50148,1.48162],[4.2249,-7.07684]],[[150.72272,392.11254],[-3.68234,7.37056],[1.1929,-2.38772]],[[153.38964,386.57],[-3.59184,1.68502],[6.64366,-3.11672]],[[164.94652,399.20718],[-1.29448,-4.53294],[0.22148,0.77556]],[[166.5269,404.82308],[-1.63362,-0.20656],[1.20196,0.152]],[[174.61554,398.25],[-0.97792,0.80262],[4.9843,-4.0902]],[[190.5085,389.72802],[-6.30488,1.50392],[1.77362,-0.42306]],[[196.0515,389.2987],[-1.95006,-1.26242],[3.92618,2.5417]],[[202.0632,399.99614],[-2.10994,-3.46194],[4.67186,7.66554]],[[218.61526,417.2987],[-8.26684,-4.14492],[1.7646,-5.73656]],[[218.4192,399.75376],[-1.82892,5.56326],[0.17388,-0.5289]],[[222.64336,393.26382],[-0.62474,0.98934],[1.63342,-2.58658]],[[230.59884,386.35102],[-4.06164,-0.59914],[3.25988,0.48086]],[[236.05344,391.67342],[-1.7955,-2.04712],[5.51222,6.28474]],[[256.21602,408.07876],[-6.7043,-4.91326],[1.68446,1.34726]],[[260.70548,412.73892],[-1.92368,-0.97568],[0.48696,0.24698]],[[260.4072,411.12828],[-0.04554,0.5441],[0.29974,-3.58116]],[[263.31002,403.93048],[-1.93104,3.12702],[2.05894,-3.33412]],[[269.83768,393.5242],[-1.53574,3.57618],[0.40482,-0.94268]],[[270.6672,390.56034],[-0.67422,0.77326],[1.13122,-1.29734]],[[274.94454,387.6674],[-1.70658,0.22436],[2.266,-0.29792]],[[280.7716,392.73842],[-0.8017,-1.35908],[2.2513,3.81654]],[[288.44134,402.9467],[-3.16766,-3.29104],[2.16622,2.25058]],[[294.02726,411.6994],[0.12064,-3.48078],[3.79072,-4.379]],[[308.07572,401.7534],[-5.40276,1.98128],[1.17364,-0.4304]],[[315.5339,399.7392],[-1.42036,-0.4065],[5.48666,1.57026]],[[322.28476,413.22836],[-0.94318,-4.27872],[0.21132,0.95866]],[[322.98506,416.08894],[-0.13622,-0.9722],[0.13354,0.95308]],[[322.41426,418.9191],[-0.96238,0],[7.75346,0]],[[343.48118,409.8573],[-6.48658,4.00426],[5.7599,-1.90564]],[[359.26862,399.67854],[-4.56416,3.97332],[1.2963,-1.12848]],[[365.3845,395.70396],[-1.3867,-0.33152],[2.38086,0.56918]],[[373.29938,407.17818],[-1.48644,-2.09806],[0.6309,0.89048]],[[376.8403,411.67304],[-1.74618,0.4215],[6.95912,-1.6798]],[[393.45468,397.20336],[-5.6208,3.75014],[8.01866,-1.73154]],[[405.64912,415.10824],[-1.42318,-6.29352],[0.2547,1.12636]],[[406.7566,411.8256],[-0.457,1.06054],[0.69764,-1.61896]],[[412.65346,401.03024],[-2.06318,0.17886],[1.67046,-0.1448]],[[416.7238,403.98572],[-1.00166,-1.34464],[1.63872,2.19984]],[[419.44168,411.75332],[-1.0889,-2.51774],[1.79896,4.1596]],[[427.28194,421.96534],[-3.48626,-2.7875],[2.34708,-7.56404]],[[436.6693,400.55724],[-4.31768,6.47652],[1.6548,-2.4822]],[[443.45958,394.3868],[-4.55142,-0.86746],[1.16448,0.22194]],[[447.9975,399.89056],[-0.89002,-1.33504],[3.1194,4.67912]],[[460.2347,414.48554],[-4.79732,-2.93658],[2.326,-5.47984]],[[470.00056,399.3425],[-3.90674,4.48554],[1.13316,-1.30104]],[[473.46828,395.49984],[-1.6494,0.50618],[5.0209,-1.54084]],[[480.25364,403.77412],[-0.82548,-2.94548],[1.30166,4.64454]],[[484.8291,416.19086],[-1.79332,-4.3083],[0.82006,1.97014]],[[485.68128,420.92466],[0.01724,-1.65152],[1.35398,-2.49798]],[[489.99706,413.89898],[-0.6819,1.67082],[8.55812,-8.4803]],[[495.69256,381.987],[3.51276,10.92412],[0,0]],[[495.68906,381.67184],[0,0],[-19.36622,0.0985]],[[437.13672,377.59512],[18.57404,5.57598],[0,0]]],&quot;closed&quot;:true,&quot;fillColor&quot;:[0,0,0,1]}]}" fill="#1f4d15"/><path d="M-17.43687,383.67621v-152.5c0,0 75.57856,14.57501 141.62513,18.995c29.00874,1.94133 37.07754,-3.995 68.3389,-3.995c32.7362,0 72.13546,-15 98,-15c9.48389,0 40.17597,-18.66667 51.20264,-18.66667c37.67728,0 79.26302,0.06811 121.65331,2.47996c5.4702,0.31123 42.59357,21.30575 48.02078,21.64733c20.4184,1.28511 36.6939,1.15802 53.27,0.7069c1.5748,-0.04286 -16.53695,-15.4214 -15.00202,-15.46881c53.89878,-1.66463 90.14236,-68.24213 113.15266,-32.03205c23.0103,36.21008 -10.33333,193.83333 -10.33333,193.83333z" fill="url(#color-1)"/></g></g></svg>