<svg version="1.1" xmlns="http://www.w3.org/2000/svg" xmlns:xlink="http://www.w3.org/1999/xlink" width="900.2202" height="489.57794" viewBox="0,0,900.2202,489.57794"><defs><linearGradient x1="362.63657" y1="213.75" x2="371.23657" y2="213.75" gradientUnits="userSpaceOnUse" id="color-1"><stop offset="0" stop-color="#ff6767"/><stop offset="1" stop-color="#ff0000"/></linearGradient><linearGradient x1="366.10172" y1="211.9791" x2="368.1352" y2="232.378" gradientUnits="userSpaceOnUse" id="color-2"><stop offset="0" stop-color="#ff6767"/><stop offset="1" stop-color="#ff0000"/></linearGradient></defs><g transform="translate(102.96343,-210.97909)"><g data-paper-data="{&quot;isPaintingLayer&quot;:true}" fill-rule="nonzero" stroke="#000000" stroke-linecap="butt" stroke-linejoin="miter" stroke-miterlimit="10" stroke-dasharray="" stroke-dashoffset="0" style="mix-blend-mode: normal"><path d="M347.48741,243.33949l6.93267,-14.97291l6.65462,3.08119l-6.93267,14.97291z" fill="#cccccc" stroke-width="2"/><path d="M385.05634,243.33897l-9.75203,-13.30969l5.91541,-4.33423l9.75204,13.30969z" data-paper-data="{&quot;index&quot;:null}" fill="#cccccc" stroke-width="2"/><path d="M356.70774,246.61506l-1.88468,-18.90629l25.54008,-2.54598l1.88468,18.90629z" fill="#cccccc" stroke-width="2"/><path d="M757.35746,227.62543c11.65079,-1.34167 26.52306,-1.55775 38.8993,-4.20103c1.30343,8.82721 -3.62345,17.71873 -5.39751,26.87381c-2.00432,10.34296 -3.85338,21.35103 -4.84329,31.48866c-1.01739,10.41836 -12.0211,20.35112 -16.95877,30.05761c-4.3499,8.55105 -7.44093,16.45071 -12.83643,24.86081c-13.96873,21.81475 -36.5968,39.64237 -52.08321,60.72759c-14.26692,19.42478 -26.21296,39.27691 -41.84935,58.29488c-4.47327,5.44068 -7.66351,10.91078 -11.40977,16.34653c-0.38323,0.55614 -0.20071,-1.31038 -0.7009,-1.78524c-1.7903,-1.69956 -4.35009,-2.92525 -6.39824,-4.47466c-3.43477,-2.59835 -6.24426,-5.56706 -9.58815,-8.22264c-9.08005,-7.21088 -18.14966,-19.45407 -28.51209,-25.27454c-3.75258,-2.10782 -8.07197,-5.62699 -12.89509,-4.6491c-4.08043,0.82729 -3.18754,5.3048 -4.34556,8.14623c-5.04534,12.37936 -6.55945,25.23194 -12.13328,37.65177c-9.26364,11.24037 -14.41294,22.96938 -22.24063,34.6224c-4.09076,6.08992 -10.83036,10.21913 -15.03387,16.0875c-7.87635,10.99602 -13.62848,23.96314 -20.97925,35.39057c-3.20861,4.98796 -13.45423,16.25973 -14.6926,23.32785c-4.42661,-2.23136 -8.66982,-2.78674 -14.53096,-6.95453c-8.16616,-5.80685 -11.35181,-15.1467 -21.22267,-20.22383c-3.82189,-1.96582 -7.96256,-5.42006 -12.74154,-4.54459c-6.45812,1.18314 -6.26174,16.37456 -6.80872,19.11591c-3.08411,15.45805 -7.99359,29.60887 -7.12001,45.52874c-1.48456,7.74683 -4.2967,16.14137 -5.19467,23.72393c-0.406,3.42761 2.16796,6.72737 1.6121,10.15043c-1.37524,8.46942 -9.30853,14.4006 -13.72939,21.96361c-5.07183,8.67661 -7.96112,18.9877 -11.93834,27.90293c-0.79525,1.78261 -2.802,-3.0276 -4.48769,-4.38135c-2.14192,-1.72014 -4.212,-3.49172 -6.50945,-5.11112c-5.89365,-4.15409 -12.96534,-7.73939 -19.33266,-11.53931c-29.00546,-19.06195 -56.77941,-39.62677 -83.72144,-60.05354c-16.77828,-12.72092 -24.43938,-29.19211 -37.27563,-43.64089c-7.30069,-8.21784 -13.93356,-19.03424 -23.37083,-25.99471c-3.00779,-2.21842 -5.82988,-5.90246 -10.33827,-5.68454c-7.49373,0.36221 -6.54845,11.28719 -6.95867,13.43011c-1.79306,9.36677 -5.105,18.43996 -6.12539,27.91465c-0.48676,4.51922 -1.30066,9.08143 -0.67668,13.55077c0.1866,1.33665 3.34929,3.74554 1.43211,4.04494c-1.98812,0.31045 -1.40477,-2.64899 -2.74869,-3.64238c-4.01747,-2.9695 -8.96414,-5.36435 -12.50881,-8.61638c-3.13999,-2.88075 -6.36121,-5.73917 -9.83084,-8.42707c-12.27717,-9.46306 -20.5753,-21.25146 -32.14985,-31.17327c-27.15217,-23.27521 -48.72345,-51.14033 -70.81213,-77.29647c-15.16867,-13.28507 -21.58631,-29.49682 -30.96746,-45.00452c-2.25441,-3.72673 -8.10335,-18.37017 -13.16176,-19.97044c-3.98885,-1.26183 -9.12782,-0.10245 -12.86653,1.7478c-1.69976,0.84121 -2.02893,11.85785 -2.09933,12.32576c-1.31398,8.73642 -7.41974,20.35378 -5.5584,29.57241c-15.16162,-12.97506 -31.06302,-25.44743 -47.5792,-37.59505c-12.28881,-9.03829 -26.51869,-17.38304 -35.2687,-28.4263c-4.1851,-5.2819 -5.27285,-11.22446 -10.36524,-16.33624c-13.14226,-13.19229 -33.84987,-24.53466 -29.86593,-42.75435c46.87079,-6.28144 84.8014,-28.53048 131.86196,-33.94892c58.27659,-6.7109 116.62117,-13.46432 174.89781,-20.17528c29.92485,-3.44603 61.73813,-9.43275 91.7975,-10.60364c25.90851,-1.00919 49.44128,4.56377 75.06386,1.61317c15.92726,-1.83415 32.24093,-4.51059 48.25552,-5.56124c15.84779,-1.03974 30.64755,2.42464 46.20096,1.41992c15.80332,-1.02081 31.85142,-3.55699 47.56655,-5.36667c2.12213,-0.2444 15.1945,-1.6773 16.39527,-2.14431c2.05529,-0.79931 2.31848,-3.03586 4.3144,-3.9091c4.40089,-1.92543 10.14026,-0.9046 15.18808,-1.48588c11.27173,-1.29801 26.9629,-1.18351 37.54112,-4.40622c4.52656,-1.379 8.34114,-4.16449 13.13941,-4.8356c38.50279,-5.38512 77.08042,-10.57815 115.89115,-10.5371c4.39495,-0.00078 14.97835,-1.62038 17.74105,-0.36999c1.58421,0.71696 1.54961,2.72209 3.33028,3.18862c3.93527,1.03095 15.53787,-1.27619 19.63559,-1.74808z" data-paper-data="{&quot;noHover&quot;:false,&quot;origItem&quot;:[&quot;Path&quot;,{&quot;applyMatrix&quot;:true,&quot;segments&quot;:[[[230.5,222],[0,0],[-0.84379,0]],[[226.47427,221.85065],[0.76171,0.43489],[-0.34467,-0.19679]],[[225.9059,220.80439],[0.29675,0.26355],[-0.5175,-0.45961]],[[222.30839,220.31519],[0.88843,0.14807],[-7.84393,-1.32165]],[[198.54346,219.49905],[7.95946,-0.27875],[-0.99192,0.03474]],[[195.72975,220.47324],[0.96018,-0.25134],[-2.24388,0.58738]],[[188,220.49999],[2.32101,0],[-1.03942,0]],[[184.88268,220.42387],[0.95268,-0.41569],[-0.43206,0.18853]],[[183.88268,221.42387],[0.44164,-0.16486],[-0.25802,0.09632]],[[180.5,221.49999],[0.43698,0],[-3.23597,0]],[[170.71484,221.47032],[3.22796,0.23413],[-3.1769,-0.23043]],[[161.42911,219.49748],[3.23757,0.23009],[-3.27164,-0.23251]],[[151.5,219.5],[3.27966,0],[-5.27607,0]],[[136.39088,216.49403],[5.27026,0.57853],[-6.11461,-0.67121]],[[117.5,216.5],[6.16196,0],[-12,0]],[[81.5,216.5],[12,0],[-9.69043,-0.00025]],[[53.73979,221.99005],[9.68034,-0.25903],[-1.40225,5.20439]],[[58.37844,235.52215],[-2.22438,-4.30915],[0.86191,1.66971]],[[59.93936,240.65707],[-0.67293,-1.68895],[1.40693,3.53122]],[[66.13868,250.17369],[-2.18795,-3.06312],[2.94063,4.11688]],[[74.52655,262.79002],[-2.6397,-4.31363],[-0.07422,-2.7641]],[[76.52447,254.28008],[-0.55184,2.51565],[0.02956,-0.13474]],[[77.35361,250.73697],[-0.37115,0.18914],[0.81637,-0.41602]],[[80.10218,250.70164],[-0.76497,-0.50435],[0.97008,0.6396]],[[82.10983,256.99441],[-0.33361,-1.1681],[1.38824,4.86071]],[[86.89783,271.21766],[-2.63096,-4.40472],[3.60808,8.40977]],[[98.67831,296.23362],[-4.72602,-7.73645],[2.01462,3.29791]],[[104.15116,306.44215],[-2.17169,-3.1872],[0.6133,0.90471]],[[105.8605,309.24034],[-0.54034,-0.95009],[0.60997,1.07253]],[[108.1045,312.18414],[-0.71481,-1.0057],[0.23911,0.33643]],[[108.54003,313.34325],[-0.41205,0.02389],[0.39735,-0.02303]],[[108.30529,312.1725],[-0.00607,0.39797],[0.02029,-1.33069]],[[108.88423,308.22217],[-0.24645,1.30782],[0.51668,-2.74189]],[[111.03349,300.24333],[-0.66933,2.68419],[0.15313,-0.6141]],[[112.97067,296.50043],[-1.52666,-0.14673],[0.91847,0.08828]],[[114.87264,298.51164],[-0.53532,-0.75154],[1.67961,2.35805]],[[118.73796,306.90693],[-1.20654,-2.65439],[2.12137,4.66701]],[[124.82999,320.94225],[-2.97482,-4.29371],[4.77686,6.89468]],[[139.76723,341.35865],[-5.23869,-6.56439],[1.1626,1.32833]],[[143.29399,345.39209],[-1.05525,-1.41612],[0.41136,0.55205]],[[144.44143,347.1094],[-0.37661,-0.57632],[0.29639,0.45357]],[[145.20443,348.54467],[-0.21915,0.49552],[1.09605,-2.47818]],[[148.52908,340.77128],[-1.3095,2.37133],[1.14142,-2.06698]],[[152.0204,334.79894],[-0.55548,2.43535],[0.2245,-0.98428]],[[152.02673,331.77025],[-0.19436,0.99068],[0.42995,-2.19158]],[[153.85105,324.99428],[-0.5539,2.21993],[0.34499,-4.69441]],[[156.77385,311.89567],[-1.12988,4.42554],[0.20038,-0.78483]],[[158.77023,306.52676],[-1.34422,0.12876],[0.99471,-0.09528]],[[161.19502,308.28946],[-0.70816,-0.70501],[1.82896,1.82081]],[[164.82269,314.93153],[-1.46047,-1.97711],[1.04824,1.41905]],[[167.53104,317.46039],[-0.82169,-0.80321],[0.4819,-2.02936]],[[171.25847,311.12558],[-0.81201,1.35333],[1.8603,-3.10049]],[[176.64934,301.47429],[-1.9524,2.95634],[1.04197,-1.57774]],[[180.21199,297.27402],[-1.02644,1.64646],[1.9641,-3.1505]],[[185.83843,287.89236],[-2.24084,2.98113],[1.53361,-3.45124]],[[189.52454,277.28152],[-1.42546,3.45722],[0.32718,-0.79354]],[[190.76884,275.0271],[-0.85193,0.10473],[1.00699,-0.12379]],[[193.22348,276.8268],[-0.6895,-0.74427],[1.90398,2.05521]],[[198.15917,285.20353],[-1.5992,-2.41937],[0.58895,0.89099]],[[199.82775,287.93894],[-0.60918,-0.87729],[0.36326,0.52313]],[[200.97436,289.46729],[-0.30621,-0.55843],[0.08555,0.15602]],[[200.95842,290.00088],[-0.09569,0.15002],[0.93536,-1.4664]],[[203.79998,285.60002],[-1.08249,1.44332],[3.78385,-5.04512]],[[214.17013,269.94203],[-3.52035,5.21054],[3.82127,-5.65593]],[[226.68998,253.91243],[-3.53838,5.92092],[1.36619,-2.28231]],[[230.10032,247.06345],[-1.15945,2.35889],[1.31612,-2.67764]],[[234.51441,238.83077],[-0.54699,3.01851],[0.53225,-2.93718]],[[236.52674,229.77027],[-0.74402,2.96312],[0.65856,-2.62281]],[[238.4996,222.07987],[-0.02573,2.63058],[-2.58836,0.35693]],[[230.49999,222.00003],[2.39907,0],[0,0]]],&quot;closed&quot;:true,&quot;fillColor&quot;:[0,0,0],&quot;strokeWidth&quot;:0.5}]}" fill="#4c2915" stroke-width="2"/><path d="M574.50778,226.31731c32.92616,2.92882 68.01195,-2.79295 101.2086,-6.73447l0.06649,0.37238c8.11971,12.23129 9.406,27.17711 -3.64598,38.90107c-0.84911,2.11153 -4.21156,5.94656 -6.05476,9.16951c-0.28711,-1.95743 -0.93021,-3.25119 -2.71453,-5.42027c-3.90195,-4.74324 -7.10499,-8.54163 -10.22819,-13.77981c-1.98066,-3.32196 -4.90777,-11.25921 -13.22377,-8.44447c-2.73188,0.92466 -3.17348,3.42998 -4.86751,5.19313c-5.84041,6.07877 -10.90645,12.91348 -13.84496,19.85647c-8.79113,-2.52696 -17.88421,-9.90711 -24.13168,-14.82717c-1.78252,-1.40378 -6.79809,-5.57875 -8.83788,-5.61136c-7.97263,-0.1274 -7.75753,5.34024 -10.11973,8.60395c-6.1634,8.51559 -9.42,17.78942 -11.99504,27.20252c-6.51393,-2.60953 -11.86691,-5.96495 -15.75003,-10.53114c-2.35044,-2.76385 -2.91839,-6.36732 -6.15087,-8.64643c-1.97582,-1.39311 -4.36616,-3.22203 -7.20341,-2.72083c-3.50431,0.61911 -7.15718,11.89559 -8.04324,13.94889c-0.58041,1.34505 -0.96202,5.38909 -1.61485,4.10673c-3.64784,-7.16523 -10.58359,-22.42766 -24.00458,-18.79521c-8.92122,5.54721 -14.10681,17.06012 -25.72043,20.4221c-2.91411,0.8436 -6.02698,-3.68737 -7.27983,-4.61639c-2.95179,-2.18877 -11.58153,-11.79243 -15.77418,-11.99565c-2.44192,-0.11837 -7.37688,4.28412 -9.38383,5.87532c-7.06615,5.60257 -15.61348,11.79418 -25.12703,15.18649c-10.35741,6.01887 -21.11901,13.39588 -34.41717,14.92725c-1.65059,0.19008 0.54558,-2.46373 0.13375,-3.565c-0.42005,-1.12336 -1.20774,-2.14706 -1.75403,-3.23959c-2.43817,-4.87615 -4.46785,-13.80819 -14.17928,-14.58238c-2.51404,-0.20045 -10.13417,3.13203 -12.06456,3.87308c-8.88646,3.41127 -16.66227,8.70938 -22.3241,14.63917c-0.46059,-4.14219 -7.226,-7.02577 -11.37296,-9.2607c-6.06405,-3.2682 -10.60645,-6.61725 -15.19966,-10.6882c-1.63564,-1.44968 -6.80555,-5.59791 -10.63491,-4.79784c-2.88399,0.60253 -5.08166,2.48617 -6.77308,4.24458c-1.00807,1.04807 -0.33887,2.4594 -0.85243,3.65469c-1.9482,4.53454 -6.31901,9.20661 -9.21099,13.55807c-2.71234,4.08119 -3.78424,4.77458 -3.61155,9.07092c0.0262,0.65278 1.40989,2.18016 0.52734,1.98412c-3.48649,-0.77444 -5.45953,-3.38218 -8.60694,-4.64352c-12.4409,-4.48906 -27.08273,-9.12559 -37.7421,-15.47279c-3.47208,-2.06746 -4.34777,-5.30492 -10.03114,-5.23002c-7.08114,0.09332 -10.01367,6.35348 -12.31915,9.73646c-0.8818,1.29394 -5.80531,7.84229 -6.00207,8.50238c-2.06998,6.94352 5.29669,13.65981 3.37027,20.79566c-14.97353,-3.27137 -22.23475,-9.0824 -31.71759,-17.22934c-4.2827,-3.67933 -5.1427,-9.25107 -12.36405,-11.48289c-3.58669,-1.10853 -6.11891,0.72914 -9.07977,1.57997c-10.52526,3.02467 -17.86108,7.38848 -25.62542,13.21232c-1.52335,1.14276 -10.52319,9.31108 -12.61384,9.36865c-2.84145,0.07825 -3.59985,-5.40886 -4.12843,-6.28273c-3.08946,-5.10755 -11.44924,-17.68009 -22.24625,-12.68029c-5.83733,2.70307 -1.57867,3.99648 -3.16676,7.05715c-4.90224,9.4479 -9.67796,19.14556 -15.56709,28.35311c-0.57597,1.85205 -1.52495,5.18731 -2.52239,6.74015c-1.33242,2.07424 -2.94414,4.15872 -5.25899,5.78558c-2.64167,1.85653 -6.70575,-2.26422 -9.39034,-3.88912c-8.42889,-5.10176 -14.4845,-10.38073 -21.292,-16.39361c-1.71609,-1.51577 -2.9323,-3.61224 -5.53617,-4.32052c-5.82747,-1.58516 -9.16267,1.55653 -11.64179,4.43312c-5.95546,6.91024 -12.67637,13.36357 -22.24359,18.60006c-0.2397,0.06949 -4.20137,1.17575 -6.50918,1.85964c1.45541,-1.56936 2.54738,-3.59771 2.69686,-3.80105c3.98291,-5.41901 9.6693,-13.63886 9.40327,-19.75453c-0.15264,-3.50918 -5.42266,-5.64933 -7.90232,-8.05663c-7.44077,-7.22364 -14.17006,-13.15261 -15.63524,-22.19252c0,0 -0.09337,-0.57679 -0.60022,-1.1131c4.10163,-2.02014 6.66723,-1.99775 11.65091,-2.57166c11.0492,-1.27238 21.1196,-0.88032 32.11504,-1.29634c12.40439,-0.46934 24.17666,-3.1896 35.89093,-5.7531c10.23642,-2.24011 22.23114,-2.54464 32.74311,-3.75517c15.11078,-1.74008 28.62372,-2.06269 43.49398,-2.6127c18.06886,-0.66828 37.25317,-4.28756 55.22589,-6.35722c42.80189,-4.9289 87.39843,-7.99873 129.2731,-16.58032c34.06336,-3.88622 69.46533,-10.12197 103.70419,-11.88494c7.93568,-0.40862 15.65318,-0.19312 23.66346,-0.95203c4.42304,-0.43307 8.87311,-0.03548 13.30971,-0.08658c23.16862,-0.26692 46.75795,-6.77368 69.99731,-7.83015c8.7598,-0.39823 16.897,0.79576 25.41551,0.86245c8.16253,0.06393 15.59627,-1.67253 23.96394,-1.1973z" data-paper-data="{&quot;noHover&quot;:false,&quot;origItem&quot;:[&quot;Path&quot;,{&quot;applyMatrix&quot;:true,&quot;segments&quot;:[[[437.13664,377.59516],[0,0],[-4.74524,-1.19378]],[[423.30982,376.30124],[4.666,0.83294],[-4.8695,-0.86926]],[[408.84368,373.16174],[5.05074,0.50654],[-13.39938,-1.34384]],[[368.05594,372.98066],[13.28566,1.99218],[-2.5441,-0.38148]],[[360.43142,371.78532],[2.57178,0.06328],[-4.6552,-0.13568]],[[346.80294,370.3236],[4.58,0.4192],[-19.76064,-1.80864]],[[286.45762,370.32946],[19.85718,0.0302],[-24.76366,3.11922]],[[211.00002,371.66666],[24.95552,0],[-10.47894,0]],[[178.80294,371.65692],[10.40396,1.17192],[-8.5622,-0.96446]],[[153.66668,369.66666],[8.8103,0],[-6.129,0]],[[134.57772,369.65168],[6.06678,-0.88058],[-6.94266,1.00772]],[[113.50172,370.99318],[7.14336,0.79578],[-6.332,-0.70538]],[[95.00002,369],[6.4422,0],[-2.90572,0]],[[88.09302,370.01958],[2.53502,-1.28422],[0.24034,0.4934]],[[88.33336,371],[0,0],[0,7.6404]],[[95.22438,390.8975],[-3.5887,-6.7044],[1.19594,2.23426]],[[99.00002,398.33334],[0.23818,-2.92614],[-0.41508,5.09962]],[[91.78494,413.81764],[2.78238,-4.1156],[-0.10442,0.15444]],[[89.88862,416.71238],[0.97862,-1.16304],[1.38436,-0.34694]],[[93.5877,415.81088],[-0.14364,0.03474],[5.9617,-3.43062]],[[108.04422,402.49726],[-4.04976,5.16442],[1.68582,-2.14984]],[[115.31876,399.92628],[-3.18838,-1.872],[1.42466,0.83646]],[[118.08658,404.0376],[-0.84162,-1.42162],[3.33858,5.6393]],[[128.75168,419.66408],[-4.3511,-5.03828],[1.38582,1.60468]],[[133.568,423.81892],[-1.68422,1.28798],[1.47586,-1.12864]],[[137.11442,419.5188],[-0.95504,1.5937],[0.71496,-1.19308]],[[139.183,414.1643],[-0.50148,1.48162],[4.2249,-7.07684]],[[150.72272,392.11254],[-3.68234,7.37056],[1.1929,-2.38772]],[[153.38964,386.57],[-3.59184,1.68502],[6.64366,-3.11672]],[[164.94652,399.20718],[-1.29448,-4.53294],[0.22148,0.77556]],[[166.5269,404.82308],[-1.63362,-0.20656],[1.20196,0.152]],[[174.61554,398.25],[-0.97792,0.80262],[4.9843,-4.0902]],[[190.5085,389.72802],[-6.30488,1.50392],[1.77362,-0.42306]],[[196.0515,389.2987],[-1.95006,-1.26242],[3.92618,2.5417]],[[202.0632,399.99614],[-2.10994,-3.46194],[4.67186,7.66554]],[[218.61526,417.2987],[-8.26684,-4.14492],[1.7646,-5.73656]],[[218.4192,399.75376],[-1.82892,5.56326],[0.17388,-0.5289]],[[222.64336,393.26382],[-0.62474,0.98934],[1.63342,-2.58658]],[[230.59884,386.35102],[-4.06164,-0.59914],[3.25988,0.48086]],[[236.05344,391.67342],[-1.7955,-2.04712],[5.51222,6.28474]],[[256.21602,408.07876],[-6.7043,-4.91326],[1.68446,1.34726]],[[260.70548,412.73892],[-1.92368,-0.97568],[0.48696,0.24698]],[[260.4072,411.12828],[-0.04554,0.5441],[0.29974,-3.58116]],[[263.31002,403.93048],[-1.93104,3.12702],[2.05894,-3.33412]],[[269.83768,393.5242],[-1.53574,3.57618],[0.40482,-0.94268]],[[270.6672,390.56034],[-0.67422,0.77326],[1.13122,-1.29734]],[[274.94454,387.6674],[-1.70658,0.22436],[2.266,-0.29792]],[[280.7716,392.73842],[-0.8017,-1.35908],[2.2513,3.81654]],[[288.44134,402.9467],[-3.16766,-3.29104],[2.16622,2.25058]],[[294.02726,411.6994],[0.12064,-3.48078],[3.79072,-4.379]],[[308.07572,401.7534],[-5.40276,1.98128],[1.17364,-0.4304]],[[315.5339,399.7392],[-1.42036,-0.4065],[5.48666,1.57026]],[[322.28476,413.22836],[-0.94318,-4.27872],[0.21132,0.95866]],[[322.98506,416.08894],[-0.13622,-0.9722],[0.13354,0.95308]],[[322.41426,418.9191],[-0.96238,0],[7.75346,0]],[[343.48118,409.8573],[-6.48658,4.00426],[5.7599,-1.90564]],[[359.26862,399.67854],[-4.56416,3.97332],[1.2963,-1.12848]],[[365.3845,395.70396],[-1.3867,-0.33152],[2.38086,0.56918]],[[373.29938,407.17818],[-1.48644,-2.09806],[0.6309,0.89048]],[[376.8403,411.67304],[-1.74618,0.4215],[6.95912,-1.6798]],[[393.45468,397.20336],[-5.6208,3.75014],[8.01866,-1.73154]],[[405.64912,415.10824],[-1.42318,-6.29352],[0.2547,1.12636]],[[406.7566,411.8256],[-0.457,1.06054],[0.69764,-1.61896]],[[412.65346,401.03024],[-2.06318,0.17886],[1.67046,-0.1448]],[[416.7238,403.98572],[-1.00166,-1.34464],[1.63872,2.19984]],[[419.44168,411.75332],[-1.0889,-2.51774],[1.79896,4.1596]],[[427.28194,421.96534],[-3.48626,-2.7875],[2.34708,-7.56404]],[[436.6693,400.55724],[-4.31768,6.47652],[1.6548,-2.4822]],[[443.45958,394.3868],[-4.55142,-0.86746],[1.16448,0.22194]],[[447.9975,399.89056],[-0.89002,-1.33504],[3.1194,4.67912]],[[460.2347,414.48554],[-4.79732,-2.93658],[2.326,-5.47984]],[[470.00056,399.3425],[-3.90674,4.48554],[1.13316,-1.30104]],[[473.46828,395.49984],[-1.6494,0.50618],[5.0209,-1.54084]],[[480.25364,403.77412],[-0.82548,-2.94548],[1.30166,4.64454]],[[484.8291,416.19086],[-1.79332,-4.3083],[0.82006,1.97014]],[[485.68128,420.92466],[0.01724,-1.65152],[1.35398,-2.49798]],[[489.99706,413.89898],[-0.6819,1.67082],[8.55812,-8.4803]],[[495.69256,381.987],[3.51276,10.92412],[0,0]],[[495.68906,381.67184],[0,0],[-19.36622,0.0985]],[[437.13672,377.59512],[18.57404,5.57598],[0,0]]],&quot;closed&quot;:true,&quot;fillColor&quot;:[0,0,0,1]}]}" fill="#1f4d15" stroke-width="2"/><path d="M362.63657,213.95v-0.4h8.6v0.4z" fill="url(#color-1)" stroke-width="1.5"/><path d="M356.91901,223.19529c-0.56153,-5.633 3.54971,-10.65466 9.18271,-11.21619c5.633,-0.56153 10.65466,3.54971 11.21619,9.18271c0.56153,5.633 -3.54971,10.65466 -9.18271,11.21619c-5.633,0.56153 -10.65466,-3.54971 -11.21619,-9.18271z" fill="url(#color-2)" stroke-width="2"/></g></g></svg>