<svg version="1.1" xmlns="http://www.w3.org/2000/svg" xmlns:xlink="http://www.w3.org/1999/xlink" width="35.31371" height="21.82603" viewBox="0,0,35.31371,21.82603"><g transform="translate(-307.48838,-164.50387)"><g data-paper-data="{&quot;isPaintingLayer&quot;:true}" fill-rule="nonzero" stroke="#000000" stroke-width="1" stroke-linejoin="miter" stroke-miterlimit="10" stroke-dasharray="" stroke-dashoffset="0" style="mix-blend-mode: normal"><path d="M313.16702,180.41182v0v0v0z" data-paper-data="{&quot;index&quot;:null}" fill="#008204" stroke-linecap="butt"/><path d="M325.77853,180.656l-6.12183,4.38926l-11.12852,-4.34692l5.96633,-4.28049z" data-paper-data="{&quot;index&quot;:null}" fill="#828282" stroke-linecap="round"/><path d="M319.21825,164.92011v0v0z" fill="#008204" stroke-linecap="butt"/><path d="M316.02648,172.4959l-1.48537,-7.1912l11.12852,4.34692l1.52596,7.37657z" fill="#828282" stroke-linecap="round"/><path d="M334.69864,182.04962c-1.41717,3.6281 -6.94483,4.85885 -12.34637,2.74895c-5.40154,-2.1099 -8.6315,-6.76146 -7.21433,-10.38956c1.41717,-3.6281 6.94483,-4.85885 12.34637,-2.74895c5.40154,2.1099 8.6315,6.76146 7.21433,10.38956z" fill="#008204" stroke-linecap="butt"/><path d="M332.66789,175.09741l9.05391,10.52605l-12.87689,0.12908" fill="#008204" stroke-linecap="round"/><path d="M321.92554,184.17198l4.78735,-12.25608l3.57877,1.39791l-4.78735,12.25608z" fill="#006503" stroke-linecap="butt"/></g></g></svg>