<svg version="1.1" xmlns="http://www.w3.org/2000/svg" xmlns:xlink="http://www.w3.org/1999/xlink" width="138.55964" height="166.96234" viewBox="0,0,138.55964,166.96234"><defs><radialGradient cx="323.09012" cy="137.63794" r="141.92134" gradientUnits="userSpaceOnUse" id="color-1"><stop offset="0" stop-color="#ffd499"/><stop offset="1" stop-color="#ff9400"/></radialGradient></defs><g transform="translate(-250.697,-92.93192)"><g data-paper-data="{&quot;isPaintingLayer&quot;:true}" fill="url(#color-1)" fill-rule="nonzero" stroke="#ff9400" stroke-width="15" stroke-linecap="round" stroke-linejoin="miter" stroke-miterlimit="10" stroke-dasharray="" stroke-dashoffset="0" style="mix-blend-mode: normal"><path d="M290.29841,162.53213c2.04721,-5.34819 11.45953,17.0076 15.14209,13.32504c6.02655,-6.10529 5.542,-20.87792 5.14831,-31.49554c-0.24833,-6.31122 -7.7588,-11.81689 -7.57104,-18.77619c0.35129,-8.57042 3.33126,-27.8675 9.08526,-24.83303c10.29662,5.45115 18.68533,27.69185 23.62165,43.00353c4.73039,14.82713 -1.09023,49.49646 4.84547,45.72911c6.87451,-4.36092 15.09969,-66.44954 23.62166,-66.92803c8.57648,-0.36341 16.15358,42.095 17.56482,64.20245c0.90247,14.4819 -11.64729,27.69791 -12.71936,42.39785c-0.6178,8.38266 12.30749,25.36603 9.08525,23.01597c-5.6268,-3.11321 -17.78287,-25.8748 -29.67849,-35.73533c-2.97391,-2.46513 -7.45597,2.71952 -8.47957,6.05684c-3.61593,11.21726 -0.98121,23.95478 -6.66252,33.91827c-2.3985,4.26401 -11.77449,4.14893 -14.5364,0c-4.56685,-6.78366 4.5608,-24.96022 -2.11989,-24.83302c-11.42925,0.24833 -23.10077,19.99967 -33.31259,24.22734c-3.60381,1.80494 7.48624,-5.28156 5.68131,-12.16213c-7.19552,-27.39506 -30.89592,-72.82133 -30.81718,-79.29609c0.38763,-5.83879 24.94205,46.20154 32.10123,45.42627c7.0865,-0.76922 -5.52384,-35.63236 0,-47.24331z"/></g></g></svg>