<svg version="1.1" xmlns="http://www.w3.org/2000/svg" xmlns:xlink="http://www.w3.org/1999/xlink" width="49.4382" height="31.15016" viewBox="0,0,49.4382,31.15016"><g transform="translate(-291.5344,-149.85954)"><g data-paper-data="{&quot;isPaintingLayer&quot;:true}" fill-rule="nonzero" stroke-linejoin="miter" stroke-miterlimit="10" stroke-dasharray="" stroke-dashoffset="0" style="mix-blend-mode: normal"><path d="M328.7622,161.9735c1.9931,0.3318 3.3181,2.537 4.0992,4.3723c0.8205,1.9277 1.2724,4.2898 0.681,6.3373c-0.3737,1.0293 -2.036,0.9762 -3.0911,1.3381c-2.7964,0.9615 -5.6813,1.7212 -8.4907,2.6679c-3.371,1.0476 -6.6797,2.3032 -10.0676,3.3206c-0.8463,0.2554 -1.4342,0.7064 -1.8221,0.2056c-1.3009,-1.6813 -1.9131,-3.86 -2.5863,-5.8958c-0.5362,-1.6229 -0.0331,-3.4948 -0.9918,-4.8246c-0.5853,-0.815 -2.0484,-0.761 -2.8579,-0.255c-1.1481,0.7129 -0.9296,2.7627 -2.0077,3.6182c-0.9896,0.7837 -2.4203,1.5246 -3.6253,1.1391c-2.1359,-0.6863 -4.2375,-2.027 -5.4675,-3.8899c-0.4294,-0.7529 0.8922,-2.0246 1.7269,-2.0101c1.6377,0.0315 2.8803,2.4649 4.5041,1.9914c2.0078,-0.5889 2.329,-3.6898 4.1147,-4.752c1.0923,-0.6503 2.5938,-0.5822 3.8146,-0.2028c0.9605,0.2978 1.4259,1.9859 2.3713,1.8755c3.2179,-0.4305 6.0002,-2.5877 9.0086,-3.3548c3.491,-0.8893 7.1627,-2.3543 10.6876,-1.681z" fill="#ff7c00" stroke="#000000" stroke-width="2" stroke-linecap="round"/><path d="M340.4775,155.8873c0.1513,1.9393 0.0788,3.991 -0.5049,5.8202c-0.4866,1.5266 -1.387,3.0677 -2.771,3.9331c-1.3842,0.8664 -3.1183,1.2181 -4.8731,0.8502c-1.7549,-0.3679 -3.2017,-1.3864 -4.1214,-2.7358c-0.9199,-1.3485 -0.5065,-3.1786 -0.9579,-4.7149c-0.7035,-2.4004 -2.9735,-5.7791 -2.3547,-7.2882c0.3744,-0.9136 2.7172,2.1033 4.3412,2.4427c2.1947,0.4581 4.6959,0.6381 6.9141,-0.0831c1.3993,-0.5046 2.0847,-3.7541 3.1492,-3.3246c1.1905,0.4815 1.0454,3.3815 1.1785,5.1004z" fill="#ff7c00" stroke="#000000" stroke-width="2" stroke-linecap="round"/><path d="M338.275,157.42c0.263,0.136 0.425,0.323 0.425,0.53c0,0.207 -0.162,0.394 -0.425,0.53c-0.262,0.136 -0.625,0.22 -1.025,0.22c-0.4,0 -0.763,-0.084 -1.025,-0.22c-0.263,-0.136 -0.425,-0.323 -0.425,-0.53c0,-0.207 0.162,-0.394 0.425,-0.53c0.262,-0.136 0.625,-0.22 1.025,-0.22c0.4,0 0.763,0.084 1.025,0.22z" fill="#ff0000" stroke="none" stroke-width="1" stroke-linecap="butt"/><path d="M333.132,158.732c0.258,0.081 0.418,0.194 0.418,0.318c0,0.124 -0.16,0.237 -0.418,0.318c-0.258,0.082 -0.614,0.132 -1.007,0.132c-0.393,0 -0.749,-0.05 -1.007,-0.132c-0.258,-0.081 -0.418,-0.194 -0.418,-0.318c0,-0.124 0.16,-0.237 0.418,-0.318c0.258,-0.082 0.614,-0.132 1.007,-0.132c0.393,0 0.749,0.05 1.007,0.132z" fill="#ff0000" stroke="none" stroke-width="1" stroke-linecap="butt"/></g></g></svg>