<svg version="1.1" xmlns="http://www.w3.org/2000/svg" xmlns:xlink="http://www.w3.org/1999/xlink" width="19.62695" height="26.36541" viewBox="0,0,19.62695,26.36541"><defs><linearGradient x1="239.57152" y1="166.24889" x2="239.57152" y2="192.6143" gradientUnits="userSpaceOnUse" id="color-1"><stop offset="0" stop-color="#ffca00"/><stop offset="1" stop-color="#ff0000"/></linearGradient></defs><g transform="translate(-229.75804,-166.24889)"><g data-paper-data="{&quot;isPaintingLayer&quot;:true}" fill-rule="nonzero" stroke="none" stroke-width="0" stroke-linejoin="miter" stroke-miterlimit="10" stroke-dasharray="" stroke-dashoffset="0" style="mix-blend-mode: normal"><path d="M229.8,169.1c0.618,-1.156 4.146,3.884 6.5,4.8c0.794,0.311 1.807,-0.77 2,-1.6c0.407,-1.769 -1.384,-4.128 -0.5,-5.6c0.552,-0.902 2.79,-0.33 3.2,0.65c1.267,2.704 -0.622,8.945 1.1,8.8c2.339,-0.204 6.558,-9.463 7.2,-9.3c0.642,0.164 -2.544,6.901 -3.15,10.5c-0.218,1.302 0.856,2.604 0.85,4c-0.08,1.228 -0.345,3.789 -1.1,3.65c-0.977,-0.183 -1.238,-3.284 -2.5,-4.4c-0.465,-0.412 -1.292,0.101 -1.4,1c-0.431,3.594 0.852,7.471 0,10.75c-0.248,1.021 -1.803,-1.178 -2.2,-2.15c-0.918,-2.247 -0.225,-7.017 -1.65,-7.1c-1.586,-0.087 -2.32,6.214 -4.35,6.5c-1.622,0.227 -2.77,-3.425 -3.3,-5.5c-0.444,-2.362 -0.466,-5.737 0.5,-7.25c0.511,-0.8 2.88,3.65 2.8,2.65c-0.24,-2.821 -4.508,-9.033 -4,-10.4z" id="ID0.17864482337608933" fill="url(#color-1)" stroke-linecap="round"/><path d="M241.4648,172.2759c0.0787,0 0.1499,0.0279 0.2016,0.0728c0.0516,0.0449 0.0836,0.1069 0.0836,0.1754c0,0.0684 -0.032,0.1305 -0.0836,0.1754c-0.0517,0.0449 -0.1229,0.0727 -0.2016,0.0727c-0.0787,0 -0.1499,-0.0278 -0.2016,-0.0727c-0.0516,-0.0449 -0.0836,-0.107 -0.0836,-0.1754c0,-0.0685 0.032,-0.1305 0.0836,-0.1754c0.0517,-0.0449 0.1229,-0.0728 0.2016,-0.0728z" id="ID0.6939080404117703" fill="#ffc16c" stroke-linecap="butt"/></g></g></svg>