<svg version="1.1" xmlns="http://www.w3.org/2000/svg" xmlns:xlink="http://www.w3.org/1999/xlink" width="46.20964" height="562.74155" viewBox="0,0,46.20964,562.74155"><defs><linearGradient x1="367" y1="-314.99324" x2="367" y2="222.58334" gradientUnits="userSpaceOnUse" id="color-1"><stop offset="0" stop-color="#66ffff" stop-opacity="0"/><stop offset="1" stop-color="#66ffff"/></linearGradient><radialGradient cx="367" cy="-46.20496" r="12.06887" gradientUnits="userSpaceOnUse" id="color-2"><stop offset="0" stop-color="#00ffff" stop-opacity="0"/><stop offset="1" stop-color="#00ffff" stop-opacity="0"/></radialGradient><linearGradient x1="366.10172" y1="211.9791" x2="368.1352" y2="232.378" gradientUnits="userSpaceOnUse" id="color-3"><stop offset="0" stop-color="#ff6767"/><stop offset="1" stop-color="#ff0000"/></linearGradient><linearGradient x1="362.63657" y1="213.75001" x2="371.23657" y2="213.75001" gradientUnits="userSpaceOnUse" id="color-4"><stop offset="0" stop-color="#ff6767"/><stop offset="1" stop-color="#ff0000"/></linearGradient><linearGradient x1="366.10172" y1="211.97911" x2="368.1352" y2="232.37801" gradientUnits="userSpaceOnUse" id="color-5"><stop offset="0" stop-color="#ff6767"/><stop offset="1" stop-color="#ff0000"/></linearGradient></defs><g transform="translate(-346.15979,314.99325)"><g data-paper-data="{&quot;isPaintingLayer&quot;:true}" fill-rule="nonzero" stroke-linecap="butt" stroke-linejoin="miter" stroke-miterlimit="10" stroke-dasharray="" stroke-dashoffset="0" style="mix-blend-mode: normal"><path d="M358.04167,222.58333v-537.57658h17.91667v537.57658z" fill="url(#color-1)" stroke="url(#color-2)" stroke-width="0"/><path d="M356.91901,223.19529c-0.56153,-5.633 3.54971,-10.65466 9.18271,-11.21619c5.633,-0.56153 10.65466,3.54971 11.21619,9.18271c0.56153,5.633 -3.54971,10.65466 -9.18271,11.21619c-5.633,0.56153 -10.65466,-3.54971 -11.21619,-9.18271z" fill="url(#color-3)" stroke="#000000" stroke-width="2"/><path d="M347.48741,243.3395l6.93267,-14.97291l6.65462,3.08119l-6.93267,14.97291z" fill="#cccccc" stroke="#000000" stroke-width="2"/><path d="M385.05634,243.33898l-9.75203,-13.30969l5.91541,-4.33423l9.75204,13.30969z" data-paper-data="{&quot;index&quot;:null}" fill="#cccccc" stroke="#000000" stroke-width="2"/><path d="M356.70774,246.61507l-1.88468,-18.90629l25.54008,-2.54598l1.88468,18.90629z" fill="#cccccc" stroke="#000000" stroke-width="2"/><path d="M362.63657,213.95001v-0.4h8.6v0.4z" fill="url(#color-4)" stroke="#000000" stroke-width="1.5"/><path d="M356.91901,223.1953c-0.56153,-5.633 3.54971,-10.65466 9.18271,-11.21619c5.633,-0.56153 10.65466,3.54971 11.21619,9.18271c0.56153,5.633 -3.54971,10.65466 -9.18271,11.21619c-5.633,0.56153 -10.65466,-3.54971 -11.21619,-9.18271z" fill="url(#color-5)" stroke="#000000" stroke-width="2"/></g></g></svg>