<svg version="1.1" xmlns="http://www.w3.org/2000/svg" xmlns:xlink="http://www.w3.org/1999/xlink" width="630.42889" height="605.44152" viewBox="0,0,630.42889,605.44152"><g transform="translate(-38.42412,139.6117)"><g data-paper-data="{&quot;isPaintingLayer&quot;:true}" fill-rule="nonzero" stroke-linecap="butt" stroke-linejoin="miter" stroke-miterlimit="10" stroke-dasharray="" stroke-dashoffset="0" style="mix-blend-mode: normal"><path d="M260.21737,205.56469l-13.32589,-41.93354l211.09719,-67.08373l13.32589,41.93354z" fill="#a5a5a5" stroke="#000000" stroke-width="2"/><path d="M259.10116,202.87772l-11.57001,-36.40816l211.33545,-67.15944l11.57001,36.40816z" fill="#4543d4" stroke="#000000" stroke-width="2"/><path d="M282.18476,198.33594l-12.64446,-39.7892l6.67125,-2.12002l12.64446,39.7892z" fill="#a5a5a5" stroke="#000000" stroke-width="2"/><path d="M314.34969,188.11437l-12.64446,-39.7892l6.67125,-2.12002l12.64446,39.7892z" fill="#a5a5a5" stroke="#000000" stroke-width="2"/><path d="M346.51462,177.89282l-12.64446,-39.78921l6.67125,-2.12002l12.64446,39.7892z" fill="#a5a5a5" stroke="#000000" stroke-width="2"/><path d="M378.67953,167.67125l-12.64446,-39.7892l6.67125,-2.12002l12.64446,39.7892z" fill="#a5a5a5" stroke="#000000" stroke-width="2"/><path d="M410.84444,157.44969l-12.64446,-39.7892l6.67125,-2.12002l12.64447,39.7892z" fill="#a5a5a5" stroke="#000000" stroke-width="2"/><path d="M443.00937,147.22812l-12.64446,-39.7892l6.67125,-2.12002l12.64446,39.7892z" fill="#a5a5a5" stroke="#000000" stroke-width="2"/><path d="M561.14629,81.62249l-43.72773,4.88741l-24.60369,-220.1293l43.72773,-4.88741z" fill="#a5a5a5" stroke="#000000" stroke-width="2"/><path d="M558.29316,82.19295l-37.96594,4.24343l-24.63145,-220.37774l37.96594,-4.24343z" fill="#4543d4" stroke="#000000" stroke-width="2"/><path d="M558.34289,58.66683l-41.49164,4.6375l-0.77754,-6.95668l41.49164,-4.6375z" fill="#a5a5a5" stroke="#000000" stroke-width="2"/><path d="M554.59403,25.12569l-41.49164,4.6375l-0.77754,-6.95668l41.49164,-4.6375z" fill="#a5a5a5" stroke="#000000" stroke-width="2"/><path d="M550.84517,-8.41547l-41.49165,4.63749l-0.77754,-6.95668l41.49164,-4.6375z" fill="#a5a5a5" stroke="#000000" stroke-width="2"/><path d="M547.09628,-41.9566l-41.49164,4.6375l-0.77754,-6.95668l41.49164,-4.6375z" fill="#a5a5a5" stroke="#000000" stroke-width="2"/><path d="M543.34742,-75.49774l-41.49164,4.6375l-0.77754,-6.95668l41.49164,-4.63751z" fill="#a5a5a5" stroke="#000000" stroke-width="2"/><path d="M539.59854,-109.03891l-41.49164,4.6375l-0.77754,-6.95668l41.49164,-4.6375z" fill="#a5a5a5" stroke="none" stroke-width="0"/><path d="M543.20309,89.08791c2.3617,-0.42179 5.40524,-0.51988 7.89053,-1.32632c0.43716,2.59413 -0.40118,5.22164 -0.58836,7.91938c-0.21148,3.04777 -0.37833,6.29087 -0.38589,9.27588c-0.00778,3.06766 -2.07137,6.01563 -2.89623,8.88295c-0.72667,2.52599 -1.20792,4.85742 -2.15157,7.34437c-2.44229,6.45079 -6.73591,11.74858 -9.50327,17.98824c-2.54944,5.7483 -4.61504,11.61694 -7.45295,17.24873c-0.81187,1.61115 -1.36026,3.22797 -2.02324,4.83598c-0.06782,0.16451 -0.06638,-0.38508 -0.17802,-0.52363c-0.39962,-0.4959 -0.9478,-0.85057 -1.39737,-1.30169c-0.75393,-0.75652 -1.38685,-1.62345 -2.12327,-2.39702c-1.99965,-2.10052 -4.09411,-5.68168 -6.32977,-7.37013c-0.80961,-0.61145 -1.76256,-1.63684 -2.7321,-1.33794c-0.82025,0.25288 -0.55101,1.56818 -0.73358,2.40688c-0.79543,3.65398 -0.85811,7.439 -1.76106,11.10611c-1.68181,3.32866 -2.51108,6.79153 -3.89068,10.23827c-0.72098,1.80128 -2.02255,3.03183 -2.7709,4.76818c-1.40223,3.25355 -2.33118,7.0821 -3.61739,10.46136c-0.56143,1.47501 -2.44387,4.81519 -2.56148,6.89766c-0.95011,-0.64624 -1.83036,-0.7998 -3.11175,-2.01245c-1.78532,-1.68954 -2.61808,-4.43013 -4.73868,-5.90103c-0.82108,-0.56952 -1.73615,-1.57622 -2.69862,-1.30754c-1.30064,0.36309 -0.96774,4.83228 -1.02701,5.64011c-0.33421,4.55525 -1.06768,8.73012 -0.58196,13.41206c-0.15498,2.28273 -0.56954,4.75911 -0.60748,6.99215c-0.01716,1.00942 0.57387,1.97431 0.52591,2.98273c-0.11866,2.49508 -1.63013,4.25857 -2.39037,6.49403c-0.87219,2.56462 -1.26564,5.60507 -1.90892,8.23735c-0.12862,0.52633 -0.63253,-0.88428 -1.00405,-1.27867c-0.47207,-0.50113 -0.93041,-1.01756 -1.43242,-1.48869c-1.28779,-1.20854 -2.80603,-2.247 -4.18406,-3.35024c-6.31119,-5.54111 -12.39897,-11.52726 -18.3136,-17.47472c-3.68337,-3.70382 -5.57064,-8.53222 -8.47948,-12.75357c-1.65442,-2.40092 -3.22204,-5.56794 -5.29007,-7.59396c-0.65911,-0.64572 -1.3084,-1.7231 -2.22809,-1.64852c-1.52868,0.12396 -1.1245,3.33613 -1.16728,3.96758c-0.18699,2.76006 -0.6909,5.43728 -0.71747,8.2273c-0.01268,1.33078 -0.09159,2.67497 0.12239,3.9885c0.06399,0.39284 0.75851,1.09425 0.3714,1.18678c-0.40143,0.09596 -0.33891,-0.77613 -0.63345,-1.06529c-0.88049,-0.86436 -1.94033,-1.5575 -2.72937,-2.50609c-0.69896,-0.84029 -1.41414,-1.67382 -2.17694,-2.45661c-2.69821,-2.75574 -4.62582,-6.20488 -7.18888,-9.09722c-6.01257,-6.78505 -10.9699,-14.93349 -16.00033,-22.57792c-3.36439,-3.87355 -4.99184,-8.62849 -7.21304,-13.16942c-0.53378,-1.09125 -2.01449,-5.38609 -3.08191,-5.84518c-0.84173,-0.362 -1.8725,-0.00896 -2.60301,0.54411c-0.33212,0.25145 -0.18734,3.49354 -0.19275,3.63138c-0.10096,2.57349 -1.12838,6.00574 -0.56935,8.71374c-3.35697,-3.78235 -6.85585,-7.41508 -10.47447,-10.95084c-2.69241,-2.63074 -5.76924,-5.05291 -7.77509,-8.28177c-0.95939,-1.54433 -1.29678,-3.29024 -2.43882,-4.78241c-2.94734,-3.85095 -7.40937,-7.14006 -6.94396,-12.50992c9.48401,-1.95692 16.82834,-8.5911 26.36787,-10.29455c11.81308,-2.10975 23.63928,-4.23217 35.45237,-6.34193c6.06598,-1.08335 12.47001,-2.91861 18.60738,-3.33288c5.28988,-0.35706 10.21971,1.22801 15.41359,0.30041c3.22857,-0.57661 6.5201,-1.40194 9.78166,-1.74824c3.22759,-0.3427 6.32718,0.64224 9.49511,0.31054c3.21884,-0.33703 6.45865,-1.12047 9.64422,-1.68939c0.43017,-0.07683 3.08143,-0.52876 3.3185,-0.66895c0.40578,-0.23994 0.41663,-0.8986 0.80882,-1.16015c0.86476,-0.57671 2.06057,-0.28969 3.0838,-0.47243c2.28486,-0.40806 5.50259,-0.4108 7.60825,-1.38354c0.90104,-0.41624 1.62909,-1.24464 2.59945,-1.45323c7.78647,-1.67378 15.59196,-3.29122 23.54607,-3.36922c0.90062,-0.01043 3.03823,-0.51151 3.62847,-0.15004c0.33846,0.20727 0.36999,0.7973 0.74389,0.93043c0.8263,0.2942 3.15952,-0.41155 3.99016,-0.5599z" data-paper-data="{&quot;noHover&quot;:false,&quot;origItem&quot;:[&quot;Path&quot;,{&quot;applyMatrix&quot;:true,&quot;segments&quot;:[[[230.5,222],[0,0],[-0.84379,0]],[[226.47427,221.85065],[0.76171,0.43489],[-0.34467,-0.19679]],[[225.9059,220.80439],[0.29675,0.26355],[-0.5175,-0.45961]],[[222.30839,220.31519],[0.88843,0.14807],[-7.84393,-1.32165]],[[198.54346,219.49905],[7.95946,-0.27875],[-0.99192,0.03474]],[[195.72975,220.47324],[0.96018,-0.25134],[-2.24388,0.58738]],[[188,220.49999],[2.32101,0],[-1.03942,0]],[[184.88268,220.42387],[0.95268,-0.41569],[-0.43206,0.18853]],[[183.88268,221.42387],[0.44164,-0.16486],[-0.25802,0.09632]],[[180.5,221.49999],[0.43698,0],[-3.23597,0]],[[170.71484,221.47032],[3.22796,0.23413],[-3.1769,-0.23043]],[[161.42911,219.49748],[3.23757,0.23009],[-3.27164,-0.23251]],[[151.5,219.5],[3.27966,0],[-5.27607,0]],[[136.39088,216.49403],[5.27026,0.57853],[-6.11461,-0.67121]],[[117.5,216.5],[6.16196,0],[-12,0]],[[81.5,216.5],[12,0],[-9.69043,-0.00025]],[[53.73979,221.99005],[9.68034,-0.25903],[-1.40225,5.20439]],[[58.37844,235.52215],[-2.22438,-4.30915],[0.86191,1.66971]],[[59.93936,240.65707],[-0.67293,-1.68895],[1.40693,3.53122]],[[66.13868,250.17369],[-2.18795,-3.06312],[2.94063,4.11688]],[[74.52655,262.79002],[-2.6397,-4.31363],[-0.07422,-2.7641]],[[76.52447,254.28008],[-0.55184,2.51565],[0.02956,-0.13474]],[[77.35361,250.73697],[-0.37115,0.18914],[0.81637,-0.41602]],[[80.10218,250.70164],[-0.76497,-0.50435],[0.97008,0.6396]],[[82.10983,256.99441],[-0.33361,-1.1681],[1.38824,4.86071]],[[86.89783,271.21766],[-2.63096,-4.40472],[3.60808,8.40977]],[[98.67831,296.23362],[-4.72602,-7.73645],[2.01462,3.29791]],[[104.15116,306.44215],[-2.17169,-3.1872],[0.6133,0.90471]],[[105.8605,309.24034],[-0.54034,-0.95009],[0.60997,1.07253]],[[108.1045,312.18414],[-0.71481,-1.0057],[0.23911,0.33643]],[[108.54003,313.34325],[-0.41205,0.02389],[0.39735,-0.02303]],[[108.30529,312.1725],[-0.00607,0.39797],[0.02029,-1.33069]],[[108.88423,308.22217],[-0.24645,1.30782],[0.51668,-2.74189]],[[111.03349,300.24333],[-0.66933,2.68419],[0.15313,-0.6141]],[[112.97067,296.50043],[-1.52666,-0.14673],[0.91847,0.08828]],[[114.87264,298.51164],[-0.53532,-0.75154],[1.67961,2.35805]],[[118.73796,306.90693],[-1.20654,-2.65439],[2.12137,4.66701]],[[124.82999,320.94225],[-2.97482,-4.29371],[4.77686,6.89468]],[[139.76723,341.35865],[-5.23869,-6.56439],[1.1626,1.32833]],[[143.29399,345.39209],[-1.05525,-1.41612],[0.41136,0.55205]],[[144.44143,347.1094],[-0.37661,-0.57632],[0.29639,0.45357]],[[145.20443,348.54467],[-0.21915,0.49552],[1.09605,-2.47818]],[[148.52908,340.77128],[-1.3095,2.37133],[1.14142,-2.06698]],[[152.0204,334.79894],[-0.55548,2.43535],[0.2245,-0.98428]],[[152.02673,331.77025],[-0.19436,0.99068],[0.42995,-2.19158]],[[153.85105,324.99428],[-0.5539,2.21993],[0.34499,-4.69441]],[[156.77385,311.89567],[-1.12988,4.42554],[0.20038,-0.78483]],[[158.77023,306.52676],[-1.34422,0.12876],[0.99471,-0.09528]],[[161.19502,308.28946],[-0.70816,-0.70501],[1.82896,1.82081]],[[164.82269,314.93153],[-1.46047,-1.97711],[1.04824,1.41905]],[[167.53104,317.46039],[-0.82169,-0.80321],[0.4819,-2.02936]],[[171.25847,311.12558],[-0.81201,1.35333],[1.8603,-3.10049]],[[176.64934,301.47429],[-1.9524,2.95634],[1.04197,-1.57774]],[[180.21199,297.27402],[-1.02644,1.64646],[1.9641,-3.1505]],[[185.83843,287.89236],[-2.24084,2.98113],[1.53361,-3.45124]],[[189.52454,277.28152],[-1.42546,3.45722],[0.32718,-0.79354]],[[190.76884,275.0271],[-0.85193,0.10473],[1.00699,-0.12379]],[[193.22348,276.8268],[-0.6895,-0.74427],[1.90398,2.05521]],[[198.15917,285.20353],[-1.5992,-2.41937],[0.58895,0.89099]],[[199.82775,287.93894],[-0.60918,-0.87729],[0.36326,0.52313]],[[200.97436,289.46729],[-0.30621,-0.55843],[0.08555,0.15602]],[[200.95842,290.00088],[-0.09569,0.15002],[0.93536,-1.4664]],[[203.79998,285.60002],[-1.08249,1.44332],[3.78385,-5.04512]],[[214.17013,269.94203],[-3.52035,5.21054],[3.82127,-5.65593]],[[226.68998,253.91243],[-3.53838,5.92092],[1.36619,-2.28231]],[[230.10032,247.06345],[-1.15945,2.35889],[1.31612,-2.67764]],[[234.51441,238.83077],[-0.54699,3.01851],[0.53225,-2.93718]],[[236.52674,229.77027],[-0.74402,2.96312],[0.65856,-2.62281]],[[238.4996,222.07987],[-0.02573,2.63058],[-2.58836,0.35693]],[[230.49999,222.00003],[2.39907,0],[0,0]]],&quot;closed&quot;:true,&quot;fillColor&quot;:[0,0,0],&quot;strokeWidth&quot;:0.5}]}" fill="#4c2915" stroke="#000000" stroke-width="2"/><path d="M530.02796,83.13161c9.63253,1.11179 19.65569,-1.38687 29.17931,-3.13776l0.02945,0.15489c2.68932,5.06819 3.47014,11.28955 0.00322,16.21598c-0.18876,0.88234 -1.05968,2.49084 -1.50654,3.8394c-0.13669,-0.81441 -0.35855,-1.35121 -0.93538,-2.24886c-1.26142,-1.96295 -2.29429,-3.53462 -3.34327,-5.70629c-0.66524,-1.37723 -1.73095,-4.67383 -4.06685,-3.47404c-0.76736,0.39414 -0.82715,1.43916 -1.27054,2.17916c-1.52864,2.55126 -2.81201,5.41487 -3.47518,8.31658c-2.61944,-1.0237 -5.45884,-4.06798 -7.40557,-6.09688c-0.55544,-0.57888 -2.12444,-2.30146 -2.71712,-2.30834c-2.31652,-0.02687 -2.10499,2.24994 -2.7013,3.61718c-1.55589,3.56737 -2.24777,7.44102 -2.73811,11.37046c-1.96102,-1.06558 -3.60556,-2.44567 -4.85669,-4.33493c-0.7573,-1.14354 -1.02036,-2.64268 -2.02034,-3.58141c-0.61123,-0.5738 -1.35461,-1.32777 -2.16409,-1.10967c-0.9998,0.2694 -1.75202,4.97855 -1.95309,5.83675c-0.13171,0.56218 -0.13212,2.24795 -0.3565,1.71594c-1.25375,-2.97264 -3.68225,-9.30733 -7.47692,-7.75015c-2.43696,2.33997 -3.62741,7.15264 -6.9051,8.59122c-0.82244,0.36097 -1.84914,-1.51614 -2.23796,-1.899c-0.91608,-0.90202 -3.6817,-4.87401 -4.90363,-4.94488c-0.71169,-0.04128 -2.02336,1.80876 -2.56222,2.47816c-1.89725,2.35693 -4.20816,4.9641 -6.87574,6.40841c-2.84077,2.54116 -5.76176,5.64937 -9.5781,6.33095c-0.47369,0.0846 0.09109,-1.02804 -0.05843,-1.48542c-0.15251,-0.46655 -0.40895,-0.89038 -0.59724,-1.34367c-0.84037,-2.02312 -1.67284,-5.73703 -4.51146,-6.02761c-0.73485,-0.07523 -2.85473,1.33793 -3.39458,1.65295c-2.48513,1.45015 -4.59657,3.68259 -6.07747,6.17121c-0.2466,-1.72389 -2.28806,-2.90279 -3.55215,-3.82012c-1.84846,-1.34143 -3.25766,-2.72152 -4.70129,-4.40216c-0.51408,-0.59848 -2.12713,-2.30941 -3.2163,-1.96357c-0.82028,0.26045 -1.4065,1.0523 -1.84926,1.79031c-0.26388,0.43988 -0.03124,1.02556 -0.14763,1.52513c-0.44154,1.89524 -1.58219,3.85572 -2.30253,5.6778c-0.6756,1.70891 -0.96767,2.00126 -0.80039,3.7903c0.02541,0.27182 0.46851,0.9035 0.20711,0.82474c-1.03263,-0.31114 -1.67619,-1.39089 -2.62373,-1.90595c-3.73184,-1.82901 -8.10623,-3.71221 -11.37188,-6.32108c-1.06372,-0.84978 -1.40608,-2.19545 -3.05291,-2.14557c-2.05186,0.06214 -2.73191,2.67941 -3.30852,4.09614c-0.22054,0.54188 -1.47036,3.28573 -1.50945,3.56134c-0.41117,2.89908 1.90926,5.6725 1.54498,8.65123c-4.4334,-1.31347 -6.69854,-3.71016 -9.67194,-7.07255c-1.34286,-1.51853 -1.74434,-3.83658 -3.90029,-4.7425c-1.07082,-0.44996 -1.75535,0.32382 -2.59116,0.68796c-2.97113,1.29449 -4.9804,3.13632 -7.07418,5.58772c-0.41079,0.48102 -2.79907,3.91305 -3.40405,3.9439c-0.82224,0.04193 -1.19193,-2.2412 -1.36912,-2.60347c-1.03563,-2.11737 -3.80391,-7.32691 -6.80001,-5.2088c-1.61982,1.14513 -0.34901,1.6699 -0.72627,2.95002c-1.16457,3.95158 -2.28562,8.00677 -3.74306,11.86147c-0.11659,0.77335 -0.30094,2.16575 -0.54797,2.81585c-0.32999,0.86839 -0.74074,1.74196 -1.36796,2.42723c-0.71577,0.78201 -2.00725,-0.92111 -2.83043,-1.58913c-2.58456,-2.09741 -4.48542,-4.27644 -6.62444,-6.75869c-0.53922,-0.62575 -0.94925,-1.49502 -1.72401,-1.7815c-1.73392,-0.64114 -2.61585,0.67847 -3.25665,1.88484c-1.53935,2.89799 -3.31323,5.60816 -5.94608,7.82083c-0.06765,0.02973 -1.18685,0.50356 -1.83775,0.79601c0.37945,-0.65849 0.64093,-1.50697 0.67875,-1.59217c1.00773,-2.27034 2.4333,-5.71295 2.18932,-8.25953c-0.13999,-1.46122 -1.72732,-2.33537 -2.51239,-3.32997c-2.35576,-2.98451 -4.4698,-5.43208 -5.14144,-9.19278c0,0 -0.04282,-0.23995 -0.20449,-0.46168c1.13488,-0.85495 1.87983,-0.85406 3.31006,-1.10949c3.17093,-0.56631 6.10328,-0.43609 9.28197,-0.64551c3.586,-0.23626 6.92722,-1.40805 10.25589,-2.51436c2.90873,-0.96674 6.38037,-1.13301 9.39713,-1.67179c4.33653,-0.77448 8.24816,-0.95326 12.54736,-1.23122c5.22397,-0.33774 10.69108,-1.90837 15.84894,-2.82953c12.2834,-2.19375 25.13818,-3.61901 37.05295,-7.33121c9.77659,-1.73071 19.87745,-4.4445 29.76287,-5.29136c2.29118,-0.19628 4.53609,-0.13188 6.83936,-0.47432c1.27142,-0.19493 2.57333,-0.04393 3.8591,-0.0798c6.71448,-0.18732 13.38083,-2.97518 20.0943,-3.49161c2.53056,-0.19467 4.92392,0.27594 7.39716,0.27574c2.36988,-0.00019 4.47923,-0.74793 6.91984,-0.57747z" data-paper-data="{&quot;noHover&quot;:false,&quot;origItem&quot;:[&quot;Path&quot;,{&quot;applyMatrix&quot;:true,&quot;segments&quot;:[[[437.13664,377.59516],[0,0],[-4.74524,-1.19378]],[[423.30982,376.30124],[4.666,0.83294],[-4.8695,-0.86926]],[[408.84368,373.16174],[5.05074,0.50654],[-13.39938,-1.34384]],[[368.05594,372.98066],[13.28566,1.99218],[-2.5441,-0.38148]],[[360.43142,371.78532],[2.57178,0.06328],[-4.6552,-0.13568]],[[346.80294,370.3236],[4.58,0.4192],[-19.76064,-1.80864]],[[286.45762,370.32946],[19.85718,0.0302],[-24.76366,3.11922]],[[211.00002,371.66666],[24.95552,0],[-10.47894,0]],[[178.80294,371.65692],[10.40396,1.17192],[-8.5622,-0.96446]],[[153.66668,369.66666],[8.8103,0],[-6.129,0]],[[134.57772,369.65168],[6.06678,-0.88058],[-6.94266,1.00772]],[[113.50172,370.99318],[7.14336,0.79578],[-6.332,-0.70538]],[[95.00002,369],[6.4422,0],[-2.90572,0]],[[88.09302,370.01958],[2.53502,-1.28422],[0.24034,0.4934]],[[88.33336,371],[0,0],[0,7.6404]],[[95.22438,390.8975],[-3.5887,-6.7044],[1.19594,2.23426]],[[99.00002,398.33334],[0.23818,-2.92614],[-0.41508,5.09962]],[[91.78494,413.81764],[2.78238,-4.1156],[-0.10442,0.15444]],[[89.88862,416.71238],[0.97862,-1.16304],[1.38436,-0.34694]],[[93.5877,415.81088],[-0.14364,0.03474],[5.9617,-3.43062]],[[108.04422,402.49726],[-4.04976,5.16442],[1.68582,-2.14984]],[[115.31876,399.92628],[-3.18838,-1.872],[1.42466,0.83646]],[[118.08658,404.0376],[-0.84162,-1.42162],[3.33858,5.6393]],[[128.75168,419.66408],[-4.3511,-5.03828],[1.38582,1.60468]],[[133.568,423.81892],[-1.68422,1.28798],[1.47586,-1.12864]],[[137.11442,419.5188],[-0.95504,1.5937],[0.71496,-1.19308]],[[139.183,414.1643],[-0.50148,1.48162],[4.2249,-7.07684]],[[150.72272,392.11254],[-3.68234,7.37056],[1.1929,-2.38772]],[[153.38964,386.57],[-3.59184,1.68502],[6.64366,-3.11672]],[[164.94652,399.20718],[-1.29448,-4.53294],[0.22148,0.77556]],[[166.5269,404.82308],[-1.63362,-0.20656],[1.20196,0.152]],[[174.61554,398.25],[-0.97792,0.80262],[4.9843,-4.0902]],[[190.5085,389.72802],[-6.30488,1.50392],[1.77362,-0.42306]],[[196.0515,389.2987],[-1.95006,-1.26242],[3.92618,2.5417]],[[202.0632,399.99614],[-2.10994,-3.46194],[4.67186,7.66554]],[[218.61526,417.2987],[-8.26684,-4.14492],[1.7646,-5.73656]],[[218.4192,399.75376],[-1.82892,5.56326],[0.17388,-0.5289]],[[222.64336,393.26382],[-0.62474,0.98934],[1.63342,-2.58658]],[[230.59884,386.35102],[-4.06164,-0.59914],[3.25988,0.48086]],[[236.05344,391.67342],[-1.7955,-2.04712],[5.51222,6.28474]],[[256.21602,408.07876],[-6.7043,-4.91326],[1.68446,1.34726]],[[260.70548,412.73892],[-1.92368,-0.97568],[0.48696,0.24698]],[[260.4072,411.12828],[-0.04554,0.5441],[0.29974,-3.58116]],[[263.31002,403.93048],[-1.93104,3.12702],[2.05894,-3.33412]],[[269.83768,393.5242],[-1.53574,3.57618],[0.40482,-0.94268]],[[270.6672,390.56034],[-0.67422,0.77326],[1.13122,-1.29734]],[[274.94454,387.6674],[-1.70658,0.22436],[2.266,-0.29792]],[[280.7716,392.73842],[-0.8017,-1.35908],[2.2513,3.81654]],[[288.44134,402.9467],[-3.16766,-3.29104],[2.16622,2.25058]],[[294.02726,411.6994],[0.12064,-3.48078],[3.79072,-4.379]],[[308.07572,401.7534],[-5.40276,1.98128],[1.17364,-0.4304]],[[315.5339,399.7392],[-1.42036,-0.4065],[5.48666,1.57026]],[[322.28476,413.22836],[-0.94318,-4.27872],[0.21132,0.95866]],[[322.98506,416.08894],[-0.13622,-0.9722],[0.13354,0.95308]],[[322.41426,418.9191],[-0.96238,0],[7.75346,0]],[[343.48118,409.8573],[-6.48658,4.00426],[5.7599,-1.90564]],[[359.26862,399.67854],[-4.56416,3.97332],[1.2963,-1.12848]],[[365.3845,395.70396],[-1.3867,-0.33152],[2.38086,0.56918]],[[373.29938,407.17818],[-1.48644,-2.09806],[0.6309,0.89048]],[[376.8403,411.67304],[-1.74618,0.4215],[6.95912,-1.6798]],[[393.45468,397.20336],[-5.6208,3.75014],[8.01866,-1.73154]],[[405.64912,415.10824],[-1.42318,-6.29352],[0.2547,1.12636]],[[406.7566,411.8256],[-0.457,1.06054],[0.69764,-1.61896]],[[412.65346,401.03024],[-2.06318,0.17886],[1.67046,-0.1448]],[[416.7238,403.98572],[-1.00166,-1.34464],[1.63872,2.19984]],[[419.44168,411.75332],[-1.0889,-2.51774],[1.79896,4.1596]],[[427.28194,421.96534],[-3.48626,-2.7875],[2.34708,-7.56404]],[[436.6693,400.55724],[-4.31768,6.47652],[1.6548,-2.4822]],[[443.45958,394.3868],[-4.55142,-0.86746],[1.16448,0.22194]],[[447.9975,399.89056],[-0.89002,-1.33504],[3.1194,4.67912]],[[460.2347,414.48554],[-4.79732,-2.93658],[2.326,-5.47984]],[[470.00056,399.3425],[-3.90674,4.48554],[1.13316,-1.30104]],[[473.46828,395.49984],[-1.6494,0.50618],[5.0209,-1.54084]],[[480.25364,403.77412],[-0.82548,-2.94548],[1.30166,4.64454]],[[484.8291,416.19086],[-1.79332,-4.3083],[0.82006,1.97014]],[[485.68128,420.92466],[0.01724,-1.65152],[1.35398,-2.49798]],[[489.99706,413.89898],[-0.6819,1.67082],[8.55812,-8.4803]],[[495.69256,381.987],[3.51276,10.92412],[0,0]],[[495.68906,381.67184],[0,0],[-19.36622,0.0985]],[[437.13672,377.59512],[18.57404,5.57598],[0,0]]],&quot;closed&quot;:true,&quot;fillColor&quot;:[0,0,0,1]}]}" fill="#1f4d15" stroke="#000000" stroke-width="2"/><path d="M264.2395,310.95516l-4.26725,43.79259l-220.45586,-21.48174l4.26725,-43.79259z" fill="#a5a5a5" stroke="#000000" stroke-width="2"/><path d="M264.20718,313.86457l-3.70497,38.02227l-220.70468,-21.50599l3.70497,-38.02227z" fill="#4543d4" stroke="#000000" stroke-width="2"/><path d="M241.2006,308.9475l-4.04904,41.5532l-6.967,-0.67888l4.04904,-41.5532z" fill="#a5a5a5" stroke="#000000" stroke-width="2"/><path d="M207.60969,305.67432l-4.04904,41.5532l-6.967,-0.67888l4.04904,-41.5532z" fill="#a5a5a5" stroke="#000000" stroke-width="2"/><path d="M174.01879,302.40113l-4.04904,41.55321l-6.967,-0.67888l4.04904,-41.5532z" fill="#a5a5a5" stroke="#000000" stroke-width="2"/><path d="M140.42789,299.12797l-4.04904,41.5532l-6.967,-0.67888l4.04904,-41.5532z" fill="#a5a5a5" stroke="#000000" stroke-width="2"/><path d="M106.83699,295.85479l-4.04904,41.5532l-6.967,-0.67888l4.04903,-41.5532z" fill="#a5a5a5" stroke="#000000" stroke-width="2"/><path d="M73.24607,292.58161l-4.04904,41.5532l-6.967,-0.67888l4.04904,-41.5532z" fill="#a5a5a5" stroke="#000000" stroke-width="2"/><path d="M498.88959,323.6122l7.88814,43.28716l-217.91145,39.7096l-7.88814,-43.28716z" fill="#a5a5a5" stroke="#000000" stroke-width="2"/><path d="M499.65524,326.41925l6.84877,37.58343l-218.15739,39.75442l-6.84877,-37.58343z" fill="#4543d4" stroke="#000000" stroke-width="2"/><path d="M476.18159,327.99031l7.48477,41.0736l-6.88659,1.25493l-7.48477,-41.0736z" fill="#a5a5a5" stroke="#000000" stroke-width="2"/><path d="M442.97838,334.04088l7.48477,41.0736l-6.88659,1.25493l-7.48478,-41.07361z" fill="#a5a5a5" stroke="#000000" stroke-width="2"/><path d="M409.77515,340.09143l7.48477,41.07362l-6.88659,1.25493l-7.48477,-41.0736z" fill="#a5a5a5" stroke="#000000" stroke-width="2"/><path d="M376.57196,346.14201l7.48477,41.0736l-6.88659,1.25493l-7.48478,-41.07361z" fill="#a5a5a5" stroke="#000000" stroke-width="2"/><path d="M343.36875,352.19255l7.48477,41.0736l-6.88659,1.25493l-7.48478,-41.07361z" fill="#a5a5a5" stroke="#000000" stroke-width="2"/><path d="M310.16553,358.24312l7.48477,41.0736l-6.88659,1.25493l-7.48478,-41.07361z" fill="#a5a5a5" stroke="#000000" stroke-width="2"/><path d="M649.25879,366.19661c2.30859,0.65264 5.08903,1.89439 7.67687,2.25506c-0.74038,2.52437 -2.64263,4.52139 -3.98986,6.86613c-1.52205,2.64896 -3.08931,5.49312 -4.40051,8.17474c-1.34752,2.75587 -4.49187,4.50572 -6.48678,6.72433c-1.75744,1.95451 -3.2091,3.84126 -5.14465,5.66583c-5.01566,4.73504 -11.19269,7.62399 -16.40848,12.02708c-4.80506,4.05635 -9.22751,8.43238 -14.24113,12.25787c-1.4343,1.0944 -2.63408,2.30905 -3.93309,3.46569c-0.13289,0.11834 0.10857,-0.37537 0.06869,-0.54878c-0.14275,-0.62067 -0.48083,-1.17924 -0.68807,-1.78146c-0.34755,-1.00992 -0.53801,-2.06628 -0.86235,-3.08388c-0.88073,-2.76317 -1.19972,-6.89956 -2.4728,-9.39522c-0.46102,-0.90377 -0.87009,-2.2425 -1.87278,-2.39732c-0.84829,-0.13098 -1.18089,1.16975 -1.7116,1.84435c-2.3122,2.93905 -4.02257,6.31617 -6.43722,9.22005c-2.96731,2.2591 -5.22643,5.01147 -7.97351,7.50884c-1.43563,1.30514 -3.14408,1.84321 -4.57596,3.07799c-2.68301,2.31371 -5.19159,5.35144 -7.82518,7.82892c-1.14955,1.08139 -4.30235,3.26318 -5.31814,5.0849c-0.5722,-0.99646 -1.29685,-1.51923 -1.91951,-3.16992c-0.86754,-2.29985 -0.41898,-5.12883 -1.68364,-7.37852c-0.48966,-0.87106 -0.87283,-2.17643 -1.85595,-2.35535c-1.32855,-0.24177 -2.98208,3.9236 -3.38841,4.62432c-2.29119,3.95126 -4.77527,7.38591 -6.38432,11.80942c-1.13692,1.98552 -2.59194,4.03179 -3.60187,6.02376c-0.45654,0.90044 -0.34656,2.0266 -0.83037,2.91269c-1.19704,2.19239 -3.32718,3.11811 -4.98786,4.79662c-1.90521,1.92566 -3.58773,4.48852 -5.31661,6.57507c-0.34569,0.41721 -0.18252,-1.07179 -0.34435,-1.58888c-0.20563,-0.65704 -0.39222,-1.32184 -0.63788,-1.96498c-0.63021,-1.64979 -1.54203,-3.2473 -2.29943,-4.84181c-3.25534,-7.74195 -6.11525,-15.78657 -8.83633,-23.72073c-1.69456,-4.94105 -1.28217,-10.10875 -2.05391,-15.17684c-0.43893,-2.88251 -0.46502,-6.41617 -1.43981,-9.14221c-0.31068,-0.86883 -0.4239,-2.12163 -1.28372,-2.45643c-1.42917,-0.55651 -2.46929,2.50936 -2.7837,3.05863c-1.3743,2.40088 -2.99745,4.58875 -4.24055,7.08668c-0.59294,1.19145 -1.2513,2.36603 -1.63283,3.64101c-0.11411,0.38131 0.20409,1.3157 -0.18454,1.22977c-0.40301,-0.08911 0.03432,-0.8462 -0.10425,-1.235c-0.41426,-1.16223 -1.06466,-2.24882 -1.35986,-3.44684c-0.2615,-1.06125 -0.54054,-2.12351 -0.88459,-3.16093c-1.22274,-3.65778 -1.44934,-7.60251 -2.49083,-11.3241c-2.44316,-8.73034 -3.34138,-18.22589 -4.5256,-27.30004c-1.33348,-4.95432 -0.71949,-9.94242 -0.73307,-14.99747c-0.00326,-1.2148 0.54167,-5.72492 -0.21783,-6.60431c-0.59892,-0.69343 -1.68034,-0.82631 -2.57909,-0.64807c-0.40861,0.08104 -1.69513,3.06047 -1.76023,3.18208c-1.21539,2.27066 -3.63936,4.90889 -4.31988,7.58894c-1.36666,-4.86905 -2.92635,-9.66554 -4.63611,-14.42712c-1.27215,-3.54281 -2.98121,-7.06601 -3.37445,-10.84679c-0.18809,-1.80832 0.27137,-3.52614 -0.1038,-5.36736c-0.96823,-4.75175 -3.5444,-9.66004 -0.77923,-14.28669c9.38572,2.38418 18.89075,-0.3737 28.21564,2.26273c11.54743,3.26448 23.11219,6.5233 34.65963,9.78777c5.92957,1.6763 12.49177,2.824 18.19318,5.13332c4.91411,1.99043 8.65569,5.57041 13.73277,7.00571c3.15597,0.89219 6.47725,1.58818 9.56225,2.70195c3.05287,1.10216 5.41045,3.34256 8.40486,4.42854c3.04252,1.10344 6.29898,1.8145 9.41291,2.69482c0.4205,0.11887 3.00271,0.87093 3.27721,0.84843c0.46984,-0.0385 0.76742,-0.6262 1.23448,-0.69008c1.02984,-0.14085 1.98001,0.63987 2.98023,0.92264c2.23348,0.63141 5.12892,2.03505 7.44797,2.08024c0.99235,0.01935 2.0092,-0.40763 2.97316,-0.17122c7.7351,1.89705 15.4627,3.8531 22.65126,7.25876c0.81464,0.38418 2.95632,0.86757 3.32926,1.45063c0.21386,0.33433 -0.01561,0.87883 0.26252,1.16196c0.61467,0.6257 3.02173,1.01049 3.83369,1.24003z" data-paper-data="{&quot;noHover&quot;:false,&quot;origItem&quot;:[&quot;Path&quot;,{&quot;applyMatrix&quot;:true,&quot;segments&quot;:[[[230.5,222],[0,0],[-0.84379,0]],[[226.47427,221.85065],[0.76171,0.43489],[-0.34467,-0.19679]],[[225.9059,220.80439],[0.29675,0.26355],[-0.5175,-0.45961]],[[222.30839,220.31519],[0.88843,0.14807],[-7.84393,-1.32165]],[[198.54346,219.49905],[7.95946,-0.27875],[-0.99192,0.03474]],[[195.72975,220.47324],[0.96018,-0.25134],[-2.24388,0.58738]],[[188,220.49999],[2.32101,0],[-1.03942,0]],[[184.88268,220.42387],[0.95268,-0.41569],[-0.43206,0.18853]],[[183.88268,221.42387],[0.44164,-0.16486],[-0.25802,0.09632]],[[180.5,221.49999],[0.43698,0],[-3.23597,0]],[[170.71484,221.47032],[3.22796,0.23413],[-3.1769,-0.23043]],[[161.42911,219.49748],[3.23757,0.23009],[-3.27164,-0.23251]],[[151.5,219.5],[3.27966,0],[-5.27607,0]],[[136.39088,216.49403],[5.27026,0.57853],[-6.11461,-0.67121]],[[117.5,216.5],[6.16196,0],[-12,0]],[[81.5,216.5],[12,0],[-9.69043,-0.00025]],[[53.73979,221.99005],[9.68034,-0.25903],[-1.40225,5.20439]],[[58.37844,235.52215],[-2.22438,-4.30915],[0.86191,1.66971]],[[59.93936,240.65707],[-0.67293,-1.68895],[1.40693,3.53122]],[[66.13868,250.17369],[-2.18795,-3.06312],[2.94063,4.11688]],[[74.52655,262.79002],[-2.6397,-4.31363],[-0.07422,-2.7641]],[[76.52447,254.28008],[-0.55184,2.51565],[0.02956,-0.13474]],[[77.35361,250.73697],[-0.37115,0.18914],[0.81637,-0.41602]],[[80.10218,250.70164],[-0.76497,-0.50435],[0.97008,0.6396]],[[82.10983,256.99441],[-0.33361,-1.1681],[1.38824,4.86071]],[[86.89783,271.21766],[-2.63096,-4.40472],[3.60808,8.40977]],[[98.67831,296.23362],[-4.72602,-7.73645],[2.01462,3.29791]],[[104.15116,306.44215],[-2.17169,-3.1872],[0.6133,0.90471]],[[105.8605,309.24034],[-0.54034,-0.95009],[0.60997,1.07253]],[[108.1045,312.18414],[-0.71481,-1.0057],[0.23911,0.33643]],[[108.54003,313.34325],[-0.41205,0.02389],[0.39735,-0.02303]],[[108.30529,312.1725],[-0.00607,0.39797],[0.02029,-1.33069]],[[108.88423,308.22217],[-0.24645,1.30782],[0.51668,-2.74189]],[[111.03349,300.24333],[-0.66933,2.68419],[0.15313,-0.6141]],[[112.97067,296.50043],[-1.52666,-0.14673],[0.91847,0.08828]],[[114.87264,298.51164],[-0.53532,-0.75154],[1.67961,2.35805]],[[118.73796,306.90693],[-1.20654,-2.65439],[2.12137,4.66701]],[[124.82999,320.94225],[-2.97482,-4.29371],[4.77686,6.89468]],[[139.76723,341.35865],[-5.23869,-6.56439],[1.1626,1.32833]],[[143.29399,345.39209],[-1.05525,-1.41612],[0.41136,0.55205]],[[144.44143,347.1094],[-0.37661,-0.57632],[0.29639,0.45357]],[[145.20443,348.54467],[-0.21915,0.49552],[1.09605,-2.47818]],[[148.52908,340.77128],[-1.3095,2.37133],[1.14142,-2.06698]],[[152.0204,334.79894],[-0.55548,2.43535],[0.2245,-0.98428]],[[152.02673,331.77025],[-0.19436,0.99068],[0.42995,-2.19158]],[[153.85105,324.99428],[-0.5539,2.21993],[0.34499,-4.69441]],[[156.77385,311.89567],[-1.12988,4.42554],[0.20038,-0.78483]],[[158.77023,306.52676],[-1.34422,0.12876],[0.99471,-0.09528]],[[161.19502,308.28946],[-0.70816,-0.70501],[1.82896,1.82081]],[[164.82269,314.93153],[-1.46047,-1.97711],[1.04824,1.41905]],[[167.53104,317.46039],[-0.82169,-0.80321],[0.4819,-2.02936]],[[171.25847,311.12558],[-0.81201,1.35333],[1.8603,-3.10049]],[[176.64934,301.47429],[-1.9524,2.95634],[1.04197,-1.57774]],[[180.21199,297.27402],[-1.02644,1.64646],[1.9641,-3.1505]],[[185.83843,287.89236],[-2.24084,2.98113],[1.53361,-3.45124]],[[189.52454,277.28152],[-1.42546,3.45722],[0.32718,-0.79354]],[[190.76884,275.0271],[-0.85193,0.10473],[1.00699,-0.12379]],[[193.22348,276.8268],[-0.6895,-0.74427],[1.90398,2.05521]],[[198.15917,285.20353],[-1.5992,-2.41937],[0.58895,0.89099]],[[199.82775,287.93894],[-0.60918,-0.87729],[0.36326,0.52313]],[[200.97436,289.46729],[-0.30621,-0.55843],[0.08555,0.15602]],[[200.95842,290.00088],[-0.09569,0.15002],[0.93536,-1.4664]],[[203.79998,285.60002],[-1.08249,1.44332],[3.78385,-5.04512]],[[214.17013,269.94203],[-3.52035,5.21054],[3.82127,-5.65593]],[[226.68998,253.91243],[-3.53838,5.92092],[1.36619,-2.28231]],[[230.10032,247.06345],[-1.15945,2.35889],[1.31612,-2.67764]],[[234.51441,238.83077],[-0.54699,3.01851],[0.53225,-2.93718]],[[236.52674,229.77027],[-0.74402,2.96312],[0.65856,-2.62281]],[[238.4996,222.07987],[-0.02573,2.63058],[-2.58836,0.35693]],[[230.49999,222.00003],[2.39907,0],[0,0]]],&quot;closed&quot;:true,&quot;fillColor&quot;:[0,0,0],&quot;strokeWidth&quot;:0.5}]}" fill="#4c2915" stroke="#000000" stroke-width="2"/><path d="M640.01098,355.08178c8.17833,5.20929 18.28572,7.34179 27.61704,9.92859l-0.0412,0.15219c0.20424,5.73387 -1.81208,11.671 -7.08324,14.58718c-0.55535,0.71115 -2.04161,1.77737 -3.03284,2.79509c0.23294,-0.79227 0.26795,-1.37205 0.14137,-2.43153c-0.27683,-2.31683 -0.51907,-4.18185 -0.51361,-6.59359c0.00347,-1.52948 0.48546,-4.96036 -2.1399,-4.90194c-0.86245,0.01919 -1.37289,0.93303 -2.09507,1.40488c-2.48983,1.62679 -4.89553,3.6417 -6.76003,5.96191c-1.90876,-2.06544 -3.13241,-6.04445 -3.99684,-8.72007c-0.24664,-0.7634 -0.90517,-2.99844 -1.43526,-3.26362c-2.0719,-1.03645 -2.87656,1.1039 -4.01039,2.07311c-2.95836,2.52884 -5.27341,5.71073 -7.43156,9.03086c-1.29823,-1.81539 -2.17437,-3.77538 -2.47414,-6.02143c-0.18146,-1.35951 0.23703,-2.82289 -0.25221,-4.10422c-0.29904,-0.78321 -0.63821,-1.78623 -1.46162,-1.94379c-1.01701,-0.19458 -3.75144,3.71245 -4.30731,4.39651c-0.36413,0.44811 -1.10116,1.96423 -1.0705,1.38765c0.17129,-3.22167 0.75509,-9.98074 -3.33856,-10.23832c-3.2145,1.03982 -6.38834,4.84846 -9.96515,4.71011c-0.8975,-0.03471 -1.00071,-2.17177 -1.18314,-2.68605c-0.42982,-1.21165 -1.18171,-5.99287 -2.24983,-6.59058c-0.6221,-0.34813 -2.61035,0.74275 -3.38756,1.10938c-2.73646,1.29092 -5.95434,2.62615 -8.98489,2.75957c-3.66563,1.04432 -7.65121,2.56363 -11.38173,1.50901c-0.46304,-0.1309 0.53117,-0.88489 0.59655,-1.36162c0.0667,-0.48629 0.02124,-0.97957 0.04996,-1.46957c0.12819,-2.18696 1.00233,-5.89129 -1.42395,-7.39309c-0.6281,-0.38879 -3.1524,-0.04405 -3.77563,0.0034c-2.86899,0.2184 -5.74371,1.30374 -8.16322,2.89505c0.5315,-1.65835 -0.78956,-3.61082 -1.52571,-4.98831c-1.07645,-2.01432 -1.7409,-3.87147 -2.30499,-6.014c-0.20087,-0.76296 -0.90411,-3.00677 -2.03491,-3.17164c-0.85163,-0.12418 -1.72494,0.33189 -2.44569,0.80223c-0.42957,0.28035 -0.47625,0.90881 -0.79925,1.3073c-1.22534,1.51176 -3.10802,2.77671 -4.55217,4.10083c-1.35445,1.24188 -1.74491,1.37721 -2.37623,3.0595c-0.09593,0.2556 0.02659,1.0174 -0.17411,0.83233c-0.79286,-0.7311 -0.89988,-1.98353 -1.52709,-2.86087c-2.55742,-3.27589 -5.66912,-6.88132 -7.46644,-10.65495c-0.58544,-1.22918 -0.30535,-2.58917 -1.80842,-3.26395c-1.87274,-0.84074 -3.62813,1.21624 -4.76586,2.23858c-0.43516,0.39103 -2.75836,2.31289 -2.91395,2.54371c-1.63669,2.42796 -0.76148,5.93656 -2.39079,8.45665c-3.41374,-3.11875 -4.40385,-6.26433 -5.60901,-10.58803c-0.54429,-1.95268 0.10755,-4.21313 -1.43579,-5.9701c-0.76654,-0.87266 -1.72039,-0.47579 -2.6313,-0.5135c-3.23811,-0.13398 -5.85024,0.64466 -8.80475,1.93467c-0.57969,0.25315 -4.22762,2.29652 -4.78526,2.0599c-0.7579,-0.32159 -0.09273,-2.53674 -0.0938,-2.94002c-0.00626,-2.35706 -0.21975,-8.25258 -3.84023,-7.65665c-1.95738,0.32217 -1.04364,1.34951 -1.94237,2.33608c-2.77427,3.04542 -5.55468,6.20306 -8.55005,9.03336c-0.44281,0.64466 -1.21709,1.81652 -1.72337,2.29332c-0.67629,0.63689 -1.42748,1.24315 -2.2911,1.58544c-0.98554,0.39061 -1.40295,-1.70565 -1.85146,-2.66623c-1.4082,-3.01597 -2.16576,-5.80658 -3.00503,-8.97401c-0.21157,-0.79847 -0.20052,-1.75953 -0.77221,-2.35577c-1.27944,-1.33438 -2.64936,-0.53282 -3.7529,0.27225c-2.65097,1.93398 -5.43083,3.59654 -8.7659,4.43625c-0.07384,-0.00282 -1.28758,-0.0657 -2.00084,-0.08708c0.62905,-0.42648 1.23502,-1.0754 1.30627,-1.1355c1.89853,-1.60174 4.68515,-4.07531 5.57851,-6.47249c0.51261,-1.3755 -0.53315,-2.85541 -0.80467,-4.09308c-0.81475,-3.71391 -1.64671,-6.83922 -0.60746,-10.51535c0,0 0.06634,-0.23454 0.01781,-0.50463c1.39439,-0.27308 2.06406,0.05326 3.46213,0.44849c3.09962,0.87627 5.68028,2.27479 8.63092,3.47546c3.32874,1.35452 6.84612,1.76059 10.32359,2.22008c3.03876,0.40152 6.23405,1.76902 9.18297,2.60268c4.23901,1.19838 7.83552,2.74689 11.82399,4.37556c4.84639,1.97901 10.45022,2.95532 15.49209,4.38067c12.00717,3.39445 24.19246,7.72981 36.5316,9.59737c9.55003,2.7155 19.82133,4.68845 29.08302,8.2465c2.14662,0.82466 4.1377,1.86358 6.35906,2.56206c1.22878,0.38026 2.33383,1.08499 3.50601,1.61459c6.12132,2.76564 13.33575,3.17114 19.59998,5.64031c2.36123,0.93072 4.30833,2.39988 6.53302,3.48046c2.13172,1.03543 4.35576,1.28461 6.47653,2.50445z" data-paper-data="{&quot;noHover&quot;:false,&quot;origItem&quot;:[&quot;Path&quot;,{&quot;applyMatrix&quot;:true,&quot;segments&quot;:[[[437.13664,377.59516],[0,0],[-4.74524,-1.19378]],[[423.30982,376.30124],[4.666,0.83294],[-4.8695,-0.86926]],[[408.84368,373.16174],[5.05074,0.50654],[-13.39938,-1.34384]],[[368.05594,372.98066],[13.28566,1.99218],[-2.5441,-0.38148]],[[360.43142,371.78532],[2.57178,0.06328],[-4.6552,-0.13568]],[[346.80294,370.3236],[4.58,0.4192],[-19.76064,-1.80864]],[[286.45762,370.32946],[19.85718,0.0302],[-24.76366,3.11922]],[[211.00002,371.66666],[24.95552,0],[-10.47894,0]],[[178.80294,371.65692],[10.40396,1.17192],[-8.5622,-0.96446]],[[153.66668,369.66666],[8.8103,0],[-6.129,0]],[[134.57772,369.65168],[6.06678,-0.88058],[-6.94266,1.00772]],[[113.50172,370.99318],[7.14336,0.79578],[-6.332,-0.70538]],[[95.00002,369],[6.4422,0],[-2.90572,0]],[[88.09302,370.01958],[2.53502,-1.28422],[0.24034,0.4934]],[[88.33336,371],[0,0],[0,7.6404]],[[95.22438,390.8975],[-3.5887,-6.7044],[1.19594,2.23426]],[[99.00002,398.33334],[0.23818,-2.92614],[-0.41508,5.09962]],[[91.78494,413.81764],[2.78238,-4.1156],[-0.10442,0.15444]],[[89.88862,416.71238],[0.97862,-1.16304],[1.38436,-0.34694]],[[93.5877,415.81088],[-0.14364,0.03474],[5.9617,-3.43062]],[[108.04422,402.49726],[-4.04976,5.16442],[1.68582,-2.14984]],[[115.31876,399.92628],[-3.18838,-1.872],[1.42466,0.83646]],[[118.08658,404.0376],[-0.84162,-1.42162],[3.33858,5.6393]],[[128.75168,419.66408],[-4.3511,-5.03828],[1.38582,1.60468]],[[133.568,423.81892],[-1.68422,1.28798],[1.47586,-1.12864]],[[137.11442,419.5188],[-0.95504,1.5937],[0.71496,-1.19308]],[[139.183,414.1643],[-0.50148,1.48162],[4.2249,-7.07684]],[[150.72272,392.11254],[-3.68234,7.37056],[1.1929,-2.38772]],[[153.38964,386.57],[-3.59184,1.68502],[6.64366,-3.11672]],[[164.94652,399.20718],[-1.29448,-4.53294],[0.22148,0.77556]],[[166.5269,404.82308],[-1.63362,-0.20656],[1.20196,0.152]],[[174.61554,398.25],[-0.97792,0.80262],[4.9843,-4.0902]],[[190.5085,389.72802],[-6.30488,1.50392],[1.77362,-0.42306]],[[196.0515,389.2987],[-1.95006,-1.26242],[3.92618,2.5417]],[[202.0632,399.99614],[-2.10994,-3.46194],[4.67186,7.66554]],[[218.61526,417.2987],[-8.26684,-4.14492],[1.7646,-5.73656]],[[218.4192,399.75376],[-1.82892,5.56326],[0.17388,-0.5289]],[[222.64336,393.26382],[-0.62474,0.98934],[1.63342,-2.58658]],[[230.59884,386.35102],[-4.06164,-0.59914],[3.25988,0.48086]],[[236.05344,391.67342],[-1.7955,-2.04712],[5.51222,6.28474]],[[256.21602,408.07876],[-6.7043,-4.91326],[1.68446,1.34726]],[[260.70548,412.73892],[-1.92368,-0.97568],[0.48696,0.24698]],[[260.4072,411.12828],[-0.04554,0.5441],[0.29974,-3.58116]],[[263.31002,403.93048],[-1.93104,3.12702],[2.05894,-3.33412]],[[269.83768,393.5242],[-1.53574,3.57618],[0.40482,-0.94268]],[[270.6672,390.56034],[-0.67422,0.77326],[1.13122,-1.29734]],[[274.94454,387.6674],[-1.70658,0.22436],[2.266,-0.29792]],[[280.7716,392.73842],[-0.8017,-1.35908],[2.2513,3.81654]],[[288.44134,402.9467],[-3.16766,-3.29104],[2.16622,2.25058]],[[294.02726,411.6994],[0.12064,-3.48078],[3.79072,-4.379]],[[308.07572,401.7534],[-5.40276,1.98128],[1.17364,-0.4304]],[[315.5339,399.7392],[-1.42036,-0.4065],[5.48666,1.57026]],[[322.28476,413.22836],[-0.94318,-4.27872],[0.21132,0.95866]],[[322.98506,416.08894],[-0.13622,-0.9722],[0.13354,0.95308]],[[322.41426,418.9191],[-0.96238,0],[7.75346,0]],[[343.48118,409.8573],[-6.48658,4.00426],[5.7599,-1.90564]],[[359.26862,399.67854],[-4.56416,3.97332],[1.2963,-1.12848]],[[365.3845,395.70396],[-1.3867,-0.33152],[2.38086,0.56918]],[[373.29938,407.17818],[-1.48644,-2.09806],[0.6309,0.89048]],[[376.8403,411.67304],[-1.74618,0.4215],[6.95912,-1.6798]],[[393.45468,397.20336],[-5.6208,3.75014],[8.01866,-1.73154]],[[405.64912,415.10824],[-1.42318,-6.29352],[0.2547,1.12636]],[[406.7566,411.8256],[-0.457,1.06054],[0.69764,-1.61896]],[[412.65346,401.03024],[-2.06318,0.17886],[1.67046,-0.1448]],[[416.7238,403.98572],[-1.00166,-1.34464],[1.63872,2.19984]],[[419.44168,411.75332],[-1.0889,-2.51774],[1.79896,4.1596]],[[427.28194,421.96534],[-3.48626,-2.7875],[2.34708,-7.56404]],[[436.6693,400.55724],[-4.31768,6.47652],[1.6548,-2.4822]],[[443.45958,394.3868],[-4.55142,-0.86746],[1.16448,0.22194]],[[447.9975,399.89056],[-0.89002,-1.33504],[3.1194,4.67912]],[[460.2347,414.48554],[-4.79732,-2.93658],[2.326,-5.47984]],[[470.00056,399.3425],[-3.90674,4.48554],[1.13316,-1.30104]],[[473.46828,395.49984],[-1.6494,0.50618],[5.0209,-1.54084]],[[480.25364,403.77412],[-0.82548,-2.94548],[1.30166,4.64454]],[[484.8291,416.19086],[-1.79332,-4.3083],[0.82006,1.97014]],[[485.68128,420.92466],[0.01724,-1.65152],[1.35398,-2.49798]],[[489.99706,413.89898],[-0.6819,1.67082],[8.55812,-8.4803]],[[495.69256,381.987],[3.51276,10.92412],[0,0]],[[495.68906,381.67184],[0,0],[-19.36622,0.0985]],[[437.13672,377.59512],[18.57404,5.57598],[0,0]]],&quot;closed&quot;:true,&quot;fillColor&quot;:[0,0,0,1]}]}" fill="#1f4d15" stroke="#000000" stroke-width="2"/></g></g></svg>