<svg version="1.1" xmlns="http://www.w3.org/2000/svg" xmlns:xlink="http://www.w3.org/1999/xlink" width="748.11083" height="450.92173" viewBox="0,0,748.11083,450.92173"><defs><linearGradient x1="59.20833" y1="253.06252" x2="59.20833" y2="369.06251" gradientUnits="userSpaceOnUse" id="color-1"><stop offset="0" stop-color="#866f28"/><stop offset="1" stop-color="#473911"/></linearGradient><linearGradient x1="317.32954" y1="329.78011" x2="339.92047" y2="402.34491" gradientUnits="userSpaceOnUse" id="color-2"><stop offset="0" stop-color="#866f28"/><stop offset="1" stop-color="#473911"/></linearGradient><linearGradient x1="548.625" y1="-17.93749" x2="548.625" y2="45.06251" gradientUnits="userSpaceOnUse" id="color-3"><stop offset="0" stop-color="#866f28"/><stop offset="1" stop-color="#473911"/></linearGradient><linearGradient x1="95.625" y1="-17.93749" x2="95.625" y2="45.06251" gradientUnits="userSpaceOnUse" id="color-4"><stop offset="0" stop-color="#866f28"/><stop offset="1" stop-color="#473911"/></linearGradient><linearGradient x1="449.70834" y1="313.89734" x2="652.70834" y2="313.89734" gradientUnits="userSpaceOnUse" id="color-5"><stop offset="0" stop-color="#866f28"/><stop offset="1" stop-color="#473911"/></linearGradient></defs><g transform="translate(52.70833,18.93749)"><g data-paper-data="{&quot;isPaintingLayer&quot;:true}" fill-rule="nonzero" stroke="#000000" stroke-width="2" stroke-linecap="butt" stroke-linejoin="miter" stroke-miterlimit="10" stroke-dasharray="" stroke-dashoffset="0" style="mix-blend-mode: normal"><path d="M-51.70833,369.06251v-116h221.83333v116z" fill="url(#color-1)"/><path d="M248.73707,430.73219l-22.59092,-72.5648l182.3668,-56.77457l5.05844,1.45289l-3.44443,6.53141l4.48999,-0.14319c0,0 -5.50553,12.53151 -1.9311,10.62204c1.10932,-0.5926 6.31717,-2.92542 6.31717,-2.92542l-3.37662,10.32862l5.35536,-0.39776c0,0 -10.9688,9.13478 -10.27153,12.37905c0.39359,1.83129 13.50924,-2.72899 13.50924,-2.72899l-9.78363,13.33582l10.28193,0.30543l-6.84669,9.0267l13.23279,14.7782z" fill="url(#color-2)"/><path d="M418.125,45.06251v-63h261v63l15.1677,146.80401l-130.08436,-1.30401l-1.5,-145.5z" fill="url(#color-3)"/><path d="M-34.875,45.06251v-63h261v63z" fill="url(#color-4)"/><path d="M449.70834,401.39735v-175h203v175z" fill="url(#color-5)"/></g></g></svg>