<svg version="1.1" xmlns="http://www.w3.org/2000/svg" xmlns:xlink="http://www.w3.org/1999/xlink" width="504.75177" height="241.31157" viewBox="0,0,504.75177,241.31157"><g transform="translate(-42.1392,-143.28307)"><g data-paper-data="{&quot;isPaintingLayer&quot;:true}" fill-rule="nonzero" stroke="#000000" stroke-width="2" stroke-linecap="butt" stroke-linejoin="miter" stroke-miterlimit="10" stroke-dasharray="" stroke-dashoffset="0" style="mix-blend-mode: normal"><path d="M230.54066,256.97094c2.39907,0 5.41245,0.43853 8.00081,0.0816c-0.02573,2.63058 -1.31296,5.06977 -1.97152,7.69258c-0.74402,2.96312 -1.47845,6.12637 -2.0107,9.06355c-0.54699,3.01851 -3.09673,5.55775 -4.41285,8.23539c-1.15945,2.35889 -2.0431,4.56939 -3.40929,6.8517c-3.53838,5.92092 -8.69654,10.38132 -12.51781,16.03725c-3.52035,5.21054 -6.58556,10.62461 -10.36941,15.66973c-1.08249,1.44332 -1.90659,2.93854 -2.84195,4.40494c-0.09569,0.15002 0.00236,-0.39075 -0.08319,-0.54677c-0.30621,-0.55843 -0.78349,-1.00396 -1.14675,-1.52709c-0.60918,-0.87729 -1.07982,-1.84199 -1.66877,-2.73298c-1.5992,-2.41937 -3.03143,-6.31298 -4.93541,-8.36819c-0.6895,-0.74427 -1.44733,-1.92123 -2.45432,-1.79744c-0.85193,0.10473 -0.81813,1.44688 -1.14531,2.24042c-1.42546,3.45722 -2.15262,7.17226 -3.68623,10.6235c-2.24084,2.98113 -3.666,6.24426 -5.6301,9.39476c-1.02644,1.64646 -2.52408,2.62901 -3.56605,4.20675c-1.9524,2.95634 -3.53999,6.56194 -5.40029,9.66243c-0.81201,1.35333 -3.25238,4.31052 -3.73428,6.33988c-0.82169,-0.80321 -1.66123,-1.10914 -2.70947,-2.52819c-1.46047,-1.97711 -1.79843,-4.82142 -3.62739,-6.64223c-0.70816,-0.70501 -1.43199,-1.85691 -2.4267,-1.76163c-1.34422,0.12876 -1.80224,4.58687 -2.00262,5.3717c-1.12988,4.42554 -2.58592,8.40642 -2.93091,13.10083c-0.5539,2.21993 -1.39738,4.58485 -1.82733,6.77643c-0.19436,0.99068 0.21782,2.04445 -0.00668,3.02873c-0.55548,2.43535 -2.35345,3.90564 -3.49487,5.97262c-1.3095,2.37133 -2.23137,5.29525 -3.32742,7.77343c-0.21915,0.49552 -0.46721,-0.98171 -0.7636,-1.43528c-0.37661,-0.57632 -0.73702,-1.16529 -1.14838,-1.71734c-1.05525,-1.41612 -2.36727,-2.70534 -3.52987,-4.03367c-5.23869,-6.56439 -10.1792,-13.52761 -14.95606,-20.42229c-2.97482,-4.29371 -3.98379,-9.37871 -6.10516,-14.04572c-1.20654,-2.65439 -2.19294,-6.04769 -3.87255,-8.40574c-0.53532,-0.75154 -0.98508,-1.92629 -1.90355,-2.01457c-1.52666,-0.14673 -1.69352,3.08646 -1.84665,3.70056c-0.66933,2.68419 -1.63608,5.23112 -2.15276,7.97301c-0.24645,1.30782 -0.56046,2.6172 -0.58075,3.94789c-0.00607,0.39797 0.55431,1.21056 0.15696,1.23359c-0.41205,0.02389 -0.19718,-0.82363 -0.43629,-1.16006c-0.71481,-1.0057 -1.63628,-1.87438 -2.24625,-2.94691c-0.54034,-0.95009 -1.09783,-1.89637 -1.71113,-2.80108c-2.17169,-3.1872 -3.46287,-6.92151 -5.47749,-10.21942c-4.72602,-7.73645 -8.17353,-16.62953 -11.78161,-25.0393c-2.63096,-4.40472 -3.39709,-9.37172 -4.78533,-14.23243c-0.33361,-1.1681 -1.03617,-5.65637 -2.00625,-6.29597c-0.76497,-0.50435 -1.84176,-0.33803 -2.65813,0.07799c-0.37115,0.18914 -0.79863,3.40619 -0.82819,3.54093c-0.55184,2.51565 -2.16669,5.71381 -2.09247,8.47791c-2.6397,-4.31363 -5.44539,-8.50493 -8.38602,-12.62181c-2.18795,-3.06312 -4.79101,-5.98851 -6.19794,-9.51973c-0.67293,-1.68895 -0.69811,-3.46698 -1.56002,-5.13669c-2.22438,-4.30915 -6.03864,-8.33151 -4.63639,-13.5359c9.68034,-0.25903 18.07664,-5.49864 27.76707,-5.49839c12,0 24.01514,-0.01016 36.01514,-0.01016c6.16196,0 12.7889,-0.68076 18.90351,-0.00955c5.27026,0.57853 9.84462,3.00564 15.12069,3.00564c3.27966,0 6.66502,-0.23378 9.93666,-0.00127c3.23757,0.23009 6.11571,1.74464 9.29261,1.97507c3.22796,0.23413 6.55504,0.0325 9.79101,0.0325c0.43698,0 3.1264,0.02123 3.38442,-0.07509c0.44164,-0.16486 0.56813,-0.81135 1.00019,-0.99988c0.95268,-0.41569 2.0794,0.0771 3.11882,0.0771c2.32101,0 5.4891,0.56302 7.73298,-0.02436c0.96018,-0.25134 1.82254,-0.93884 2.81446,-0.97358c7.95946,-0.27875 15.92773,-0.49869 23.77166,0.82296c0.88843,0.14807 3.08083,0.03062 3.59833,0.49023c0.29675,0.26355 0.22405,0.84993 0.56872,1.04672c0.76171,0.43489 3.18266,0.15034 4.02645,0.15034z" data-paper-data="{&quot;noHover&quot;:false,&quot;origItem&quot;:[&quot;Path&quot;,{&quot;applyMatrix&quot;:true,&quot;segments&quot;:[[[230.5,222],[0,0],[-0.84379,0]],[[226.47427,221.85065],[0.76171,0.43489],[-0.34467,-0.19679]],[[225.9059,220.80439],[0.29675,0.26355],[-0.5175,-0.45961]],[[222.30839,220.31519],[0.88843,0.14807],[-7.84393,-1.32165]],[[198.54346,219.49905],[7.95946,-0.27875],[-0.99192,0.03474]],[[195.72975,220.47324],[0.96018,-0.25134],[-2.24388,0.58738]],[[188,220.49999],[2.32101,0],[-1.03942,0]],[[184.88268,220.42387],[0.95268,-0.41569],[-0.43206,0.18853]],[[183.88268,221.42387],[0.44164,-0.16486],[-0.25802,0.09632]],[[180.5,221.49999],[0.43698,0],[-3.23597,0]],[[170.71484,221.47032],[3.22796,0.23413],[-3.1769,-0.23043]],[[161.42911,219.49748],[3.23757,0.23009],[-3.27164,-0.23251]],[[151.5,219.5],[3.27966,0],[-5.27607,0]],[[136.39088,216.49403],[5.27026,0.57853],[-6.11461,-0.67121]],[[117.5,216.5],[6.16196,0],[-12,0]],[[81.5,216.5],[12,0],[-9.69043,-0.00025]],[[53.73979,221.99005],[9.68034,-0.25903],[-1.40225,5.20439]],[[58.37844,235.52215],[-2.22438,-4.30915],[0.86191,1.66971]],[[59.93936,240.65707],[-0.67293,-1.68895],[1.40693,3.53122]],[[66.13868,250.17369],[-2.18795,-3.06312],[2.94063,4.11688]],[[74.52655,262.79002],[-2.6397,-4.31363],[-0.07422,-2.7641]],[[76.52447,254.28008],[-0.55184,2.51565],[0.02956,-0.13474]],[[77.35361,250.73697],[-0.37115,0.18914],[0.81637,-0.41602]],[[80.10218,250.70164],[-0.76497,-0.50435],[0.97008,0.6396]],[[82.10983,256.99441],[-0.33361,-1.1681],[1.38824,4.86071]],[[86.89783,271.21766],[-2.63096,-4.40472],[3.60808,8.40977]],[[98.67831,296.23362],[-4.72602,-7.73645],[2.01462,3.29791]],[[104.15116,306.44215],[-2.17169,-3.1872],[0.6133,0.90471]],[[105.8605,309.24034],[-0.54034,-0.95009],[0.60997,1.07253]],[[108.1045,312.18414],[-0.71481,-1.0057],[0.23911,0.33643]],[[108.54003,313.34325],[-0.41205,0.02389],[0.39735,-0.02303]],[[108.30529,312.1725],[-0.00607,0.39797],[0.02029,-1.33069]],[[108.88423,308.22217],[-0.24645,1.30782],[0.51668,-2.74189]],[[111.03349,300.24333],[-0.66933,2.68419],[0.15313,-0.6141]],[[112.97067,296.50043],[-1.52666,-0.14673],[0.91847,0.08828]],[[114.87264,298.51164],[-0.53532,-0.75154],[1.67961,2.35805]],[[118.73796,306.90693],[-1.20654,-2.65439],[2.12137,4.66701]],[[124.82999,320.94225],[-2.97482,-4.29371],[4.77686,6.89468]],[[139.76723,341.35865],[-5.23869,-6.56439],[1.1626,1.32833]],[[143.29399,345.39209],[-1.05525,-1.41612],[0.41136,0.55205]],[[144.44143,347.1094],[-0.37661,-0.57632],[0.29639,0.45357]],[[145.20443,348.54467],[-0.21915,0.49552],[1.09605,-2.47818]],[[148.52908,340.77128],[-1.3095,2.37133],[1.14142,-2.06698]],[[152.0204,334.79894],[-0.55548,2.43535],[0.2245,-0.98428]],[[152.02673,331.77025],[-0.19436,0.99068],[0.42995,-2.19158]],[[153.85105,324.99428],[-0.5539,2.21993],[0.34499,-4.69441]],[[156.77385,311.89567],[-1.12988,4.42554],[0.20038,-0.78483]],[[158.77023,306.52676],[-1.34422,0.12876],[0.99471,-0.09528]],[[161.19502,308.28946],[-0.70816,-0.70501],[1.82896,1.82081]],[[164.82269,314.93153],[-1.46047,-1.97711],[1.04824,1.41905]],[[167.53104,317.46039],[-0.82169,-0.80321],[0.4819,-2.02936]],[[171.25847,311.12558],[-0.81201,1.35333],[1.8603,-3.10049]],[[176.64934,301.47429],[-1.9524,2.95634],[1.04197,-1.57774]],[[180.21199,297.27402],[-1.02644,1.64646],[1.9641,-3.1505]],[[185.83843,287.89236],[-2.24084,2.98113],[1.53361,-3.45124]],[[189.52454,277.28152],[-1.42546,3.45722],[0.32718,-0.79354]],[[190.76884,275.0271],[-0.85193,0.10473],[1.00699,-0.12379]],[[193.22348,276.8268],[-0.6895,-0.74427],[1.90398,2.05521]],[[198.15917,285.20353],[-1.5992,-2.41937],[0.58895,0.89099]],[[199.82775,287.93894],[-0.60918,-0.87729],[0.36326,0.52313]],[[200.97436,289.46729],[-0.30621,-0.55843],[0.08555,0.15602]],[[200.95842,290.00088],[-0.09569,0.15002],[0.93536,-1.4664]],[[203.79998,285.60002],[-1.08249,1.44332],[3.78385,-5.04512]],[[214.17013,269.94203],[-3.52035,5.21054],[3.82127,-5.65593]],[[226.68998,253.91243],[-3.53838,5.92092],[1.36619,-2.28231]],[[230.10032,247.06345],[-1.15945,2.35889],[1.31612,-2.67764]],[[234.51441,238.83077],[-0.54699,3.01851],[0.53225,-2.93718]],[[236.52674,229.77027],[-0.74402,2.96312],[0.65856,-2.62281]],[[238.4996,222.07987],[-0.02573,2.63058],[-2.58836,0.35693]],[[230.49999,222.00003],[2.39907,0],[0,0]]],&quot;closed&quot;:true,&quot;fillColor&quot;:[0,0,0],&quot;strokeWidth&quot;:0.5}]}" fill="#4c2915"/><path d="M218.61794,248.79106c9.28702,2.78799 19.59335,2.09046 29.27646,2.04121l0.00176,0.15766c1.75638,5.46206 1.43124,11.7238 -2.84781,15.96396c-0.34095,0.83541 -1.4811,2.26574 -2.15809,3.51473c0.00862,-0.82576 -0.1154,-1.3932 -0.52543,-2.37828c-0.89666,-2.15415 -1.63712,-3.88293 -2.28795,-6.2052c-0.41274,-1.47274 -0.88227,-4.90535 -3.39272,-4.13493c-0.8247,0.25309 -1.06729,1.27132 -1.63387,1.92184c-1.95337,2.24277 -3.72021,4.83614 -4.88321,7.57606c-2.39866,-1.46829 -4.65861,-4.96435 -6.21831,-7.30391c-0.44501,-0.66752 -1.68672,-2.63912 -2.26896,-2.75009c-2.27571,-0.43373 -2.46777,1.84481 -3.29517,3.08591c-2.15884,3.23826 -3.52099,6.92993 -4.69453,10.71195c-1.74313,-1.39375 -3.11942,-3.04148 -4.0189,-5.12128c-0.54445,-1.25887 -0.53985,-2.78091 -1.35921,-3.88083c-0.50083,-0.67232 -1.10007,-1.54525 -1.93529,-1.47286c-1.03159,0.08943 -2.60002,4.59298 -2.94884,5.40246c-0.2285,0.53027 -0.52528,2.18971 -0.65263,1.62653c-0.71159,-3.14676 -1.98855,-9.80974 -5.99788,-8.94397c-2.8104,1.87507 -4.82843,6.40348 -8.30799,7.24339c-0.87309,0.21075 -1.55378,-1.81763 -1.86923,-2.26288c-0.74322,-1.04903 -2.76744,-5.44538 -3.95787,-5.72998c-0.69335,-0.16576 -2.30985,1.42485 -2.958,1.98909c-2.28208,1.98666 -5.01537,4.14693 -7.89532,5.09975c-3.24329,2.00213 -6.66524,4.54838 -10.54197,4.54838c-0.48119,0 0.27041,-0.99601 0.20364,-1.47255c-0.06811,-0.4861 -0.24604,-0.94841 -0.3517,-1.42774c-0.47159,-2.13936 -0.63814,-5.94177 -3.38146,-6.7269c-0.71018,-0.20325 -3.04549,0.81519 -3.63231,1.03039c-2.70138,0.99064 -5.17242,2.81709 -7.06778,5.00659c0.06032,-1.74039 -1.74207,-3.25984 -2.82519,-4.38513c-1.58383,-1.64552 -2.72844,-3.25187 -3.8541,-5.16014c-0.40085,-0.67954 -1.68797,-2.64741 -2.82098,-2.49845c-0.85329,0.11218 -1.5696,0.78863 -2.13521,1.4373c-0.33711,0.38663 -0.21106,1.00409 -0.41347,1.47542c-0.76787,1.78809 -2.23543,3.51749 -3.2649,5.18455c-0.96552,1.56351 -1.30444,1.79996 -1.45431,3.59054c-0.02277,0.27205 0.30236,0.9718 0.05888,0.84831c-0.96184,-0.48784 -1.40554,-1.66392 -2.24777,-2.33755c-3.35215,-2.45663 -7.32731,-5.07957 -10.08342,-8.22194c-0.89775,-1.02356 -0.99819,-2.40846 -2.62814,-2.64889c-2.03082,-0.29957 -3.16043,2.15737 -3.97714,3.45066c-0.31237,0.49467 -2.02513,2.97604 -2.11207,3.24049c-0.91446,2.78163 0.88222,5.91982 -0.00008,8.7881c-4.13342,-2.07246 -5.94191,-4.83006 -8.27784,-8.66284c-1.05497,-1.73097 -1.04265,-4.0835 -3.00574,-5.35435c-0.97503,-0.63121 -1.78494,0.01016 -2.67175,0.22169c-3.15244,0.75196 -5.45423,2.21185 -7.94638,4.25695c-0.48896,0.40131 -3.44344,3.35999 -4.04442,3.28399c-0.81681,-0.10328 -0.77933,-2.41585 -0.89007,-2.80363c-0.64724,-2.26647 -2.45649,-7.88156 -5.77832,-6.3232c-1.79592,0.84251 -0.63716,1.58253 -1.23361,2.77638c-1.84117,3.68528 -3.65771,7.48021 -5.77016,11.01863c-0.25074,0.74081 -0.67702,2.07911 -1.0345,2.67565c-0.47752,0.79685 -1.03546,1.5846 -1.77339,2.14892c-0.84211,0.64399 -1.81404,-1.25966 -2.50695,-2.062c-2.17555,-2.51914 -3.6637,-4.99842 -5.33299,-7.81808c-0.42081,-0.71081 -0.67162,-1.63862 -1.38395,-2.05685c-1.59419,-0.936 -2.69439,0.208 -3.5373,1.28292c-2.02488,2.58221 -4.24761,4.9383 -7.22846,6.65361c-0.07182,0.01737 -1.25689,0.28705 -1.94907,0.46051c0.48931,-0.58152 0.89589,-1.37081 0.9481,-1.44804c1.39119,-2.0578 3.39981,-5.19616 3.60735,-7.74597c0.11909,-1.46307 -1.28983,-2.60268 -1.8878,-3.71981c-1.79435,-3.3522 -3.44515,-6.13332 -3.44515,-9.95352c0,0 0.00003,-0.24374 -0.12014,-0.49044c1.26751,-0.64211 2.0007,-0.51026 3.45356,-0.51026c3.2211,0 6.08488,0.64374 9.25088,0.99643c3.57168,0.39789 7.06687,-0.16822 10.5382,-0.67208c3.03339,-0.44029 6.48018,0.00639 9.54468,0.00639c4.40515,0 8.28728,0.51172 12.56838,0.99395c5.20198,0.58596 10.86007,0.00099 16.09954,0.00099c12.47776,0 25.38289,0.85698 37.76472,-0.70263c9.92859,0.0151 20.34923,-0.88056 30.22956,0.02376c2.29,0.2096 4.48862,0.66768 6.81622,0.73552c1.28589,0.03164 2.54097,0.40918 3.81302,0.59992c6.64283,0.99609 13.69548,-0.57631 20.39517,0.09561c2.52537,0.25327 4.79871,1.13733 7.23346,1.57196c2.333,0.41647 4.54095,0.05123 6.91358,0.64812z" data-paper-data="{&quot;noHover&quot;:false,&quot;origItem&quot;:[&quot;Path&quot;,{&quot;applyMatrix&quot;:true,&quot;segments&quot;:[[[437.13664,377.59516],[0,0],[-4.74524,-1.19378]],[[423.30982,376.30124],[4.666,0.83294],[-4.8695,-0.86926]],[[408.84368,373.16174],[5.05074,0.50654],[-13.39938,-1.34384]],[[368.05594,372.98066],[13.28566,1.99218],[-2.5441,-0.38148]],[[360.43142,371.78532],[2.57178,0.06328],[-4.6552,-0.13568]],[[346.80294,370.3236],[4.58,0.4192],[-19.76064,-1.80864]],[[286.45762,370.32946],[19.85718,0.0302],[-24.76366,3.11922]],[[211.00002,371.66666],[24.95552,0],[-10.47894,0]],[[178.80294,371.65692],[10.40396,1.17192],[-8.5622,-0.96446]],[[153.66668,369.66666],[8.8103,0],[-6.129,0]],[[134.57772,369.65168],[6.06678,-0.88058],[-6.94266,1.00772]],[[113.50172,370.99318],[7.14336,0.79578],[-6.332,-0.70538]],[[95.00002,369],[6.4422,0],[-2.90572,0]],[[88.09302,370.01958],[2.53502,-1.28422],[0.24034,0.4934]],[[88.33336,371],[0,0],[0,7.6404]],[[95.22438,390.8975],[-3.5887,-6.7044],[1.19594,2.23426]],[[99.00002,398.33334],[0.23818,-2.92614],[-0.41508,5.09962]],[[91.78494,413.81764],[2.78238,-4.1156],[-0.10442,0.15444]],[[89.88862,416.71238],[0.97862,-1.16304],[1.38436,-0.34694]],[[93.5877,415.81088],[-0.14364,0.03474],[5.9617,-3.43062]],[[108.04422,402.49726],[-4.04976,5.16442],[1.68582,-2.14984]],[[115.31876,399.92628],[-3.18838,-1.872],[1.42466,0.83646]],[[118.08658,404.0376],[-0.84162,-1.42162],[3.33858,5.6393]],[[128.75168,419.66408],[-4.3511,-5.03828],[1.38582,1.60468]],[[133.568,423.81892],[-1.68422,1.28798],[1.47586,-1.12864]],[[137.11442,419.5188],[-0.95504,1.5937],[0.71496,-1.19308]],[[139.183,414.1643],[-0.50148,1.48162],[4.2249,-7.07684]],[[150.72272,392.11254],[-3.68234,7.37056],[1.1929,-2.38772]],[[153.38964,386.57],[-3.59184,1.68502],[6.64366,-3.11672]],[[164.94652,399.20718],[-1.29448,-4.53294],[0.22148,0.77556]],[[166.5269,404.82308],[-1.63362,-0.20656],[1.20196,0.152]],[[174.61554,398.25],[-0.97792,0.80262],[4.9843,-4.0902]],[[190.5085,389.72802],[-6.30488,1.50392],[1.77362,-0.42306]],[[196.0515,389.2987],[-1.95006,-1.26242],[3.92618,2.5417]],[[202.0632,399.99614],[-2.10994,-3.46194],[4.67186,7.66554]],[[218.61526,417.2987],[-8.26684,-4.14492],[1.7646,-5.73656]],[[218.4192,399.75376],[-1.82892,5.56326],[0.17388,-0.5289]],[[222.64336,393.26382],[-0.62474,0.98934],[1.63342,-2.58658]],[[230.59884,386.35102],[-4.06164,-0.59914],[3.25988,0.48086]],[[236.05344,391.67342],[-1.7955,-2.04712],[5.51222,6.28474]],[[256.21602,408.07876],[-6.7043,-4.91326],[1.68446,1.34726]],[[260.70548,412.73892],[-1.92368,-0.97568],[0.48696,0.24698]],[[260.4072,411.12828],[-0.04554,0.5441],[0.29974,-3.58116]],[[263.31002,403.93048],[-1.93104,3.12702],[2.05894,-3.33412]],[[269.83768,393.5242],[-1.53574,3.57618],[0.40482,-0.94268]],[[270.6672,390.56034],[-0.67422,0.77326],[1.13122,-1.29734]],[[274.94454,387.6674],[-1.70658,0.22436],[2.266,-0.29792]],[[280.7716,392.73842],[-0.8017,-1.35908],[2.2513,3.81654]],[[288.44134,402.9467],[-3.16766,-3.29104],[2.16622,2.25058]],[[294.02726,411.6994],[0.12064,-3.48078],[3.79072,-4.379]],[[308.07572,401.7534],[-5.40276,1.98128],[1.17364,-0.4304]],[[315.5339,399.7392],[-1.42036,-0.4065],[5.48666,1.57026]],[[322.28476,413.22836],[-0.94318,-4.27872],[0.21132,0.95866]],[[322.98506,416.08894],[-0.13622,-0.9722],[0.13354,0.95308]],[[322.41426,418.9191],[-0.96238,0],[7.75346,0]],[[343.48118,409.8573],[-6.48658,4.00426],[5.7599,-1.90564]],[[359.26862,399.67854],[-4.56416,3.97332],[1.2963,-1.12848]],[[365.3845,395.70396],[-1.3867,-0.33152],[2.38086,0.56918]],[[373.29938,407.17818],[-1.48644,-2.09806],[0.6309,0.89048]],[[376.8403,411.67304],[-1.74618,0.4215],[6.95912,-1.6798]],[[393.45468,397.20336],[-5.6208,3.75014],[8.01866,-1.73154]],[[405.64912,415.10824],[-1.42318,-6.29352],[0.2547,1.12636]],[[406.7566,411.8256],[-0.457,1.06054],[0.69764,-1.61896]],[[412.65346,401.03024],[-2.06318,0.17886],[1.67046,-0.1448]],[[416.7238,403.98572],[-1.00166,-1.34464],[1.63872,2.19984]],[[419.44168,411.75332],[-1.0889,-2.51774],[1.79896,4.1596]],[[427.28194,421.96534],[-3.48626,-2.7875],[2.34708,-7.56404]],[[436.6693,400.55724],[-4.31768,6.47652],[1.6548,-2.4822]],[[443.45958,394.3868],[-4.55142,-0.86746],[1.16448,0.22194]],[[447.9975,399.89056],[-0.89002,-1.33504],[3.1194,4.67912]],[[460.2347,414.48554],[-4.79732,-2.93658],[2.326,-5.47984]],[[470.00056,399.3425],[-3.90674,4.48554],[1.13316,-1.30104]],[[473.46828,395.49984],[-1.6494,0.50618],[5.0209,-1.54084]],[[480.25364,403.77412],[-0.82548,-2.94548],[1.30166,4.64454]],[[484.8291,416.19086],[-1.79332,-4.3083],[0.82006,1.97014]],[[485.68128,420.92466],[0.01724,-1.65152],[1.35398,-2.49798]],[[489.99706,413.89898],[-0.6819,1.67082],[8.55812,-8.4803]],[[495.69256,381.987],[3.51276,10.92412],[0,0]],[[495.68906,381.67184],[0,0],[-19.36622,0.0985]],[[437.13672,377.59512],[18.57404,5.57598],[0,0]]],&quot;closed&quot;:true,&quot;fillColor&quot;:[0,0,0,1]}]}" fill="#1f4d15"/><path d="M354.86725,295.27881l-22.39796,-37.87257l190.65393,-112.75339l22.39796,37.87257z" fill="#a5a5a5"/><path d="M353.17643,292.91095l-19.44671,-32.8823l190.86911,-112.88066l19.44671,32.8823z" fill="#4543d4"/><path d="M374.65163,283.30387l-21.25262,-35.9359l6.02518,-3.56332l21.25262,35.9359z" fill="#a5a5a5"/><path d="M403.70162,266.1236l-21.25262,-35.9359l6.02518,-3.56332l21.25262,35.9359z" fill="#a5a5a5"/><path d="M432.7516,248.94335l-21.25262,-35.9359l6.02518,-3.56332l21.25262,35.9359z" fill="#a5a5a5"/><path d="M461.80157,231.76309l-21.25262,-35.9359l6.02518,-3.56332l21.25262,35.9359z" fill="#a5a5a5"/><path d="M490.85155,214.58284l-21.25262,-35.9359l6.02518,-3.56332l21.25262,35.9359z" fill="#a5a5a5"/><path d="M519.90153,197.40257l-21.25262,-35.9359l6.02518,-3.56332l21.25262,35.9359z" fill="#a5a5a5"/></g></g></svg>