<svg version="1.1" xmlns="http://www.w3.org/2000/svg" xmlns:xlink="http://www.w3.org/1999/xlink" width="88.11086" height="62.94879" viewBox="0,0,88.11086,62.94879"><defs><radialGradient cx="320" cy="180" r="25" gradientUnits="userSpaceOnUse" id="color-1"><stop offset="0" stop-color="#ff0000"/><stop offset="1" stop-color="#ff0000" stop-opacity="0"/></radialGradient><radialGradient cx="320" cy="180.00001" r="22.3625" gradientUnits="userSpaceOnUse" id="color-2"><stop offset="0" stop-color="#ff0000"/><stop offset="1" stop-color="#ff0000" stop-opacity="0"/></radialGradient></defs><g transform="translate(-279.25039,-146.63936)"><g data-paper-data="{&quot;isPaintingLayer&quot;:true}" fill="url(#color-1)" fill-rule="nonzero" stroke="url(#color-2)" stroke-width="50" stroke-linecap="butt" stroke-linejoin="miter" stroke-miterlimit="10" stroke-dasharray="" stroke-dashoffset="0" style="mix-blend-mode: normal"><path d="M342.36125,179.76356c0.02438,2.30547 -2.44487,4.42233 -6.48549,5.98263c-4.04062,1.55989 -9.62107,2.55065 -15.78734,2.61585c-6.16515,0.06519 -11.76533,-0.80735 -15.83803,-2.28145c-4.0727,-1.47451 -6.58726,-3.53866 -6.61164,-5.84414c-0.02438,-2.30547 2.44597,-4.42234 6.48659,-5.98223c4.04061,-1.5603 9.62106,-2.55106 15.78624,-2.61625c6.16625,-0.0652 11.76643,0.80733 15.83913,2.28184c4.0727,1.4741 6.58616,3.53826 6.61054,5.84374z"/></g></g></svg>