<svg version="1.1" xmlns="http://www.w3.org/2000/svg" xmlns:xlink="http://www.w3.org/1999/xlink" width="46.43851" height="556.91646" viewBox="0,0,46.43851,556.91646"><defs><linearGradient x1="319.99999" y1="-358.78828" x2="319.99999" y2="178.7883" gradientUnits="userSpaceOnUse" id="color-1"><stop offset="0" stop-color="#66ffff" stop-opacity="0"/><stop offset="1" stop-color="#66ffff"/></linearGradient><radialGradient cx="319.99999" cy="-90" r="12.06887" gradientUnits="userSpaceOnUse" id="color-2"><stop offset="0" stop-color="#00ffff" stop-opacity="0"/><stop offset="1" stop-color="#00ffff" stop-opacity="0"/></radialGradient><linearGradient x1="319.76112" y1="163.55819" x2="319.70681" y2="184.05813" gradientUnits="userSpaceOnUse" id="color-3"><stop offset="0" stop-color="#ff6767"/><stop offset="1" stop-color="#ff0000"/></linearGradient></defs><g transform="translate(-296.67981,358.78829)"><g data-paper-data="{&quot;isPaintingLayer&quot;:true}" fill-rule="nonzero" stroke-linecap="butt" stroke-linejoin="miter" stroke-miterlimit="10" stroke-dasharray="" stroke-dashoffset="0" style="mix-blend-mode: normal"><path d="M311.04166,178.78829v-537.57658h17.91667v537.57658z" fill="url(#color-1)" stroke="url(#color-2)" stroke-width="0"/><path d="M298.05014,192.86007l8.42133,-14.18912l6.30627,3.74281l-8.42133,14.18912z" fill="#cccccc" stroke="#000000" stroke-width="2"/><path d="M335.42383,196.6852l-8.34601,-14.23355l6.32602,-3.70933l8.34602,14.23355z" data-paper-data="{&quot;index&quot;:null}" fill="#cccccc" stroke="#000000" stroke-width="2"/><path d="M306.88899,197.05752l0.05035,-18.99993l25.66658,0.068l-0.05035,18.99993z" fill="#cccccc" stroke="#000000" stroke-width="2"/><path d="M309.484,173.781c0.015,-5.6609 4.61622,-10.23781 10.27712,-10.22281c5.6609,0.015 10.23781,4.61622 10.22281,10.27712c-0.015,5.6609 -4.61622,10.23781 -10.27712,10.22281c-5.6609,-0.015 -10.23781,-4.61622 -10.22281,-10.27712z" fill="url(#color-3)" stroke="#000000" stroke-width="2"/></g></g></svg>