<svg version="1.1" xmlns="http://www.w3.org/2000/svg" xmlns:xlink="http://www.w3.org/1999/xlink" width="71.78658" height="91.74197" viewBox="0,0,71.78658,91.74197"><g transform="translate(-203.53892,-137.09203)"><g data-paper-data="{&quot;isPaintingLayer&quot;:true}" fill-rule="nonzero" stroke-linecap="round" stroke-linejoin="miter" stroke-miterlimit="10" stroke-dasharray="" stroke-dashoffset="0" style="mix-blend-mode: normal"><path d="M266.9423,204.5221c0.5852,0.7144 -0.8348,1.0356 -1.2807,1.5361c-1.1498,1.329 -2.3586,1.9746 -3.4514,3.0464c-0.491,0.489 0.2501,2.2891 -1.0887,1.6962c-5.3548,-2.3723 -10.1852,-5.8828 -15.5801,-8.1726c-1.7755,-0.9296 -4.8009,-0.7193 -6.6507,-3.2666c-0.3944,-0.5841 1.5475,-1.6952 1.7551,-3.7447c0.2282,-1.3825 0.5319,-2.8023 0.8813,-4.1802c0.304,-1.1579 -0.1666,-4.6723 1.3807,-4.5449c3.5443,0.5555 5.6037,4.2646 8.4809,6.2247c2.3504,1.5456 4.5731,3.1007 6.6887,4.8607c3.0631,2.0461 6.5391,3.719 8.8649,6.5449z" id="ID0.8758031786419451" fill="#bfbfbf" stroke="#000000" stroke-width="2"/><path d="M225.1835,194.3975c2.214,-1.5072 4.6165,-2.6935 7.0743,-3.7834c3.3232,-1.5366 6.3203,-4.6123 10.0315,-4.5366c1.5598,0.1856 0.632,3.4975 0.7845,4.6849c0.1692,1.4113 0.3512,2.8465 0.3361,4.2588c-0.1036,1.8583 0.9781,3.1247 0.3615,3.7392c-1.7491,1.95 -4.3479,1.908 -6.1186,2.5838c-5.5902,1.7352 -10.8865,4.4365 -16.502,6.1001c-1.4041,0.4157 -0.4375,-1.2741 -0.8615,-1.8222c-0.9458,-1.2035 -2.0615,-1.9993 -3.0307,-3.4652c-0.3778,-0.5537 -1.6972,-1.0211 -1.0724,-1.6881c2.4843,-2.6445 5.8484,-4.2865 8.9973,-6.0713z" id="ID0.8758031786419451" fill="#bfbfbf" stroke="#000000" stroke-width="2"/><path d="M208.5969,166.5811c-0.0517,-2.4586 0.6323,-5.1693 2.1821,-7.0713c1.3682,-1.6542 3.2994,-2.1658 4.9714,-2.9979c1.6424,-0.7998 4.0086,0.4605 5.7478,-0.2553c1.357,-0.638 2.7527,-3.3756 4.0239,-2.7388c0.8151,0.5212 0.5328,3.204 0.1485,5.0488c-0.263,1.0346 -2.7329,-0.1917 -2.9883,1.2288c-2.1863,5.4903 -1.9817,11.5876 -3.5345,17.2348c-0.3884,1.4118 -1.313,-0.3014 -2.0023,-0.2308c-1.5215,0.1676 -2.7865,0.6948 -4.5431,0.7437c-0.6697,0.0284 -1.6682,0.9221 -1.9999,0.0192c-1.2674,-3.4739 -1.929,-7.2718 -2.0056,-10.9812z" id="ID0.8758031786419451" fill="#645138" stroke="#000000" stroke-width="2"/><path d="M267.3975,178.0123c-0.3317,0.9029 -1.3302,0.0092 -1.9999,-0.0192c-1.7566,-0.0489 -3.0216,-0.5761 -4.5431,-0.7437c-0.6893,-0.0706 -1.6139,1.6426 -2.0023,0.2308c-1.5528,-5.6472 -1.3482,-11.7445 -3.5345,-17.2348c-0.2554,-1.4205 -2.1483,-0.6017 -2.9883,-1.2288c-1.7694,-1.323 -5.7413,-3.6413 -5.8118,-4.006c-0.0463,-0.3855 3.2974,1.0147 4.9882,1.248c1.9168,0.2384 3.8049,-0.2765 5.7502,0.0053c3.9145,0.8056 8.6618,0.5852 11.7195,3.2377c1.8853,1.6432 0.6277,5.0263 0.4276,7.5295c-0.2954,3.6863 -0.7382,7.5073 -2.0056,10.9812z" id="ID0.8758031786419451" fill="#645138" stroke="#000000" stroke-width="2"/><path d="M239.25,148.25c3.33,-0.019 6.635,0.457 9.75,1.5c3.33,1.116 9.29,1.381 9.75,5c0.913,7.221 -4.454,13.425 -6.25,20.25c-0.787,2.996 -1.512,5.795 -1.5,8.75c0.029,6.562 2.137,13.089 1.75,19c-0.115,1.744 -1.348,-2.793 -2.75,-3.75c-1.112,-0.716 -2.455,0.114 -4,0c-2.088,-0.031 -4.104,1.647 -6.25,1.5c-2.834,-0.196 -5.401,-1.974 -8,-3c-0.774,-0.303 -1.251,-1.852 -2,-1.5c-1.376,0.72 -2.342,4.649 -2.5,3.25c-0.842,-4.976 0.728,-10.458 0.5,-16c-0.121,-2.885 -1.061,-5.389 -1.75,-8.5c-1.562,-7.016 -6.061,-13.646 -5,-21c0.454,-3.138 5.792,-2.745 8.75,-3.75c3.152,-0.837 6.282,-1.726 9.5,-1.75z" id="ID0.733084324747324" fill="#6a00c0" stroke="#000000" stroke-width="2"/><path d="M258.9286,193.0803c-0.8421,-5.5488 -2.5802,-11.1147 -2.6083,-16.6235c-0.008,-1.3775 1.4476,-0.4298 2.4887,-0.4996c1.419,-0.0909 2.8598,-0.2086 4.2718,-0.0464c2.0262,0.2345 4.252,2.3161 6.315,1.4607c1.7647,-0.9141 2.2941,-6.478 2.8045,-5.623c0.3802,0.6949 -1.4422,6.1354 -1.2011,9.3042c0.4864,6.4605 2.683,13.1123 3.3263,19.9325c0.0533,1.4838 -1.3918,-0.2631 -1.7269,-0.7684c-1.2414,-1.8769 -0.742,-4.9566 -2.3222,-6.3637c-2.5157,-1.6246 -5.7459,-2.3734 -8.5374,-1.675c-1.2806,0.3515 0.4798,3.4841 -0.3493,4.8c-0.4269,0.5463 -1.8204,-0.1449 -2.2617,-0.7052c-0.5444,-0.9697 0.0088,-1.8238 -0.1994,-3.1926z" id="ID0.8758031786419451" fill="#bf0000" stroke="#000000" stroke-width="2"/><path d="M219.5427,193.0999c-0.4192,0.5769 -1.7849,1.3216 -2.2326,0.7922c-0.8794,-1.2828 0.7584,-4.4812 -0.5349,-4.7829c-2.8165,-0.5898 -6.0152,0.2835 -8.4662,2.0042c-1.5245,1.4672 -0.9062,4.5253 -2.0741,6.4489c-0.3153,0.5179 -1.6917,2.3194 -1.6959,0.8346c0.3789,-6.84 2.3163,-13.5718 2.5523,-20.0463c0.1182,-3.1758 -1.9133,-8.5417 -1.5604,-9.2507c0.477,-0.8741 1.2213,4.665 3.0201,5.5101c2.0945,0.775 4.2381,-1.3912 6.2537,-1.704c1.4047,-0.2166 2.849,-0.1549 4.2704,-0.119c1.0431,0.0295 2.4609,-0.9739 2.5062,0.4029c0.1851,5.5058 -1.3362,11.1348 -1.9629,16.7121c-0.1551,1.3758 0.4308,2.2078 -0.0757,3.1979z" id="ID0.8758031786419451" fill="#bf0000" stroke="#000000" stroke-width="2"/><path d="M222.5953,151.8028c2.2871,-2.6265 2.4866,-10.3853 2.5731,-10.2289c1.6015,0.3462 2.0698,7.7606 2.3027,11.5898c0.138,1.6192 0.4925,2.861 0.4958,4.9517c0.0289,2.3278 0.6515,4.9608 -0.162,6.9919c-0.8126,2.0307 -2.3196,3.6012 -4.3283,4.2273c-2.0087,0.626 -4.1411,0.1897 -5.9635,-1.0199c-1.8234,-1.2092 -2.6779,-3.8401 -4.1056,-5.6618c-1.2386,-1.7057 -2.9917,-1.6108 -4.0648,-2.792c-0.5942,-0.9251 -1.5234,-1.8129 -1.0154,-2.2498c1.5913,-1.7571 4.2073,-1.947 5.9887,-2.9662c1.3773,-0.7801 1.8032,-2.9491 3.3881,-3.4126c1.5052,-0.598 3.7378,1.8705 4.8912,0.5705z" id="ID0.8758031786419451" fill="#bf0000" stroke="#000000" stroke-width="2"/><path d="M268.937,204.8504c-0.9175,1.7029 -7.4014,5.2156 -10.89,8.0788c-2.0136,1.6532 -3.923,3.5642 -5.2832,5.7646c-1.5077,2.2736 -0.1429,7.0916 -1.1959,9.1402c-2.1835,0.0442 -4.4772,-3.642 -5.5598,-4.7373c-1.6133,-1.9384 -2.8721,-4.1943 -4.4711,-6.1073c-0.4711,-0.566 -1.8455,-0.9212 -1.3099,-1.8073c1.9983,-3.2109 5.6158,-5.6689 8.2494,-8.4528c1.2438,-1.2405 2.0622,-2.8701 3.2662,-4.1103c0.7531,-0.7887 1.6325,-1.8423 2.6493,-1.7266c1.5023,0.2729 1.5935,1.2126 2.3487,1.8663c1.6327,1.4302 2.6218,3.307 4.5098,3.6475c2.4776,0.5101 8.1781,-2.7209 7.6865,-1.5558z" id="ID0.8758031786419451" fill="#bf0000" stroke="#000000" stroke-width="2"/><path d="M221.464,203.2951c1.9132,0.1413 3.3394,-1.4293 5.2773,-2.4069c0.8944,-0.4446 1.2172,-1.3318 2.7401,-1.2212c1.0135,0.1417 1.6022,1.3814 2.1347,2.333c0.8564,1.5014 1.2424,3.2837 2.1372,4.7953c1.8557,3.353 4.7455,6.6359 5.8795,10.2438c0.2975,0.9918 -1.1221,0.9927 -1.7196,1.4233c-2.0257,1.4535 -3.8076,3.3239 -5.8535,4.7985c-1.3216,0.7905 -4.4625,3.7878 -6.5659,3.2002c-0.5086,-2.2466 2.0153,-6.5717 1.1225,-9.1495c-0.7682,-2.4702 -2.1403,-4.7972 -3.6777,-6.9005c-2.6638,-3.6431 -8.0661,-8.6626 -8.5298,-10.5405c-0.1853,-1.2509 4.5288,3.3002 7.0552,3.4245z" id="ID0.8758031786419451" fill="#bf0000" stroke="#000000" stroke-width="2"/><path d="M262.0959,151.3823c1.5849,0.4635 2.0108,2.6325 3.3881,3.4126c1.7814,1.0192 4.3974,1.2091 5.9887,2.9662c0.508,0.4369 -0.4212,1.3247 -1.0154,2.2498c-1.0731,1.1812 -2.8262,1.0863 -4.0648,2.792c-1.4277,1.8217 -2.2822,4.4526 -4.1056,5.6618c-1.8224,1.2096 -3.9548,1.6459 -5.9635,1.0199c-2.0087,-0.6261 -3.5157,-2.1966 -4.3283,-4.2273c-0.8135,-2.0311 -0.1909,-4.6641 -0.162,-6.9919c0.0033,-2.0907 0.3578,-3.3325 0.4958,-4.9517c0.2329,-3.8292 0.7012,-11.2436 2.3027,-11.5898c0.0865,-0.1564 0.286,7.6024 2.5731,10.2289c1.1534,1.3 3.386,-1.1685 4.8912,-0.5705z" id="ID0.8758031786419451" fill="#bf0000" stroke="#000000" stroke-width="2"/><path d="M232.25,156.75c-1.014,-1.084 -0.915,-4.345 -1,-4.4c-0.085,-0.064 -0.221,5.473 0,4.4c0.268,-2.84 0.128,-8.351 1,-12.4c0.294,-1.349 1.203,-2.573 2.235,-3.502c1.537,-1.395 3.265,-2.878 5.265,-2.748c2.074,-0.13 3.86,1.391 5.515,2.748c0.977,0.797 1.872,2.078 2.235,3.002c0.821,3.331 1.02,6.154 1.25,9.25c0.094,1.23 0.125,2.255 -0.25,3.15c-0.122,0.453 -0.612,0.126 -1,0.25c-1.542,0.492 -2.461,1.152 -3.75,1.5c-1.368,0.381 -2.78,0.93 -4.25,1c-1.456,-0.151 -2.764,-0.885 -4.25,-1.25c-1.013,-0.26 -1.94,0.014 -3,-1z" id="ID0.8758031786419451" fill="#bf0000" stroke="#000000" stroke-width="2"/><path d="M235.5,145.75l4.5,1.4l4.75,-1.4v2.75h-9.25z" id="ID0.5234519117511809" fill="#ff0000" stroke="none" stroke-width="1"/></g></g></svg>